0, 0, Header, 1, 2, 480
1, 0, Start_track
1, 0, Time_signature, 3, 2, 24, 8
1, 0, Key_signature, 0, "major"
1, 0, Key_signature, 0, "major"
1, 0, Key_signature, 0, "major"
1, 0, Tempo, 750002
1, 0, Control_c, 0, 121, 0
1, 0, Program_c, 0, 0
1, 0, Control_c, 0, 7, 100
1, 0, Control_c, 0, 10, 64
1, 0, Control_c, 0, 91, 0
1, 0, Control_c, 0, 93, 0
1, 0, MIDI_port, 0
1, 0, Note_on_c, 0, 64, 49
1, 227, Note_on_c, 0, 64, 0
1, 240, Note_on_c, 0, 60, 49
1, 467, Note_on_c, 0, 60, 0
1, 480, Note_on_c, 0, 64, 49
1, 707, Note_on_c, 0, 64, 0
1, 720, Note_on_c, 0, 60, 49
1, 947, Note_on_c, 0, 60, 0
1, 960, Note_on_c, 0, 64, 49
1, 1187, Note_on_c, 0, 64, 0
1, 1200, Note_on_c, 0, 60, 49
1, 1427, Note_on_c, 0, 60, 0
1, 1440, Note_on_c, 0, 64, 49
1, 1667, Note_on_c, 0, 64, 0
1, 1680, Note_on_c, 0, 60, 49
1, 1907, Note_on_c, 0, 60, 0
1, 1920, Note_on_c, 0, 64, 49
1, 2147, Note_on_c, 0, 64, 0
1, 2160, Note_on_c, 0, 60, 49
1, 2387, Note_on_c, 0, 60, 0
1, 2400, Note_on_c, 0, 64, 49
1, 2627, Note_on_c, 0, 64, 0
1, 2640, Note_on_c, 0, 60, 49
1, 2867, Note_on_c, 0, 60, 0
1, 2880, Time_signature, 3, 2, 24, 8
1, 2880, Tempo, 750002
1, 2880, Note_on_c, 0, 64, 49
1, 3107, Note_on_c, 0, 64, 0
1, 3120, Note_on_c, 0, 60, 49
1, 3347, Note_on_c, 0, 60, 0
1, 3360, Note_on_c, 0, 64, 49
1, 3587, Note_on_c, 0, 64, 0
1, 3600, Note_on_c, 0, 60, 49
1, 3827, Note_on_c, 0, 60, 0
1, 3840, Note_on_c, 0, 64, 49
1, 4067, Note_on_c, 0, 64, 0
1, 4080, Note_on_c, 0, 60, 49
1, 4307, Note_on_c, 0, 60, 0
1, 4320, Note_on_c, 0, 64, 49
1, 4547, Note_on_c, 0, 64, 0
1, 4560, Note_on_c, 0, 60, 49
1, 4787, Note_on_c, 0, 60, 0
1, 4800, Note_on_c, 0, 64, 49
1, 5027, Note_on_c, 0, 64, 0
1, 5040, Note_on_c, 0, 60, 49
1, 5267, Note_on_c, 0, 60, 0
1, 5280, Note_on_c, 0, 64, 49
1, 5507, Note_on_c, 0, 64, 0
1, 5520, Note_on_c, 0, 60, 49
1, 5747, Note_on_c, 0, 60, 0
1, 5760, Note_on_c, 0, 64, 49
1, 5760, Note_on_c, 0, 57, 49
1, 5760, Note_on_c, 0, 69, 49
1, 5987, Note_on_c, 0, 64, 0
1, 6000, Note_on_c, 0, 60, 49
1, 6227, Note_on_c, 0, 60, 0
1, 6240, Note_on_c, 0, 64, 49
1, 6467, Note_on_c, 0, 64, 0
1, 6480, Note_on_c, 0, 60, 49
1, 6707, Note_on_c, 0, 60, 0
1, 6720, Note_on_c, 0, 64, 49
1, 6947, Note_on_c, 0, 64, 0
1, 6960, Note_on_c, 0, 60, 49
1, 7127, Note_on_c, 0, 57, 0
1, 7127, Note_on_c, 0, 69, 0
1, 7187, Note_on_c, 0, 60, 0
1, 7200, Note_on_c, 0, 64, 49
1, 7200, Note_on_c, 0, 59, 49
1, 7200, Note_on_c, 0, 71, 49
1, 7427, Note_on_c, 0, 64, 0
1, 7440, Note_on_c, 0, 62, 49
1, 7667, Note_on_c, 0, 62, 0
1, 7680, Note_on_c, 0, 64, 49
1, 7907, Note_on_c, 0, 64, 0
1, 7920, Note_on_c, 0, 62, 49
1, 8147, Note_on_c, 0, 62, 0
1, 8160, Note_on_c, 0, 64, 49
1, 8387, Note_on_c, 0, 64, 0
1, 8400, Note_on_c, 0, 62, 49
1, 8567, Note_on_c, 0, 59, 0
1, 8567, Note_on_c, 0, 71, 0
1, 8627, Note_on_c, 0, 62, 0
1, 8640, Note_on_c, 0, 64, 64
1, 8867, Note_on_c, 0, 64, 0
1, 8880, Note_on_c, 0, 60, 64
1, 9107, Note_on_c, 0, 60, 0
1, 9120, Note_on_c, 0, 64, 64
1, 9347, Note_on_c, 0, 64, 0
1, 9360, Note_on_c, 0, 62, 64
1, 9587, Note_on_c, 0, 62, 0
1, 9600, Note_on_c, 0, 64, 64
1, 9827, Note_on_c, 0, 64, 0
1, 9840, Note_on_c, 0, 62, 64
1, 10067, Note_on_c, 0, 62, 0
1, 10080, Note_on_c, 0, 64, 64
1, 10307, Note_on_c, 0, 64, 0
1, 10320, Note_on_c, 0, 62, 64
1, 10547, Note_on_c, 0, 62, 0
1, 10560, Note_on_c, 0, 64, 64
1, 10787, Note_on_c, 0, 64, 0
1, 10800, Note_on_c, 0, 62, 64
1, 11027, Note_on_c, 0, 62, 0
1, 11040, Note_on_c, 0, 64, 64
1, 11267, Note_on_c, 0, 64, 0
1, 11280, Note_on_c, 0, 62, 64
1, 11507, Note_on_c, 0, 62, 0
1, 11520, Note_on_c, 0, 64, 64
1, 11747, Note_on_c, 0, 64, 0
1, 11760, Note_on_c, 0, 62, 64
1, 11987, Note_on_c, 0, 62, 0
1, 12000, Note_on_c, 0, 64, 64
1, 12227, Note_on_c, 0, 64, 0
1, 12240, Note_on_c, 0, 62, 64
1, 12467, Note_on_c, 0, 62, 0
1, 12480, Note_on_c, 0, 64, 64
1, 12707, Note_on_c, 0, 64, 0
1, 12720, Note_on_c, 0, 62, 64
1, 12947, Note_on_c, 0, 62, 0
1, 12960, Note_on_c, 0, 64, 64
1, 13187, Note_on_c, 0, 64, 0
1, 13200, Note_on_c, 0, 62, 64
1, 13427, Note_on_c, 0, 62, 0
1, 13440, Note_on_c, 0, 64, 64
1, 13667, Note_on_c, 0, 64, 0
1, 13680, Note_on_c, 0, 62, 64
1, 13907, Note_on_c, 0, 62, 0
1, 13920, Note_on_c, 0, 64, 64
1, 14147, Note_on_c, 0, 64, 0
1, 14160, Note_on_c, 0, 62, 64
1, 14387, Note_on_c, 0, 62, 0
1, 14400, Note_on_c, 0, 57, 49
1, 14400, Note_on_c, 0, 64, 49
1, 14400, Note_on_c, 0, 69, 49
1, 14855, Note_on_c, 0, 57, 0
1, 14855, Note_on_c, 0, 64, 0
1, 14855, Note_on_c, 0, 69, 0
1, 14880, Note_on_c, 0, 76, 49
1, 15791, Note_on_c, 0, 76, 0
1, 15840, Note_on_c, 0, 57, 49
1, 15840, Note_on_c, 0, 64, 49
1, 15840, Note_on_c, 0, 69, 49
1, 16295, Note_on_c, 0, 57, 0
1, 16295, Note_on_c, 0, 64, 0
1, 16295, Note_on_c, 0, 69, 0
1, 16320, Note_on_c, 0, 76, 49
1, 17231, Note_on_c, 0, 76, 0
1, 17280, Note_on_c, 0, 59, 49
1, 17280, Note_on_c, 0, 64, 49
1, 17280, Note_on_c, 0, 71, 49
1, 17735, Note_on_c, 0, 59, 0
1, 17735, Note_on_c, 0, 64, 0
1, 17735, Note_on_c, 0, 71, 0
1, 17760, Note_on_c, 0, 76, 49
1, 18671, Note_on_c, 0, 76, 0
1, 18720, Note_on_c, 0, 59, 49
1, 18720, Note_on_c, 0, 64, 49
1, 18720, Note_on_c, 0, 71, 49
1, 19175, Note_on_c, 0, 59, 0
1, 19175, Note_on_c, 0, 64, 0
1, 19175, Note_on_c, 0, 71, 0
1, 19200, Note_on_c, 0, 76, 49
1, 20111, Note_on_c, 0, 76, 0
1, 20160, Note_on_c, 0, 60, 49
1, 20160, Note_on_c, 0, 64, 49
1, 20160, Note_on_c, 0, 72, 49
1, 20615, Note_on_c, 0, 60, 0
1, 20615, Note_on_c, 0, 64, 0
1, 20615, Note_on_c, 0, 72, 0
1, 20640, Note_on_c, 0, 76, 49
1, 21551, Note_on_c, 0, 76, 0
1, 21600, Note_on_c, 0, 60, 49
1, 21600, Note_on_c, 0, 64, 49
1, 21600, Note_on_c, 0, 72, 49
1, 22055, Note_on_c, 0, 60, 0
1, 22055, Note_on_c, 0, 64, 0
1, 22055, Note_on_c, 0, 72, 0
1, 22080, Note_on_c, 0, 76, 49
1, 22991, Note_on_c, 0, 76, 0
1, 23040, Note_on_c, 0, 62, 49
1, 23040, Note_on_c, 0, 64, 49
1, 23040, Note_on_c, 0, 74, 49
1, 23495, Note_on_c, 0, 62, 0
1, 23495, Note_on_c, 0, 64, 0
1, 23495, Note_on_c, 0, 74, 0
1, 23520, Note_on_c, 0, 76, 49
1, 24431, Note_on_c, 0, 76, 0
1, 24480, Note_on_c, 0, 62, 49
1, 24480, Note_on_c, 0, 64, 49
1, 24480, Note_on_c, 0, 74, 49
1, 24935, Note_on_c, 0, 62, 0
1, 24935, Note_on_c, 0, 64, 0
1, 24935, Note_on_c, 0, 74, 0
1, 24960, Note_on_c, 0, 76, 54
1, 25415, Note_on_c, 0, 76, 0
1, 25440, Note_on_c, 0, 71, 59
1, 25895, Note_on_c, 0, 71, 0
1, 25920, Note_on_c, 0, 57, 64
1, 25920, Note_on_c, 0, 64, 64
1, 25920, Note_on_c, 0, 69, 64
1, 26375, Note_on_c, 0, 57, 0
1, 26375, Note_on_c, 0, 64, 0
1, 26375, Note_on_c, 0, 69, 0
1, 26400, Note_on_c, 0, 76, 64
1, 27311, Note_on_c, 0, 76, 0
1, 27360, Note_on_c, 0, 57, 64
1, 27360, Note_on_c, 0, 64, 64
1, 27360, Note_on_c, 0, 69, 64
1, 27815, Note_on_c, 0, 57, 0
1, 27815, Note_on_c, 0, 64, 0
1, 27815, Note_on_c, 0, 69, 0
1, 27840, Note_on_c, 0, 76, 64
1, 28751, Note_on_c, 0, 76, 0
1, 28800, Note_on_c, 0, 59, 64
1, 28800, Note_on_c, 0, 64, 64
1, 28800, Note_on_c, 0, 71, 64
1, 29255, Note_on_c, 0, 59, 0
1, 29255, Note_on_c, 0, 64, 0
1, 29255, Note_on_c, 0, 71, 0
1, 29280, Note_on_c, 0, 76, 64
1, 30191, Note_on_c, 0, 76, 0
1, 30240, Note_on_c, 0, 59, 64
1, 30240, Note_on_c, 0, 64, 64
1, 30240, Note_on_c, 0, 71, 64
1, 30695, Note_on_c, 0, 59, 0
1, 30695, Note_on_c, 0, 64, 0
1, 30695, Note_on_c, 0, 71, 0
1, 30720, Note_on_c, 0, 76, 64
1, 31631, Note_on_c, 0, 76, 0
1, 31680, Note_on_c, 0, 60, 64
1, 31680, Note_on_c, 0, 64, 64
1, 31680, Note_on_c, 0, 72, 64
1, 32135, Note_on_c, 0, 60, 0
1, 32135, Note_on_c, 0, 64, 0
1, 32135, Note_on_c, 0, 72, 0
1, 32160, Note_on_c, 0, 76, 64
1, 33071, Note_on_c, 0, 76, 0
1, 33120, Note_on_c, 0, 60, 64
1, 33120, Note_on_c, 0, 64, 64
1, 33120, Note_on_c, 0, 72, 64
1, 33575, Note_on_c, 0, 60, 0
1, 33575, Note_on_c, 0, 64, 0
1, 33575, Note_on_c, 0, 72, 0
1, 33600, Note_on_c, 0, 76, 64
1, 34511, Note_on_c, 0, 76, 0
1, 34560, Note_on_c, 0, 62, 64
1, 34560, Note_on_c, 0, 64, 64
1, 34560, Note_on_c, 0, 74, 64
1, 35015, Note_on_c, 0, 62, 0
1, 35015, Note_on_c, 0, 64, 0
1, 35015, Note_on_c, 0, 74, 0
1, 35040, Note_on_c, 0, 76, 64
1, 35951, Note_on_c, 0, 76, 0
1, 36000, Note_on_c, 0, 62, 64
1, 36000, Note_on_c, 0, 64, 64
1, 36000, Note_on_c, 0, 74, 64
1, 36455, Note_on_c, 0, 62, 0
1, 36455, Note_on_c, 0, 64, 0
1, 36455, Note_on_c, 0, 74, 0
1, 36480, Note_on_c, 0, 76, 69
1, 36935, Note_on_c, 0, 76, 0
1, 36960, Note_on_c, 0, 71, 74
1, 37415, Note_on_c, 0, 71, 0
1, 37440, Note_on_c, 0, 57, 80
1, 37440, Note_on_c, 0, 64, 80
1, 37440, Note_on_c, 0, 69, 80
1, 37895, Note_on_c, 0, 57, 0
1, 37895, Note_on_c, 0, 64, 0
1, 37895, Note_on_c, 0, 69, 0
1, 37920, Note_on_c, 0, 76, 80
1, 38375, Note_on_c, 0, 76, 0
1, 38400, Note_on_c, 0, 69, 80
1, 38855, Note_on_c, 0, 69, 0
1, 38880, Note_on_c, 0, 57, 80
1, 38880, Note_on_c, 0, 64, 80
1, 38880, Note_on_c, 0, 69, 80
1, 39335, Note_on_c, 0, 57, 0
1, 39335, Note_on_c, 0, 64, 0
1, 39335, Note_on_c, 0, 69, 0
1, 39360, Note_on_c, 0, 76, 80
1, 39815, Note_on_c, 0, 76, 0
1, 39840, Note_on_c, 0, 69, 80
1, 40295, Note_on_c, 0, 69, 0
1, 40320, Note_on_c, 0, 59, 80
1, 40320, Note_on_c, 0, 64, 80
1, 40320, Note_on_c, 0, 71, 80
1, 40775, Note_on_c, 0, 59, 0
1, 40775, Note_on_c, 0, 64, 0
1, 40775, Note_on_c, 0, 71, 0
1, 40800, Note_on_c, 0, 76, 80
1, 41255, Note_on_c, 0, 76, 0
1, 41280, Note_on_c, 0, 71, 80
1, 41735, Note_on_c, 0, 71, 0
1, 41760, Note_on_c, 0, 59, 80
1, 41760, Note_on_c, 0, 64, 80
1, 41760, Note_on_c, 0, 71, 80
1, 42215, Note_on_c, 0, 59, 0
1, 42215, Note_on_c, 0, 64, 0
1, 42215, Note_on_c, 0, 71, 0
1, 42240, Note_on_c, 0, 76, 80
1, 42695, Note_on_c, 0, 76, 0
1, 42720, Note_on_c, 0, 71, 80
1, 43175, Note_on_c, 0, 71, 0
1, 43200, Note_on_c, 0, 60, 80
1, 43200, Note_on_c, 0, 64, 80
1, 43200, Note_on_c, 0, 72, 80
1, 43655, Note_on_c, 0, 60, 0
1, 43655, Note_on_c, 0, 64, 0
1, 43655, Note_on_c, 0, 72, 0
1, 43680, Note_on_c, 0, 76, 80
1, 44135, Note_on_c, 0, 76, 0
1, 44160, Note_on_c, 0, 72, 80
1, 44615, Note_on_c, 0, 72, 0
1, 44640, Note_on_c, 0, 60, 80
1, 44640, Note_on_c, 0, 64, 80
1, 44640, Note_on_c, 0, 72, 80
1, 45095, Note_on_c, 0, 60, 0
1, 45095, Note_on_c, 0, 64, 0
1, 45095, Note_on_c, 0, 72, 0
1, 45120, Note_on_c, 0, 76, 80
1, 45575, Note_on_c, 0, 76, 0
1, 45600, Note_on_c, 0, 72, 80
1, 46055, Note_on_c, 0, 72, 0
1, 46080, Note_on_c, 0, 62, 80
1, 46080, Note_on_c, 0, 64, 80
1, 46080, Note_on_c, 0, 74, 80
1, 46535, Note_on_c, 0, 62, 0
1, 46535, Note_on_c, 0, 64, 0
1, 46535, Note_on_c, 0, 74, 0
1, 46560, Note_on_c, 0, 76, 80
1, 47015, Note_on_c, 0, 76, 0
1, 47040, Note_on_c, 0, 74, 80
1, 47495, Note_on_c, 0, 74, 0
1, 47520, Note_on_c, 0, 62, 80
1, 47520, Note_on_c, 0, 64, 80
1, 47520, Note_on_c, 0, 74, 80
1, 47975, Note_on_c, 0, 62, 0
1, 47975, Note_on_c, 0, 64, 0
1, 47975, Note_on_c, 0, 74, 0
1, 48000, Note_on_c, 0, 76, 85
1, 48455, Note_on_c, 0, 76, 0
1, 48480, Note_on_c, 0, 71, 90
1, 48935, Note_on_c, 0, 71, 0
1, 48960, Note_on_c, 0, 57, 96
1, 48960, Note_on_c, 0, 64, 96
1, 48960, Note_on_c, 0, 69, 96
1, 49415, Note_on_c, 0, 57, 0
1, 49415, Note_on_c, 0, 64, 0
1, 49415, Note_on_c, 0, 69, 0
1, 49440, Note_on_c, 0, 76, 96
1, 49895, Note_on_c, 0, 76, 0
1, 49920, Note_on_c, 0, 69, 96
1, 50375, Note_on_c, 0, 69, 0
1, 50400, Note_on_c, 0, 57, 96
1, 50400, Note_on_c, 0, 64, 96
1, 50400, Note_on_c, 0, 69, 96
1, 50855, Note_on_c, 0, 57, 0
1, 50855, Note_on_c, 0, 64, 0
1, 50855, Note_on_c, 0, 69, 0
1, 50880, Note_on_c, 0, 76, 96
1, 51335, Note_on_c, 0, 76, 0
1, 51360, Note_on_c, 0, 69, 96
1, 51815, Note_on_c, 0, 69, 0
1, 51840, Note_on_c, 0, 59, 96
1, 51840, Note_on_c, 0, 64, 96
1, 51840, Note_on_c, 0, 71, 96
1, 52295, Note_on_c, 0, 59, 0
1, 52295, Note_on_c, 0, 64, 0
1, 52295, Note_on_c, 0, 71, 0
1, 52320, Note_on_c, 0, 76, 96
1, 52775, Note_on_c, 0, 76, 0
1, 52800, Note_on_c, 0, 71, 96
1, 53255, Note_on_c, 0, 71, 0
1, 53280, Note_on_c, 0, 59, 96
1, 53280, Note_on_c, 0, 64, 96
1, 53280, Note_on_c, 0, 71, 96
1, 53735, Note_on_c, 0, 59, 0
1, 53735, Note_on_c, 0, 64, 0
1, 53735, Note_on_c, 0, 71, 0
1, 53760, Note_on_c, 0, 76, 96
1, 54215, Note_on_c, 0, 76, 0
1, 54240, Note_on_c, 0, 71, 96
1, 54695, Note_on_c, 0, 71, 0
1, 54720, Note_on_c, 0, 60, 96
1, 54720, Note_on_c, 0, 64, 96
1, 54720, Note_on_c, 0, 72, 96
1, 55175, Note_on_c, 0, 60, 0
1, 55175, Note_on_c, 0, 64, 0
1, 55175, Note_on_c, 0, 72, 0
1, 55200, Note_on_c, 0, 76, 96
1, 55655, Note_on_c, 0, 76, 0
1, 55680, Note_on_c, 0, 72, 96
1, 56135, Note_on_c, 0, 72, 0
1, 56160, Note_on_c, 0, 60, 96
1, 56160, Note_on_c, 0, 64, 96
1, 56160, Note_on_c, 0, 72, 96
1, 56615, Note_on_c, 0, 60, 0
1, 56615, Note_on_c, 0, 64, 0
1, 56615, Note_on_c, 0, 72, 0
1, 56640, Note_on_c, 0, 76, 96
1, 57095, Note_on_c, 0, 76, 0
1, 57120, Note_on_c, 0, 72, 96
1, 57575, Note_on_c, 0, 72, 0
1, 57600, Note_on_c, 0, 62, 96
1, 57600, Note_on_c, 0, 64, 96
1, 57600, Note_on_c, 0, 74, 96
1, 58055, Note_on_c, 0, 62, 0
1, 58055, Note_on_c, 0, 64, 0
1, 58055, Note_on_c, 0, 74, 0
1, 58080, Note_on_c, 0, 76, 96
1, 58535, Note_on_c, 0, 76, 0
1, 58560, Note_on_c, 0, 74, 96
1, 59015, Note_on_c, 0, 74, 0
1, 59040, Note_on_c, 0, 62, 96
1, 59040, Note_on_c, 0, 64, 96
1, 59040, Note_on_c, 0, 74, 96
1, 59495, Note_on_c, 0, 62, 0
1, 59495, Note_on_c, 0, 64, 0
1, 59495, Note_on_c, 0, 74, 0
1, 59520, Note_on_c, 0, 76, 96
1, 59975, Note_on_c, 0, 76, 0
1, 60000, Note_on_c, 0, 71, 96
1, 60455, Note_on_c, 0, 71, 0
1, 60480, Note_on_c, 0, 76, 80
1, 60480, Note_on_c, 0, 64, 80
1, 60935, Note_on_c, 0, 64, 0
1, 60960, Note_on_c, 0, 64, 80
1, 61415, Note_on_c, 0, 64, 0
1, 61440, Note_on_c, 0, 64, 80
1, 61895, Note_on_c, 0, 64, 0
1, 61920, Note_on_c, 0, 64, 80
1, 62375, Note_on_c, 0, 64, 0
1, 62400, Note_on_c, 0, 64, 80
1, 62855, Note_on_c, 0, 64, 0
1, 62880, Note_on_c, 0, 64, 80
1, 63215, Note_on_c, 0, 76, 0
1, 63335, Note_on_c, 0, 64, 0
1, 63360, Note_on_c, 0, 72, 64
1, 63435, Note_on_c, 0, 72, 0
1, 63440, Note_on_c, 0, 69, 64
1, 63515, Note_on_c, 0, 69, 0
1, 63520, Note_on_c, 0, 64, 64
1, 63595, Note_on_c, 0, 64, 0
1, 63600, Note_on_c, 0, 72, 64
1, 63675, Note_on_c, 0, 72, 0
1, 63680, Note_on_c, 0, 69, 64
1, 63755, Note_on_c, 0, 69, 0
1, 63760, Note_on_c, 0, 64, 64
1, 63835, Note_on_c, 0, 64, 0
1, 63840, Note_on_c, 0, 72, 64
1, 63915, Note_on_c, 0, 72, 0
1, 63920, Note_on_c, 0, 69, 64
1, 63995, Note_on_c, 0, 69, 0
1, 64000, Note_on_c, 0, 64, 64
1, 64075, Note_on_c, 0, 64, 0
1, 64080, Note_on_c, 0, 72, 64
1, 64155, Note_on_c, 0, 72, 0
1, 64160, Note_on_c, 0, 69, 64
1, 64235, Note_on_c, 0, 69, 0
1, 64240, Note_on_c, 0, 64, 64
1, 64315, Note_on_c, 0, 64, 0
1, 64320, Note_on_c, 0, 74, 64
1, 64395, Note_on_c, 0, 74, 0
1, 64400, Note_on_c, 0, 69, 64
1, 64475, Note_on_c, 0, 69, 0
1, 64480, Note_on_c, 0, 64, 64
1, 64555, Note_on_c, 0, 64, 0
1, 64560, Note_on_c, 0, 72, 64
1, 64635, Note_on_c, 0, 72, 0
1, 64640, Note_on_c, 0, 69, 64
1, 64715, Note_on_c, 0, 69, 0
1, 64720, Note_on_c, 0, 64, 64
1, 64795, Note_on_c, 0, 64, 0
1, 64800, Note_on_c, 0, 74, 64
1, 64875, Note_on_c, 0, 74, 0
1, 64880, Note_on_c, 0, 69, 64
1, 64955, Note_on_c, 0, 69, 0
1, 64960, Note_on_c, 0, 64, 64
1, 65035, Note_on_c, 0, 64, 0
1, 65040, Note_on_c, 0, 74, 64
1, 65115, Note_on_c, 0, 74, 0
1, 65120, Note_on_c, 0, 69, 64
1, 65195, Note_on_c, 0, 69, 0
1, 65200, Note_on_c, 0, 64, 64
1, 65275, Note_on_c, 0, 64, 0
1, 65280, Note_on_c, 0, 74, 64
1, 65355, Note_on_c, 0, 74, 0
1, 65360, Note_on_c, 0, 69, 64
1, 65435, Note_on_c, 0, 69, 0
1, 65440, Note_on_c, 0, 64, 64
1, 65515, Note_on_c, 0, 64, 0
1, 65520, Note_on_c, 0, 74, 64
1, 65595, Note_on_c, 0, 74, 0
1, 65600, Note_on_c, 0, 69, 64
1, 65675, Note_on_c, 0, 69, 0
1, 65680, Note_on_c, 0, 64, 64
1, 65755, Note_on_c, 0, 64, 0
1, 65760, Note_on_c, 0, 74, 64
1, 65835, Note_on_c, 0, 74, 0
1, 65840, Note_on_c, 0, 69, 64
1, 65915, Note_on_c, 0, 69, 0
1, 65920, Note_on_c, 0, 64, 64
1, 65995, Note_on_c, 0, 64, 0
1, 66000, Note_on_c, 0, 74, 64
1, 66075, Note_on_c, 0, 74, 0
1, 66080, Note_on_c, 0, 69, 64
1, 66155, Note_on_c, 0, 69, 0
1, 66160, Note_on_c, 0, 64, 64
1, 66235, Note_on_c, 0, 64, 0
1, 66240, Note_on_c, 0, 77, 64
1, 66315, Note_on_c, 0, 77, 0
1, 66320, Note_on_c, 0, 72, 64
1, 66395, Note_on_c, 0, 72, 0
1, 66400, Note_on_c, 0, 69, 64
1, 66475, Note_on_c, 0, 69, 0
1, 66480, Note_on_c, 0, 77, 64
1, 66555, Note_on_c, 0, 77, 0
1, 66560, Note_on_c, 0, 72, 64
1, 66635, Note_on_c, 0, 72, 0
1, 66640, Note_on_c, 0, 69, 64
1, 66715, Note_on_c, 0, 69, 0
1, 66720, Note_on_c, 0, 77, 64
1, 66795, Note_on_c, 0, 77, 0
1, 66800, Note_on_c, 0, 72, 64
1, 66875, Note_on_c, 0, 72, 0
1, 66880, Note_on_c, 0, 69, 64
1, 66955, Note_on_c, 0, 69, 0
1, 66960, Note_on_c, 0, 79, 64
1, 67035, Note_on_c, 0, 79, 0
1, 67040, Note_on_c, 0, 72, 64
1, 67115, Note_on_c, 0, 72, 0
1, 67120, Note_on_c, 0, 69, 64
1, 67195, Note_on_c, 0, 69, 0
1, 67200, Note_on_c, 0, 79, 64
1, 67275, Note_on_c, 0, 79, 0
1, 67280, Note_on_c, 0, 72, 64
1, 67355, Note_on_c, 0, 72, 0
1, 67360, Note_on_c, 0, 69, 64
1, 67435, Note_on_c, 0, 69, 0
1, 67440, Note_on_c, 0, 79, 64
1, 67515, Note_on_c, 0, 79, 0
1, 67520, Note_on_c, 0, 72, 64
1, 67595, Note_on_c, 0, 72, 0
1, 67600, Note_on_c, 0, 69, 64
1, 67675, Note_on_c, 0, 69, 0
1, 67680, Note_on_c, 0, 83, 64
1, 67755, Note_on_c, 0, 83, 0
1, 67760, Note_on_c, 0, 79, 64
1, 67835, Note_on_c, 0, 79, 0
1, 67840, Note_on_c, 0, 76, 64
1, 67915, Note_on_c, 0, 76, 0
1, 67920, Note_on_c, 0, 83, 64
1, 67995, Note_on_c, 0, 83, 0
1, 68000, Note_on_c, 0, 79, 64
1, 68075, Note_on_c, 0, 79, 0
1, 68080, Note_on_c, 0, 76, 64
1, 68155, Note_on_c, 0, 76, 0
1, 68160, Note_on_c, 0, 83, 64
1, 68235, Note_on_c, 0, 83, 0
1, 68240, Note_on_c, 0, 79, 64
1, 68315, Note_on_c, 0, 79, 0
1, 68320, Note_on_c, 0, 76, 64
1, 68395, Note_on_c, 0, 76, 0
1, 68400, Note_on_c, 0, 83, 64
1, 68475, Note_on_c, 0, 83, 0
1, 68480, Note_on_c, 0, 79, 64
1, 68555, Note_on_c, 0, 79, 0
1, 68560, Note_on_c, 0, 76, 64
1, 68635, Note_on_c, 0, 76, 0
1, 68640, Note_on_c, 0, 83, 64
1, 68715, Note_on_c, 0, 83, 0
1, 68720, Note_on_c, 0, 79, 64
1, 68795, Note_on_c, 0, 79, 0
1, 68800, Note_on_c, 0, 76, 64
1, 68875, Note_on_c, 0, 76, 0
1, 68880, Note_on_c, 0, 83, 64
1, 68955, Note_on_c, 0, 83, 0
1, 68960, Note_on_c, 0, 79, 64
1, 69035, Note_on_c, 0, 79, 0
1, 69040, Note_on_c, 0, 76, 64
1, 69115, Note_on_c, 0, 76, 0
1, 69120, Note_on_c, 0, 84, 64
1, 69195, Note_on_c, 0, 84, 0
1, 69200, Note_on_c, 0, 79, 64
1, 69275, Note_on_c, 0, 79, 0
1, 69280, Note_on_c, 0, 76, 64
1, 69355, Note_on_c, 0, 76, 0
1, 69360, Note_on_c, 0, 84, 64
1, 69435, Note_on_c, 0, 84, 0
1, 69440, Note_on_c, 0, 79, 64
1, 69515, Note_on_c, 0, 79, 0
1, 69520, Note_on_c, 0, 76, 64
1, 69595, Note_on_c, 0, 76, 0
1, 69600, Note_on_c, 0, 84, 64
1, 69675, Note_on_c, 0, 84, 0
1, 69680, Note_on_c, 0, 79, 64
1, 69755, Note_on_c, 0, 79, 0
1, 69760, Note_on_c, 0, 76, 64
1, 69835, Note_on_c, 0, 76, 0
1, 69840, Note_on_c, 0, 84, 64
1, 69915, Note_on_c, 0, 84, 0
1, 69920, Note_on_c, 0, 79, 64
1, 69995, Note_on_c, 0, 79, 0
1, 70000, Note_on_c, 0, 76, 64
1, 70075, Note_on_c, 0, 76, 0
1, 70080, Note_on_c, 0, 84, 64
1, 70155, Note_on_c, 0, 84, 0
1, 70160, Note_on_c, 0, 79, 64
1, 70235, Note_on_c, 0, 79, 0
1, 70240, Note_on_c, 0, 76, 64
1, 70315, Note_on_c, 0, 76, 0
1, 70320, Note_on_c, 0, 84, 64
1, 70395, Note_on_c, 0, 84, 0
1, 70400, Note_on_c, 0, 79, 64
1, 70475, Note_on_c, 0, 79, 0
1, 70480, Note_on_c, 0, 76, 64
1, 70555, Note_on_c, 0, 76, 0
1, 70560, Note_on_c, 0, 86, 64
1, 70635, Note_on_c, 0, 86, 0
1, 70640, Note_on_c, 0, 79, 64
1, 70715, Note_on_c, 0, 79, 0
1, 70720, Note_on_c, 0, 76, 64
1, 70795, Note_on_c, 0, 76, 0
1, 70800, Note_on_c, 0, 86, 64
1, 70875, Note_on_c, 0, 86, 0
1, 70880, Note_on_c, 0, 79, 64
1, 70955, Note_on_c, 0, 79, 0
1, 70960, Note_on_c, 0, 76, 64
1, 71035, Note_on_c, 0, 76, 0
1, 71040, Note_on_c, 0, 86, 64
1, 71115, Note_on_c, 0, 86, 0
1, 71120, Note_on_c, 0, 79, 64
1, 71195, Note_on_c, 0, 79, 0
1, 71200, Note_on_c, 0, 76, 64
1, 71275, Note_on_c, 0, 76, 0
1, 71280, Note_on_c, 0, 86, 64
1, 71355, Note_on_c, 0, 86, 0
1, 71360, Note_on_c, 0, 79, 64
1, 71435, Note_on_c, 0, 79, 0
1, 71440, Note_on_c, 0, 76, 64
1, 71515, Note_on_c, 0, 76, 0
1, 71520, Note_on_c, 0, 86, 64
1, 71595, Note_on_c, 0, 86, 0
1, 71600, Note_on_c, 0, 79, 64
1, 71675, Note_on_c, 0, 79, 0
1, 71680, Note_on_c, 0, 76, 64
1, 71755, Note_on_c, 0, 76, 0
1, 71760, Note_on_c, 0, 86, 64
1, 71835, Note_on_c, 0, 86, 0
1, 71840, Note_on_c, 0, 79, 64
1, 71915, Note_on_c, 0, 79, 0
1, 71920, Note_on_c, 0, 76, 64
1, 71995, Note_on_c, 0, 76, 0
1, 72000, Note_on_c, 0, 76, 64
1, 72000, Note_on_c, 0, 64, 64
1, 72911, Note_on_c, 0, 64, 0
1, 72960, Note_on_c, 0, 64, 64
1, 73415, Note_on_c, 0, 64, 0
1, 73440, Note_on_c, 0, 64, 64
1, 73895, Note_on_c, 0, 64, 0
1, 73920, Note_on_c, 0, 64, 64
1, 74375, Note_on_c, 0, 64, 0
1, 74400, Tempo, 645161
1, 74400, Note_on_c, 0, 64, 76
1, 74720, Note_on_c, 0, 64, 0
1, 74735, Note_on_c, 0, 76, 0
1, 74880, Note_on_c, 0, 69, 64
1, 76247, Note_on_c, 0, 69, 0
1, 76320, Note_on_c, 0, 71, 64
1, 79055, Note_on_c, 0, 71, 0
1, 79200, Note_on_c, 0, 69, 64
1, 79655, Note_on_c, 0, 69, 0
1, 79680, Note_on_c, 0, 71, 64
1, 80135, Note_on_c, 0, 71, 0
1, 80160, Note_on_c, 0, 72, 64
1, 80615, Note_on_c, 0, 72, 0
1, 80640, Note_on_c, 0, 71, 64
1, 81095, Note_on_c, 0, 71, 0
1, 81120, Note_on_c, 0, 69, 64
1, 81575, Note_on_c, 0, 69, 0
1, 81600, Note_on_c, 0, 71, 64
1, 82055, Note_on_c, 0, 71, 0
1, 82080, Note_on_c, 0, 72, 64
1, 83447, Note_on_c, 0, 72, 0
1, 83520, Note_on_c, 0, 71, 64
1, 86255, Note_on_c, 0, 71, 0
1, 86400, Note_on_c, 0, 69, 64
1, 87311, Note_on_c, 0, 69, 0
1, 87360, Note_on_c, 0, 76, 64
1, 87815, Note_on_c, 0, 76, 0
1, 87840, Note_on_c, 0, 72, 64
1, 89207, Note_on_c, 0, 72, 0
1, 89280, Note_on_c, 0, 71, 64
1, 92015, Note_on_c, 0, 71, 0
1, 92160, Note_on_c, 0, 69, 64
1, 92615, Note_on_c, 0, 69, 0
1, 92640, Note_on_c, 0, 76, 64
1, 93095, Note_on_c, 0, 76, 0
1, 93120, Note_on_c, 0, 72, 64
1, 93575, Note_on_c, 0, 72, 0
1, 93600, Note_on_c, 0, 71, 64
1, 94055, Note_on_c, 0, 71, 0
1, 94080, Note_on_c, 0, 69, 64
1, 94535, Note_on_c, 0, 69, 0
1, 94560, Note_on_c, 0, 71, 64
1, 95015, Note_on_c, 0, 71, 0
1, 95040, Note_on_c, 0, 72, 64
1, 96407, Note_on_c, 0, 72, 0
1, 96480, Note_on_c, 0, 71, 64
1, 99215, Note_on_c, 0, 71, 0
1, 99360, Note_on_c, 0, 69, 64
1, 100271, Note_on_c, 0, 69, 0
1, 100320, Note_on_c, 0, 76, 64
1, 100775, Note_on_c, 0, 76, 0
1, 100800, Note_on_c, 0, 72, 64
1, 102167, Note_on_c, 0, 72, 0
1, 102240, Note_on_c, 0, 71, 64
1, 104975, Note_on_c, 0, 71, 0
1, 105120, Note_on_c, 0, 69, 64
1, 105575, Note_on_c, 0, 69, 0
1, 105600, Note_on_c, 0, 76, 64
1, 106055, Note_on_c, 0, 76, 0
1, 106080, Note_on_c, 0, 72, 64
1, 106535, Note_on_c, 0, 72, 0
1, 106560, Note_on_c, 0, 71, 64
1, 107015, Note_on_c, 0, 71, 0
1, 107040, Note_on_c, 0, 69, 64
1, 107495, Note_on_c, 0, 69, 0
1, 107520, Note_on_c, 0, 71, 64
1, 107975, Note_on_c, 0, 71, 0
1, 108000, Note_on_c, 0, 72, 64
1, 109367, Note_on_c, 0, 72, 0
1, 109440, Note_on_c, 0, 74, 64
1, 110807, Note_on_c, 0, 74, 0
1, 110880, Note_on_c, 0, 76, 64
1, 112247, Note_on_c, 0, 76, 0
1, 112320, Note_on_c, 0, 69, 80
1, 112547, Note_on_c, 0, 69, 0
1, 112560, Note_on_c, 0, 71, 80
1, 112787, Note_on_c, 0, 71, 0
1, 112800, Note_on_c, 0, 72, 80
1, 113027, Note_on_c, 0, 72, 0
1, 113040, Note_on_c, 0, 71, 80
1, 113267, Note_on_c, 0, 71, 0
1, 113280, Note_on_c, 0, 69, 80
1, 113507, Note_on_c, 0, 69, 0
1, 113520, Note_on_c, 0, 72, 80
1, 113747, Note_on_c, 0, 72, 0
1, 113760, Note_on_c, 0, 71, 80
1, 113987, Note_on_c, 0, 71, 0
1, 114000, Note_on_c, 0, 69, 80
1, 114227, Note_on_c, 0, 69, 0
1, 114240, Note_on_c, 0, 67, 80
1, 114467, Note_on_c, 0, 67, 0
1, 114480, Note_on_c, 0, 69, 80
1, 114707, Note_on_c, 0, 69, 0
1, 114720, Note_on_c, 0, 71, 80
1, 114947, Note_on_c, 0, 71, 0
1, 114960, Note_on_c, 0, 67, 80
1, 115187, Note_on_c, 0, 67, 0
1, 115200, Note_on_c, 0, 71, 80
1, 115427, Note_on_c, 0, 71, 0
1, 115440, Note_on_c, 0, 69, 80
1, 115667, Note_on_c, 0, 69, 0
1, 115680, Note_on_c, 0, 67, 80
1, 115907, Note_on_c, 0, 67, 0
1, 115920, Note_on_c, 0, 76, 80
1, 116147, Note_on_c, 0, 76, 0
1, 116160, Note_on_c, 0, 71, 80
1, 116387, Note_on_c, 0, 71, 0
1, 116400, Note_on_c, 0, 67, 80
1, 116627, Note_on_c, 0, 67, 0
1, 116640, Note_on_c, 0, 69, 80
1, 116867, Note_on_c, 0, 69, 0
1, 116880, Note_on_c, 0, 72, 80
1, 117107, Note_on_c, 0, 72, 0
1, 117120, Note_on_c, 0, 71, 80
1, 117347, Note_on_c, 0, 71, 0
1, 117360, Note_on_c, 0, 74, 80
1, 117587, Note_on_c, 0, 74, 0
1, 117600, Note_on_c, 0, 72, 80
1, 117827, Note_on_c, 0, 72, 0
1, 117840, Note_on_c, 0, 76, 80
1, 118067, Note_on_c, 0, 76, 0
1, 118080, Note_on_c, 0, 71, 80
1, 118307, Note_on_c, 0, 71, 0
1, 118320, Note_on_c, 0, 76, 80
1, 118547, Note_on_c, 0, 76, 0
1, 118560, Note_on_c, 0, 69, 80
1, 118787, Note_on_c, 0, 69, 0
1, 118800, Note_on_c, 0, 72, 80
1, 119027, Note_on_c, 0, 72, 0
1, 119040, Note_on_c, 0, 71, 80
1, 119267, Note_on_c, 0, 71, 0
1, 119280, Note_on_c, 0, 67, 80
1, 119507, Note_on_c, 0, 67, 0
1, 119520, Note_on_c, 0, 72, 80
1, 119747, Note_on_c, 0, 72, 0
1, 119760, Note_on_c, 0, 74, 80
1, 119987, Note_on_c, 0, 74, 0
1, 120000, Note_on_c, 0, 72, 80
1, 120227, Note_on_c, 0, 72, 0
1, 120240, Note_on_c, 0, 71, 80
1, 120467, Note_on_c, 0, 71, 0
1, 120480, Note_on_c, 0, 69, 80
1, 120707, Note_on_c, 0, 69, 0
1, 120720, Note_on_c, 0, 72, 80
1, 120947, Note_on_c, 0, 72, 0
1, 120960, Note_on_c, 0, 71, 80
1, 121187, Note_on_c, 0, 71, 0
1, 121200, Note_on_c, 0, 69, 80
1, 121427, Note_on_c, 0, 69, 0
1, 121440, Note_on_c, 0, 67, 80
1, 121667, Note_on_c, 0, 67, 0
1, 121680, Note_on_c, 0, 69, 80
1, 121907, Note_on_c, 0, 69, 0
1, 121920, Note_on_c, 0, 71, 80
1, 122147, Note_on_c, 0, 71, 0
1, 122160, Note_on_c, 0, 67, 80
1, 122387, Note_on_c, 0, 67, 0
1, 122400, Note_on_c, 0, 71, 80
1, 122627, Note_on_c, 0, 71, 0
1, 122640, Note_on_c, 0, 69, 80
1, 122867, Note_on_c, 0, 69, 0
1, 122880, Note_on_c, 0, 67, 80
1, 123107, Note_on_c, 0, 67, 0
1, 123120, Note_on_c, 0, 76, 80
1, 123347, Note_on_c, 0, 76, 0
1, 123360, Note_on_c, 0, 71, 80
1, 123587, Note_on_c, 0, 71, 0
1, 123600, Note_on_c, 0, 67, 80
1, 123827, Note_on_c, 0, 67, 0
1, 123840, Note_on_c, 0, 69, 80
1, 124067, Note_on_c, 0, 69, 0
1, 124080, Note_on_c, 0, 71, 80
1, 124307, Note_on_c, 0, 71, 0
1, 124320, Note_on_c, 0, 72, 80
1, 124547, Note_on_c, 0, 72, 0
1, 124560, Note_on_c, 0, 71, 80
1, 124787, Note_on_c, 0, 71, 0
1, 124800, Note_on_c, 0, 69, 80
1, 125027, Note_on_c, 0, 69, 0
1, 125040, Note_on_c, 0, 72, 80
1, 125267, Note_on_c, 0, 72, 0
1, 125280, Note_on_c, 0, 71, 80
1, 125507, Note_on_c, 0, 71, 0
1, 125520, Note_on_c, 0, 69, 80
1, 125747, Note_on_c, 0, 69, 0
1, 125760, Note_on_c, 0, 67, 80
1, 125987, Note_on_c, 0, 67, 0
1, 126000, Note_on_c, 0, 69, 80
1, 126227, Note_on_c, 0, 69, 0
1, 126240, Note_on_c, 0, 71, 80
1, 126467, Note_on_c, 0, 71, 0
1, 126480, Note_on_c, 0, 67, 80
1, 126707, Note_on_c, 0, 67, 0
1, 126720, Note_on_c, 0, 71, 80
1, 126947, Note_on_c, 0, 71, 0
1, 126960, Note_on_c, 0, 69, 80
1, 127187, Note_on_c, 0, 69, 0
1, 127200, Note_on_c, 0, 67, 80
1, 127427, Note_on_c, 0, 67, 0
1, 127440, Note_on_c, 0, 76, 80
1, 127667, Note_on_c, 0, 76, 0
1, 127680, Note_on_c, 0, 71, 80
1, 127907, Note_on_c, 0, 71, 0
1, 127920, Note_on_c, 0, 67, 80
1, 128147, Note_on_c, 0, 67, 0
1, 128160, Note_on_c, 0, 69, 80
1, 128387, Note_on_c, 0, 69, 0
1, 128400, Note_on_c, 0, 72, 80
1, 128627, Note_on_c, 0, 72, 0
1, 128640, Note_on_c, 0, 71, 80
1, 128867, Note_on_c, 0, 71, 0
1, 128880, Note_on_c, 0, 74, 80
1, 129107, Note_on_c, 0, 74, 0
1, 129120, Note_on_c, 0, 72, 80
1, 129347, Note_on_c, 0, 72, 0
1, 129360, Note_on_c, 0, 76, 80
1, 129587, Note_on_c, 0, 76, 0
1, 129600, Note_on_c, 0, 71, 80
1, 129827, Note_on_c, 0, 71, 0
1, 129840, Note_on_c, 0, 76, 80
1, 130067, Note_on_c, 0, 76, 0
1, 130080, Note_on_c, 0, 69, 80
1, 130307, Note_on_c, 0, 69, 0
1, 130320, Note_on_c, 0, 72, 80
1, 130547, Note_on_c, 0, 72, 0
1, 130560, Note_on_c, 0, 71, 80
1, 130787, Note_on_c, 0, 71, 0
1, 130800, Note_on_c, 0, 67, 80
1, 131027, Note_on_c, 0, 67, 0
1, 131040, Note_on_c, 0, 72, 80
1, 131267, Note_on_c, 0, 72, 0
1, 131280, Note_on_c, 0, 74, 80
1, 131507, Note_on_c, 0, 74, 0
1, 131520, Note_on_c, 0, 72, 80
1, 131747, Note_on_c, 0, 72, 0
1, 131760, Note_on_c, 0, 71, 80
1, 131987, Note_on_c, 0, 71, 0
1, 132000, Note_on_c, 0, 69, 80
1, 132227, Note_on_c, 0, 69, 0
1, 132240, Note_on_c, 0, 72, 80
1, 132467, Note_on_c, 0, 72, 0
1, 132480, Note_on_c, 0, 71, 80
1, 132707, Note_on_c, 0, 71, 0
1, 132720, Note_on_c, 0, 69, 80
1, 132947, Note_on_c, 0, 69, 0
1, 132960, Note_on_c, 0, 67, 80
1, 133187, Note_on_c, 0, 67, 0
1, 133200, Note_on_c, 0, 69, 80
1, 133427, Note_on_c, 0, 69, 0
1, 133440, Note_on_c, 0, 71, 80
1, 133667, Note_on_c, 0, 71, 0
1, 133680, Note_on_c, 0, 67, 80
1, 133907, Note_on_c, 0, 67, 0
1, 133920, Note_on_c, 0, 71, 80
1, 134147, Note_on_c, 0, 71, 0
1, 134160, Note_on_c, 0, 69, 80
1, 134387, Note_on_c, 0, 69, 0
1, 134400, Note_on_c, 0, 67, 80
1, 134627, Note_on_c, 0, 67, 0
1, 134640, Note_on_c, 0, 76, 80
1, 134867, Note_on_c, 0, 76, 0
1, 134880, Note_on_c, 0, 71, 80
1, 135107, Note_on_c, 0, 71, 0
1, 135120, Note_on_c, 0, 67, 80
1, 135347, Note_on_c, 0, 67, 0
1, 135360, Note_on_c, 0, 69, 80
1, 135473, Note_on_c, 0, 69, 0
1, 135480, Note_on_c, 0, 64, 80
1, 135593, Note_on_c, 0, 64, 0
1, 135600, Note_on_c, 0, 71, 80
1, 135713, Note_on_c, 0, 71, 0
1, 135720, Note_on_c, 0, 64, 80
1, 135833, Note_on_c, 0, 64, 0
1, 135840, Note_on_c, 0, 72, 80
1, 135953, Note_on_c, 0, 72, 0
1, 135960, Note_on_c, 0, 64, 80
1, 136073, Note_on_c, 0, 64, 0
1, 136080, Note_on_c, 0, 71, 80
1, 136193, Note_on_c, 0, 71, 0
1, 136200, Note_on_c, 0, 64, 80
1, 136313, Note_on_c, 0, 64, 0
1, 136320, Note_on_c, 0, 69, 80
1, 136433, Note_on_c, 0, 69, 0
1, 136440, Note_on_c, 0, 64, 80
1, 136553, Note_on_c, 0, 64, 0
1, 136560, Note_on_c, 0, 72, 80
1, 136673, Note_on_c, 0, 72, 0
1, 136680, Note_on_c, 0, 64, 80
1, 136793, Note_on_c, 0, 64, 0
1, 136800, Note_on_c, 0, 71, 80
1, 136913, Note_on_c, 0, 71, 0
1, 136920, Note_on_c, 0, 64, 80
1, 137033, Note_on_c, 0, 64, 0
1, 137040, Note_on_c, 0, 69, 80
1, 137153, Note_on_c, 0, 69, 0
1, 137160, Note_on_c, 0, 64, 80
1, 137273, Note_on_c, 0, 64, 0
1, 137280, Note_on_c, 0, 67, 80
1, 137393, Note_on_c, 0, 67, 0
1, 137400, Note_on_c, 0, 64, 80
1, 137513, Note_on_c, 0, 64, 0
1, 137520, Note_on_c, 0, 69, 80
1, 137633, Note_on_c, 0, 69, 0
1, 137640, Note_on_c, 0, 64, 80
1, 137753, Note_on_c, 0, 64, 0
1, 137760, Note_on_c, 0, 71, 80
1, 137873, Note_on_c, 0, 71, 0
1, 137880, Note_on_c, 0, 64, 80
1, 137993, Note_on_c, 0, 64, 0
1, 138000, Note_on_c, 0, 67, 80
1, 138113, Note_on_c, 0, 67, 0
1, 138120, Note_on_c, 0, 64, 80
1, 138233, Note_on_c, 0, 64, 0
1, 138240, Note_on_c, 0, 71, 80
1, 138353, Note_on_c, 0, 71, 0
1, 138360, Note_on_c, 0, 64, 80
1, 138473, Note_on_c, 0, 64, 0
1, 138480, Note_on_c, 0, 69, 80
1, 138593, Note_on_c, 0, 69, 0
1, 138600, Note_on_c, 0, 64, 80
1, 138713, Note_on_c, 0, 64, 0
1, 138720, Note_on_c, 0, 67, 80
1, 138833, Note_on_c, 0, 67, 0
1, 138840, Note_on_c, 0, 64, 80
1, 138953, Note_on_c, 0, 64, 0
1, 138960, Note_on_c, 0, 76, 80
1, 139073, Note_on_c, 0, 76, 0
1, 139080, Note_on_c, 0, 64, 80
1, 139193, Note_on_c, 0, 64, 0
1, 139200, Note_on_c, 0, 71, 80
1, 139313, Note_on_c, 0, 71, 0
1, 139320, Note_on_c, 0, 64, 80
1, 139433, Note_on_c, 0, 64, 0
1, 139440, Note_on_c, 0, 67, 80
1, 139553, Note_on_c, 0, 67, 0
1, 139560, Note_on_c, 0, 64, 80
1, 139673, Note_on_c, 0, 64, 0
1, 139680, Note_on_c, 0, 69, 80
1, 139793, Note_on_c, 0, 69, 0
1, 139800, Note_on_c, 0, 64, 80
1, 139913, Note_on_c, 0, 64, 0
1, 139920, Note_on_c, 0, 72, 80
1, 140033, Note_on_c, 0, 72, 0
1, 140040, Note_on_c, 0, 64, 80
1, 140153, Note_on_c, 0, 64, 0
1, 140160, Note_on_c, 0, 71, 80
1, 140273, Note_on_c, 0, 71, 0
1, 140280, Note_on_c, 0, 64, 80
1, 140393, Note_on_c, 0, 64, 0
1, 140400, Note_on_c, 0, 74, 80
1, 140513, Note_on_c, 0, 74, 0
1, 140520, Note_on_c, 0, 64, 80
1, 140633, Note_on_c, 0, 64, 0
1, 140640, Note_on_c, 0, 72, 80
1, 140753, Note_on_c, 0, 72, 0
1, 140760, Note_on_c, 0, 64, 80
1, 140873, Note_on_c, 0, 64, 0
1, 140880, Note_on_c, 0, 76, 80
1, 140993, Note_on_c, 0, 76, 0
1, 141000, Note_on_c, 0, 64, 80
1, 141113, Note_on_c, 0, 64, 0
1, 141120, Note_on_c, 0, 71, 80
1, 141233, Note_on_c, 0, 71, 0
1, 141240, Note_on_c, 0, 64, 80
1, 141353, Note_on_c, 0, 64, 0
1, 141360, Note_on_c, 0, 76, 80
1, 141473, Note_on_c, 0, 76, 0
1, 141480, Note_on_c, 0, 64, 80
1, 141593, Note_on_c, 0, 64, 0
1, 141600, Note_on_c, 0, 69, 80
1, 141713, Note_on_c, 0, 69, 0
1, 141720, Note_on_c, 0, 64, 80
1, 141833, Note_on_c, 0, 64, 0
1, 141840, Note_on_c, 0, 72, 80
1, 141953, Note_on_c, 0, 72, 0
1, 141960, Note_on_c, 0, 64, 80
1, 142073, Note_on_c, 0, 64, 0
1, 142080, Note_on_c, 0, 71, 80
1, 142193, Note_on_c, 0, 71, 0
1, 142200, Note_on_c, 0, 64, 80
1, 142313, Note_on_c, 0, 64, 0
1, 142320, Note_on_c, 0, 67, 80
1, 142433, Note_on_c, 0, 67, 0
1, 142440, Note_on_c, 0, 64, 80
1, 142553, Note_on_c, 0, 64, 0
1, 142560, Note_on_c, 0, 72, 80
1, 142673, Note_on_c, 0, 72, 0
1, 142680, Note_on_c, 0, 64, 80
1, 142793, Note_on_c, 0, 64, 0
1, 142800, Note_on_c, 0, 74, 80
1, 142913, Note_on_c, 0, 74, 0
1, 142920, Note_on_c, 0, 64, 80
1, 143033, Note_on_c, 0, 64, 0
1, 143040, Note_on_c, 0, 72, 80
1, 143153, Note_on_c, 0, 72, 0
1, 143160, Note_on_c, 0, 64, 80
1, 143273, Note_on_c, 0, 64, 0
1, 143280, Note_on_c, 0, 71, 80
1, 143393, Note_on_c, 0, 71, 0
1, 143400, Note_on_c, 0, 64, 80
1, 143513, Note_on_c, 0, 64, 0
1, 143520, Note_on_c, 0, 69, 80
1, 143633, Note_on_c, 0, 69, 0
1, 143640, Note_on_c, 0, 64, 80
1, 143753, Note_on_c, 0, 64, 0
1, 143760, Note_on_c, 0, 72, 80
1, 143873, Note_on_c, 0, 72, 0
1, 143880, Note_on_c, 0, 64, 80
1, 143993, Note_on_c, 0, 64, 0
1, 144000, Note_on_c, 0, 71, 80
1, 144113, Note_on_c, 0, 71, 0
1, 144120, Note_on_c, 0, 64, 80
1, 144233, Note_on_c, 0, 64, 0
1, 144240, Note_on_c, 0, 69, 80
1, 144353, Note_on_c, 0, 69, 0
1, 144360, Note_on_c, 0, 64, 80
1, 144473, Note_on_c, 0, 64, 0
1, 144480, Note_on_c, 0, 67, 80
1, 144593, Note_on_c, 0, 67, 0
1, 144600, Note_on_c, 0, 64, 80
1, 144713, Note_on_c, 0, 64, 0
1, 144720, Note_on_c, 0, 69, 80
1, 144833, Note_on_c, 0, 69, 0
1, 144840, Note_on_c, 0, 64, 80
1, 144953, Note_on_c, 0, 64, 0
1, 144960, Note_on_c, 0, 71, 80
1, 145073, Note_on_c, 0, 71, 0
1, 145080, Note_on_c, 0, 64, 80
1, 145193, Note_on_c, 0, 64, 0
1, 145200, Note_on_c, 0, 67, 80
1, 145313, Note_on_c, 0, 67, 0
1, 145320, Note_on_c, 0, 64, 80
1, 145433, Note_on_c, 0, 64, 0
1, 145440, Note_on_c, 0, 71, 80
1, 145553, Note_on_c, 0, 71, 0
1, 145560, Note_on_c, 0, 64, 80
1, 145673, Note_on_c, 0, 64, 0
1, 145680, Note_on_c, 0, 69, 80
1, 145793, Note_on_c, 0, 69, 0
1, 145800, Note_on_c, 0, 64, 80
1, 145913, Note_on_c, 0, 64, 0
1, 145920, Note_on_c, 0, 67, 80
1, 146033, Note_on_c, 0, 67, 0
1, 146040, Note_on_c, 0, 64, 80
1, 146153, Note_on_c, 0, 64, 0
1, 146160, Note_on_c, 0, 76, 80
1, 146273, Note_on_c, 0, 76, 0
1, 146280, Note_on_c, 0, 64, 80
1, 146393, Note_on_c, 0, 64, 0
1, 146400, Note_on_c, 0, 71, 80
1, 146513, Note_on_c, 0, 71, 0
1, 146520, Note_on_c, 0, 64, 80
1, 146633, Note_on_c, 0, 64, 0
1, 146640, Note_on_c, 0, 67, 80
1, 146753, Note_on_c, 0, 67, 0
1, 146760, Note_on_c, 0, 64, 80
1, 146873, Note_on_c, 0, 64, 0
1, 146880, Note_on_c, 0, 69, 80
1, 146993, Note_on_c, 0, 69, 0
1, 147000, Note_on_c, 0, 64, 80
1, 147113, Note_on_c, 0, 64, 0
1, 147120, Note_on_c, 0, 71, 80
1, 147233, Note_on_c, 0, 71, 0
1, 147240, Note_on_c, 0, 64, 80
1, 147353, Note_on_c, 0, 64, 0
1, 147360, Note_on_c, 0, 72, 80
1, 147473, Note_on_c, 0, 72, 0
1, 147480, Note_on_c, 0, 64, 80
1, 147593, Note_on_c, 0, 64, 0
1, 147600, Note_on_c, 0, 71, 80
1, 147713, Note_on_c, 0, 71, 0
1, 147720, Note_on_c, 0, 64, 80
1, 147833, Note_on_c, 0, 64, 0
1, 147840, Note_on_c, 0, 69, 80
1, 147953, Note_on_c, 0, 69, 0
1, 147960, Note_on_c, 0, 64, 80
1, 148073, Note_on_c, 0, 64, 0
1, 148080, Note_on_c, 0, 72, 80
1, 148193, Note_on_c, 0, 72, 0
1, 148200, Note_on_c, 0, 64, 80
1, 148313, Note_on_c, 0, 64, 0
1, 148320, Note_on_c, 0, 71, 80
1, 148433, Note_on_c, 0, 71, 0
1, 148440, Note_on_c, 0, 64, 80
1, 148553, Note_on_c, 0, 64, 0
1, 148560, Note_on_c, 0, 69, 80
1, 148673, Note_on_c, 0, 69, 0
1, 148680, Note_on_c, 0, 64, 80
1, 148793, Note_on_c, 0, 64, 0
1, 148800, Note_on_c, 0, 67, 80
1, 148913, Note_on_c, 0, 67, 0
1, 148920, Note_on_c, 0, 64, 80
1, 149033, Note_on_c, 0, 64, 0
1, 149040, Note_on_c, 0, 69, 80
1, 149153, Note_on_c, 0, 69, 0
1, 149160, Note_on_c, 0, 64, 80
1, 149273, Note_on_c, 0, 64, 0
1, 149280, Note_on_c, 0, 71, 80
1, 149393, Note_on_c, 0, 71, 0
1, 149400, Note_on_c, 0, 64, 80
1, 149513, Note_on_c, 0, 64, 0
1, 149520, Note_on_c, 0, 67, 80
1, 149633, Note_on_c, 0, 67, 0
1, 149640, Note_on_c, 0, 64, 80
1, 149753, Note_on_c, 0, 64, 0
1, 149760, Note_on_c, 0, 71, 80
1, 149873, Note_on_c, 0, 71, 0
1, 149880, Note_on_c, 0, 64, 80
1, 149993, Note_on_c, 0, 64, 0
1, 150000, Note_on_c, 0, 69, 80
1, 150113, Note_on_c, 0, 69, 0
1, 150120, Note_on_c, 0, 64, 80
1, 150233, Note_on_c, 0, 64, 0
1, 150240, Note_on_c, 0, 67, 80
1, 150353, Note_on_c, 0, 67, 0
1, 150360, Note_on_c, 0, 64, 80
1, 150473, Note_on_c, 0, 64, 0
1, 150480, Note_on_c, 0, 76, 80
1, 150593, Note_on_c, 0, 76, 0
1, 150600, Note_on_c, 0, 64, 80
1, 150713, Note_on_c, 0, 64, 0
1, 150720, Note_on_c, 0, 71, 80
1, 150833, Note_on_c, 0, 71, 0
1, 150840, Note_on_c, 0, 64, 80
1, 150953, Note_on_c, 0, 64, 0
1, 150960, Note_on_c, 0, 67, 80
1, 151073, Note_on_c, 0, 67, 0
1, 151080, Note_on_c, 0, 64, 80
1, 151193, Note_on_c, 0, 64, 0
1, 151200, Note_on_c, 0, 69, 80
1, 151313, Note_on_c, 0, 69, 0
1, 151320, Note_on_c, 0, 64, 80
1, 151433, Note_on_c, 0, 64, 0
1, 151440, Note_on_c, 0, 72, 80
1, 151553, Note_on_c, 0, 72, 0
1, 151560, Note_on_c, 0, 64, 80
1, 151673, Note_on_c, 0, 64, 0
1, 151680, Note_on_c, 0, 71, 80
1, 151793, Note_on_c, 0, 71, 0
1, 151800, Note_on_c, 0, 64, 80
1, 151913, Note_on_c, 0, 64, 0
1, 151920, Note_on_c, 0, 74, 80
1, 152033, Note_on_c, 0, 74, 0
1, 152040, Note_on_c, 0, 64, 80
1, 152153, Note_on_c, 0, 64, 0
1, 152160, Note_on_c, 0, 72, 80
1, 152273, Note_on_c, 0, 72, 0
1, 152280, Note_on_c, 0, 64, 80
1, 152393, Note_on_c, 0, 64, 0
1, 152400, Note_on_c, 0, 76, 80
1, 152513, Note_on_c, 0, 76, 0
1, 152520, Note_on_c, 0, 64, 80
1, 152633, Note_on_c, 0, 64, 0
1, 152640, Note_on_c, 0, 71, 80
1, 152753, Note_on_c, 0, 71, 0
1, 152760, Note_on_c, 0, 64, 80
1, 152873, Note_on_c, 0, 64, 0
1, 152880, Note_on_c, 0, 76, 80
1, 152993, Note_on_c, 0, 76, 0
1, 153000, Note_on_c, 0, 64, 80
1, 153113, Note_on_c, 0, 64, 0
1, 153120, Note_on_c, 0, 69, 80
1, 153233, Note_on_c, 0, 69, 0
1, 153240, Note_on_c, 0, 64, 80
1, 153353, Note_on_c, 0, 64, 0
1, 153360, Note_on_c, 0, 72, 80
1, 153473, Note_on_c, 0, 72, 0
1, 153480, Note_on_c, 0, 64, 80
1, 153593, Note_on_c, 0, 64, 0
1, 153600, Note_on_c, 0, 71, 80
1, 153713, Note_on_c, 0, 71, 0
1, 153720, Note_on_c, 0, 64, 80
1, 153833, Note_on_c, 0, 64, 0
1, 153840, Note_on_c, 0, 67, 80
1, 153953, Note_on_c, 0, 67, 0
1, 153960, Note_on_c, 0, 64, 80
1, 154073, Note_on_c, 0, 64, 0
1, 154080, Note_on_c, 0, 72, 80
1, 154193, Note_on_c, 0, 72, 0
1, 154200, Note_on_c, 0, 64, 80
1, 154313, Note_on_c, 0, 64, 0
1, 154320, Note_on_c, 0, 74, 80
1, 154433, Note_on_c, 0, 74, 0
1, 154440, Note_on_c, 0, 64, 80
1, 154553, Note_on_c, 0, 64, 0
1, 154560, Note_on_c, 0, 72, 80
1, 154673, Note_on_c, 0, 72, 0
1, 154680, Note_on_c, 0, 64, 80
1, 154793, Note_on_c, 0, 64, 0
1, 154800, Note_on_c, 0, 71, 80
1, 154913, Note_on_c, 0, 71, 0
1, 154920, Note_on_c, 0, 64, 80
1, 155033, Note_on_c, 0, 64, 0
1, 155040, Note_on_c, 0, 69, 80
1, 155153, Note_on_c, 0, 69, 0
1, 155160, Note_on_c, 0, 64, 80
1, 155273, Note_on_c, 0, 64, 0
1, 155280, Note_on_c, 0, 72, 80
1, 155393, Note_on_c, 0, 72, 0
1, 155400, Note_on_c, 0, 64, 80
1, 155513, Note_on_c, 0, 64, 0
1, 155520, Note_on_c, 0, 74, 80
1, 155633, Note_on_c, 0, 74, 0
1, 155640, Note_on_c, 0, 64, 80
1, 155753, Note_on_c, 0, 64, 0
1, 155760, Note_on_c, 0, 76, 80
1, 155873, Note_on_c, 0, 76, 0
1, 155880, Note_on_c, 0, 64, 80
1, 155993, Note_on_c, 0, 64, 0
1, 156000, Note_on_c, 0, 74, 80
1, 156113, Note_on_c, 0, 74, 0
1, 156120, Note_on_c, 0, 64, 80
1, 156233, Note_on_c, 0, 64, 0
1, 156240, Note_on_c, 0, 72, 80
1, 156353, Note_on_c, 0, 72, 0
1, 156360, Note_on_c, 0, 64, 80
1, 156473, Note_on_c, 0, 64, 0
1, 156480, Note_on_c, 0, 74, 80
1, 156593, Note_on_c, 0, 74, 0
1, 156600, Note_on_c, 0, 64, 80
1, 156713, Note_on_c, 0, 64, 0
1, 156720, Note_on_c, 0, 76, 80
1, 156833, Note_on_c, 0, 76, 0
1, 156840, Note_on_c, 0, 64, 80
1, 156953, Note_on_c, 0, 64, 0
1, 156960, Note_on_c, 0, 76, 80
1, 156960, Note_on_c, 0, 64, 80
1, 157415, Note_on_c, 0, 64, 0
1, 157440, Note_on_c, 0, 64, 80
1, 157895, Note_on_c, 0, 64, 0
1, 157920, Note_on_c, 0, 64, 96
1, 158327, Note_on_c, 0, 76, 0
1, 158399, Note_on_c, 0, 64, 0
1, 158400, Tempo, 1000000
1, 158400, Note_on_c, 0, 57, 115
1, 158639, Note_on_c, 0, 57, 0
1, 158640, Note_on_c, 0, 59, 96
1, 158867, Note_on_c, 0, 59, 0
1, 158880, Note_on_c, 0, 60, 115
1, 159119, Note_on_c, 0, 60, 0
1, 159120, Note_on_c, 0, 59, 96
1, 159347, Note_on_c, 0, 59, 0
1, 159360, Note_on_c, 0, 57, 115
1, 159599, Note_on_c, 0, 57, 0
1, 159600, Note_on_c, 0, 60, 96
1, 159827, Note_on_c, 0, 60, 0
1, 159840, Note_on_c, 0, 59, 115
1, 160079, Note_on_c, 0, 59, 0
1, 160080, Note_on_c, 0, 57, 96
1, 160307, Note_on_c, 0, 57, 0
1, 160320, Note_on_c, 0, 55, 115
1, 160559, Note_on_c, 0, 55, 0
1, 160560, Note_on_c, 0, 57, 96
1, 160787, Note_on_c, 0, 57, 0
1, 160800, Note_on_c, 0, 59, 115
1, 161039, Note_on_c, 0, 59, 0
1, 161040, Note_on_c, 0, 55, 96
1, 161267, Note_on_c, 0, 55, 0
1, 161280, Note_on_c, 0, 59, 115
1, 161519, Note_on_c, 0, 59, 0
1, 161520, Note_on_c, 0, 57, 96
1, 161747, Note_on_c, 0, 57, 0
1, 161760, Note_on_c, 0, 55, 115
1, 161999, Note_on_c, 0, 55, 0
1, 162000, Note_on_c, 0, 57, 96
1, 162227, Note_on_c, 0, 57, 0
1, 162240, Note_on_c, 0, 59, 115
1, 162479, Note_on_c, 0, 59, 0
1, 162480, Note_on_c, 0, 55, 96
1, 162707, Note_on_c, 0, 55, 0
1, 162720, Note_on_c, 0, 57, 115
1, 162720, Note_on_c, 0, 69, 115
1, 163199, Note_on_c, 0, 57, 0
1, 163199, Note_on_c, 0, 69, 0
1, 163200, Note_on_c, 0, 59, 115
1, 163200, Note_on_c, 0, 71, 115
1, 163679, Note_on_c, 0, 59, 0
1, 163679, Note_on_c, 0, 71, 0
1, 163680, Note_on_c, 0, 60, 115
1, 163680, Note_on_c, 0, 72, 115
1, 164159, Note_on_c, 0, 60, 0
1, 164159, Note_on_c, 0, 72, 0
1, 164160, Note_on_c, 0, 59, 115
1, 164160, Note_on_c, 0, 71, 115
1, 164639, Note_on_c, 0, 59, 0
1, 164639, Note_on_c, 0, 71, 0
1, 164640, Note_on_c, 0, 57, 115
1, 164640, Note_on_c, 0, 69, 115
1, 165119, Note_on_c, 0, 57, 0
1, 165119, Note_on_c, 0, 69, 0
1, 165120, Note_on_c, 0, 59, 115
1, 165120, Note_on_c, 0, 71, 115
1, 165599, Note_on_c, 0, 59, 0
1, 165599, Note_on_c, 0, 71, 0
1, 165600, Note_on_c, 0, 60, 115
1, 165600, Note_on_c, 0, 72, 115
1, 165839, Note_on_c, 0, 60, 0
1, 165839, Note_on_c, 0, 72, 0
1, 165840, Note_on_c, 0, 60, 96
1, 166067, Note_on_c, 0, 60, 0
1, 166080, Note_on_c, 0, 57, 115
1, 166319, Note_on_c, 0, 57, 0
1, 166320, Note_on_c, 0, 60, 96
1, 166547, Note_on_c, 0, 60, 0
1, 166560, Note_on_c, 0, 59, 115
1, 166799, Note_on_c, 0, 59, 0
1, 166800, Note_on_c, 0, 57, 96
1, 167027, Note_on_c, 0, 57, 0
1, 167040, Note_on_c, 0, 59, 115
1, 167279, Note_on_c, 0, 59, 0
1, 167280, Note_on_c, 0, 57, 96
1, 167507, Note_on_c, 0, 57, 0
1, 167520, Note_on_c, 0, 55, 115
1, 167759, Note_on_c, 0, 55, 0
1, 167760, Note_on_c, 0, 57, 96
1, 167987, Note_on_c, 0, 57, 0
1, 168000, Note_on_c, 0, 59, 115
1, 168239, Note_on_c, 0, 59, 0
1, 168240, Note_on_c, 0, 55, 96
1, 168467, Note_on_c, 0, 55, 0
1, 168480, Note_on_c, 0, 59, 115
1, 168719, Note_on_c, 0, 59, 0
1, 168720, Note_on_c, 0, 57, 96
1, 168947, Note_on_c, 0, 57, 0
1, 168960, Note_on_c, 0, 55, 115
1, 169199, Note_on_c, 0, 55, 0
1, 169200, Note_on_c, 0, 57, 96
1, 169427, Note_on_c, 0, 57, 0
1, 169440, Note_on_c, 0, 59, 115
1, 169679, Note_on_c, 0, 59, 0
1, 169680, Note_on_c, 0, 55, 96
1, 169907, Note_on_c, 0, 55, 0
1, 169920, Note_on_c, 0, 57, 115
1, 170159, Note_on_c, 0, 57, 0
1, 170160, Note_on_c, 0, 59, 96
1, 170387, Note_on_c, 0, 59, 0
1, 170400, Note_on_c, 0, 60, 115
1, 170639, Note_on_c, 0, 60, 0
1, 170640, Note_on_c, 0, 59, 96
1, 170867, Note_on_c, 0, 59, 0
1, 170880, Note_on_c, 0, 64, 115
1, 171119, Note_on_c, 0, 64, 0
1, 171120, Note_on_c, 0, 60, 96
1, 171347, Note_on_c, 0, 60, 0
1, 171360, Note_on_c, 0, 57, 115
1, 171599, Note_on_c, 0, 57, 0
1, 171600, Note_on_c, 0, 59, 96
1, 171827, Note_on_c, 0, 59, 0
1, 171840, Note_on_c, 0, 60, 115
1, 172079, Note_on_c, 0, 60, 0
1, 172080, Note_on_c, 0, 59, 96
1, 172307, Note_on_c, 0, 59, 0
1, 172320, Note_on_c, 0, 57, 115
1, 172559, Note_on_c, 0, 57, 0
1, 172560, Note_on_c, 0, 60, 96
1, 172787, Note_on_c, 0, 60, 0
1, 172800, Note_on_c, 0, 59, 115
1, 173039, Note_on_c, 0, 59, 0
1, 173040, Note_on_c, 0, 57, 96
1, 173267, Note_on_c, 0, 57, 0
1, 173280, Note_on_c, 0, 55, 115
1, 173519, Note_on_c, 0, 55, 0
1, 173520, Note_on_c, 0, 57, 96
1, 173747, Note_on_c, 0, 57, 0
1, 173760, Note_on_c, 0, 59, 115
1, 173999, Note_on_c, 0, 59, 0
1, 174000, Note_on_c, 0, 55, 96
1, 174227, Note_on_c, 0, 55, 0
1, 174240, Note_on_c, 0, 59, 115
1, 174479, Note_on_c, 0, 59, 0
1, 174480, Note_on_c, 0, 57, 96
1, 174707, Note_on_c, 0, 57, 0
1, 174720, Note_on_c, 0, 55, 115
1, 174959, Note_on_c, 0, 55, 0
1, 174960, Note_on_c, 0, 57, 96
1, 175187, Note_on_c, 0, 57, 0
1, 175200, Note_on_c, 0, 59, 115
1, 175439, Note_on_c, 0, 59, 0
1, 175440, Note_on_c, 0, 55, 96
1, 175667, Note_on_c, 0, 55, 0
1, 175680, Note_on_c, 0, 57, 115
1, 175680, Note_on_c, 0, 69, 115
1, 176159, Note_on_c, 0, 57, 0
1, 176159, Note_on_c, 0, 69, 0
1, 176160, Note_on_c, 0, 64, 115
1, 176160, Note_on_c, 0, 76, 115
1, 176639, Note_on_c, 0, 64, 0
1, 176639, Note_on_c, 0, 76, 0
1, 176640, Note_on_c, 0, 60, 115
1, 176640, Note_on_c, 0, 72, 115
1, 177119, Note_on_c, 0, 60, 0
1, 177119, Note_on_c, 0, 72, 0
1, 177120, Note_on_c, 0, 59, 96
1, 177120, Note_on_c, 0, 71, 96
1, 177599, Note_on_c, 0, 59, 0
1, 177599, Note_on_c, 0, 71, 0
1, 177600, Note_on_c, 0, 57, 108
1, 177600, Note_on_c, 0, 69, 108
1, 178079, Note_on_c, 0, 57, 0
1, 178079, Note_on_c, 0, 69, 0
1, 178080, Note_on_c, 0, 59, 121
1, 178080, Note_on_c, 0, 71, 121
1, 178559, Note_on_c, 0, 59, 0
1, 178559, Note_on_c, 0, 71, 0
1, 178560, Note_on_c, 0, 60, 127
1, 178560, Note_on_c, 0, 72, 127
1, 179039, Note_on_c, 0, 60, 0
1, 179039, Note_on_c, 0, 72, 0
1, 179040, Note_on_c, 0, 60, 127
1, 179040, Note_on_c, 0, 72, 127
1, 179519, Note_on_c, 0, 60, 0
1, 179519, Note_on_c, 0, 72, 0
1, 179520, Note_on_c, 0, 60, 127
1, 179520, Note_on_c, 0, 72, 127
1, 179999, Note_on_c, 0, 60, 0
1, 179999, Note_on_c, 0, 72, 0
1, 180000, Note_on_c, 0, 59, 127
1, 180239, Note_on_c, 0, 59, 0
1, 180240, Note_on_c, 0, 57, 112
1, 180467, Note_on_c, 0, 57, 0
1, 180480, Note_on_c, 0, 55, 127
1, 180719, Note_on_c, 0, 55, 0
1, 180720, Note_on_c, 0, 57, 112
1, 180947, Note_on_c, 0, 57, 0
1, 180960, Note_on_c, 0, 59, 127
1, 181199, Note_on_c, 0, 59, 0
1, 181200, Note_on_c, 0, 55, 112
1, 181427, Note_on_c, 0, 55, 0
1, 181440, Note_on_c, 0, 59, 127
1, 181679, Note_on_c, 0, 59, 0
1, 181680, Note_on_c, 0, 57, 112
1, 181907, Note_on_c, 0, 57, 0
1, 181920, Note_on_c, 0, 55, 127
1, 182159, Note_on_c, 0, 55, 0
1, 182160, Note_on_c, 0, 57, 112
1, 182387, Note_on_c, 0, 57, 0
1, 182400, Note_on_c, 0, 59, 127
1, 182639, Note_on_c, 0, 59, 0
1, 182640, Note_on_c, 0, 55, 112
1, 182867, Note_on_c, 0, 55, 0
1, 182880, Note_on_c, 0, 57, 127
1, 183119, Note_on_c, 0, 57, 0
1, 183120, Note_on_c, 0, 59, 112
1, 183347, Note_on_c, 0, 59, 0
1, 183360, Note_on_c, 0, 60, 127
1, 183599, Note_on_c, 0, 60, 0
1, 183600, Note_on_c, 0, 59, 112
1, 183827, Note_on_c, 0, 59, 0
1, 183840, Note_on_c, 0, 64, 127
1, 184079, Note_on_c, 0, 64, 0
1, 184080, Note_on_c, 0, 60, 112
1, 184307, Note_on_c, 0, 60, 0
1, 184320, Note_on_c, 0, 57, 127
1, 184559, Note_on_c, 0, 57, 0
1, 184560, Note_on_c, 0, 59, 112
1, 184787, Note_on_c, 0, 59, 0
1, 184800, Note_on_c, 0, 60, 127
1, 185039, Note_on_c, 0, 60, 0
1, 185040, Note_on_c, 0, 59, 112
1, 185267, Note_on_c, 0, 59, 0
1, 185280, Note_on_c, 0, 57, 127
1, 185519, Note_on_c, 0, 57, 0
1, 185520, Note_on_c, 0, 60, 112
1, 185747, Note_on_c, 0, 60, 0
1, 185760, Note_on_c, 0, 59, 127
1, 185999, Note_on_c, 0, 59, 0
1, 186000, Note_on_c, 0, 57, 112
1, 186227, Note_on_c, 0, 57, 0
1, 186240, Note_on_c, 0, 55, 127
1, 186479, Note_on_c, 0, 55, 0
1, 186480, Note_on_c, 0, 57, 112
1, 186707, Note_on_c, 0, 57, 0
1, 186720, Note_on_c, 0, 59, 127
1, 186959, Note_on_c, 0, 59, 0
1, 186960, Note_on_c, 0, 55, 112
1, 187187, Note_on_c, 0, 55, 0
1, 187200, Note_on_c, 0, 59, 127
1, 187439, Note_on_c, 0, 59, 0
1, 187440, Note_on_c, 0, 57, 112
1, 187667, Note_on_c, 0, 57, 0
1, 187680, Note_on_c, 0, 55, 127
1, 187919, Note_on_c, 0, 55, 0
1, 187920, Note_on_c, 0, 57, 112
1, 188147, Note_on_c, 0, 57, 0
1, 188160, Note_on_c, 0, 59, 127
1, 188399, Note_on_c, 0, 59, 0
1, 188400, Note_on_c, 0, 55, 112
1, 188627, Note_on_c, 0, 55, 0
1, 188640, Note_on_c, 0, 57, 127
1, 188640, Note_on_c, 0, 69, 127
1, 189119, Note_on_c, 0, 57, 0
1, 189119, Note_on_c, 0, 69, 0
1, 189120, Note_on_c, 0, 64, 127
1, 189120, Note_on_c, 0, 76, 127
1, 189599, Note_on_c, 0, 64, 0
1, 189599, Note_on_c, 0, 76, 0
1, 189600, Note_on_c, 0, 60, 127
1, 189600, Note_on_c, 0, 72, 127
1, 190079, Note_on_c, 0, 60, 0
1, 190079, Note_on_c, 0, 72, 0
1, 190080, Note_on_c, 0, 59, 127
1, 190080, Note_on_c, 0, 71, 127
1, 190559, Note_on_c, 0, 59, 0
1, 190559, Note_on_c, 0, 71, 0
1, 190560, Note_on_c, 0, 57, 127
1, 190560, Note_on_c, 0, 69, 127
1, 191039, Note_on_c, 0, 57, 0
1, 191039, Note_on_c, 0, 69, 0
1, 191040, Note_on_c, 0, 59, 127
1, 191040, Note_on_c, 0, 71, 127
1, 191519, Note_on_c, 0, 59, 0
1, 191519, Note_on_c, 0, 71, 0
1, 191520, Note_on_c, 0, 60, 127
1, 191520, Note_on_c, 0, 72, 127
1, 191999, Note_on_c, 0, 60, 0
1, 191999, Note_on_c, 0, 72, 0
1, 192000, Note_on_c, 0, 60, 127
1, 192000, Note_on_c, 0, 72, 127
1, 192479, Note_on_c, 0, 60, 0
1, 192479, Note_on_c, 0, 72, 0
1, 192480, Note_on_c, 0, 60, 127
1, 192480, Note_on_c, 0, 72, 127
1, 192959, Note_on_c, 0, 60, 0
1, 192959, Note_on_c, 0, 72, 0
1, 192960, Note_on_c, 0, 62, 127
1, 192960, Note_on_c, 0, 74, 127
1, 193439, Note_on_c, 0, 62, 0
1, 193439, Note_on_c, 0, 74, 0
1, 193440, Note_on_c, 0, 62, 127
1, 193440, Note_on_c, 0, 74, 127
1, 193919, Note_on_c, 0, 62, 0
1, 193919, Note_on_c, 0, 74, 0
1, 193920, Note_on_c, 0, 62, 127
1, 193920, Note_on_c, 0, 74, 127
1, 194399, Note_on_c, 0, 62, 0
1, 194399, Note_on_c, 0, 74, 0
1, 194400, Key_signature, 1, "major"
1, 194400, Tempo, 967745
1, 194400, Note_on_c, 0, 64, 126
1, 194400, Note_on_c, 0, 76, 126
1, 194513, Note_on_c, 0, 64, 0
1, 194513, Note_on_c, 0, 76, 0
1, 194520, Note_on_c, 0, 71, 126
1, 194633, Note_on_c, 0, 71, 0
1, 194640, Note_on_c, 0, 66, 126
1, 194640, Note_on_c, 0, 78, 126
1, 194753, Note_on_c, 0, 66, 0
1, 194753, Note_on_c, 0, 78, 0
1, 194760, Note_on_c, 0, 71, 126
1, 194873, Note_on_c, 0, 71, 0
1, 194880, Note_on_c, 0, 67, 126
1, 194880, Note_on_c, 0, 79, 126
1, 194993, Note_on_c, 0, 67, 0
1, 194993, Note_on_c, 0, 79, 0
1, 195000, Note_on_c, 0, 71, 126
1, 195113, Note_on_c, 0, 71, 0
1, 195120, Note_on_c, 0, 66, 126
1, 195120, Note_on_c, 0, 78, 126
1, 195233, Note_on_c, 0, 66, 0
1, 195233, Note_on_c, 0, 78, 0
1, 195240, Note_on_c, 0, 71, 126
1, 195353, Note_on_c, 0, 71, 0
1, 195360, Note_on_c, 0, 64, 126
1, 195360, Note_on_c, 0, 76, 126
1, 195473, Note_on_c, 0, 64, 0
1, 195473, Note_on_c, 0, 76, 0
1, 195480, Note_on_c, 0, 71, 126
1, 195593, Note_on_c, 0, 71, 0
1, 195600, Note_on_c, 0, 67, 126
1, 195600, Note_on_c, 0, 79, 126
1, 195713, Note_on_c, 0, 67, 0
1, 195713, Note_on_c, 0, 79, 0
1, 195720, Note_on_c, 0, 71, 126
1, 195833, Note_on_c, 0, 71, 0
1, 195840, Note_on_c, 0, 66, 126
1, 195840, Note_on_c, 0, 78, 126
1, 195953, Note_on_c, 0, 66, 0
1, 195953, Note_on_c, 0, 78, 0
1, 195960, Note_on_c, 0, 71, 126
1, 196073, Note_on_c, 0, 71, 0
1, 196080, Note_on_c, 0, 64, 126
1, 196080, Note_on_c, 0, 76, 126
1, 196193, Note_on_c, 0, 64, 0
1, 196193, Note_on_c, 0, 76, 0
1, 196200, Note_on_c, 0, 71, 126
1, 196313, Note_on_c, 0, 71, 0
1, 196320, Note_on_c, 0, 62, 126
1, 196320, Note_on_c, 0, 74, 126
1, 196433, Note_on_c, 0, 62, 0
1, 196433, Note_on_c, 0, 74, 0
1, 196440, Note_on_c, 0, 71, 126
1, 196553, Note_on_c, 0, 71, 0
1, 196560, Note_on_c, 0, 64, 126
1, 196560, Note_on_c, 0, 76, 126
1, 196673, Note_on_c, 0, 64, 0
1, 196673, Note_on_c, 0, 76, 0
1, 196680, Note_on_c, 0, 71, 126
1, 196793, Note_on_c, 0, 71, 0
1, 196800, Note_on_c, 0, 66, 126
1, 196800, Note_on_c, 0, 78, 126
1, 196913, Note_on_c, 0, 66, 0
1, 196913, Note_on_c, 0, 78, 0
1, 196920, Note_on_c, 0, 71, 126
1, 197033, Note_on_c, 0, 71, 0
1, 197040, Note_on_c, 0, 62, 126
1, 197040, Note_on_c, 0, 74, 126
1, 197153, Note_on_c, 0, 62, 0
1, 197153, Note_on_c, 0, 74, 0
1, 197160, Note_on_c, 0, 71, 126
1, 197273, Note_on_c, 0, 71, 0
1, 197280, Tempo, 750002
1, 197280, Note_on_c, 0, 64, 126
1, 197280, Note_on_c, 0, 76, 126
1, 197393, Note_on_c, 0, 64, 0
1, 197393, Note_on_c, 0, 76, 0
1, 197400, Note_on_c, 0, 71, 126
1, 197513, Note_on_c, 0, 71, 0
1, 197520, Note_on_c, 0, 66, 126
1, 197520, Note_on_c, 0, 78, 126
1, 197633, Note_on_c, 0, 66, 0
1, 197633, Note_on_c, 0, 78, 0
1, 197640, Note_on_c, 0, 71, 126
1, 197753, Note_on_c, 0, 71, 0
1, 197760, Note_on_c, 0, 67, 126
1, 197760, Note_on_c, 0, 79, 126
1, 197873, Note_on_c, 0, 67, 0
1, 197873, Note_on_c, 0, 79, 0
1, 197880, Note_on_c, 0, 71, 126
1, 197993, Note_on_c, 0, 71, 0
1, 198000, Note_on_c, 0, 66, 126
1, 198000, Note_on_c, 0, 78, 126
1, 198113, Note_on_c, 0, 66, 0
1, 198113, Note_on_c, 0, 78, 0
1, 198120, Note_on_c, 0, 71, 126
1, 198233, Note_on_c, 0, 71, 0
1, 198240, Note_on_c, 0, 64, 126
1, 198240, Note_on_c, 0, 76, 126
1, 198353, Note_on_c, 0, 64, 0
1, 198353, Note_on_c, 0, 76, 0
1, 198360, Note_on_c, 0, 71, 126
1, 198473, Note_on_c, 0, 71, 0
1, 198480, Note_on_c, 0, 67, 126
1, 198480, Note_on_c, 0, 79, 126
1, 198593, Note_on_c, 0, 67, 0
1, 198593, Note_on_c, 0, 79, 0
1, 198600, Note_on_c, 0, 71, 126
1, 198713, Note_on_c, 0, 71, 0
1, 198720, Note_on_c, 0, 66, 126
1, 198720, Note_on_c, 0, 78, 126
1, 198833, Note_on_c, 0, 66, 0
1, 198833, Note_on_c, 0, 78, 0
1, 198840, Note_on_c, 0, 71, 126
1, 198953, Note_on_c, 0, 71, 0
1, 198960, Note_on_c, 0, 59, 126
1, 198960, Note_on_c, 0, 71, 126
1, 199073, Note_on_c, 0, 59, 0
1, 199073, Note_on_c, 0, 71, 0
1, 199080, Note_on_c, 0, 66, 126
1, 199193, Note_on_c, 0, 66, 0
1, 199200, Note_on_c, 0, 66, 126
1, 199200, Note_on_c, 0, 78, 126
1, 199313, Note_on_c, 0, 66, 0
1, 199313, Note_on_c, 0, 78, 0
1, 199320, Note_on_c, 0, 71, 126
1, 199433, Note_on_c, 0, 71, 0
1, 199440, Note_on_c, 0, 67, 126
1, 199440, Note_on_c, 0, 79, 126
1, 199553, Note_on_c, 0, 67, 0
1, 199553, Note_on_c, 0, 79, 0
1, 199560, Note_on_c, 0, 71, 126
1, 199673, Note_on_c, 0, 71, 0
1, 199680, Note_on_c, 0, 66, 126
1, 199680, Note_on_c, 0, 78, 126
1, 199793, Note_on_c, 0, 66, 0
1, 199793, Note_on_c, 0, 78, 0
1, 199800, Note_on_c, 0, 71, 126
1, 199913, Note_on_c, 0, 71, 0
1, 199920, Note_on_c, 0, 71, 126
1, 199920, Note_on_c, 0, 83, 126
1, 200033, Note_on_c, 0, 71, 0
1, 200033, Note_on_c, 0, 83, 0
1, 200040, Note_on_c, 0, 78, 126
1, 200153, Note_on_c, 0, 78, 0
1, 200160, Note_on_c, 0, 64, 126
1, 200160, Note_on_c, 0, 76, 126
1, 200273, Note_on_c, 0, 64, 0
1, 200273, Note_on_c, 0, 76, 0
1, 200280, Note_on_c, 0, 71, 126
1, 200393, Note_on_c, 0, 71, 0
1, 200400, Note_on_c, 0, 66, 126
1, 200400, Note_on_c, 0, 78, 126
1, 200513, Note_on_c, 0, 66, 0
1, 200513, Note_on_c, 0, 78, 0
1, 200520, Note_on_c, 0, 71, 126
1, 200633, Note_on_c, 0, 71, 0
1, 200640, Note_on_c, 0, 67, 126
1, 200640, Note_on_c, 0, 79, 126
1, 200753, Note_on_c, 0, 67, 0
1, 200753, Note_on_c, 0, 79, 0
1, 200760, Note_on_c, 0, 71, 126
1, 200873, Note_on_c, 0, 71, 0
1, 200880, Note_on_c, 0, 66, 126
1, 200880, Note_on_c, 0, 78, 126
1, 200993, Note_on_c, 0, 66, 0
1, 200993, Note_on_c, 0, 78, 0
1, 201000, Note_on_c, 0, 71, 126
1, 201113, Note_on_c, 0, 71, 0
1, 201120, Note_on_c, 0, 64, 126
1, 201120, Note_on_c, 0, 76, 126
1, 201233, Note_on_c, 0, 64, 0
1, 201233, Note_on_c, 0, 76, 0
1, 201240, Note_on_c, 0, 71, 126
1, 201353, Note_on_c, 0, 71, 0
1, 201360, Note_on_c, 0, 67, 126
1, 201360, Note_on_c, 0, 79, 126
1, 201473, Note_on_c, 0, 67, 0
1, 201473, Note_on_c, 0, 79, 0
1, 201480, Note_on_c, 0, 71, 126
1, 201593, Note_on_c, 0, 71, 0
1, 201600, Note_on_c, 0, 66, 126
1, 201600, Note_on_c, 0, 78, 126
1, 201713, Note_on_c, 0, 66, 0
1, 201713, Note_on_c, 0, 78, 0
1, 201720, Note_on_c, 0, 71, 126
1, 201833, Note_on_c, 0, 71, 0
1, 201840, Note_on_c, 0, 64, 126
1, 201840, Note_on_c, 0, 76, 126
1, 201953, Note_on_c, 0, 64, 0
1, 201953, Note_on_c, 0, 76, 0
1, 201960, Note_on_c, 0, 71, 126
1, 202073, Note_on_c, 0, 71, 0
1, 202080, Note_on_c, 0, 62, 126
1, 202080, Note_on_c, 0, 74, 126
1, 202193, Note_on_c, 0, 62, 0
1, 202193, Note_on_c, 0, 74, 0
1, 202200, Note_on_c, 0, 71, 126
1, 202313, Note_on_c, 0, 71, 0
1, 202320, Note_on_c, 0, 64, 126
1, 202320, Note_on_c, 0, 76, 126
1, 202433, Note_on_c, 0, 64, 0
1, 202433, Note_on_c, 0, 76, 0
1, 202440, Note_on_c, 0, 71, 126
1, 202553, Note_on_c, 0, 71, 0
1, 202560, Note_on_c, 0, 66, 126
1, 202560, Note_on_c, 0, 78, 126
1, 202673, Note_on_c, 0, 66, 0
1, 202673, Note_on_c, 0, 78, 0
1, 202680, Note_on_c, 0, 71, 126
1, 202793, Note_on_c, 0, 71, 0
1, 202800, Note_on_c, 0, 62, 126
1, 202800, Note_on_c, 0, 74, 126
1, 202913, Note_on_c, 0, 62, 0
1, 202913, Note_on_c, 0, 74, 0
1, 202920, Note_on_c, 0, 71, 126
1, 203033, Note_on_c, 0, 71, 0
1, 203040, Note_on_c, 0, 64, 126
1, 203040, Note_on_c, 0, 76, 126
1, 203153, Note_on_c, 0, 64, 0
1, 203153, Note_on_c, 0, 76, 0
1, 203160, Note_on_c, 0, 71, 126
1, 203273, Note_on_c, 0, 71, 0
1, 203280, Note_on_c, 0, 66, 126
1, 203280, Note_on_c, 0, 78, 126
1, 203393, Note_on_c, 0, 66, 0
1, 203393, Note_on_c, 0, 78, 0
1, 203400, Note_on_c, 0, 71, 126
1, 203513, Note_on_c, 0, 71, 0
1, 203520, Note_on_c, 0, 67, 126
1, 203520, Note_on_c, 0, 79, 126
1, 203633, Note_on_c, 0, 67, 0
1, 203633, Note_on_c, 0, 79, 0
1, 203640, Note_on_c, 0, 71, 126
1, 203753, Note_on_c, 0, 71, 0
1, 203760, Note_on_c, 0, 66, 126
1, 203760, Note_on_c, 0, 78, 126
1, 203873, Note_on_c, 0, 66, 0
1, 203873, Note_on_c, 0, 78, 0
1, 203880, Note_on_c, 0, 71, 126
1, 203993, Note_on_c, 0, 71, 0
1, 204000, Note_on_c, 0, 64, 126
1, 204000, Note_on_c, 0, 76, 126
1, 204113, Note_on_c, 0, 64, 0
1, 204113, Note_on_c, 0, 76, 0
1, 204120, Note_on_c, 0, 71, 126
1, 204233, Note_on_c, 0, 71, 0
1, 204240, Note_on_c, 0, 67, 126
1, 204240, Note_on_c, 0, 79, 126
1, 204353, Note_on_c, 0, 67, 0
1, 204353, Note_on_c, 0, 79, 0
1, 204360, Note_on_c, 0, 71, 126
1, 204473, Note_on_c, 0, 71, 0
1, 204480, Note_on_c, 0, 66, 126
1, 204480, Note_on_c, 0, 78, 126
1, 204593, Note_on_c, 0, 66, 0
1, 204593, Note_on_c, 0, 78, 0
1, 204600, Note_on_c, 0, 71, 126
1, 204713, Note_on_c, 0, 71, 0
1, 204720, Note_on_c, 0, 59, 126
1, 204720, Note_on_c, 0, 71, 126
1, 204833, Note_on_c, 0, 59, 0
1, 204833, Note_on_c, 0, 71, 0
1, 204840, Note_on_c, 0, 66, 126
1, 204953, Note_on_c, 0, 66, 0
1, 204960, Note_on_c, 0, 66, 126
1, 204960, Note_on_c, 0, 78, 126
1, 205073, Note_on_c, 0, 66, 0
1, 205073, Note_on_c, 0, 78, 0
1, 205080, Note_on_c, 0, 71, 126
1, 205193, Note_on_c, 0, 71, 0
1, 205200, Note_on_c, 0, 67, 126
1, 205200, Note_on_c, 0, 79, 126
1, 205313, Note_on_c, 0, 67, 0
1, 205313, Note_on_c, 0, 79, 0
1, 205320, Note_on_c, 0, 71, 126
1, 205433, Note_on_c, 0, 71, 0
1, 205440, Note_on_c, 0, 66, 126
1, 205440, Note_on_c, 0, 78, 126
1, 205553, Note_on_c, 0, 66, 0
1, 205553, Note_on_c, 0, 78, 0
1, 205560, Note_on_c, 0, 71, 126
1, 205673, Note_on_c, 0, 71, 0
1, 205680, Note_on_c, 0, 71, 126
1, 205680, Note_on_c, 0, 83, 126
1, 205793, Note_on_c, 0, 71, 0
1, 205793, Note_on_c, 0, 83, 0
1, 205800, Note_on_c, 0, 78, 126
1, 205913, Note_on_c, 0, 78, 0
1, 205920, Note_on_c, 0, 64, 126
1, 205920, Note_on_c, 0, 76, 126
1, 206033, Note_on_c, 0, 64, 0
1, 206033, Note_on_c, 0, 76, 0
1, 206040, Note_on_c, 0, 71, 126
1, 206153, Note_on_c, 0, 71, 0
1, 206160, Note_on_c, 0, 66, 126
1, 206160, Note_on_c, 0, 78, 126
1, 206273, Note_on_c, 0, 66, 0
1, 206273, Note_on_c, 0, 78, 0
1, 206280, Note_on_c, 0, 71, 126
1, 206393, Note_on_c, 0, 71, 0
1, 206400, Note_on_c, 0, 67, 126
1, 206400, Note_on_c, 0, 79, 126
1, 206513, Note_on_c, 0, 67, 0
1, 206513, Note_on_c, 0, 79, 0
1, 206520, Note_on_c, 0, 71, 126
1, 206633, Note_on_c, 0, 71, 0
1, 206640, Note_on_c, 0, 66, 126
1, 206640, Note_on_c, 0, 78, 126
1, 206753, Note_on_c, 0, 66, 0
1, 206753, Note_on_c, 0, 78, 0
1, 206760, Note_on_c, 0, 71, 126
1, 206873, Note_on_c, 0, 71, 0
1, 206880, Note_on_c, 0, 64, 126
1, 206880, Note_on_c, 0, 76, 126
1, 206993, Note_on_c, 0, 64, 0
1, 206993, Note_on_c, 0, 76, 0
1, 207000, Note_on_c, 0, 71, 126
1, 207113, Note_on_c, 0, 71, 0
1, 207120, Note_on_c, 0, 67, 126
1, 207120, Note_on_c, 0, 79, 126
1, 207233, Note_on_c, 0, 67, 0
1, 207233, Note_on_c, 0, 79, 0
1, 207240, Note_on_c, 0, 71, 126
1, 207353, Note_on_c, 0, 71, 0
1, 207360, Note_on_c, 0, 66, 126
1, 207360, Note_on_c, 0, 78, 126
1, 207473, Note_on_c, 0, 66, 0
1, 207473, Note_on_c, 0, 78, 0
1, 207480, Note_on_c, 0, 71, 126
1, 207593, Note_on_c, 0, 71, 0
1, 207600, Note_on_c, 0, 59, 126
1, 207600, Note_on_c, 0, 71, 126
1, 207713, Note_on_c, 0, 59, 0
1, 207713, Note_on_c, 0, 71, 0
1, 207720, Note_on_c, 0, 66, 126
1, 207833, Note_on_c, 0, 66, 0
1, 207840, Note_on_c, 0, 66, 126
1, 207840, Note_on_c, 0, 78, 126
1, 207953, Note_on_c, 0, 66, 0
1, 207953, Note_on_c, 0, 78, 0
1, 207960, Note_on_c, 0, 71, 126
1, 208073, Note_on_c, 0, 71, 0
1, 208080, Note_on_c, 0, 67, 126
1, 208080, Note_on_c, 0, 79, 126
1, 208193, Note_on_c, 0, 67, 0
1, 208193, Note_on_c, 0, 79, 0
1, 208200, Note_on_c, 0, 71, 126
1, 208313, Note_on_c, 0, 71, 0
1, 208320, Note_on_c, 0, 66, 126
1, 208320, Note_on_c, 0, 78, 126
1, 208433, Note_on_c, 0, 66, 0
1, 208433, Note_on_c, 0, 78, 0
1, 208440, Note_on_c, 0, 71, 126
1, 208553, Note_on_c, 0, 71, 0
1, 208560, Note_on_c, 0, 71, 126
1, 208560, Note_on_c, 0, 83, 126
1, 208673, Note_on_c, 0, 71, 0
1, 208673, Note_on_c, 0, 83, 0
1, 208680, Note_on_c, 0, 78, 126
1, 208793, Note_on_c, 0, 78, 0
1, 208800, Note_on_c, 0, 64, 126
1, 208800, Note_on_c, 0, 76, 126
1, 208913, Note_on_c, 0, 64, 0
1, 208913, Note_on_c, 0, 76, 0
1, 208920, Note_on_c, 0, 71, 126
1, 209033, Note_on_c, 0, 71, 0
1, 209040, Note_on_c, 0, 66, 126
1, 209040, Note_on_c, 0, 78, 126
1, 209153, Note_on_c, 0, 66, 0
1, 209153, Note_on_c, 0, 78, 0
1, 209160, Note_on_c, 0, 71, 126
1, 209273, Note_on_c, 0, 71, 0
1, 209280, Note_on_c, 0, 67, 126
1, 209280, Note_on_c, 0, 79, 126
1, 209393, Note_on_c, 0, 67, 0
1, 209393, Note_on_c, 0, 79, 0
1, 209400, Note_on_c, 0, 71, 126
1, 209513, Note_on_c, 0, 71, 0
1, 209520, Note_on_c, 0, 66, 126
1, 209520, Note_on_c, 0, 78, 126
1, 209633, Note_on_c, 0, 66, 0
1, 209633, Note_on_c, 0, 78, 0
1, 209640, Note_on_c, 0, 71, 126
1, 209753, Note_on_c, 0, 71, 0
1, 209760, Note_on_c, 0, 64, 126
1, 209760, Note_on_c, 0, 76, 126
1, 209873, Note_on_c, 0, 64, 0
1, 209873, Note_on_c, 0, 76, 0
1, 209880, Note_on_c, 0, 71, 126
1, 209993, Note_on_c, 0, 71, 0
1, 210000, Note_on_c, 0, 67, 126
1, 210000, Note_on_c, 0, 79, 126
1, 210113, Note_on_c, 0, 67, 0
1, 210113, Note_on_c, 0, 79, 0
1, 210120, Note_on_c, 0, 71, 126
1, 210233, Note_on_c, 0, 71, 0
1, 210240, Note_on_c, 0, 66, 126
1, 210240, Note_on_c, 0, 78, 126
1, 210353, Note_on_c, 0, 66, 0
1, 210353, Note_on_c, 0, 78, 0
1, 210360, Note_on_c, 0, 71, 126
1, 210473, Note_on_c, 0, 71, 0
1, 210480, Note_on_c, 0, 64, 126
1, 210480, Note_on_c, 0, 76, 126
1, 210593, Note_on_c, 0, 64, 0
1, 210593, Note_on_c, 0, 76, 0
1, 210600, Note_on_c, 0, 71, 126
1, 210713, Note_on_c, 0, 71, 0
1, 210720, Note_on_c, 0, 62, 126
1, 210720, Note_on_c, 0, 74, 126
1, 210833, Note_on_c, 0, 62, 0
1, 210833, Note_on_c, 0, 74, 0
1, 210840, Note_on_c, 0, 71, 126
1, 210953, Note_on_c, 0, 71, 0
1, 210960, Note_on_c, 0, 64, 126
1, 210960, Note_on_c, 0, 76, 126
1, 211073, Note_on_c, 0, 64, 0
1, 211073, Note_on_c, 0, 76, 0
1, 211080, Note_on_c, 0, 71, 126
1, 211193, Note_on_c, 0, 71, 0
1, 211200, Note_on_c, 0, 66, 126
1, 211200, Note_on_c, 0, 78, 126
1, 211313, Note_on_c, 0, 66, 0
1, 211313, Note_on_c, 0, 78, 0
1, 211320, Note_on_c, 0, 71, 126
1, 211433, Note_on_c, 0, 71, 0
1, 211440, Note_on_c, 0, 62, 126
1, 211440, Note_on_c, 0, 74, 126
1, 211553, Note_on_c, 0, 62, 0
1, 211553, Note_on_c, 0, 74, 0
1, 211560, Note_on_c, 0, 71, 126
1, 211673, Note_on_c, 0, 71, 0
1, 211680, Key_signature, 0, "major"
1, 211680, Note_on_c, 0, 69, 126
1, 211680, Note_on_c, 0, 72, 126
1, 211680, Note_on_c, 0, 77, 126
1, 211680, Note_on_c, 0, 81, 126
1, 212591, Note_on_c, 0, 69, 0
1, 212591, Note_on_c, 0, 72, 0
1, 212591, Note_on_c, 0, 77, 0
1, 212591, Note_on_c, 0, 81, 0
1, 212640, Note_on_c, 0, 69, 126
1, 212640, Note_on_c, 0, 81, 126
1, 213038, Note_on_c, 0, 69, 0
1, 213038, Note_on_c, 0, 81, 0
1, 213060, Note_on_c, 0, 69, 126
1, 213060, Note_on_c, 0, 81, 126
1, 213116, Note_on_c, 0, 69, 0
1, 213116, Note_on_c, 0, 81, 0
1, 213120, Note_on_c, 0, 71, 126
1, 213120, Note_on_c, 0, 76, 126
1, 213120, Note_on_c, 0, 79, 126
1, 213120, Note_on_c, 0, 83, 126
1, 214031, Note_on_c, 0, 71, 0
1, 214031, Note_on_c, 0, 76, 0
1, 214031, Note_on_c, 0, 79, 0
1, 214031, Note_on_c, 0, 83, 0
1, 214080, Note_on_c, 0, 71, 126
1, 214080, Note_on_c, 0, 83, 126
1, 214307, Note_on_c, 0, 71, 0
1, 214307, Note_on_c, 0, 83, 0
1, 214320, Note_on_c, 0, 71, 126
1, 214320, Note_on_c, 0, 83, 126
1, 214547, Note_on_c, 0, 71, 0
1, 214547, Note_on_c, 0, 83, 0
1, 214560, Note_on_c, 0, 71, 126
1, 214560, Note_on_c, 0, 76, 126
1, 214560, Note_on_c, 0, 81, 126
1, 214560, Note_on_c, 0, 83, 126
1, 215471, Note_on_c, 0, 71, 0
1, 215471, Note_on_c, 0, 76, 0
1, 215471, Note_on_c, 0, 81, 0
1, 215471, Note_on_c, 0, 83, 0
1, 215520, Note_on_c, 0, 72, 126
1, 215520, Note_on_c, 0, 84, 126
1, 215975, Note_on_c, 0, 72, 0
1, 215975, Note_on_c, 0, 84, 0
1, 216000, Note_on_c, 0, 74, 126
1, 216000, Note_on_c, 0, 79, 126
1, 216000, Note_on_c, 0, 83, 126
1, 216000, Note_on_c, 0, 86, 126
1, 216911, Note_on_c, 0, 74, 0
1, 216911, Note_on_c, 0, 79, 0
1, 216911, Note_on_c, 0, 83, 0
1, 216911, Note_on_c, 0, 86, 0
1, 216960, Note_on_c, 0, 74, 126
1, 216960, Note_on_c, 0, 86, 126
1, 217187, Note_on_c, 0, 74, 0
1, 217187, Note_on_c, 0, 86, 0
1, 217200, Note_on_c, 0, 74, 126
1, 217200, Note_on_c, 0, 86, 126
1, 217427, Note_on_c, 0, 74, 0
1, 217427, Note_on_c, 0, 86, 0
1, 217440, Note_on_c, 0, 69, 126
1, 217440, Note_on_c, 0, 72, 126
1, 217440, Note_on_c, 0, 77, 126
1, 217440, Note_on_c, 0, 81, 126
1, 218351, Note_on_c, 0, 69, 0
1, 218351, Note_on_c, 0, 72, 0
1, 218351, Note_on_c, 0, 77, 0
1, 218351, Note_on_c, 0, 81, 0
1, 218400, Note_on_c, 0, 69, 126
1, 218400, Note_on_c, 0, 81, 126
1, 218798, Note_on_c, 0, 69, 0
1, 218798, Note_on_c, 0, 81, 0
1, 218820, Note_on_c, 0, 69, 126
1, 218820, Note_on_c, 0, 81, 126
1, 218876, Note_on_c, 0, 69, 0
1, 218876, Note_on_c, 0, 81, 0
1, 218880, Note_on_c, 0, 71, 126
1, 218880, Note_on_c, 0, 76, 126
1, 218880, Note_on_c, 0, 79, 126
1, 218880, Note_on_c, 0, 83, 126
1, 219791, Note_on_c, 0, 71, 0
1, 219791, Note_on_c, 0, 76, 0
1, 219791, Note_on_c, 0, 79, 0
1, 219791, Note_on_c, 0, 83, 0
1, 219840, Note_on_c, 0, 71, 126
1, 219840, Note_on_c, 0, 83, 126
1, 220067, Note_on_c, 0, 71, 0
1, 220067, Note_on_c, 0, 83, 0
1, 220080, Note_on_c, 0, 71, 126
1, 220080, Note_on_c, 0, 83, 126
1, 220307, Note_on_c, 0, 71, 0
1, 220307, Note_on_c, 0, 83, 0
1, 220320, Note_on_c, 0, 71, 126
1, 220320, Note_on_c, 0, 76, 126
1, 220320, Note_on_c, 0, 81, 126
1, 220320, Note_on_c, 0, 83, 126
1, 221231, Note_on_c, 0, 71, 0
1, 221231, Note_on_c, 0, 76, 0
1, 221231, Note_on_c, 0, 81, 0
1, 221231, Note_on_c, 0, 83, 0
1, 221280, Note_on_c, 0, 72, 126
1, 221280, Note_on_c, 0, 84, 126
1, 221735, Note_on_c, 0, 72, 0
1, 221735, Note_on_c, 0, 84, 0
1, 221760, Note_on_c, 0, 76, 126
1, 221760, Note_on_c, 0, 81, 126
1, 221760, Note_on_c, 0, 84, 126
1, 221760, Note_on_c, 0, 88, 126
1, 222671, Note_on_c, 0, 76, 0
1, 222671, Note_on_c, 0, 81, 0
1, 222671, Note_on_c, 0, 84, 0
1, 222671, Note_on_c, 0, 88, 0
1, 222720, Note_on_c, 0, 76, 126
1, 222720, Note_on_c, 0, 88, 126
1, 223118, Note_on_c, 0, 76, 0
1, 223118, Note_on_c, 0, 88, 0
1, 223140, Note_on_c, 0, 74, 126
1, 223140, Note_on_c, 0, 86, 126
1, 223196, Note_on_c, 0, 74, 0
1, 223196, Note_on_c, 0, 86, 0
1, 223200, Note_on_c, 0, 76, 126
1, 223200, Note_on_c, 0, 79, 126
1, 223200, Note_on_c, 0, 83, 126
1, 223200, Note_on_c, 0, 88, 126
1, 224111, Note_on_c, 0, 76, 0
1, 224111, Note_on_c, 0, 79, 0
1, 224111, Note_on_c, 0, 83, 0
1, 224111, Note_on_c, 0, 88, 0
1, 224160, Note_on_c, 0, 76, 126
1, 224160, Note_on_c, 0, 88, 126
1, 224558, Note_on_c, 0, 76, 0
1, 224558, Note_on_c, 0, 88, 0
1, 224580, Note_on_c, 0, 74, 126
1, 224580, Note_on_c, 0, 86, 126
1, 224636, Note_on_c, 0, 74, 0
1, 224636, Note_on_c, 0, 86, 0
1, 224640, Note_on_c, 0, 76, 126
1, 224640, Note_on_c, 0, 81, 126
1, 224640, Note_on_c, 0, 84, 126
1, 224640, Note_on_c, 0, 88, 126
1, 225551, Note_on_c, 0, 76, 0
1, 225551, Note_on_c, 0, 81, 0
1, 225551, Note_on_c, 0, 84, 0
1, 225551, Note_on_c, 0, 88, 0
1, 225600, Note_on_c, 0, 76, 126
1, 225600, Note_on_c, 0, 88, 126
1, 225827, Note_on_c, 0, 76, 0
1, 225827, Note_on_c, 0, 88, 0
1, 225840, Note_on_c, 0, 76, 126
1, 225840, Note_on_c, 0, 88, 126
1, 226067, Note_on_c, 0, 76, 0
1, 226067, Note_on_c, 0, 88, 0
1, 226080, Note_on_c, 0, 76, 126
1, 226080, Note_on_c, 0, 79, 126
1, 226080, Note_on_c, 0, 83, 126
1, 226080, Note_on_c, 0, 88, 126
1, 226991, Note_on_c, 0, 76, 0
1, 226991, Note_on_c, 0, 79, 0
1, 226991, Note_on_c, 0, 83, 0
1, 226991, Note_on_c, 0, 88, 0
1, 227040, Note_on_c, 0, 76, 126
1, 227040, Note_on_c, 0, 88, 126
1, 227267, Note_on_c, 0, 76, 0
1, 227267, Note_on_c, 0, 88, 0
1, 227280, Note_on_c, 0, 76, 126
1, 227280, Note_on_c, 0, 88, 126
1, 227507, Note_on_c, 0, 76, 0
1, 227507, Note_on_c, 0, 88, 0
1, 227520, Note_on_c, 0, 81, 126
1, 227520, Note_on_c, 0, 84, 126
1, 227520, Note_on_c, 0, 89, 126
1, 227520, Note_on_c, 0, 93, 126
1, 228431, Note_on_c, 0, 81, 0
1, 228431, Note_on_c, 0, 84, 0
1, 228431, Note_on_c, 0, 89, 0
1, 228431, Note_on_c, 0, 93, 0
1, 228480, Note_on_c, 0, 81, 126
1, 228480, Note_on_c, 0, 93, 126
1, 228878, Note_on_c, 0, 81, 0
1, 228878, Note_on_c, 0, 93, 0
1, 228900, Note_on_c, 0, 81, 126
1, 228900, Note_on_c, 0, 93, 126
1, 228956, Note_on_c, 0, 81, 0
1, 228956, Note_on_c, 0, 93, 0
1, 228960, Note_on_c, 0, 83, 126
1, 228960, Note_on_c, 0, 88, 126
1, 228960, Note_on_c, 0, 91, 126
1, 228960, Note_on_c, 0, 95, 126
1, 229871, Note_on_c, 0, 83, 0
1, 229871, Note_on_c, 0, 88, 0
1, 229871, Note_on_c, 0, 91, 0
1, 229871, Note_on_c, 0, 95, 0
1, 229920, Note_on_c, 0, 83, 126
1, 229920, Note_on_c, 0, 95, 126
1, 230147, Note_on_c, 0, 83, 0
1, 230147, Note_on_c, 0, 95, 0
1, 230160, Note_on_c, 0, 83, 126
1, 230160, Note_on_c, 0, 95, 126
1, 230387, Note_on_c, 0, 83, 0
1, 230387, Note_on_c, 0, 95, 0
1, 230400, Note_on_c, 0, 83, 126
1, 230400, Note_on_c, 0, 88, 126
1, 230400, Note_on_c, 0, 93, 126
1, 230400, Note_on_c, 0, 95, 126
1, 231311, Note_on_c, 0, 83, 0
1, 231311, Note_on_c, 0, 88, 0
1, 231311, Note_on_c, 0, 93, 0
1, 231311, Note_on_c, 0, 95, 0
1, 231360, Note_on_c, 0, 84, 126
1, 231360, Note_on_c, 0, 96, 126
1, 231815, Note_on_c, 0, 84, 0
1, 231815, Note_on_c, 0, 96, 0
1, 231840, Note_on_c, 0, 86, 126
1, 231840, Note_on_c, 0, 91, 126
1, 231840, Note_on_c, 0, 95, 126
1, 231840, Note_on_c, 0, 98, 126
1, 232751, Note_on_c, 0, 86, 0
1, 232751, Note_on_c, 0, 91, 0
1, 232751, Note_on_c, 0, 95, 0
1, 232751, Note_on_c, 0, 98, 0
1, 232800, Note_on_c, 0, 86, 126
1, 232800, Note_on_c, 0, 98, 126
1, 233027, Note_on_c, 0, 86, 0
1, 233027, Note_on_c, 0, 98, 0
1, 233040, Note_on_c, 0, 86, 126
1, 233040, Note_on_c, 0, 98, 126
1, 233267, Note_on_c, 0, 86, 0
1, 233267, Note_on_c, 0, 98, 0
1, 233280, Note_on_c, 0, 81, 126
1, 233280, Note_on_c, 0, 84, 126
1, 233280, Note_on_c, 0, 88, 126
1, 233280, Note_on_c, 0, 93, 126
1, 234191, Note_on_c, 0, 81, 0
1, 234191, Note_on_c, 0, 84, 0
1, 234191, Note_on_c, 0, 88, 0
1, 234191, Note_on_c, 0, 93, 0
1, 234240, Note_on_c, 0, 81, 126
1, 234240, Note_on_c, 0, 93, 126
1, 234638, Note_on_c, 0, 81, 0
1, 234638, Note_on_c, 0, 93, 0
1, 234660, Note_on_c, 0, 81, 126
1, 234660, Note_on_c, 0, 93, 126
1, 234716, Note_on_c, 0, 81, 0
1, 234716, Note_on_c, 0, 93, 0
1, 234720, Note_on_c, 0, 83, 126
1, 234720, Note_on_c, 0, 88, 126
1, 234720, Note_on_c, 0, 91, 126
1, 234720, Note_on_c, 0, 95, 126
1, 235631, Note_on_c, 0, 83, 0
1, 235631, Note_on_c, 0, 88, 0
1, 235631, Note_on_c, 0, 91, 0
1, 235631, Note_on_c, 0, 95, 0
1, 235680, Note_on_c, 0, 83, 126
1, 235680, Note_on_c, 0, 95, 126
1, 235907, Note_on_c, 0, 83, 0
1, 235907, Note_on_c, 0, 95, 0
1, 235920, Note_on_c, 0, 83, 126
1, 235920, Note_on_c, 0, 95, 126
1, 236147, Note_on_c, 0, 83, 0
1, 236147, Note_on_c, 0, 95, 0
1, 236160, Note_on_c, 0, 83, 126
1, 236160, Note_on_c, 0, 88, 126
1, 236160, Note_on_c, 0, 93, 126
1, 236160, Note_on_c, 0, 95, 126
1, 237071, Note_on_c, 0, 83, 0
1, 237071, Note_on_c, 0, 88, 0
1, 237071, Note_on_c, 0, 93, 0
1, 237071, Note_on_c, 0, 95, 0
1, 237120, Note_on_c, 0, 84, 126
1, 237120, Note_on_c, 0, 96, 126
1, 237575, Note_on_c, 0, 84, 0
1, 237575, Note_on_c, 0, 96, 0
1, 237600, Note_on_c, 0, 86, 126
1, 237600, Note_on_c, 0, 91, 126
1, 237600, Note_on_c, 0, 95, 126
1, 237600, Note_on_c, 0, 98, 126
1, 238511, Note_on_c, 0, 86, 0
1, 238511, Note_on_c, 0, 91, 0
1, 238511, Note_on_c, 0, 95, 0
1, 238511, Note_on_c, 0, 98, 0
1, 238560, Note_on_c, 0, 86, 126
1, 238560, Note_on_c, 0, 98, 126
1, 238787, Note_on_c, 0, 86, 0
1, 238787, Note_on_c, 0, 98, 0
1, 238800, Note_on_c, 0, 86, 126
1, 238800, Note_on_c, 0, 98, 126
1, 239939, Note_on_c, 0, 86, 0
1, 239939, Note_on_c, 0, 98, 0
1, 240480, Tempo, 1000000
1, 240480, Note_on_c, 0, 57, 49
1, 240480, Note_on_c, 0, 69, 49
1, 241391, Note_on_c, 0, 57, 0
1, 241391, Note_on_c, 0, 69, 0
1, 241440, Note_on_c, 0, 57, 49
1, 241440, Note_on_c, 0, 69, 49
1, 241838, Note_on_c, 0, 57, 0
1, 241838, Note_on_c, 0, 69, 0
1, 241860, Note_on_c, 0, 57, 49
1, 241860, Note_on_c, 0, 69, 49
1, 241916, Note_on_c, 0, 57, 0
1, 241916, Note_on_c, 0, 69, 0
1, 241920, Note_on_c, 0, 59, 49
1, 241920, Note_on_c, 0, 71, 49
1, 242831, Note_on_c, 0, 59, 0
1, 242831, Note_on_c, 0, 71, 0
1, 242880, Note_on_c, 0, 59, 49
1, 242880, Note_on_c, 0, 71, 49
1, 243107, Note_on_c, 0, 59, 0
1, 243107, Note_on_c, 0, 71, 0
1, 243120, Note_on_c, 0, 59, 49
1, 243120, Note_on_c, 0, 71, 49
1, 243347, Note_on_c, 0, 59, 0
1, 243347, Note_on_c, 0, 71, 0
1, 243360, Note_on_c, 0, 59, 49
1, 243360, Note_on_c, 0, 71, 49
1, 244271, Note_on_c, 0, 59, 0
1, 244271, Note_on_c, 0, 71, 0
1, 244320, Note_on_c, 0, 60, 49
1, 244320, Note_on_c, 0, 72, 49
1, 244775, Note_on_c, 0, 60, 0
1, 244775, Note_on_c, 0, 72, 0
1, 244800, Note_on_c, 0, 62, 49
1, 244800, Note_on_c, 0, 74, 49
1, 245711, Note_on_c, 0, 62, 0
1, 245711, Note_on_c, 0, 74, 0
1, 245760, Note_on_c, 0, 62, 49
1, 245760, Note_on_c, 0, 74, 49
1, 245987, Note_on_c, 0, 62, 0
1, 245987, Note_on_c, 0, 74, 0
1, 246000, Note_on_c, 0, 62, 49
1, 246000, Note_on_c, 0, 74, 49
1, 247595, Note_on_c, 0, 62, 0
1, 247595, Note_on_c, 0, 74, 0
1, 248640, Tempo, 599999
1, 248640, Note_on_c, 0, 83, 49
1, 249551, Note_on_c, 0, 83, 0
1, 249600, Note_on_c, 0, 86, 49
1, 251423, Note_on_c, 0, 86, 0
1, 252480, Note_on_c, 0, 84, 49
1, 253391, Note_on_c, 0, 84, 0
1, 253440, Note_on_c, 0, 87, 49
1, 255263, Note_on_c, 0, 87, 0
1, 255360, Note_on_c, 0, 87, 49
1, 256271, Note_on_c, 0, 87, 0
1, 256320, Note_on_c, 0, 71, 49
1, 256320, Note_on_c, 0, 74, 49
1, 257231, Note_on_c, 0, 71, 0
1, 257231, Note_on_c, 0, 74, 0
1, 257280, Note_on_c, 0, 77, 49
1, 259103, Note_on_c, 0, 77, 0
1, 259200, Note_on_c, 0, 77, 49
1, 260111, Note_on_c, 0, 77, 0
1, 260160, Note_on_c, 0, 67, 49
1, 260160, Note_on_c, 0, 75, 49
1, 261071, Note_on_c, 0, 67, 0
1, 261071, Note_on_c, 0, 75, 0
1, 261120, Note_on_c, 0, 87, 49
1, 262943, Note_on_c, 0, 87, 0
1, 263040, Note_on_c, 0, 80, 49
1, 263951, Note_on_c, 0, 80, 0
1, 264000, Note_on_c, 0, 65, 49
1, 264000, Note_on_c, 0, 71, 49
1, 264911, Note_on_c, 0, 65, 0
1, 264911, Note_on_c, 0, 71, 0
1, 264960, Note_on_c, 0, 86, 49
1, 266783, Note_on_c, 0, 86, 0
1, 266880, Note_on_c, 0, 84, 49
1, 268703, Note_on_c, 0, 84, 0
1, 268800, Note_on_c, 0, 64, 49
1, 269711, Note_on_c, 0, 64, 0
1, 269760, Note_on_c, 0, 72, 49
1, 270671, Note_on_c, 0, 72, 0
1, 270720, Note_on_c, 0, 82, 49
1, 271631, Note_on_c, 0, 82, 0
1, 273600, Note_on_c, 0, 72, 49
1, 274511, Note_on_c, 0, 72, 0
1, 274560, Note_on_c, 0, 81, 49
1, 275471, Note_on_c, 0, 81, 0
1, 275520, Note_on_c, 0, 67, 49
1, 276431, Note_on_c, 0, 67, 0
1, 276480, Note_on_c, 0, 69, 49
1, 277847, Note_on_c, 0, 69, 0
1, 277920, Note_on_c, 0, 77, 49
1, 278375, Note_on_c, 0, 77, 0
1, 278400, Note_on_c, 0, 82, 49
1, 279311, Note_on_c, 0, 82, 0
1, 279360, Time_signature, 4, 2, 24, 8
1, 279360, Tempo, 666667
1, 279360, Note_on_c, 0, 76, 64
1, 279360, Note_on_c, 0, 88, 64
1, 279815, Note_on_c, 0, 76, 0
1, 279815, Note_on_c, 0, 88, 0
1, 279840, Note_on_c, 0, 88, 64
1, 280295, Note_on_c, 0, 88, 0
1, 280320, Note_on_c, 0, 76, 64
1, 280320, Note_on_c, 0, 88, 64
1, 280775, Note_on_c, 0, 76, 0
1, 280775, Note_on_c, 0, 88, 0
1, 280800, Note_on_c, 0, 88, 64
1, 281255, Note_on_c, 0, 88, 0
1, 281280, Note_on_c, 0, 76, 64
1, 281280, Note_on_c, 0, 88, 64
1, 281735, Note_on_c, 0, 76, 0
1, 281735, Note_on_c, 0, 88, 0
1, 281760, Note_on_c, 0, 88, 64
1, 282215, Note_on_c, 0, 88, 0
1, 282240, Note_on_c, 0, 76, 64
1, 282240, Note_on_c, 0, 88, 64
1, 282695, Note_on_c, 0, 76, 0
1, 282695, Note_on_c, 0, 88, 0
1, 282720, Note_on_c, 0, 88, 64
1, 283175, Note_on_c, 0, 88, 0
1, 283200, Note_on_c, 0, 76, 64
1, 283200, Note_on_c, 0, 88, 64
1, 283655, Note_on_c, 0, 76, 0
1, 283655, Note_on_c, 0, 88, 0
1, 283680, Note_on_c, 0, 88, 64
1, 284135, Note_on_c, 0, 88, 0
1, 284160, Note_on_c, 0, 76, 64
1, 284160, Note_on_c, 0, 88, 64
1, 284615, Note_on_c, 0, 76, 0
1, 284615, Note_on_c, 0, 88, 0
1, 284640, Note_on_c, 0, 88, 64
1, 285095, Note_on_c, 0, 88, 0
1, 285120, Note_on_c, 0, 76, 64
1, 285120, Note_on_c, 0, 88, 64
1, 285575, Note_on_c, 0, 76, 0
1, 285575, Note_on_c, 0, 88, 0
1, 285600, Note_on_c, 0, 88, 64
1, 286055, Note_on_c, 0, 88, 0
1, 286080, Note_on_c, 0, 76, 64
1, 286080, Note_on_c, 0, 88, 64
1, 286535, Note_on_c, 0, 76, 0
1, 286535, Note_on_c, 0, 88, 0
1, 286560, Note_on_c, 0, 88, 64
1, 287015, Note_on_c, 0, 88, 0
1, 287040, Note_on_c, 0, 76, 64
1, 287040, Note_on_c, 0, 88, 64
1, 287495, Note_on_c, 0, 76, 0
1, 287495, Note_on_c, 0, 88, 0
1, 287520, Note_on_c, 0, 88, 64
1, 287975, Note_on_c, 0, 88, 0
1, 288000, Note_on_c, 0, 76, 64
1, 288000, Note_on_c, 0, 88, 64
1, 288455, Note_on_c, 0, 76, 0
1, 288455, Note_on_c, 0, 88, 0
1, 288480, Note_on_c, 0, 88, 64
1, 288935, Note_on_c, 0, 88, 0
1, 288960, Note_on_c, 0, 76, 64
1, 288960, Note_on_c, 0, 88, 64
1, 289415, Note_on_c, 0, 76, 0
1, 289415, Note_on_c, 0, 88, 0
1, 289440, Note_on_c, 0, 88, 64
1, 289895, Note_on_c, 0, 88, 0
1, 289920, Note_on_c, 0, 76, 64
1, 289920, Note_on_c, 0, 88, 64
1, 290375, Note_on_c, 0, 76, 0
1, 290375, Note_on_c, 0, 88, 0
1, 290400, Note_on_c, 0, 88, 64
1, 290855, Note_on_c, 0, 88, 0
1, 290880, Note_on_c, 0, 76, 64
1, 290880, Note_on_c, 0, 88, 64
1, 291335, Note_on_c, 0, 76, 0
1, 291335, Note_on_c, 0, 88, 0
1, 291360, Note_on_c, 0, 88, 64
1, 291815, Note_on_c, 0, 88, 0
1, 291840, Note_on_c, 0, 76, 64
1, 291840, Note_on_c, 0, 88, 64
1, 292295, Note_on_c, 0, 76, 0
1, 292295, Note_on_c, 0, 88, 0
1, 292320, Note_on_c, 0, 88, 64
1, 292775, Note_on_c, 0, 88, 0
1, 292800, Note_on_c, 0, 76, 64
1, 292800, Note_on_c, 0, 88, 64
1, 293255, Note_on_c, 0, 76, 0
1, 293255, Note_on_c, 0, 88, 0
1, 293280, Note_on_c, 0, 88, 64
1, 293735, Note_on_c, 0, 88, 0
1, 293760, Note_on_c, 0, 76, 64
1, 293760, Note_on_c, 0, 88, 64
1, 294215, Note_on_c, 0, 76, 0
1, 294215, Note_on_c, 0, 88, 0
1, 294240, Note_on_c, 0, 88, 64
1, 294695, Note_on_c, 0, 88, 0
1, 294720, Note_on_c, 0, 76, 64
1, 294720, Note_on_c, 0, 88, 64
1, 295175, Note_on_c, 0, 76, 0
1, 295175, Note_on_c, 0, 88, 0
1, 295200, Note_on_c, 0, 88, 64
1, 295655, Note_on_c, 0, 88, 0
1, 295680, Note_on_c, 0, 76, 64
1, 295680, Note_on_c, 0, 88, 64
1, 296135, Note_on_c, 0, 76, 0
1, 296135, Note_on_c, 0, 88, 0
1, 296160, Note_on_c, 0, 88, 64
1, 296615, Note_on_c, 0, 88, 0
1, 296640, Note_on_c, 0, 76, 64
1, 296640, Note_on_c, 0, 88, 64
1, 297095, Note_on_c, 0, 76, 0
1, 297095, Note_on_c, 0, 88, 0
1, 297120, Note_on_c, 0, 88, 64
1, 297575, Note_on_c, 0, 88, 0
1, 297600, Note_on_c, 0, 76, 64
1, 297600, Note_on_c, 0, 88, 64
1, 298055, Note_on_c, 0, 76, 0
1, 298055, Note_on_c, 0, 88, 0
1, 298080, Note_on_c, 0, 88, 64
1, 298535, Note_on_c, 0, 88, 0
1, 298560, Note_on_c, 0, 76, 64
1, 298560, Note_on_c, 0, 88, 64
1, 299015, Note_on_c, 0, 76, 0
1, 299015, Note_on_c, 0, 88, 0
1, 299040, Note_on_c, 0, 88, 64
1, 299495, Note_on_c, 0, 88, 0
1, 299520, Note_on_c, 0, 76, 64
1, 299520, Note_on_c, 0, 88, 64
1, 299975, Note_on_c, 0, 76, 0
1, 299975, Note_on_c, 0, 88, 0
1, 300000, Note_on_c, 0, 88, 64
1, 300455, Note_on_c, 0, 88, 0
1, 300480, Note_on_c, 0, 76, 64
1, 300480, Note_on_c, 0, 88, 64
1, 300935, Note_on_c, 0, 76, 0
1, 300935, Note_on_c, 0, 88, 0
1, 300960, Note_on_c, 0, 88, 64
1, 301415, Note_on_c, 0, 88, 0
1, 301440, Note_on_c, 0, 76, 64
1, 301440, Note_on_c, 0, 88, 64
1, 301895, Note_on_c, 0, 76, 0
1, 301895, Note_on_c, 0, 88, 0
1, 301920, Note_on_c, 0, 88, 64
1, 302375, Note_on_c, 0, 88, 0
1, 302400, Note_on_c, 0, 76, 64
1, 302400, Note_on_c, 0, 88, 64
1, 302855, Note_on_c, 0, 76, 0
1, 302855, Note_on_c, 0, 88, 0
1, 302880, Note_on_c, 0, 88, 64
1, 303335, Note_on_c, 0, 88, 0
1, 303360, Note_on_c, 0, 76, 64
1, 303360, Note_on_c, 0, 88, 64
1, 303815, Note_on_c, 0, 76, 0
1, 303815, Note_on_c, 0, 88, 0
1, 303840, Note_on_c, 0, 88, 64
1, 304295, Note_on_c, 0, 88, 0
1, 304320, Note_on_c, 0, 76, 64
1, 304320, Note_on_c, 0, 88, 64
1, 304775, Note_on_c, 0, 76, 0
1, 304775, Note_on_c, 0, 88, 0
1, 304800, Note_on_c, 0, 88, 64
1, 305255, Note_on_c, 0, 88, 0
1, 305280, Note_on_c, 0, 76, 64
1, 305280, Note_on_c, 0, 88, 64
1, 305735, Note_on_c, 0, 76, 0
1, 305735, Note_on_c, 0, 88, 0
1, 305760, Note_on_c, 0, 88, 64
1, 306215, Note_on_c, 0, 88, 0
1, 306240, Note_on_c, 0, 76, 64
1, 306240, Note_on_c, 0, 88, 64
1, 306695, Note_on_c, 0, 76, 0
1, 306695, Note_on_c, 0, 88, 0
1, 306720, Note_on_c, 0, 88, 64
1, 307175, Note_on_c, 0, 88, 0
1, 307200, Note_on_c, 0, 76, 64
1, 307200, Note_on_c, 0, 88, 64
1, 307655, Note_on_c, 0, 76, 0
1, 307655, Note_on_c, 0, 88, 0
1, 307680, Note_on_c, 0, 88, 64
1, 308135, Note_on_c, 0, 88, 0
1, 308160, Note_on_c, 0, 83, 64
1, 308273, Note_on_c, 0, 83, 0
1, 308280, Note_on_c, 0, 76, 64
1, 308393, Note_on_c, 0, 76, 0
1, 308400, Note_on_c, 0, 84, 64
1, 308513, Note_on_c, 0, 84, 0
1, 308520, Note_on_c, 0, 76, 64
1, 308633, Note_on_c, 0, 76, 0
1, 308640, Note_on_c, 0, 86, 64
1, 308753, Note_on_c, 0, 86, 0
1, 308760, Note_on_c, 0, 76, 64
1, 308873, Note_on_c, 0, 76, 0
1, 308880, Note_on_c, 0, 88, 64
1, 308993, Note_on_c, 0, 88, 0
1, 309000, Note_on_c, 0, 76, 64
1, 309113, Note_on_c, 0, 76, 0
1, 309120, Note_on_c, 0, 83, 64
1, 309233, Note_on_c, 0, 83, 0
1, 309240, Note_on_c, 0, 76, 64
1, 309353, Note_on_c, 0, 76, 0
1, 309360, Note_on_c, 0, 84, 64
1, 309473, Note_on_c, 0, 84, 0
1, 309480, Note_on_c, 0, 76, 64
1, 309593, Note_on_c, 0, 76, 0
1, 309600, Note_on_c, 0, 86, 64
1, 309713, Note_on_c, 0, 86, 0
1, 309720, Note_on_c, 0, 76, 64
1, 309833, Note_on_c, 0, 76, 0
1, 309840, Note_on_c, 0, 88, 64
1, 309953, Note_on_c, 0, 88, 0
1, 309960, Note_on_c, 0, 76, 64
1, 310073, Note_on_c, 0, 76, 0
1, 310080, Note_on_c, 0, 83, 64
1, 310193, Note_on_c, 0, 83, 0
1, 310200, Note_on_c, 0, 76, 64
1, 310313, Note_on_c, 0, 76, 0
1, 310320, Note_on_c, 0, 84, 64
1, 310433, Note_on_c, 0, 84, 0
1, 310440, Note_on_c, 0, 76, 64
1, 310553, Note_on_c, 0, 76, 0
1, 310560, Note_on_c, 0, 86, 64
1, 310673, Note_on_c, 0, 86, 0
1, 310680, Note_on_c, 0, 76, 64
1, 310793, Note_on_c, 0, 76, 0
1, 310800, Note_on_c, 0, 88, 64
1, 310913, Note_on_c, 0, 88, 0
1, 310920, Note_on_c, 0, 76, 64
1, 311033, Note_on_c, 0, 76, 0
1, 311040, Note_on_c, 0, 83, 64
1, 311153, Note_on_c, 0, 83, 0
1, 311160, Note_on_c, 0, 76, 64
1, 311273, Note_on_c, 0, 76, 0
1, 311280, Note_on_c, 0, 84, 64
1, 311393, Note_on_c, 0, 84, 0
1, 311400, Note_on_c, 0, 76, 64
1, 311513, Note_on_c, 0, 76, 0
1, 311520, Note_on_c, 0, 86, 64
1, 311633, Note_on_c, 0, 86, 0
1, 311640, Note_on_c, 0, 76, 64
1, 311753, Note_on_c, 0, 76, 0
1, 311760, Note_on_c, 0, 88, 64
1, 311873, Note_on_c, 0, 88, 0
1, 311880, Note_on_c, 0, 76, 64
1, 311993, Note_on_c, 0, 76, 0
1, 312000, Note_on_c, 0, 83, 64
1, 312113, Note_on_c, 0, 83, 0
1, 312120, Note_on_c, 0, 76, 64
1, 312233, Note_on_c, 0, 76, 0
1, 312240, Note_on_c, 0, 84, 64
1, 312353, Note_on_c, 0, 84, 0
1, 312360, Note_on_c, 0, 76, 64
1, 312473, Note_on_c, 0, 76, 0
1, 312480, Note_on_c, 0, 86, 64
1, 312593, Note_on_c, 0, 86, 0
1, 312600, Note_on_c, 0, 76, 64
1, 312713, Note_on_c, 0, 76, 0
1, 312720, Note_on_c, 0, 88, 64
1, 312833, Note_on_c, 0, 88, 0
1, 312840, Note_on_c, 0, 76, 64
1, 312953, Note_on_c, 0, 76, 0
1, 312960, Note_on_c, 0, 83, 64
1, 313073, Note_on_c, 0, 83, 0
1, 313080, Note_on_c, 0, 76, 64
1, 313193, Note_on_c, 0, 76, 0
1, 313200, Note_on_c, 0, 84, 64
1, 313313, Note_on_c, 0, 84, 0
1, 313320, Note_on_c, 0, 76, 64
1, 313433, Note_on_c, 0, 76, 0
1, 313440, Note_on_c, 0, 86, 64
1, 313553, Note_on_c, 0, 86, 0
1, 313560, Note_on_c, 0, 76, 64
1, 313673, Note_on_c, 0, 76, 0
1, 313680, Note_on_c, 0, 88, 64
1, 313793, Note_on_c, 0, 88, 0
1, 313800, Note_on_c, 0, 76, 64
1, 313913, Note_on_c, 0, 76, 0
1, 313920, Note_on_c, 0, 83, 64
1, 314033, Note_on_c, 0, 83, 0
1, 314040, Note_on_c, 0, 76, 64
1, 314153, Note_on_c, 0, 76, 0
1, 314160, Note_on_c, 0, 84, 64
1, 314273, Note_on_c, 0, 84, 0
1, 314280, Note_on_c, 0, 76, 64
1, 314393, Note_on_c, 0, 76, 0
1, 314400, Note_on_c, 0, 86, 64
1, 314513, Note_on_c, 0, 86, 0
1, 314520, Note_on_c, 0, 76, 64
1, 314633, Note_on_c, 0, 76, 0
1, 314640, Note_on_c, 0, 88, 64
1, 314753, Note_on_c, 0, 88, 0
1, 314760, Note_on_c, 0, 76, 64
1, 314873, Note_on_c, 0, 76, 0
1, 314880, Note_on_c, 0, 83, 64
1, 314993, Note_on_c, 0, 83, 0
1, 315000, Note_on_c, 0, 76, 64
1, 315113, Note_on_c, 0, 76, 0
1, 315120, Note_on_c, 0, 84, 64
1, 315233, Note_on_c, 0, 84, 0
1, 315240, Note_on_c, 0, 76, 64
1, 315353, Note_on_c, 0, 76, 0
1, 315360, Note_on_c, 0, 86, 64
1, 315473, Note_on_c, 0, 86, 0
1, 315480, Note_on_c, 0, 76, 64
1, 315593, Note_on_c, 0, 76, 0
1, 315600, Note_on_c, 0, 88, 64
1, 315713, Note_on_c, 0, 88, 0
1, 315720, Note_on_c, 0, 76, 64
1, 315833, Note_on_c, 0, 76, 0
1, 315840, Note_on_c, 0, 83, 64
1, 315953, Note_on_c, 0, 83, 0
1, 315960, Note_on_c, 0, 76, 64
1, 316073, Note_on_c, 0, 76, 0
1, 316080, Note_on_c, 0, 84, 64
1, 316193, Note_on_c, 0, 84, 0
1, 316200, Note_on_c, 0, 76, 64
1, 316313, Note_on_c, 0, 76, 0
1, 316320, Note_on_c, 0, 86, 64
1, 316433, Note_on_c, 0, 86, 0
1, 316440, Note_on_c, 0, 76, 64
1, 316553, Note_on_c, 0, 76, 0
1, 316560, Note_on_c, 0, 88, 64
1, 316673, Note_on_c, 0, 88, 0
1, 316680, Note_on_c, 0, 76, 64
1, 316793, Note_on_c, 0, 76, 0
1, 316800, Note_on_c, 0, 83, 64
1, 316913, Note_on_c, 0, 83, 0
1, 316920, Note_on_c, 0, 76, 64
1, 317033, Note_on_c, 0, 76, 0
1, 317040, Note_on_c, 0, 84, 64
1, 317153, Note_on_c, 0, 84, 0
1, 317160, Note_on_c, 0, 76, 64
1, 317273, Note_on_c, 0, 76, 0
1, 317280, Note_on_c, 0, 86, 64
1, 317393, Note_on_c, 0, 86, 0
1, 317400, Note_on_c, 0, 76, 64
1, 317513, Note_on_c, 0, 76, 0
1, 317520, Note_on_c, 0, 88, 64
1, 317633, Note_on_c, 0, 88, 0
1, 317640, Note_on_c, 0, 76, 64
1, 317753, Note_on_c, 0, 76, 0
1, 317760, Note_on_c, 0, 83, 64
1, 317873, Note_on_c, 0, 83, 0
1, 317880, Note_on_c, 0, 76, 64
1, 317993, Note_on_c, 0, 76, 0
1, 318000, Note_on_c, 0, 84, 64
1, 318113, Note_on_c, 0, 84, 0
1, 318120, Note_on_c, 0, 76, 64
1, 318233, Note_on_c, 0, 76, 0
1, 318240, Note_on_c, 0, 86, 64
1, 318353, Note_on_c, 0, 86, 0
1, 318360, Note_on_c, 0, 76, 64
1, 318473, Note_on_c, 0, 76, 0
1, 318480, Note_on_c, 0, 88, 64
1, 318593, Note_on_c, 0, 88, 0
1, 318600, Note_on_c, 0, 76, 64
1, 318713, Note_on_c, 0, 76, 0
1, 318720, Note_on_c, 0, 83, 64
1, 318833, Note_on_c, 0, 83, 0
1, 318840, Note_on_c, 0, 76, 64
1, 318953, Note_on_c, 0, 76, 0
1, 318960, Note_on_c, 0, 84, 64
1, 319073, Note_on_c, 0, 84, 0
1, 319080, Note_on_c, 0, 76, 64
1, 319193, Note_on_c, 0, 76, 0
1, 319200, Note_on_c, 0, 86, 64
1, 319313, Note_on_c, 0, 86, 0
1, 319320, Note_on_c, 0, 76, 64
1, 319433, Note_on_c, 0, 76, 0
1, 319440, Note_on_c, 0, 88, 64
1, 319553, Note_on_c, 0, 88, 0
1, 319560, Note_on_c, 0, 76, 64
1, 319673, Note_on_c, 0, 76, 0
1, 319680, Note_on_c, 0, 83, 64
1, 319793, Note_on_c, 0, 83, 0
1, 319800, Note_on_c, 0, 76, 64
1, 319913, Note_on_c, 0, 76, 0
1, 319920, Note_on_c, 0, 84, 64
1, 320033, Note_on_c, 0, 84, 0
1, 320040, Note_on_c, 0, 76, 64
1, 320153, Note_on_c, 0, 76, 0
1, 320160, Note_on_c, 0, 86, 64
1, 320273, Note_on_c, 0, 86, 0
1, 320280, Note_on_c, 0, 76, 64
1, 320393, Note_on_c, 0, 76, 0
1, 320400, Note_on_c, 0, 88, 64
1, 320513, Note_on_c, 0, 88, 0
1, 320520, Note_on_c, 0, 76, 64
1, 320633, Note_on_c, 0, 76, 0
1, 320640, Note_on_c, 0, 83, 64
1, 320753, Note_on_c, 0, 83, 0
1, 320760, Note_on_c, 0, 76, 64
1, 320873, Note_on_c, 0, 76, 0
1, 320880, Note_on_c, 0, 84, 64
1, 320993, Note_on_c, 0, 84, 0
1, 321000, Note_on_c, 0, 76, 64
1, 321113, Note_on_c, 0, 76, 0
1, 321120, Note_on_c, 0, 86, 64
1, 321233, Note_on_c, 0, 86, 0
1, 321240, Note_on_c, 0, 76, 64
1, 321353, Note_on_c, 0, 76, 0
1, 321360, Note_on_c, 0, 88, 64
1, 321473, Note_on_c, 0, 88, 0
1, 321480, Note_on_c, 0, 76, 64
1, 321593, Note_on_c, 0, 76, 0
1, 321600, Note_on_c, 0, 83, 64
1, 321713, Note_on_c, 0, 83, 0
1, 321720, Note_on_c, 0, 76, 64
1, 321833, Note_on_c, 0, 76, 0
1, 321840, Note_on_c, 0, 84, 64
1, 321953, Note_on_c, 0, 84, 0
1, 321960, Note_on_c, 0, 76, 64
1, 322073, Note_on_c, 0, 76, 0
1, 322080, Note_on_c, 0, 86, 64
1, 322193, Note_on_c, 0, 86, 0
1, 322200, Note_on_c, 0, 76, 64
1, 322313, Note_on_c, 0, 76, 0
1, 322320, Note_on_c, 0, 88, 64
1, 322433, Note_on_c, 0, 88, 0
1, 322440, Note_on_c, 0, 76, 64
1, 322553, Note_on_c, 0, 76, 0
1, 322560, Note_on_c, 0, 83, 64
1, 322673, Note_on_c, 0, 83, 0
1, 322680, Note_on_c, 0, 76, 64
1, 322793, Note_on_c, 0, 76, 0
1, 322800, Note_on_c, 0, 84, 64
1, 322913, Note_on_c, 0, 84, 0
1, 322920, Note_on_c, 0, 76, 64
1, 323033, Note_on_c, 0, 76, 0
1, 323040, Note_on_c, 0, 86, 64
1, 323153, Note_on_c, 0, 86, 0
1, 323160, Note_on_c, 0, 76, 64
1, 323273, Note_on_c, 0, 76, 0
1, 323280, Note_on_c, 0, 88, 64
1, 323393, Note_on_c, 0, 88, 0
1, 323400, Note_on_c, 0, 76, 64
1, 323513, Note_on_c, 0, 76, 0
1, 323520, Note_on_c, 0, 83, 64
1, 323633, Note_on_c, 0, 83, 0
1, 323640, Note_on_c, 0, 76, 64
1, 323753, Note_on_c, 0, 76, 0
1, 323760, Note_on_c, 0, 84, 64
1, 323873, Note_on_c, 0, 84, 0
1, 323880, Note_on_c, 0, 76, 64
1, 323993, Note_on_c, 0, 76, 0
1, 324000, Note_on_c, 0, 86, 64
1, 324113, Note_on_c, 0, 86, 0
1, 324120, Note_on_c, 0, 76, 64
1, 324233, Note_on_c, 0, 76, 0
1, 324240, Note_on_c, 0, 88, 64
1, 324353, Note_on_c, 0, 88, 0
1, 324360, Note_on_c, 0, 76, 64
1, 324473, Note_on_c, 0, 76, 0
1, 324480, Note_on_c, 0, 83, 64
1, 324593, Note_on_c, 0, 83, 0
1, 324600, Note_on_c, 0, 76, 64
1, 324713, Note_on_c, 0, 76, 0
1, 324720, Note_on_c, 0, 84, 64
1, 324833, Note_on_c, 0, 84, 0
1, 324840, Note_on_c, 0, 76, 64
1, 324953, Note_on_c, 0, 76, 0
1, 324960, Note_on_c, 0, 86, 64
1, 325073, Note_on_c, 0, 86, 0
1, 325080, Note_on_c, 0, 76, 64
1, 325193, Note_on_c, 0, 76, 0
1, 325200, Note_on_c, 0, 88, 64
1, 325313, Note_on_c, 0, 88, 0
1, 325320, Note_on_c, 0, 76, 64
1, 325433, Note_on_c, 0, 76, 0
1, 325440, Note_on_c, 0, 83, 64
1, 325553, Note_on_c, 0, 83, 0
1, 325560, Note_on_c, 0, 76, 64
1, 325673, Note_on_c, 0, 76, 0
1, 325680, Note_on_c, 0, 84, 64
1, 325793, Note_on_c, 0, 84, 0
1, 325800, Note_on_c, 0, 76, 64
1, 325913, Note_on_c, 0, 76, 0
1, 325920, Note_on_c, 0, 86, 64
1, 326033, Note_on_c, 0, 86, 0
1, 326040, Note_on_c, 0, 76, 64
1, 326153, Note_on_c, 0, 76, 0
1, 326160, Note_on_c, 0, 88, 64
1, 326273, Note_on_c, 0, 88, 0
1, 326280, Note_on_c, 0, 76, 64
1, 326393, Note_on_c, 0, 76, 0
1, 326400, Note_on_c, 0, 83, 64
1, 326513, Note_on_c, 0, 83, 0
1, 326520, Note_on_c, 0, 76, 64
1, 326633, Note_on_c, 0, 76, 0
1, 326640, Note_on_c, 0, 84, 64
1, 326753, Note_on_c, 0, 84, 0
1, 326760, Note_on_c, 0, 76, 64
1, 326873, Note_on_c, 0, 76, 0
1, 326880, Note_on_c, 0, 86, 64
1, 326993, Note_on_c, 0, 86, 0
1, 327000, Note_on_c, 0, 76, 64
1, 327113, Note_on_c, 0, 76, 0
1, 327120, Note_on_c, 0, 88, 64
1, 327233, Note_on_c, 0, 88, 0
1, 327240, Note_on_c, 0, 76, 64
1, 327353, Note_on_c, 0, 76, 0
1, 327360, Note_on_c, 0, 83, 64
1, 327473, Note_on_c, 0, 83, 0
1, 327480, Note_on_c, 0, 76, 64
1, 327593, Note_on_c, 0, 76, 0
1, 327600, Note_on_c, 0, 84, 64
1, 327713, Note_on_c, 0, 84, 0
1, 327720, Note_on_c, 0, 76, 64
1, 327833, Note_on_c, 0, 76, 0
1, 327840, Note_on_c, 0, 86, 64
1, 327953, Note_on_c, 0, 86, 0
1, 327960, Note_on_c, 0, 76, 64
1, 328073, Note_on_c, 0, 76, 0
1, 328080, Note_on_c, 0, 88, 64
1, 328193, Note_on_c, 0, 88, 0
1, 328200, Note_on_c, 0, 76, 64
1, 328313, Note_on_c, 0, 76, 0
1, 328320, Note_on_c, 0, 83, 64
1, 328433, Note_on_c, 0, 83, 0
1, 328440, Note_on_c, 0, 76, 64
1, 328553, Note_on_c, 0, 76, 0
1, 328560, Note_on_c, 0, 84, 64
1, 328673, Note_on_c, 0, 84, 0
1, 328680, Note_on_c, 0, 76, 64
1, 328793, Note_on_c, 0, 76, 0
1, 328800, Note_on_c, 0, 86, 64
1, 328913, Note_on_c, 0, 86, 0
1, 328920, Note_on_c, 0, 76, 64
1, 329033, Note_on_c, 0, 76, 0
1, 329040, Note_on_c, 0, 88, 64
1, 329153, Note_on_c, 0, 88, 0
1, 329160, Note_on_c, 0, 76, 64
1, 329273, Note_on_c, 0, 76, 0
1, 329280, Note_on_c, 0, 83, 64
1, 329393, Note_on_c, 0, 83, 0
1, 329400, Note_on_c, 0, 76, 64
1, 329513, Note_on_c, 0, 76, 0
1, 329520, Note_on_c, 0, 84, 64
1, 329633, Note_on_c, 0, 84, 0
1, 329640, Note_on_c, 0, 76, 64
1, 329753, Note_on_c, 0, 76, 0
1, 329760, Note_on_c, 0, 86, 64
1, 329873, Note_on_c, 0, 86, 0
1, 329880, Note_on_c, 0, 76, 64
1, 329993, Note_on_c, 0, 76, 0
1, 330000, Note_on_c, 0, 88, 64
1, 330113, Note_on_c, 0, 88, 0
1, 330120, Note_on_c, 0, 76, 64
1, 330233, Note_on_c, 0, 76, 0
1, 330240, Note_on_c, 0, 83, 64
1, 330353, Note_on_c, 0, 83, 0
1, 330360, Note_on_c, 0, 76, 64
1, 330473, Note_on_c, 0, 76, 0
1, 330480, Note_on_c, 0, 84, 64
1, 330593, Note_on_c, 0, 84, 0
1, 330600, Note_on_c, 0, 76, 64
1, 330713, Note_on_c, 0, 76, 0
1, 330720, Note_on_c, 0, 86, 64
1, 330833, Note_on_c, 0, 86, 0
1, 330840, Note_on_c, 0, 76, 64
1, 330953, Note_on_c, 0, 76, 0
1, 330960, Note_on_c, 0, 88, 64
1, 331073, Note_on_c, 0, 88, 0
1, 331080, Note_on_c, 0, 76, 64
1, 331193, Note_on_c, 0, 76, 0
1, 331200, Note_on_c, 0, 83, 64
1, 331313, Note_on_c, 0, 83, 0
1, 331320, Note_on_c, 0, 76, 64
1, 331433, Note_on_c, 0, 76, 0
1, 331440, Note_on_c, 0, 84, 64
1, 331553, Note_on_c, 0, 84, 0
1, 331560, Note_on_c, 0, 76, 64
1, 331673, Note_on_c, 0, 76, 0
1, 331680, Note_on_c, 0, 86, 64
1, 331793, Note_on_c, 0, 86, 0
1, 331800, Note_on_c, 0, 76, 64
1, 331913, Note_on_c, 0, 76, 0
1, 331920, Note_on_c, 0, 88, 64
1, 332033, Note_on_c, 0, 88, 0
1, 332040, Note_on_c, 0, 76, 64
1, 332153, Note_on_c, 0, 76, 0
1, 332160, Note_on_c, 0, 83, 64
1, 332273, Note_on_c, 0, 83, 0
1, 332280, Note_on_c, 0, 76, 64
1, 332393, Note_on_c, 0, 76, 0
1, 332400, Note_on_c, 0, 84, 64
1, 332513, Note_on_c, 0, 84, 0
1, 332520, Note_on_c, 0, 76, 64
1, 332633, Note_on_c, 0, 76, 0
1, 332640, Note_on_c, 0, 86, 64
1, 332753, Note_on_c, 0, 86, 0
1, 332760, Note_on_c, 0, 76, 64
1, 332873, Note_on_c, 0, 76, 0
1, 332880, Note_on_c, 0, 88, 64
1, 332993, Note_on_c, 0, 88, 0
1, 333000, Note_on_c, 0, 76, 64
1, 333113, Note_on_c, 0, 76, 0
1, 333120, Tempo, 599999
1, 333120, Note_on_c, 0, 71, 64
1, 333233, Note_on_c, 0, 71, 0
1, 333240, Note_on_c, 0, 64, 64
1, 333353, Note_on_c, 0, 64, 0
1, 333360, Note_on_c, 0, 72, 64
1, 333473, Note_on_c, 0, 72, 0
1, 333480, Note_on_c, 0, 64, 64
1, 333593, Note_on_c, 0, 64, 0
1, 333600, Note_on_c, 0, 74, 64
1, 333713, Note_on_c, 0, 74, 0
1, 333720, Note_on_c, 0, 64, 64
1, 333833, Note_on_c, 0, 64, 0
1, 333840, Note_on_c, 0, 76, 64
1, 333953, Note_on_c, 0, 76, 0
1, 333960, Note_on_c, 0, 64, 64
1, 334073, Note_on_c, 0, 64, 0
1, 334080, Note_on_c, 0, 71, 64
1, 334193, Note_on_c, 0, 71, 0
1, 334200, Note_on_c, 0, 64, 64
1, 334313, Note_on_c, 0, 64, 0
1, 334320, Note_on_c, 0, 72, 64
1, 334433, Note_on_c, 0, 72, 0
1, 334440, Note_on_c, 0, 64, 64
1, 334553, Note_on_c, 0, 64, 0
1, 334560, Note_on_c, 0, 74, 64
1, 334673, Note_on_c, 0, 74, 0
1, 334680, Note_on_c, 0, 64, 64
1, 334793, Note_on_c, 0, 64, 0
1, 334800, Note_on_c, 0, 76, 64
1, 334913, Note_on_c, 0, 76, 0
1, 334920, Note_on_c, 0, 64, 64
1, 335033, Note_on_c, 0, 64, 0
1, 335040, Note_on_c, 0, 71, 64
1, 335153, Note_on_c, 0, 71, 0
1, 335160, Note_on_c, 0, 64, 64
1, 335273, Note_on_c, 0, 64, 0
1, 335280, Note_on_c, 0, 72, 64
1, 335393, Note_on_c, 0, 72, 0
1, 335400, Note_on_c, 0, 64, 64
1, 335513, Note_on_c, 0, 64, 0
1, 335520, Note_on_c, 0, 74, 64
1, 335633, Note_on_c, 0, 74, 0
1, 335640, Note_on_c, 0, 64, 64
1, 335753, Note_on_c, 0, 64, 0
1, 335760, Note_on_c, 0, 76, 64
1, 335873, Note_on_c, 0, 76, 0
1, 335880, Note_on_c, 0, 64, 64
1, 335993, Note_on_c, 0, 64, 0
1, 336000, Note_on_c, 0, 71, 64
1, 336113, Note_on_c, 0, 71, 0
1, 336120, Note_on_c, 0, 64, 64
1, 336233, Note_on_c, 0, 64, 0
1, 336240, Note_on_c, 0, 72, 64
1, 336353, Note_on_c, 0, 72, 0
1, 336360, Note_on_c, 0, 64, 64
1, 336473, Note_on_c, 0, 64, 0
1, 336480, Note_on_c, 0, 74, 64
1, 336593, Note_on_c, 0, 74, 0
1, 336600, Note_on_c, 0, 64, 64
1, 336713, Note_on_c, 0, 64, 0
1, 336720, Note_on_c, 0, 76, 64
1, 336833, Note_on_c, 0, 76, 0
1, 336840, Note_on_c, 0, 64, 64
1, 336953, Note_on_c, 0, 64, 0
1, 336960, Note_on_c, 0, 71, 64
1, 337073, Note_on_c, 0, 71, 0
1, 337080, Note_on_c, 0, 64, 64
1, 337193, Note_on_c, 0, 64, 0
1, 337200, Note_on_c, 0, 72, 64
1, 337313, Note_on_c, 0, 72, 0
1, 337320, Note_on_c, 0, 64, 64
1, 337433, Note_on_c, 0, 64, 0
1, 337440, Note_on_c, 0, 74, 64
1, 337553, Note_on_c, 0, 74, 0
1, 337560, Note_on_c, 0, 64, 64
1, 337673, Note_on_c, 0, 64, 0
1, 337680, Note_on_c, 0, 76, 64
1, 337793, Note_on_c, 0, 76, 0
1, 337800, Note_on_c, 0, 64, 64
1, 337913, Note_on_c, 0, 64, 0
1, 337920, Note_on_c, 0, 71, 64
1, 338033, Note_on_c, 0, 71, 0
1, 338040, Note_on_c, 0, 64, 64
1, 338153, Note_on_c, 0, 64, 0
1, 338160, Note_on_c, 0, 72, 64
1, 338273, Note_on_c, 0, 72, 0
1, 338280, Note_on_c, 0, 64, 64
1, 338393, Note_on_c, 0, 64, 0
1, 338400, Note_on_c, 0, 74, 64
1, 338513, Note_on_c, 0, 74, 0
1, 338520, Note_on_c, 0, 64, 64
1, 338633, Note_on_c, 0, 64, 0
1, 338640, Note_on_c, 0, 76, 64
1, 338753, Note_on_c, 0, 76, 0
1, 338760, Note_on_c, 0, 64, 64
1, 338873, Note_on_c, 0, 64, 0
1, 338880, Note_on_c, 0, 71, 64
1, 338993, Note_on_c, 0, 71, 0
1, 339000, Note_on_c, 0, 64, 64
1, 339113, Note_on_c, 0, 64, 0
1, 339120, Note_on_c, 0, 72, 64
1, 339233, Note_on_c, 0, 72, 0
1, 339240, Note_on_c, 0, 64, 64
1, 339353, Note_on_c, 0, 64, 0
1, 339360, Note_on_c, 0, 74, 64
1, 339473, Note_on_c, 0, 74, 0
1, 339480, Note_on_c, 0, 64, 64
1, 339593, Note_on_c, 0, 64, 0
1, 339600, Note_on_c, 0, 76, 64
1, 339713, Note_on_c, 0, 76, 0
1, 339720, Note_on_c, 0, 64, 64
1, 339833, Note_on_c, 0, 64, 0
1, 339840, Note_on_c, 0, 71, 64
1, 339953, Note_on_c, 0, 71, 0
1, 339960, Note_on_c, 0, 64, 64
1, 340073, Note_on_c, 0, 64, 0
1, 340080, Note_on_c, 0, 72, 64
1, 340193, Note_on_c, 0, 72, 0
1, 340200, Note_on_c, 0, 64, 64
1, 340313, Note_on_c, 0, 64, 0
1, 340320, Note_on_c, 0, 74, 64
1, 340433, Note_on_c, 0, 74, 0
1, 340440, Note_on_c, 0, 64, 64
1, 340553, Note_on_c, 0, 64, 0
1, 340560, Note_on_c, 0, 76, 64
1, 340673, Note_on_c, 0, 76, 0
1, 340680, Note_on_c, 0, 64, 64
1, 340793, Note_on_c, 0, 64, 0
1, 340800, Note_on_c, 0, 71, 64
1, 340913, Note_on_c, 0, 71, 0
1, 340920, Note_on_c, 0, 64, 64
1, 341033, Note_on_c, 0, 64, 0
1, 341040, Note_on_c, 0, 72, 64
1, 341153, Note_on_c, 0, 72, 0
1, 341160, Note_on_c, 0, 64, 64
1, 341273, Note_on_c, 0, 64, 0
1, 341280, Note_on_c, 0, 74, 64
1, 341393, Note_on_c, 0, 74, 0
1, 341400, Note_on_c, 0, 64, 64
1, 341513, Note_on_c, 0, 64, 0
1, 341520, Note_on_c, 0, 76, 64
1, 341633, Note_on_c, 0, 76, 0
1, 341640, Note_on_c, 0, 64, 64
1, 341753, Note_on_c, 0, 64, 0
1, 341760, Note_on_c, 0, 71, 64
1, 341873, Note_on_c, 0, 71, 0
1, 341880, Note_on_c, 0, 64, 64
1, 341993, Note_on_c, 0, 64, 0
1, 342000, Note_on_c, 0, 72, 64
1, 342113, Note_on_c, 0, 72, 0
1, 342120, Note_on_c, 0, 64, 64
1, 342233, Note_on_c, 0, 64, 0
1, 342240, Note_on_c, 0, 74, 64
1, 342353, Note_on_c, 0, 74, 0
1, 342360, Note_on_c, 0, 64, 64
1, 342473, Note_on_c, 0, 64, 0
1, 342480, Note_on_c, 0, 76, 64
1, 342593, Note_on_c, 0, 76, 0
1, 342600, Note_on_c, 0, 64, 64
1, 342713, Note_on_c, 0, 64, 0
1, 342720, Note_on_c, 0, 71, 64
1, 342833, Note_on_c, 0, 71, 0
1, 342840, Note_on_c, 0, 64, 64
1, 342953, Note_on_c, 0, 64, 0
1, 342960, Note_on_c, 0, 72, 64
1, 343073, Note_on_c, 0, 72, 0
1, 343080, Note_on_c, 0, 64, 64
1, 343193, Note_on_c, 0, 64, 0
1, 343200, Note_on_c, 0, 74, 64
1, 343313, Note_on_c, 0, 74, 0
1, 343320, Note_on_c, 0, 64, 64
1, 343433, Note_on_c, 0, 64, 0
1, 343440, Note_on_c, 0, 76, 64
1, 343553, Note_on_c, 0, 76, 0
1, 343560, Note_on_c, 0, 64, 64
1, 343673, Note_on_c, 0, 64, 0
1, 343680, Note_on_c, 0, 71, 64
1, 343793, Note_on_c, 0, 71, 0
1, 343800, Note_on_c, 0, 64, 64
1, 343913, Note_on_c, 0, 64, 0
1, 343920, Note_on_c, 0, 72, 64
1, 344033, Note_on_c, 0, 72, 0
1, 344040, Note_on_c, 0, 64, 64
1, 344153, Note_on_c, 0, 64, 0
1, 344160, Note_on_c, 0, 74, 64
1, 344273, Note_on_c, 0, 74, 0
1, 344280, Note_on_c, 0, 64, 64
1, 344393, Note_on_c, 0, 64, 0
1, 344400, Note_on_c, 0, 76, 64
1, 344513, Note_on_c, 0, 76, 0
1, 344520, Note_on_c, 0, 64, 64
1, 344633, Note_on_c, 0, 64, 0
1, 344640, Note_on_c, 0, 71, 64
1, 344753, Note_on_c, 0, 71, 0
1, 344760, Note_on_c, 0, 64, 64
1, 344873, Note_on_c, 0, 64, 0
1, 344880, Note_on_c, 0, 72, 64
1, 344993, Note_on_c, 0, 72, 0
1, 345000, Note_on_c, 0, 64, 64
1, 345113, Note_on_c, 0, 64, 0
1, 345120, Note_on_c, 0, 74, 64
1, 345233, Note_on_c, 0, 74, 0
1, 345240, Note_on_c, 0, 64, 64
1, 345353, Note_on_c, 0, 64, 0
1, 345360, Note_on_c, 0, 76, 64
1, 345473, Note_on_c, 0, 76, 0
1, 345480, Note_on_c, 0, 64, 64
1, 345593, Note_on_c, 0, 64, 0
1, 345600, Note_on_c, 0, 71, 64
1, 345713, Note_on_c, 0, 71, 0
1, 345720, Note_on_c, 0, 64, 64
1, 345833, Note_on_c, 0, 64, 0
1, 345840, Note_on_c, 0, 72, 64
1, 345953, Note_on_c, 0, 72, 0
1, 345960, Note_on_c, 0, 64, 64
1, 346073, Note_on_c, 0, 64, 0
1, 346080, Note_on_c, 0, 74, 64
1, 346193, Note_on_c, 0, 74, 0
1, 346200, Note_on_c, 0, 64, 64
1, 346313, Note_on_c, 0, 64, 0
1, 346320, Note_on_c, 0, 76, 64
1, 346433, Note_on_c, 0, 76, 0
1, 346440, Note_on_c, 0, 64, 64
1, 346553, Note_on_c, 0, 64, 0
1, 346560, Note_on_c, 0, 71, 64
1, 346673, Note_on_c, 0, 71, 0
1, 346680, Note_on_c, 0, 64, 64
1, 346793, Note_on_c, 0, 64, 0
1, 346800, Note_on_c, 0, 72, 64
1, 346913, Note_on_c, 0, 72, 0
1, 346920, Note_on_c, 0, 64, 64
1, 347033, Note_on_c, 0, 64, 0
1, 347040, Note_on_c, 0, 74, 64
1, 347153, Note_on_c, 0, 74, 0
1, 347160, Note_on_c, 0, 64, 64
1, 347273, Note_on_c, 0, 64, 0
1, 347280, Note_on_c, 0, 76, 64
1, 347393, Note_on_c, 0, 76, 0
1, 347400, Note_on_c, 0, 64, 64
1, 347513, Note_on_c, 0, 64, 0
1, 347520, Note_on_c, 0, 71, 64
1, 347633, Note_on_c, 0, 71, 0
1, 347640, Note_on_c, 0, 64, 64
1, 347753, Note_on_c, 0, 64, 0
1, 347760, Note_on_c, 0, 72, 64
1, 347873, Note_on_c, 0, 72, 0
1, 347880, Note_on_c, 0, 64, 64
1, 347993, Note_on_c, 0, 64, 0
1, 348000, Note_on_c, 0, 74, 64
1, 348113, Note_on_c, 0, 74, 0
1, 348120, Note_on_c, 0, 64, 64
1, 348233, Note_on_c, 0, 64, 0
1, 348240, Note_on_c, 0, 76, 64
1, 348353, Note_on_c, 0, 76, 0
1, 348360, Note_on_c, 0, 64, 64
1, 348473, Note_on_c, 0, 64, 0
1, 348480, Note_on_c, 0, 71, 64
1, 348593, Note_on_c, 0, 71, 0
1, 348600, Note_on_c, 0, 64, 64
1, 348713, Note_on_c, 0, 64, 0
1, 348720, Note_on_c, 0, 72, 65
1, 348833, Note_on_c, 0, 72, 0
1, 348840, Note_on_c, 0, 64, 66
1, 348953, Note_on_c, 0, 64, 0
1, 348960, Note_on_c, 0, 74, 67
1, 349073, Note_on_c, 0, 74, 0
1, 349080, Note_on_c, 0, 64, 67
1, 349193, Note_on_c, 0, 64, 0
1, 349200, Note_on_c, 0, 76, 68
1, 349313, Note_on_c, 0, 76, 0
1, 349320, Note_on_c, 0, 64, 69
1, 349433, Note_on_c, 0, 64, 0
1, 349440, Note_on_c, 0, 71, 70
1, 349553, Note_on_c, 0, 71, 0
1, 349560, Note_on_c, 0, 64, 70
1, 349673, Note_on_c, 0, 64, 0
1, 349680, Note_on_c, 0, 72, 71
1, 349793, Note_on_c, 0, 72, 0
1, 349800, Note_on_c, 0, 64, 72
1, 349913, Note_on_c, 0, 64, 0
1, 349920, Note_on_c, 0, 74, 73
1, 350033, Note_on_c, 0, 74, 0
1, 350040, Note_on_c, 0, 64, 73
1, 350153, Note_on_c, 0, 64, 0
1, 350160, Note_on_c, 0, 76, 74
1, 350273, Note_on_c, 0, 76, 0
1, 350280, Note_on_c, 0, 64, 75
1, 350393, Note_on_c, 0, 64, 0
1, 350400, Note_on_c, 0, 71, 76
1, 350513, Note_on_c, 0, 71, 0
1, 350520, Note_on_c, 0, 64, 76
1, 350633, Note_on_c, 0, 64, 0
1, 350640, Note_on_c, 0, 72, 77
1, 350753, Note_on_c, 0, 72, 0
1, 350760, Note_on_c, 0, 64, 78
1, 350873, Note_on_c, 0, 64, 0
1, 350880, Note_on_c, 0, 74, 79
1, 350993, Note_on_c, 0, 74, 0
1, 351000, Note_on_c, 0, 64, 79
1, 351113, Note_on_c, 0, 64, 0
1, 351120, Note_on_c, 0, 76, 80
1, 351233, Note_on_c, 0, 76, 0
1, 351240, Note_on_c, 0, 64, 81
1, 351353, Note_on_c, 0, 64, 0
1, 351360, Note_on_c, 0, 71, 82
1, 351473, Note_on_c, 0, 71, 0
1, 351480, Note_on_c, 0, 64, 82
1, 351593, Note_on_c, 0, 64, 0
1, 351600, Note_on_c, 0, 72, 83
1, 351713, Note_on_c, 0, 72, 0
1, 351720, Note_on_c, 0, 64, 84
1, 351833, Note_on_c, 0, 64, 0
1, 351840, Note_on_c, 0, 74, 85
1, 351953, Note_on_c, 0, 74, 0
1, 351960, Note_on_c, 0, 64, 85
1, 352073, Note_on_c, 0, 64, 0
1, 352080, Note_on_c, 0, 76, 86
1, 352193, Note_on_c, 0, 76, 0
1, 352200, Note_on_c, 0, 64, 87
1, 352313, Note_on_c, 0, 64, 0
1, 352320, Note_on_c, 0, 71, 88
1, 352433, Note_on_c, 0, 71, 0
1, 352440, Note_on_c, 0, 64, 88
1, 352553, Note_on_c, 0, 64, 0
1, 352560, Note_on_c, 0, 72, 89
1, 352673, Note_on_c, 0, 72, 0
1, 352680, Note_on_c, 0, 64, 90
1, 352793, Note_on_c, 0, 64, 0
1, 352800, Note_on_c, 0, 74, 91
1, 352913, Note_on_c, 0, 74, 0
1, 352920, Note_on_c, 0, 64, 91
1, 353033, Note_on_c, 0, 64, 0
1, 353040, Note_on_c, 0, 76, 92
1, 353153, Note_on_c, 0, 76, 0
1, 353160, Note_on_c, 0, 64, 93
1, 353273, Note_on_c, 0, 64, 0
1, 353280, Note_on_c, 0, 71, 94
1, 353393, Note_on_c, 0, 71, 0
1, 353400, Note_on_c, 0, 64, 94
1, 353513, Note_on_c, 0, 64, 0
1, 353520, Note_on_c, 0, 72, 95
1, 353633, Note_on_c, 0, 72, 0
1, 353640, Note_on_c, 0, 64, 96
1, 353753, Note_on_c, 0, 64, 0
1, 353760, Note_on_c, 0, 74, 97
1, 353873, Note_on_c, 0, 74, 0
1, 353880, Note_on_c, 0, 64, 97
1, 353993, Note_on_c, 0, 64, 0
1, 354000, Note_on_c, 0, 76, 98
1, 354113, Note_on_c, 0, 76, 0
1, 354120, Note_on_c, 0, 64, 99
1, 354233, Note_on_c, 0, 64, 0
1, 354240, Note_on_c, 0, 71, 100
1, 354353, Note_on_c, 0, 71, 0
1, 354360, Note_on_c, 0, 64, 100
1, 354473, Note_on_c, 0, 64, 0
1, 354480, Note_on_c, 0, 72, 101
1, 354593, Note_on_c, 0, 72, 0
1, 354600, Note_on_c, 0, 64, 102
1, 354713, Note_on_c, 0, 64, 0
1, 354720, Note_on_c, 0, 74, 103
1, 354833, Note_on_c, 0, 74, 0
1, 354840, Note_on_c, 0, 64, 103
1, 354953, Note_on_c, 0, 64, 0
1, 354960, Note_on_c, 0, 76, 104
1, 355073, Note_on_c, 0, 76, 0
1, 355080, Note_on_c, 0, 64, 105
1, 355193, Note_on_c, 0, 64, 0
1, 355200, Note_on_c, 0, 71, 106
1, 355313, Note_on_c, 0, 71, 0
1, 355320, Note_on_c, 0, 64, 106
1, 355433, Note_on_c, 0, 64, 0
1, 355440, Note_on_c, 0, 72, 107
1, 355553, Note_on_c, 0, 72, 0
1, 355560, Note_on_c, 0, 64, 108
1, 355673, Note_on_c, 0, 64, 0
1, 355680, Note_on_c, 0, 74, 109
1, 355793, Note_on_c, 0, 74, 0
1, 355800, Note_on_c, 0, 64, 109
1, 355913, Note_on_c, 0, 64, 0
1, 355920, Note_on_c, 0, 76, 110
1, 356033, Note_on_c, 0, 76, 0
1, 356040, Note_on_c, 0, 64, 111
1, 356153, Note_on_c, 0, 64, 0
1, 356160, Tempo, 400000
1, 356160, Note_on_c, 0, 65, 127
1, 356160, Note_on_c, 0, 69, 127
1, 356160, Note_on_c, 0, 72, 127
1, 356160, Note_on_c, 0, 76, 127
1, 356639, Note_on_c, 0, 65, 0
1, 356639, Note_on_c, 0, 69, 0
1, 356639, Note_on_c, 0, 72, 0
1, 356639, Note_on_c, 0, 76, 0
1, 356640, Note_on_c, 0, 69, 112
1, 356791, Note_on_c, 0, 69, 0
1, 356800, Note_on_c, 0, 65, 112
1, 356951, Note_on_c, 0, 65, 0
1, 356960, Note_on_c, 0, 69, 112
1, 357111, Note_on_c, 0, 69, 0
1, 357120, Note_on_c, 0, 76, 112
1, 357271, Note_on_c, 0, 76, 0
1, 357280, Note_on_c, 0, 65, 112
1, 357431, Note_on_c, 0, 65, 0
1, 357440, Note_on_c, 0, 69, 112
1, 357591, Note_on_c, 0, 69, 0
1, 357600, Note_on_c, 0, 72, 112
1, 357751, Note_on_c, 0, 72, 0
1, 357760, Note_on_c, 0, 65, 112
1, 357911, Note_on_c, 0, 65, 0
1, 357920, Note_on_c, 0, 69, 112
1, 358071, Note_on_c, 0, 69, 0
1, 358080, Note_on_c, 0, 76, 112
1, 358231, Note_on_c, 0, 76, 0
1, 358240, Note_on_c, 0, 65, 112
1, 358391, Note_on_c, 0, 65, 0
1, 358400, Note_on_c, 0, 69, 112
1, 358551, Note_on_c, 0, 69, 0
1, 358560, Note_on_c, 0, 72, 112
1, 358711, Note_on_c, 0, 72, 0
1, 358720, Note_on_c, 0, 65, 112
1, 358871, Note_on_c, 0, 65, 0
1, 358880, Note_on_c, 0, 69, 112
1, 359031, Note_on_c, 0, 69, 0
1, 359040, Note_on_c, 0, 76, 112
1, 359191, Note_on_c, 0, 76, 0
1, 359200, Note_on_c, 0, 65, 112
1, 359351, Note_on_c, 0, 65, 0
1, 359360, Note_on_c, 0, 69, 112
1, 359511, Note_on_c, 0, 69, 0
1, 359520, Note_on_c, 0, 72, 112
1, 359671, Note_on_c, 0, 72, 0
1, 359680, Note_on_c, 0, 65, 112
1, 359831, Note_on_c, 0, 65, 0
1, 359840, Note_on_c, 0, 69, 112
1, 359991, Note_on_c, 0, 69, 0
1, 360000, Note_on_c, 0, 76, 112
1, 360151, Note_on_c, 0, 76, 0
1, 360160, Note_on_c, 0, 65, 112
1, 360311, Note_on_c, 0, 65, 0
1, 360320, Note_on_c, 0, 69, 112
1, 360471, Note_on_c, 0, 69, 0
1, 360480, Note_on_c, 0, 72, 112
1, 360631, Note_on_c, 0, 72, 0
1, 360640, Note_on_c, 0, 65, 112
1, 360791, Note_on_c, 0, 65, 0
1, 360800, Note_on_c, 0, 69, 112
1, 360951, Note_on_c, 0, 69, 0
1, 360960, Note_on_c, 0, 76, 112
1, 361111, Note_on_c, 0, 76, 0
1, 361120, Note_on_c, 0, 65, 112
1, 361271, Note_on_c, 0, 65, 0
1, 361280, Note_on_c, 0, 69, 112
1, 361431, Note_on_c, 0, 69, 0
1, 361440, Note_on_c, 0, 72, 112
1, 361591, Note_on_c, 0, 72, 0
1, 361600, Note_on_c, 0, 65, 112
1, 361751, Note_on_c, 0, 65, 0
1, 361760, Note_on_c, 0, 69, 112
1, 361911, Note_on_c, 0, 69, 0
1, 361920, Note_on_c, 0, 72, 112
1, 362071, Note_on_c, 0, 72, 0
1, 362080, Note_on_c, 0, 65, 112
1, 362231, Note_on_c, 0, 65, 0
1, 362240, Note_on_c, 0, 69, 112
1, 362391, Note_on_c, 0, 69, 0
1, 362400, Note_on_c, 0, 72, 112
1, 362551, Note_on_c, 0, 72, 0
1, 362560, Note_on_c, 0, 65, 112
1, 362711, Note_on_c, 0, 65, 0
1, 362720, Note_on_c, 0, 69, 112
1, 362871, Note_on_c, 0, 69, 0
1, 362880, Note_on_c, 0, 72, 112
1, 363031, Note_on_c, 0, 72, 0
1, 363040, Note_on_c, 0, 65, 112
1, 363191, Note_on_c, 0, 65, 0
1, 363200, Note_on_c, 0, 69, 112
1, 363351, Note_on_c, 0, 69, 0
1, 363360, Note_on_c, 0, 72, 112
1, 363815, Note_on_c, 0, 72, 0
1, 363840, Note_on_c, 0, 59, 127
1, 363840, Note_on_c, 0, 64, 127
1, 363840, Note_on_c, 0, 67, 127
1, 363840, Note_on_c, 0, 71, 127
1, 364319, Note_on_c, 0, 59, 0
1, 364319, Note_on_c, 0, 64, 0
1, 364319, Note_on_c, 0, 67, 0
1, 364319, Note_on_c, 0, 71, 0
1, 364320, Note_on_c, 0, 71, 112
1, 364471, Note_on_c, 0, 71, 0
1, 364480, Note_on_c, 0, 67, 112
1, 364631, Note_on_c, 0, 67, 0
1, 364640, Note_on_c, 0, 71, 112
1, 364791, Note_on_c, 0, 71, 0
1, 364800, Note_on_c, 0, 76, 112
1, 364951, Note_on_c, 0, 76, 0
1, 364960, Note_on_c, 0, 67, 112
1, 365111, Note_on_c, 0, 67, 0
1, 365120, Note_on_c, 0, 71, 112
1, 365271, Note_on_c, 0, 71, 0
1, 365280, Note_on_c, 0, 74, 112
1, 365431, Note_on_c, 0, 74, 0
1, 365440, Note_on_c, 0, 67, 112
1, 365591, Note_on_c, 0, 67, 0
1, 365600, Note_on_c, 0, 71, 112
1, 365751, Note_on_c, 0, 71, 0
1, 365760, Note_on_c, 0, 76, 112
1, 365911, Note_on_c, 0, 76, 0
1, 365920, Note_on_c, 0, 67, 112
1, 366071, Note_on_c, 0, 67, 0
1, 366080, Note_on_c, 0, 71, 112
1, 366231, Note_on_c, 0, 71, 0
1, 366240, Note_on_c, 0, 74, 112
1, 366391, Note_on_c, 0, 74, 0
1, 366400, Note_on_c, 0, 67, 112
1, 366551, Note_on_c, 0, 67, 0
1, 366560, Note_on_c, 0, 71, 112
1, 366711, Note_on_c, 0, 71, 0
1, 366720, Note_on_c, 0, 76, 112
1, 366871, Note_on_c, 0, 76, 0
1, 366880, Note_on_c, 0, 67, 112
1, 367031, Note_on_c, 0, 67, 0
1, 367040, Note_on_c, 0, 71, 112
1, 367191, Note_on_c, 0, 71, 0
1, 367200, Note_on_c, 0, 74, 112
1, 367351, Note_on_c, 0, 74, 0
1, 367360, Note_on_c, 0, 67, 112
1, 367511, Note_on_c, 0, 67, 0
1, 367520, Note_on_c, 0, 71, 112
1, 367671, Note_on_c, 0, 71, 0
1, 367680, Note_on_c, 0, 76, 112
1, 367831, Note_on_c, 0, 76, 0
1, 367840, Note_on_c, 0, 67, 112
1, 367991, Note_on_c, 0, 67, 0
1, 368000, Note_on_c, 0, 71, 112
1, 368151, Note_on_c, 0, 71, 0
1, 368160, Note_on_c, 0, 74, 112
1, 368311, Note_on_c, 0, 74, 0
1, 368320, Note_on_c, 0, 67, 112
1, 368471, Note_on_c, 0, 67, 0
1, 368480, Note_on_c, 0, 71, 112
1, 368631, Note_on_c, 0, 71, 0
1, 368640, Note_on_c, 0, 76, 112
1, 368791, Note_on_c, 0, 76, 0
1, 368800, Note_on_c, 0, 67, 112
1, 368951, Note_on_c, 0, 67, 0
1, 368960, Note_on_c, 0, 71, 112
1, 369111, Note_on_c, 0, 71, 0
1, 369120, Note_on_c, 0, 74, 112
1, 369271, Note_on_c, 0, 74, 0
1, 369280, Note_on_c, 0, 67, 112
1, 369431, Note_on_c, 0, 67, 0
1, 369440, Note_on_c, 0, 71, 112
1, 369591, Note_on_c, 0, 71, 0
1, 369600, Note_on_c, 0, 76, 112
1, 369751, Note_on_c, 0, 76, 0
1, 369760, Note_on_c, 0, 67, 112
1, 369911, Note_on_c, 0, 67, 0
1, 369920, Note_on_c, 0, 71, 112
1, 370071, Note_on_c, 0, 71, 0
1, 370080, Note_on_c, 0, 76, 112
1, 370231, Note_on_c, 0, 76, 0
1, 370240, Note_on_c, 0, 67, 112
1, 370391, Note_on_c, 0, 67, 0
1, 370400, Note_on_c, 0, 71, 112
1, 370551, Note_on_c, 0, 71, 0
1, 370560, Note_on_c, 0, 76, 112
1, 370711, Note_on_c, 0, 76, 0
1, 370720, Note_on_c, 0, 67, 112
1, 370871, Note_on_c, 0, 67, 0
1, 370880, Note_on_c, 0, 71, 112
1, 371031, Note_on_c, 0, 71, 0
1, 371040, Note_on_c, 0, 76, 112
1, 371495, Note_on_c, 0, 76, 0
1, 371520, Note_on_c, 0, 64, 127
1, 371520, Note_on_c, 0, 69, 127
1, 371520, Note_on_c, 0, 72, 127
1, 371520, Note_on_c, 0, 76, 127
1, 371999, Note_on_c, 0, 64, 0
1, 371999, Note_on_c, 0, 69, 0
1, 371999, Note_on_c, 0, 72, 0
1, 371999, Note_on_c, 0, 76, 0
1, 372000, Note_on_c, 0, 81, 112
1, 372151, Note_on_c, 0, 81, 0
1, 372160, Note_on_c, 0, 76, 112
1, 372311, Note_on_c, 0, 76, 0
1, 372320, Note_on_c, 0, 81, 112
1, 372471, Note_on_c, 0, 81, 0
1, 372480, Note_on_c, 0, 88, 112
1, 372631, Note_on_c, 0, 88, 0
1, 372640, Note_on_c, 0, 76, 112
1, 372791, Note_on_c, 0, 76, 0
1, 372800, Note_on_c, 0, 81, 112
1, 372951, Note_on_c, 0, 81, 0
1, 372960, Note_on_c, 0, 84, 112
1, 373111, Note_on_c, 0, 84, 0
1, 373120, Note_on_c, 0, 76, 112
1, 373271, Note_on_c, 0, 76, 0
1, 373280, Note_on_c, 0, 81, 112
1, 373431, Note_on_c, 0, 81, 0
1, 373440, Note_on_c, 0, 88, 112
1, 373591, Note_on_c, 0, 88, 0
1, 373600, Note_on_c, 0, 76, 112
1, 373751, Note_on_c, 0, 76, 0
1, 373760, Note_on_c, 0, 81, 112
1, 373911, Note_on_c, 0, 81, 0
1, 373920, Note_on_c, 0, 84, 112
1, 374071, Note_on_c, 0, 84, 0
1, 374080, Note_on_c, 0, 76, 112
1, 374231, Note_on_c, 0, 76, 0
1, 374240, Note_on_c, 0, 81, 112
1, 374391, Note_on_c, 0, 81, 0
1, 374400, Note_on_c, 0, 86, 112
1, 374551, Note_on_c, 0, 86, 0
1, 374560, Note_on_c, 0, 76, 112
1, 374711, Note_on_c, 0, 76, 0
1, 374720, Note_on_c, 0, 81, 112
1, 374871, Note_on_c, 0, 81, 0
1, 374880, Note_on_c, 0, 86, 112
1, 375031, Note_on_c, 0, 86, 0
1, 375040, Note_on_c, 0, 76, 112
1, 375191, Note_on_c, 0, 76, 0
1, 375200, Note_on_c, 0, 81, 112
1, 375351, Note_on_c, 0, 81, 0
1, 375360, Note_on_c, 0, 88, 112
1, 375511, Note_on_c, 0, 88, 0
1, 375520, Note_on_c, 0, 77, 112
1, 375671, Note_on_c, 0, 77, 0
1, 375680, Note_on_c, 0, 81, 112
1, 375831, Note_on_c, 0, 81, 0
1, 375840, Note_on_c, 0, 84, 112
1, 375991, Note_on_c, 0, 84, 0
1, 376000, Note_on_c, 0, 77, 112
1, 376151, Note_on_c, 0, 77, 0
1, 376160, Note_on_c, 0, 81, 112
1, 376311, Note_on_c, 0, 81, 0
1, 376320, Note_on_c, 0, 88, 112
1, 376471, Note_on_c, 0, 88, 0
1, 376480, Note_on_c, 0, 77, 112
1, 376631, Note_on_c, 0, 77, 0
1, 376640, Note_on_c, 0, 81, 112
1, 376791, Note_on_c, 0, 81, 0
1, 376800, Note_on_c, 0, 84, 112
1, 376951, Note_on_c, 0, 84, 0
1, 376960, Note_on_c, 0, 77, 112
1, 377111, Note_on_c, 0, 77, 0
1, 377120, Note_on_c, 0, 81, 112
1, 377271, Note_on_c, 0, 81, 0
1, 377280, Note_on_c, 0, 88, 112
1, 377431, Note_on_c, 0, 88, 0
1, 377440, Note_on_c, 0, 77, 112
1, 377591, Note_on_c, 0, 77, 0
1, 377600, Note_on_c, 0, 81, 112
1, 377751, Note_on_c, 0, 81, 0
1, 377760, Note_on_c, 0, 84, 112
1, 377911, Note_on_c, 0, 84, 0
1, 377920, Note_on_c, 0, 77, 112
1, 378071, Note_on_c, 0, 77, 0
1, 378080, Note_on_c, 0, 81, 112
1, 378231, Note_on_c, 0, 81, 0
1, 378240, Note_on_c, 0, 88, 112
1, 378391, Note_on_c, 0, 88, 0
1, 378400, Note_on_c, 0, 77, 112
1, 378551, Note_on_c, 0, 77, 0
1, 378560, Note_on_c, 0, 81, 112
1, 378711, Note_on_c, 0, 81, 0
1, 378720, Note_on_c, 0, 84, 112
1, 378871, Note_on_c, 0, 84, 0
1, 378880, Note_on_c, 0, 77, 112
1, 379031, Note_on_c, 0, 77, 0
1, 379040, Note_on_c, 0, 81, 112
1, 379191, Note_on_c, 0, 81, 0
1, 379200, Note_on_c, 0, 88, 112
1, 379351, Note_on_c, 0, 88, 0
1, 379360, Note_on_c, 0, 79, 112
1, 379511, Note_on_c, 0, 79, 0
1, 379520, Note_on_c, 0, 83, 112
1, 379671, Note_on_c, 0, 83, 0
1, 379680, Note_on_c, 0, 86, 112
1, 379831, Note_on_c, 0, 86, 0
1, 379840, Note_on_c, 0, 79, 112
1, 379991, Note_on_c, 0, 79, 0
1, 380000, Note_on_c, 0, 83, 112
1, 380151, Note_on_c, 0, 83, 0
1, 380160, Note_on_c, 0, 88, 112
1, 380311, Note_on_c, 0, 88, 0
1, 380320, Note_on_c, 0, 79, 112
1, 380471, Note_on_c, 0, 79, 0
1, 380480, Note_on_c, 0, 83, 112
1, 380631, Note_on_c, 0, 83, 0
1, 380640, Note_on_c, 0, 86, 112
1, 380791, Note_on_c, 0, 86, 0
1, 380800, Note_on_c, 0, 79, 112
1, 380951, Note_on_c, 0, 79, 0
1, 380960, Note_on_c, 0, 83, 112
1, 381111, Note_on_c, 0, 83, 0
1, 381120, Note_on_c, 0, 88, 112
1, 381271, Note_on_c, 0, 88, 0
1, 381280, Note_on_c, 0, 79, 112
1, 381431, Note_on_c, 0, 79, 0
1, 381440, Note_on_c, 0, 83, 112
1, 381591, Note_on_c, 0, 83, 0
1, 381600, Note_on_c, 0, 86, 112
1, 381751, Note_on_c, 0, 86, 0
1, 381760, Note_on_c, 0, 79, 112
1, 381911, Note_on_c, 0, 79, 0
1, 381920, Note_on_c, 0, 83, 112
1, 382071, Note_on_c, 0, 83, 0
1, 382080, Note_on_c, 0, 88, 112
1, 382231, Note_on_c, 0, 88, 0
1, 382240, Note_on_c, 0, 79, 112
1, 382391, Note_on_c, 0, 79, 0
1, 382400, Note_on_c, 0, 83, 112
1, 382551, Note_on_c, 0, 83, 0
1, 382560, Note_on_c, 0, 86, 112
1, 382711, Note_on_c, 0, 86, 0
1, 382720, Note_on_c, 0, 79, 112
1, 382871, Note_on_c, 0, 79, 0
1, 382880, Note_on_c, 0, 83, 112
1, 383031, Note_on_c, 0, 83, 0
1, 383040, Note_on_c, 0, 88, 112
1, 383191, Note_on_c, 0, 88, 0
1, 383200, Note_on_c, 0, 76, 112
1, 383351, Note_on_c, 0, 76, 0
1, 383360, Note_on_c, 0, 81, 112
1, 383511, Note_on_c, 0, 81, 0
1, 383520, Note_on_c, 0, 84, 112
1, 383671, Note_on_c, 0, 84, 0
1, 383680, Note_on_c, 0, 76, 112
1, 383831, Note_on_c, 0, 76, 0
1, 383840, Note_on_c, 0, 81, 112
1, 383991, Note_on_c, 0, 81, 0
1, 384000, Note_on_c, 0, 88, 112
1, 384151, Note_on_c, 0, 88, 0
1, 384160, Note_on_c, 0, 76, 112
1, 384311, Note_on_c, 0, 76, 0
1, 384320, Note_on_c, 0, 81, 112
1, 384471, Note_on_c, 0, 81, 0
1, 384480, Note_on_c, 0, 84, 112
1, 384631, Note_on_c, 0, 84, 0
1, 384640, Note_on_c, 0, 76, 112
1, 384791, Note_on_c, 0, 76, 0
1, 384800, Note_on_c, 0, 81, 112
1, 384951, Note_on_c, 0, 81, 0
1, 384960, Note_on_c, 0, 88, 112
1, 385111, Note_on_c, 0, 88, 0
1, 385120, Note_on_c, 0, 76, 112
1, 385271, Note_on_c, 0, 76, 0
1, 385280, Note_on_c, 0, 81, 112
1, 385431, Note_on_c, 0, 81, 0
1, 385440, Note_on_c, 0, 84, 112
1, 385591, Note_on_c, 0, 84, 0
1, 385600, Note_on_c, 0, 76, 112
1, 385751, Note_on_c, 0, 76, 0
1, 385760, Note_on_c, 0, 81, 112
1, 385911, Note_on_c, 0, 81, 0
1, 385920, Note_on_c, 0, 88, 112
1, 386071, Note_on_c, 0, 88, 0
1, 386080, Note_on_c, 0, 76, 112
1, 386231, Note_on_c, 0, 76, 0
1, 386240, Note_on_c, 0, 81, 112
1, 386391, Note_on_c, 0, 81, 0
1, 386400, Note_on_c, 0, 84, 112
1, 386551, Note_on_c, 0, 84, 0
1, 386560, Note_on_c, 0, 76, 112
1, 386711, Note_on_c, 0, 76, 0
1, 386720, Note_on_c, 0, 81, 112
1, 386871, Note_on_c, 0, 81, 0
1, 386880, Note_on_c, 0, 88, 112
1, 387031, Note_on_c, 0, 88, 0
1, 387040, Note_on_c, 0, 79, 112
1, 387191, Note_on_c, 0, 79, 0
1, 387200, Note_on_c, 0, 83, 112
1, 387351, Note_on_c, 0, 83, 0
1, 387360, Note_on_c, 0, 86, 112
1, 387511, Note_on_c, 0, 86, 0
1, 387520, Note_on_c, 0, 79, 112
1, 387671, Note_on_c, 0, 79, 0
1, 387680, Note_on_c, 0, 83, 112
1, 387831, Note_on_c, 0, 83, 0
1, 387840, Note_on_c, 0, 88, 112
1, 387991, Note_on_c, 0, 88, 0
1, 388000, Note_on_c, 0, 79, 112
1, 388151, Note_on_c, 0, 79, 0
1, 388160, Note_on_c, 0, 83, 112
1, 388311, Note_on_c, 0, 83, 0
1, 388320, Note_on_c, 0, 86, 112
1, 388471, Note_on_c, 0, 86, 0
1, 388480, Note_on_c, 0, 79, 112
1, 388631, Note_on_c, 0, 79, 0
1, 388640, Note_on_c, 0, 83, 112
1, 388791, Note_on_c, 0, 83, 0
1, 388800, Note_on_c, 0, 88, 112
1, 388951, Note_on_c, 0, 88, 0
1, 388960, Note_on_c, 0, 79, 112
1, 389111, Note_on_c, 0, 79, 0
1, 389120, Note_on_c, 0, 83, 112
1, 389271, Note_on_c, 0, 83, 0
1, 389280, Note_on_c, 0, 86, 112
1, 389431, Note_on_c, 0, 86, 0
1, 389440, Note_on_c, 0, 79, 112
1, 389591, Note_on_c, 0, 79, 0
1, 389600, Note_on_c, 0, 83, 112
1, 389751, Note_on_c, 0, 83, 0
1, 389760, Note_on_c, 0, 88, 112
1, 389911, Note_on_c, 0, 88, 0
1, 389920, Note_on_c, 0, 79, 112
1, 390071, Note_on_c, 0, 79, 0
1, 390080, Note_on_c, 0, 83, 112
1, 390231, Note_on_c, 0, 83, 0
1, 390240, Note_on_c, 0, 86, 112
1, 390695, Note_on_c, 0, 86, 0
1, 390720, Note_on_c, 0, 57, 127
1, 390720, Note_on_c, 0, 60, 127
1, 390720, Note_on_c, 0, 65, 127
1, 390720, Note_on_c, 0, 69, 127
1, 391199, Note_on_c, 0, 57, 0
1, 391199, Note_on_c, 0, 60, 0
1, 391199, Note_on_c, 0, 65, 0
1, 391199, Note_on_c, 0, 69, 0
1, 391200, Note_on_c, 0, 69, 112
1, 391351, Note_on_c, 0, 69, 0
1, 391360, Note_on_c, 0, 65, 112
1, 391511, Note_on_c, 0, 65, 0
1, 391520, Note_on_c, 0, 69, 112
1, 391671, Note_on_c, 0, 69, 0
1, 391680, Note_on_c, 0, 76, 112
1, 391831, Note_on_c, 0, 76, 0
1, 391840, Note_on_c, 0, 65, 112
1, 391991, Note_on_c, 0, 65, 0
1, 392000, Note_on_c, 0, 69, 112
1, 392151, Note_on_c, 0, 69, 0
1, 392160, Note_on_c, 0, 72, 112
1, 392311, Note_on_c, 0, 72, 0
1, 392320, Note_on_c, 0, 65, 112
1, 392471, Note_on_c, 0, 65, 0
1, 392480, Note_on_c, 0, 69, 112
1, 392631, Note_on_c, 0, 69, 0
1, 392640, Note_on_c, 0, 76, 112
1, 392791, Note_on_c, 0, 76, 0
1, 392800, Note_on_c, 0, 65, 112
1, 392951, Note_on_c, 0, 65, 0
1, 392960, Note_on_c, 0, 69, 112
1, 393111, Note_on_c, 0, 69, 0
1, 393120, Note_on_c, 0, 72, 112
1, 393271, Note_on_c, 0, 72, 0
1, 393280, Note_on_c, 0, 65, 112
1, 393431, Note_on_c, 0, 65, 0
1, 393440, Note_on_c, 0, 69, 112
1, 393591, Note_on_c, 0, 69, 0
1, 393600, Note_on_c, 0, 76, 112
1, 393751, Note_on_c, 0, 76, 0
1, 393760, Note_on_c, 0, 65, 112
1, 393911, Note_on_c, 0, 65, 0
1, 393920, Note_on_c, 0, 69, 112
1, 394071, Note_on_c, 0, 69, 0
1, 394080, Note_on_c, 0, 72, 112
1, 394535, Note_on_c, 0, 72, 0
1, 394560, Note_on_c, 0, 59, 127
1, 394560, Note_on_c, 0, 64, 127
1, 394560, Note_on_c, 0, 67, 127
1, 394560, Note_on_c, 0, 71, 127
1, 395039, Note_on_c, 0, 59, 0
1, 395039, Note_on_c, 0, 64, 0
1, 395039, Note_on_c, 0, 67, 0
1, 395039, Note_on_c, 0, 71, 0
1, 395040, Note_on_c, 0, 71, 112
1, 395191, Note_on_c, 0, 71, 0
1, 395200, Note_on_c, 0, 67, 112
1, 395351, Note_on_c, 0, 67, 0
1, 395360, Note_on_c, 0, 71, 112
1, 395511, Note_on_c, 0, 71, 0
1, 395520, Note_on_c, 0, 76, 112
1, 395671, Note_on_c, 0, 76, 0
1, 395680, Note_on_c, 0, 67, 112
1, 395831, Note_on_c, 0, 67, 0
1, 395840, Note_on_c, 0, 71, 112
1, 395991, Note_on_c, 0, 71, 0
1, 396000, Note_on_c, 0, 74, 112
1, 396151, Note_on_c, 0, 74, 0
1, 396160, Note_on_c, 0, 67, 112
1, 396311, Note_on_c, 0, 67, 0
1, 396320, Note_on_c, 0, 71, 112
1, 396471, Note_on_c, 0, 71, 0
1, 396480, Note_on_c, 0, 76, 112
1, 396631, Note_on_c, 0, 76, 0
1, 396640, Note_on_c, 0, 67, 112
1, 396791, Note_on_c, 0, 67, 0
1, 396800, Note_on_c, 0, 71, 112
1, 396951, Note_on_c, 0, 71, 0
1, 396960, Note_on_c, 0, 74, 112
1, 397111, Note_on_c, 0, 74, 0
1, 397120, Note_on_c, 0, 67, 112
1, 397271, Note_on_c, 0, 67, 0
1, 397280, Note_on_c, 0, 71, 112
1, 397431, Note_on_c, 0, 71, 0
1, 397440, Note_on_c, 0, 76, 112
1, 397591, Note_on_c, 0, 76, 0
1, 397600, Note_on_c, 0, 67, 112
1, 397751, Note_on_c, 0, 67, 0
1, 397760, Note_on_c, 0, 71, 112
1, 397911, Note_on_c, 0, 71, 0
1, 397920, Note_on_c, 0, 74, 112
1, 398375, Note_on_c, 0, 74, 0
1, 398400, Note_on_c, 0, 60, 112
1, 398400, Note_on_c, 0, 64, 112
1, 398400, Note_on_c, 0, 69, 112
1, 398400, Note_on_c, 0, 72, 112
1, 398855, Note_on_c, 0, 60, 0
1, 398855, Note_on_c, 0, 64, 0
1, 398855, Note_on_c, 0, 69, 0
1, 398855, Note_on_c, 0, 72, 0
1, 398880, Note_on_c, 0, 69, 112
1, 399031, Note_on_c, 0, 69, 0
1, 399040, Note_on_c, 0, 65, 112
1, 399191, Note_on_c, 0, 65, 0
1, 399200, Note_on_c, 0, 69, 112
1, 399351, Note_on_c, 0, 69, 0
1, 399360, Note_on_c, 0, 76, 112
1, 399511, Note_on_c, 0, 76, 0
1, 399520, Note_on_c, 0, 65, 112
1, 399671, Note_on_c, 0, 65, 0
1, 399680, Note_on_c, 0, 69, 112
1, 399831, Note_on_c, 0, 69, 0
1, 399840, Note_on_c, 0, 72, 112
1, 399991, Note_on_c, 0, 72, 0
1, 400000, Note_on_c, 0, 65, 112
1, 400151, Note_on_c, 0, 65, 0
1, 400160, Note_on_c, 0, 69, 112
1, 400311, Note_on_c, 0, 69, 0
1, 400320, Note_on_c, 0, 76, 112
1, 400471, Note_on_c, 0, 76, 0
1, 400480, Note_on_c, 0, 65, 112
1, 400631, Note_on_c, 0, 65, 0
1, 400640, Note_on_c, 0, 69, 112
1, 400791, Note_on_c, 0, 69, 0
1, 400800, Note_on_c, 0, 72, 112
1, 400951, Note_on_c, 0, 72, 0
1, 400960, Note_on_c, 0, 65, 112
1, 401111, Note_on_c, 0, 65, 0
1, 401120, Note_on_c, 0, 69, 112
1, 401271, Note_on_c, 0, 69, 0
1, 401280, Note_on_c, 0, 76, 112
1, 401431, Note_on_c, 0, 76, 0
1, 401440, Note_on_c, 0, 65, 112
1, 401591, Note_on_c, 0, 65, 0
1, 401600, Note_on_c, 0, 69, 112
1, 401751, Note_on_c, 0, 69, 0
1, 401760, Note_on_c, 0, 72, 112
1, 402215, Note_on_c, 0, 72, 0
1, 402240, Note_on_c, 0, 62, 112
1, 402240, Note_on_c, 0, 67, 112
1, 402240, Note_on_c, 0, 71, 112
1, 402240, Note_on_c, 0, 74, 112
1, 402695, Note_on_c, 0, 62, 0
1, 402695, Note_on_c, 0, 67, 0
1, 402695, Note_on_c, 0, 71, 0
1, 402695, Note_on_c, 0, 74, 0
1, 402720, Note_on_c, 0, 71, 112
1, 402871, Note_on_c, 0, 71, 0
1, 402880, Note_on_c, 0, 67, 112
1, 403031, Note_on_c, 0, 67, 0
1, 403040, Note_on_c, 0, 71, 112
1, 403191, Note_on_c, 0, 71, 0
1, 403200, Note_on_c, 0, 76, 112
1, 403351, Note_on_c, 0, 76, 0
1, 403360, Note_on_c, 0, 67, 112
1, 403511, Note_on_c, 0, 67, 0
1, 403520, Note_on_c, 0, 71, 112
1, 403671, Note_on_c, 0, 71, 0
1, 403680, Note_on_c, 0, 74, 112
1, 403831, Note_on_c, 0, 74, 0
1, 403840, Note_on_c, 0, 67, 112
1, 403991, Note_on_c, 0, 67, 0
1, 404000, Note_on_c, 0, 71, 112
1, 404151, Note_on_c, 0, 71, 0
1, 404160, Note_on_c, 0, 76, 112
1, 404311, Note_on_c, 0, 76, 0
1, 404320, Note_on_c, 0, 67, 112
1, 404471, Note_on_c, 0, 67, 0
1, 404480, Note_on_c, 0, 71, 112
1, 404631, Note_on_c, 0, 71, 0
1, 404640, Note_on_c, 0, 74, 112
1, 404791, Note_on_c, 0, 74, 0
1, 404800, Note_on_c, 0, 67, 112
1, 404951, Note_on_c, 0, 67, 0
1, 404960, Note_on_c, 0, 71, 112
1, 405111, Note_on_c, 0, 71, 0
1, 405120, Note_on_c, 0, 76, 112
1, 405271, Note_on_c, 0, 76, 0
1, 405280, Note_on_c, 0, 67, 112
1, 405431, Note_on_c, 0, 67, 0
1, 405440, Note_on_c, 0, 71, 112
1, 405591, Note_on_c, 0, 71, 0
1, 405600, Note_on_c, 0, 74, 112
1, 406055, Note_on_c, 0, 74, 0
1, 406080, Note_on_c, 0, 57, 127
1, 406080, Note_on_c, 0, 60, 127
1, 406080, Note_on_c, 0, 65, 127
1, 406080, Note_on_c, 0, 69, 127
1, 406559, Note_on_c, 0, 57, 0
1, 406559, Note_on_c, 0, 60, 0
1, 406559, Note_on_c, 0, 65, 0
1, 406559, Note_on_c, 0, 69, 0
1, 406560, Note_on_c, 0, 69, 112
1, 406711, Note_on_c, 0, 69, 0
1, 406720, Note_on_c, 0, 65, 112
1, 406871, Note_on_c, 0, 65, 0
1, 406880, Note_on_c, 0, 69, 112
1, 407031, Note_on_c, 0, 69, 0
1, 407040, Note_on_c, 0, 76, 112
1, 407191, Note_on_c, 0, 76, 0
1, 407200, Note_on_c, 0, 65, 112
1, 407351, Note_on_c, 0, 65, 0
1, 407360, Note_on_c, 0, 69, 112
1, 407511, Note_on_c, 0, 69, 0
1, 407520, Note_on_c, 0, 72, 112
1, 407671, Note_on_c, 0, 72, 0
1, 407680, Note_on_c, 0, 65, 112
1, 407831, Note_on_c, 0, 65, 0
1, 407840, Note_on_c, 0, 69, 112
1, 407991, Note_on_c, 0, 69, 0
1, 408000, Note_on_c, 0, 76, 112
1, 408151, Note_on_c, 0, 76, 0
1, 408160, Note_on_c, 0, 65, 112
1, 408311, Note_on_c, 0, 65, 0
1, 408320, Note_on_c, 0, 69, 112
1, 408471, Note_on_c, 0, 69, 0
1, 408480, Note_on_c, 0, 72, 112
1, 408631, Note_on_c, 0, 72, 0
1, 408640, Note_on_c, 0, 65, 112
1, 408791, Note_on_c, 0, 65, 0
1, 408800, Note_on_c, 0, 69, 112
1, 408951, Note_on_c, 0, 69, 0
1, 408960, Note_on_c, 0, 76, 112
1, 409111, Note_on_c, 0, 76, 0
1, 409120, Note_on_c, 0, 65, 112
1, 409271, Note_on_c, 0, 65, 0
1, 409280, Note_on_c, 0, 69, 112
1, 409431, Note_on_c, 0, 69, 0
1, 409440, Note_on_c, 0, 72, 112
1, 409895, Note_on_c, 0, 72, 0
1, 409920, Note_on_c, 0, 59, 127
1, 409920, Note_on_c, 0, 64, 127
1, 409920, Note_on_c, 0, 67, 127
1, 409920, Note_on_c, 0, 71, 127
1, 410399, Note_on_c, 0, 59, 0
1, 410399, Note_on_c, 0, 64, 0
1, 410399, Note_on_c, 0, 67, 0
1, 410399, Note_on_c, 0, 71, 0
1, 410400, Note_on_c, 0, 71, 112
1, 410551, Note_on_c, 0, 71, 0
1, 410560, Note_on_c, 0, 67, 112
1, 410711, Note_on_c, 0, 67, 0
1, 410720, Note_on_c, 0, 71, 112
1, 410871, Note_on_c, 0, 71, 0
1, 410880, Note_on_c, 0, 76, 112
1, 411031, Note_on_c, 0, 76, 0
1, 411040, Note_on_c, 0, 67, 112
1, 411191, Note_on_c, 0, 67, 0
1, 411200, Note_on_c, 0, 71, 112
1, 411351, Note_on_c, 0, 71, 0
1, 411360, Note_on_c, 0, 74, 112
1, 411511, Note_on_c, 0, 74, 0
1, 411520, Note_on_c, 0, 67, 112
1, 411671, Note_on_c, 0, 67, 0
1, 411680, Note_on_c, 0, 71, 112
1, 411831, Note_on_c, 0, 71, 0
1, 411840, Note_on_c, 0, 76, 112
1, 411991, Note_on_c, 0, 76, 0
1, 412000, Note_on_c, 0, 67, 112
1, 412151, Note_on_c, 0, 67, 0
1, 412160, Note_on_c, 0, 71, 112
1, 412311, Note_on_c, 0, 71, 0
1, 412320, Note_on_c, 0, 74, 112
1, 412471, Note_on_c, 0, 74, 0
1, 412480, Note_on_c, 0, 67, 112
1, 412631, Note_on_c, 0, 67, 0
1, 412640, Note_on_c, 0, 71, 112
1, 412791, Note_on_c, 0, 71, 0
1, 412800, Note_on_c, 0, 76, 112
1, 412951, Note_on_c, 0, 76, 0
1, 412960, Note_on_c, 0, 67, 112
1, 413111, Note_on_c, 0, 67, 0
1, 413120, Note_on_c, 0, 71, 112
1, 413271, Note_on_c, 0, 71, 0
1, 413280, Note_on_c, 0, 74, 112
1, 413735, Note_on_c, 0, 74, 0
1, 413760, Note_on_c, 0, 60, 112
1, 413760, Note_on_c, 0, 64, 112
1, 413760, Note_on_c, 0, 69, 112
1, 413760, Note_on_c, 0, 72, 112
1, 414215, Note_on_c, 0, 60, 0
1, 414215, Note_on_c, 0, 64, 0
1, 414215, Note_on_c, 0, 69, 0
1, 414215, Note_on_c, 0, 72, 0
1, 414240, Note_on_c, 0, 69, 112
1, 414391, Note_on_c, 0, 69, 0
1, 414400, Note_on_c, 0, 65, 112
1, 414551, Note_on_c, 0, 65, 0
1, 414560, Note_on_c, 0, 69, 112
1, 414711, Note_on_c, 0, 69, 0
1, 414720, Note_on_c, 0, 76, 112
1, 414871, Note_on_c, 0, 76, 0
1, 414880, Note_on_c, 0, 65, 112
1, 415031, Note_on_c, 0, 65, 0
1, 415040, Note_on_c, 0, 69, 112
1, 415191, Note_on_c, 0, 69, 0
1, 415200, Note_on_c, 0, 72, 112
1, 415351, Note_on_c, 0, 72, 0
1, 415360, Note_on_c, 0, 65, 112
1, 415511, Note_on_c, 0, 65, 0
1, 415520, Note_on_c, 0, 69, 112
1, 415671, Note_on_c, 0, 69, 0
1, 415680, Note_on_c, 0, 76, 112
1, 415831, Note_on_c, 0, 76, 0
1, 415840, Note_on_c, 0, 65, 112
1, 415991, Note_on_c, 0, 65, 0
1, 416000, Note_on_c, 0, 69, 112
1, 416151, Note_on_c, 0, 69, 0
1, 416160, Note_on_c, 0, 72, 112
1, 416311, Note_on_c, 0, 72, 0
1, 416320, Note_on_c, 0, 65, 112
1, 416471, Note_on_c, 0, 65, 0
1, 416480, Note_on_c, 0, 69, 112
1, 416631, Note_on_c, 0, 69, 0
1, 416640, Note_on_c, 0, 76, 112
1, 416791, Note_on_c, 0, 76, 0
1, 416800, Note_on_c, 0, 65, 112
1, 416951, Note_on_c, 0, 65, 0
1, 416960, Note_on_c, 0, 69, 112
1, 417111, Note_on_c, 0, 69, 0
1, 417120, Note_on_c, 0, 72, 112
1, 417575, Note_on_c, 0, 72, 0
1, 417600, Note_on_c, 0, 62, 112
1, 417600, Note_on_c, 0, 67, 112
1, 417600, Note_on_c, 0, 71, 112
1, 417600, Note_on_c, 0, 74, 112
1, 418055, Note_on_c, 0, 62, 0
1, 418055, Note_on_c, 0, 67, 0
1, 418055, Note_on_c, 0, 71, 0
1, 418055, Note_on_c, 0, 74, 0
1, 418080, Note_on_c, 0, 71, 112
1, 418231, Note_on_c, 0, 71, 0
1, 418240, Note_on_c, 0, 67, 112
1, 418391, Note_on_c, 0, 67, 0
1, 418400, Note_on_c, 0, 71, 112
1, 418551, Note_on_c, 0, 71, 0
1, 418560, Note_on_c, 0, 76, 112
1, 418711, Note_on_c, 0, 76, 0
1, 418720, Note_on_c, 0, 67, 112
1, 418871, Note_on_c, 0, 67, 0
1, 418880, Note_on_c, 0, 71, 112
1, 419031, Note_on_c, 0, 71, 0
1, 419040, Note_on_c, 0, 74, 112
1, 419191, Note_on_c, 0, 74, 0
1, 419200, Note_on_c, 0, 67, 112
1, 419351, Note_on_c, 0, 67, 0
1, 419360, Note_on_c, 0, 71, 112
1, 419511, Note_on_c, 0, 71, 0
1, 419520, Note_on_c, 0, 76, 112
1, 419671, Note_on_c, 0, 76, 0
1, 419680, Note_on_c, 0, 67, 112
1, 419831, Note_on_c, 0, 67, 0
1, 419840, Note_on_c, 0, 71, 112
1, 419991, Note_on_c, 0, 71, 0
1, 420000, Note_on_c, 0, 74, 112
1, 420151, Note_on_c, 0, 74, 0
1, 420160, Note_on_c, 0, 67, 112
1, 420311, Note_on_c, 0, 67, 0
1, 420320, Note_on_c, 0, 71, 112
1, 420471, Note_on_c, 0, 71, 0
1, 420480, Note_on_c, 0, 76, 112
1, 420631, Note_on_c, 0, 76, 0
1, 420640, Note_on_c, 0, 67, 112
1, 420791, Note_on_c, 0, 67, 0
1, 420800, Note_on_c, 0, 71, 112
1, 420951, Note_on_c, 0, 71, 0
1, 420960, Note_on_c, 0, 74, 112
1, 421111, Note_on_c, 0, 74, 0
1, 421120, Note_on_c, 0, 67, 112
1, 421271, Note_on_c, 0, 67, 0
1, 421280, Note_on_c, 0, 71, 112
1, 421431, Note_on_c, 0, 71, 0
1, 421440, Note_on_c, 0, 65, 112
1, 421503, Note_on_c, 0, 69, 112
1, 421567, Note_on_c, 0, 72, 112
1, 421632, Note_on_c, 0, 76, 112
1, 422398, Note_on_c, 0, 69, 0
1, 422398, Note_on_c, 0, 72, 0
1, 422399, Note_on_c, 0, 65, 0
1, 422399, Note_on_c, 0, 76, 0
1, 422400, Note_on_c, 0, 77, 112
1, 422421, Note_on_c, 0, 81, 112
1, 422442, Note_on_c, 0, 84, 112
1, 422463, Note_on_c, 0, 88, 112
1, 425182, Note_on_c, 0, 81, 0
1, 425182, Note_on_c, 0, 84, 0
1, 425182, Note_on_c, 0, 88, 0
1, 425183, Note_on_c, 0, 77, 0
1, 425280, Tempo, 1090909
1, 428880, Note_on_c, 0, 65, 49
1, 429107, Note_on_c, 0, 65, 0
1, 429120, Note_on_c, 0, 70, 49
1, 430943, Note_on_c, 0, 70, 0
1, 431040, Note_on_c, 0, 69, 49
1, 431495, Note_on_c, 0, 69, 0
1, 431520, Note_on_c, 0, 67, 49
1, 431975, Note_on_c, 0, 67, 0
1, 432000, Note_on_c, 0, 69, 49
1, 434507, Note_on_c, 0, 69, 0
1, 434640, Note_on_c, 0, 65, 49
1, 434867, Note_on_c, 0, 65, 0
1, 434880, Note_on_c, 0, 70, 49
1, 436703, Note_on_c, 0, 70, 0
1, 436800, Note_on_c, 0, 68, 49
1, 437255, Note_on_c, 0, 68, 0
1, 437280, Note_on_c, 0, 67, 49
1, 437735, Note_on_c, 0, 67, 0
1, 437760, Note_on_c, 0, 68, 49
1, 440267, Note_on_c, 0, 68, 0
1, 440400, Note_on_c, 0, 65, 49
1, 440627, Note_on_c, 0, 65, 0
1, 440640, Note_on_c, 0, 70, 49
1, 442463, Note_on_c, 0, 70, 0
1, 442560, Note_on_c, 0, 69, 49
1, 443015, Note_on_c, 0, 69, 0
1, 443040, Note_on_c, 0, 67, 49
1, 443495, Note_on_c, 0, 67, 0
1, 443520, Note_on_c, 0, 69, 49
1, 446027, Note_on_c, 0, 69, 0
1, 446160, Note_on_c, 0, 65, 49
1, 446387, Note_on_c, 0, 65, 0
1, 446400, Note_on_c, 0, 67, 49
1, 447311, Note_on_c, 0, 67, 0
1, 447360, Note_on_c, 0, 65, 49
1, 447587, Note_on_c, 0, 65, 0
1, 447600, Note_on_c, 0, 67, 49
1, 447941, Note_on_c, 0, 67, 0
1, 447960, Note_on_c, 0, 69, 49
1, 449213, Note_on_c, 0, 69, 0
1, 452160, Note_on_c, 0, 82, 49
1, 453071, Note_on_c, 0, 82, 0
1, 453120, Note_on_c, 0, 79, 49
1, 455855, Note_on_c, 0, 79, 0
1, 456000, Note_on_c, 0, 81, 49
1, 456911, Note_on_c, 0, 81, 0
1, 456960, Note_on_c, 0, 77, 49
1, 459695, Note_on_c, 0, 77, 0
1, 459840, Note_on_c, 0, 79, 49
1, 461207, Note_on_c, 0, 79, 0
1, 461280, Note_on_c, 0, 76, 49
1, 462647, Note_on_c, 0, 76, 0
1, 462720, Note_on_c, 0, 67, 49
1, 463631, Note_on_c, 0, 67, 0
1, 463680, Note_on_c, 0, 60, 49
1, 463743, Note_on_c, 0, 64, 49
1, 463806, Note_on_c, 0, 67, 49
1, 465598, Note_on_c, 0, 64, 0
1, 465598, Note_on_c, 0, 67, 0
1, 465599, Note_on_c, 0, 60, 0
1, 465600, Time_signature, 3, 2, 24, 8
1, 465600, Tempo, 750002
1, 465600, Note_on_c, 0, 69, 16
1, 466055, Note_on_c, 0, 69, 0
1, 466080, Note_on_c, 0, 76, 16
1, 466991, Note_on_c, 0, 76, 0
1, 467040, Note_on_c, 0, 69, 16
1, 467495, Note_on_c, 0, 69, 0
1, 467520, Note_on_c, 0, 76, 16
1, 468431, Note_on_c, 0, 76, 0
1, 468480, Note_on_c, 0, 71, 16
1, 468935, Note_on_c, 0, 71, 0
1, 468960, Note_on_c, 0, 76, 16
1, 469871, Note_on_c, 0, 76, 0
1, 469920, Note_on_c, 0, 71, 16
1, 470375, Note_on_c, 0, 71, 0
1, 470400, Note_on_c, 0, 76, 16
1, 471311, Note_on_c, 0, 76, 0
1, 471360, Note_on_c, 0, 72, 16
1, 471815, Note_on_c, 0, 72, 0
1, 471840, Note_on_c, 0, 76, 16
1, 472751, Note_on_c, 0, 76, 0
1, 472800, Note_on_c, 0, 72, 16
1, 473255, Note_on_c, 0, 72, 0
1, 473280, Note_on_c, 0, 76, 16
1, 474191, Note_on_c, 0, 76, 0
1, 474240, Note_on_c, 0, 74, 16
1, 474695, Note_on_c, 0, 74, 0
1, 474720, Note_on_c, 0, 76, 16
1, 475631, Note_on_c, 0, 76, 0
1, 475680, Note_on_c, 0, 74, 16
1, 476135, Note_on_c, 0, 74, 0
1, 476160, Note_on_c, 0, 76, 16
1, 476615, Note_on_c, 0, 76, 0
1, 476640, Note_on_c, 0, 71, 16
1, 477095, Note_on_c, 0, 71, 0
1, 477120, Note_on_c, 0, 69, 16
1, 477575, Note_on_c, 0, 69, 0
1, 477600, Note_on_c, 0, 76, 16
1, 478511, Note_on_c, 0, 76, 0
1, 478560, Note_on_c, 0, 69, 16
1, 479015, Note_on_c, 0, 69, 0
1, 479040, Note_on_c, 0, 76, 16
1, 479951, Note_on_c, 0, 76, 0
1, 480000, Note_on_c, 0, 71, 16
1, 480455, Note_on_c, 0, 71, 0
1, 480480, Note_on_c, 0, 76, 16
1, 481391, Note_on_c, 0, 76, 0
1, 481440, Note_on_c, 0, 71, 16
1, 481895, Note_on_c, 0, 71, 0
1, 481920, Note_on_c, 0, 76, 16
1, 482831, Note_on_c, 0, 76, 0
1, 482880, Note_on_c, 0, 72, 16
1, 483335, Note_on_c, 0, 72, 0
1, 483360, Note_on_c, 0, 76, 16
1, 484271, Note_on_c, 0, 76, 0
1, 484320, Note_on_c, 0, 72, 16
1, 484775, Note_on_c, 0, 72, 0
1, 484800, Note_on_c, 0, 76, 16
1, 485711, Note_on_c, 0, 76, 0
1, 485760, Note_on_c, 0, 74, 16
1, 486215, Note_on_c, 0, 74, 0
1, 486240, Note_on_c, 0, 76, 16
1, 487151, Note_on_c, 0, 76, 0
1, 487200, Note_on_c, 0, 74, 16
1, 487655, Note_on_c, 0, 74, 0
1, 487680, Note_on_c, 0, 76, 16
1, 488135, Note_on_c, 0, 76, 0
1, 488160, Note_on_c, 0, 71, 16
1, 488615, Note_on_c, 0, 71, 0
1, 488640, Note_on_c, 0, 64, 33
1, 488640, Note_on_c, 0, 69, 33
1, 488867, Note_on_c, 0, 64, 0
1, 488867, Note_on_c, 0, 69, 0
1, 488880, Note_on_c, 0, 76, 33
1, 489107, Note_on_c, 0, 76, 0
1, 489120, Note_on_c, 0, 76, 33
1, 489347, Note_on_c, 0, 76, 0
1, 489360, Note_on_c, 0, 76, 33
1, 489815, Note_on_c, 0, 76, 0
1, 489840, Note_on_c, 0, 76, 33
1, 490067, Note_on_c, 0, 76, 0
1, 490080, Note_on_c, 0, 64, 33
1, 490080, Note_on_c, 0, 69, 33
1, 490307, Note_on_c, 0, 64, 0
1, 490307, Note_on_c, 0, 69, 0
1, 490320, Note_on_c, 0, 76, 33
1, 490547, Note_on_c, 0, 76, 0
1, 490560, Note_on_c, 0, 76, 33
1, 490787, Note_on_c, 0, 76, 0
1, 490800, Note_on_c, 0, 76, 33
1, 491255, Note_on_c, 0, 76, 0
1, 491280, Note_on_c, 0, 76, 33
1, 491507, Note_on_c, 0, 76, 0
1, 491520, Note_on_c, 0, 64, 33
1, 491520, Note_on_c, 0, 71, 33
1, 491747, Note_on_c, 0, 64, 0
1, 491747, Note_on_c, 0, 71, 0
1, 491760, Note_on_c, 0, 76, 33
1, 491987, Note_on_c, 0, 76, 0
1, 492000, Note_on_c, 0, 76, 33
1, 492227, Note_on_c, 0, 76, 0
1, 492240, Note_on_c, 0, 76, 33
1, 492695, Note_on_c, 0, 76, 0
1, 492720, Note_on_c, 0, 76, 33
1, 492947, Note_on_c, 0, 76, 0
1, 492960, Note_on_c, 0, 64, 33
1, 492960, Note_on_c, 0, 71, 33
1, 493187, Note_on_c, 0, 64, 0
1, 493187, Note_on_c, 0, 71, 0
1, 493200, Note_on_c, 0, 76, 33
1, 493427, Note_on_c, 0, 76, 0
1, 493440, Note_on_c, 0, 76, 33
1, 493667, Note_on_c, 0, 76, 0
1, 493680, Note_on_c, 0, 76, 33
1, 494135, Note_on_c, 0, 76, 0
1, 494160, Note_on_c, 0, 76, 33
1, 494387, Note_on_c, 0, 76, 0
1, 494400, Note_on_c, 0, 64, 33
1, 494400, Note_on_c, 0, 72, 33
1, 494627, Note_on_c, 0, 64, 0
1, 494627, Note_on_c, 0, 72, 0
1, 494640, Note_on_c, 0, 76, 33
1, 494867, Note_on_c, 0, 76, 0
1, 494880, Note_on_c, 0, 76, 33
1, 495107, Note_on_c, 0, 76, 0
1, 495120, Note_on_c, 0, 76, 33
1, 495575, Note_on_c, 0, 76, 0
1, 495600, Note_on_c, 0, 76, 33
1, 495827, Note_on_c, 0, 76, 0
1, 495840, Note_on_c, 0, 64, 33
1, 495840, Note_on_c, 0, 72, 33
1, 496067, Note_on_c, 0, 64, 0
1, 496067, Note_on_c, 0, 72, 0
1, 496080, Note_on_c, 0, 76, 33
1, 496307, Note_on_c, 0, 76, 0
1, 496320, Note_on_c, 0, 76, 33
1, 496547, Note_on_c, 0, 76, 0
1, 496560, Note_on_c, 0, 76, 33
1, 497015, Note_on_c, 0, 76, 0
1, 497040, Note_on_c, 0, 76, 33
1, 497267, Note_on_c, 0, 76, 0
1, 497280, Note_on_c, 0, 64, 33
1, 497280, Note_on_c, 0, 74, 33
1, 497507, Note_on_c, 0, 64, 0
1, 497507, Note_on_c, 0, 74, 0
1, 497520, Note_on_c, 0, 76, 33
1, 497747, Note_on_c, 0, 76, 0
1, 497760, Note_on_c, 0, 76, 33
1, 497987, Note_on_c, 0, 76, 0
1, 498000, Note_on_c, 0, 76, 33
1, 498455, Note_on_c, 0, 76, 0
1, 498480, Note_on_c, 0, 76, 33
1, 498707, Note_on_c, 0, 76, 0
1, 498720, Note_on_c, 0, 64, 33
1, 498720, Note_on_c, 0, 74, 33
1, 498947, Note_on_c, 0, 64, 0
1, 498947, Note_on_c, 0, 74, 0
1, 498960, Note_on_c, 0, 76, 33
1, 499187, Note_on_c, 0, 76, 0
1, 499200, Note_on_c, 0, 76, 33
1, 499427, Note_on_c, 0, 76, 0
1, 499440, Note_on_c, 0, 76, 33
1, 499895, Note_on_c, 0, 76, 0
1, 499920, Note_on_c, 0, 71, 33
1, 500147, Note_on_c, 0, 71, 0
1, 500160, Note_on_c, 0, 57, 49
1, 500160, Note_on_c, 0, 64, 49
1, 500160, Note_on_c, 0, 69, 49
1, 500615, Note_on_c, 0, 57, 0
1, 500615, Note_on_c, 0, 64, 0
1, 500615, Note_on_c, 0, 69, 0
1, 500640, Note_on_c, 0, 76, 49
1, 501551, Note_on_c, 0, 76, 0
1, 501600, Note_on_c, 0, 57, 50
1, 501600, Note_on_c, 0, 64, 50
1, 501600, Note_on_c, 0, 69, 50
1, 502055, Note_on_c, 0, 57, 0
1, 502055, Note_on_c, 0, 64, 0
1, 502055, Note_on_c, 0, 69, 0
1, 502080, Note_on_c, 0, 76, 51
1, 502991, Note_on_c, 0, 76, 0
1, 503040, Note_on_c, 0, 59, 53
1, 503040, Note_on_c, 0, 64, 53
1, 503040, Note_on_c, 0, 71, 53
1, 503495, Note_on_c, 0, 59, 0
1, 503495, Note_on_c, 0, 64, 0
1, 503495, Note_on_c, 0, 71, 0
1, 503520, Note_on_c, 0, 76, 53
1, 504431, Note_on_c, 0, 76, 0
1, 504480, Note_on_c, 0, 59, 55
1, 504480, Note_on_c, 0, 64, 55
1, 504480, Note_on_c, 0, 71, 55
1, 504935, Note_on_c, 0, 59, 0
1, 504935, Note_on_c, 0, 64, 0
1, 504935, Note_on_c, 0, 71, 0
1, 504960, Note_on_c, 0, 76, 56
1, 505871, Note_on_c, 0, 76, 0
1, 505920, Note_on_c, 0, 60, 57
1, 505920, Note_on_c, 0, 64, 57
1, 505920, Note_on_c, 0, 72, 57
1, 506375, Note_on_c, 0, 60, 0
1, 506375, Note_on_c, 0, 64, 0
1, 506375, Note_on_c, 0, 72, 0
1, 506400, Note_on_c, 0, 76, 58
1, 507311, Note_on_c, 0, 76, 0
1, 507360, Note_on_c, 0, 60, 60
1, 507360, Note_on_c, 0, 64, 60
1, 507360, Note_on_c, 0, 72, 60
1, 507815, Note_on_c, 0, 60, 0
1, 507815, Note_on_c, 0, 64, 0
1, 507815, Note_on_c, 0, 72, 0
1, 507840, Note_on_c, 0, 76, 61
1, 508751, Note_on_c, 0, 76, 0
1, 508800, Note_on_c, 0, 62, 62
1, 508800, Note_on_c, 0, 64, 62
1, 508800, Note_on_c, 0, 74, 62
1, 509255, Note_on_c, 0, 62, 0
1, 509255, Note_on_c, 0, 64, 0
1, 509255, Note_on_c, 0, 74, 0
1, 509280, Note_on_c, 0, 76, 63
1, 510191, Note_on_c, 0, 76, 0
1, 510240, Note_on_c, 0, 62, 65
1, 510240, Note_on_c, 0, 64, 65
1, 510240, Note_on_c, 0, 74, 65
1, 510695, Note_on_c, 0, 62, 0
1, 510695, Note_on_c, 0, 64, 0
1, 510695, Note_on_c, 0, 74, 0
1, 510720, Note_on_c, 0, 76, 66
1, 511175, Note_on_c, 0, 76, 0
1, 511200, Note_on_c, 0, 71, 66
1, 511655, Note_on_c, 0, 71, 0
1, 511680, Note_on_c, 0, 57, 67
1, 511680, Note_on_c, 0, 64, 67
1, 511680, Note_on_c, 0, 69, 67
1, 512135, Note_on_c, 0, 57, 0
1, 512135, Note_on_c, 0, 64, 0
1, 512135, Note_on_c, 0, 69, 0
1, 512160, Note_on_c, 0, 76, 68
1, 513071, Note_on_c, 0, 76, 0
1, 513120, Note_on_c, 0, 57, 70
1, 513120, Note_on_c, 0, 64, 70
1, 513120, Note_on_c, 0, 69, 70
1, 513575, Note_on_c, 0, 57, 0
1, 513575, Note_on_c, 0, 64, 0
1, 513575, Note_on_c, 0, 69, 0
1, 513600, Note_on_c, 0, 76, 70
1, 514511, Note_on_c, 0, 76, 0
1, 514560, Note_on_c, 0, 59, 72
1, 514560, Note_on_c, 0, 64, 72
1, 514560, Note_on_c, 0, 71, 72
1, 515015, Note_on_c, 0, 59, 0
1, 515015, Note_on_c, 0, 64, 0
1, 515015, Note_on_c, 0, 71, 0
1, 515040, Note_on_c, 0, 76, 73
1, 515951, Note_on_c, 0, 76, 0
1, 516000, Note_on_c, 0, 59, 74
1, 516000, Note_on_c, 0, 64, 74
1, 516000, Note_on_c, 0, 71, 74
1, 516455, Note_on_c, 0, 59, 0
1, 516455, Note_on_c, 0, 64, 0
1, 516455, Note_on_c, 0, 71, 0
1, 516480, Note_on_c, 0, 76, 75
1, 517391, Note_on_c, 0, 76, 0
1, 517440, Note_on_c, 0, 60, 77
1, 517440, Note_on_c, 0, 64, 77
1, 517440, Note_on_c, 0, 72, 77
1, 517895, Note_on_c, 0, 60, 0
1, 517895, Note_on_c, 0, 64, 0
1, 517895, Note_on_c, 0, 72, 0
1, 517920, Note_on_c, 0, 76, 78
1, 518831, Note_on_c, 0, 76, 0
1, 518880, Note_on_c, 0, 60, 79
1, 518880, Note_on_c, 0, 64, 79
1, 518880, Note_on_c, 0, 72, 79
1, 519335, Note_on_c, 0, 60, 0
1, 519335, Note_on_c, 0, 64, 0
1, 519335, Note_on_c, 0, 72, 0
1, 519360, Note_on_c, 0, 76, 80
1, 520271, Note_on_c, 0, 76, 0
1, 520320, Note_on_c, 0, 62, 82
1, 520320, Note_on_c, 0, 64, 82
1, 520320, Note_on_c, 0, 74, 82
1, 520775, Note_on_c, 0, 62, 0
1, 520775, Note_on_c, 0, 64, 0
1, 520775, Note_on_c, 0, 74, 0
1, 520800, Note_on_c, 0, 76, 83
1, 521711, Note_on_c, 0, 76, 0
1, 521760, Note_on_c, 0, 62, 84
1, 521760, Note_on_c, 0, 64, 84
1, 521760, Note_on_c, 0, 74, 84
1, 522215, Note_on_c, 0, 62, 0
1, 522215, Note_on_c, 0, 64, 0
1, 522215, Note_on_c, 0, 74, 0
1, 522240, Note_on_c, 0, 76, 85
1, 522695, Note_on_c, 0, 76, 0
1, 522720, Note_on_c, 0, 71, 86
1, 523175, Note_on_c, 0, 71, 0
1, 523200, Note_on_c, 0, 57, 87
1, 523200, Note_on_c, 0, 64, 87
1, 523200, Note_on_c, 0, 69, 87
1, 523655, Note_on_c, 0, 57, 0
1, 523655, Note_on_c, 0, 64, 0
1, 523655, Note_on_c, 0, 69, 0
1, 523680, Note_on_c, 0, 76, 87
1, 524135, Note_on_c, 0, 76, 0
1, 524160, Note_on_c, 0, 69, 88
1, 524615, Note_on_c, 0, 69, 0
1, 524640, Note_on_c, 0, 57, 89
1, 524640, Note_on_c, 0, 64, 89
1, 524640, Note_on_c, 0, 69, 89
1, 525095, Note_on_c, 0, 57, 0
1, 525095, Note_on_c, 0, 64, 0
1, 525095, Note_on_c, 0, 69, 0
1, 525120, Note_on_c, 0, 76, 90
1, 525575, Note_on_c, 0, 76, 0
1, 525600, Note_on_c, 0, 69, 91
1, 526055, Note_on_c, 0, 69, 0
1, 526080, Note_on_c, 0, 59, 91
1, 526080, Note_on_c, 0, 64, 91
1, 526080, Note_on_c, 0, 71, 91
1, 526535, Note_on_c, 0, 59, 0
1, 526535, Note_on_c, 0, 64, 0
1, 526535, Note_on_c, 0, 71, 0
1, 526560, Note_on_c, 0, 76, 92
1, 527015, Note_on_c, 0, 76, 0
1, 527040, Note_on_c, 0, 71, 93
1, 527495, Note_on_c, 0, 71, 0
1, 527520, Note_on_c, 0, 59, 94
1, 527520, Note_on_c, 0, 64, 94
1, 527520, Note_on_c, 0, 71, 94
1, 527975, Note_on_c, 0, 59, 0
1, 527975, Note_on_c, 0, 64, 0
1, 527975, Note_on_c, 0, 71, 0
1, 528000, Note_on_c, 0, 76, 95
1, 528455, Note_on_c, 0, 76, 0
1, 528480, Note_on_c, 0, 71, 96
1, 528935, Note_on_c, 0, 71, 0
1, 528960, Note_on_c, 0, 60, 96
1, 528960, Note_on_c, 0, 64, 96
1, 528960, Note_on_c, 0, 72, 96
1, 529415, Note_on_c, 0, 60, 0
1, 529415, Note_on_c, 0, 64, 0
1, 529415, Note_on_c, 0, 72, 0
1, 529440, Note_on_c, 0, 76, 97
1, 529895, Note_on_c, 0, 76, 0
1, 529920, Note_on_c, 0, 72, 98
1, 530375, Note_on_c, 0, 72, 0
1, 530400, Note_on_c, 0, 60, 99
1, 530400, Note_on_c, 0, 64, 99
1, 530400, Note_on_c, 0, 72, 99
1, 530855, Note_on_c, 0, 60, 0
1, 530855, Note_on_c, 0, 64, 0
1, 530855, Note_on_c, 0, 72, 0
1, 530880, Note_on_c, 0, 76, 100
1, 531335, Note_on_c, 0, 76, 0
1, 531360, Note_on_c, 0, 72, 100
1, 531815, Note_on_c, 0, 72, 0
1, 531840, Note_on_c, 0, 62, 101
1, 531840, Note_on_c, 0, 64, 101
1, 531840, Note_on_c, 0, 74, 101
1, 532295, Note_on_c, 0, 62, 0
1, 532295, Note_on_c, 0, 64, 0
1, 532295, Note_on_c, 0, 74, 0
1, 532320, Note_on_c, 0, 76, 102
1, 532775, Note_on_c, 0, 76, 0
1, 532800, Note_on_c, 0, 74, 103
1, 533255, Note_on_c, 0, 74, 0
1, 533280, Note_on_c, 0, 62, 104
1, 533280, Note_on_c, 0, 64, 104
1, 533280, Note_on_c, 0, 74, 104
1, 533735, Note_on_c, 0, 62, 0
1, 533735, Note_on_c, 0, 64, 0
1, 533735, Note_on_c, 0, 74, 0
1, 533760, Note_on_c, 0, 76, 104
1, 534215, Note_on_c, 0, 76, 0
1, 534240, Note_on_c, 0, 71, 105
1, 534695, Note_on_c, 0, 71, 0
1, 534720, Note_on_c, 0, 57, 106
1, 534720, Note_on_c, 0, 64, 106
1, 534720, Note_on_c, 0, 69, 106
1, 535175, Note_on_c, 0, 57, 0
1, 535175, Note_on_c, 0, 64, 0
1, 535175, Note_on_c, 0, 69, 0
1, 535200, Note_on_c, 0, 76, 107
1, 535655, Note_on_c, 0, 76, 0
1, 535680, Note_on_c, 0, 69, 108
1, 536135, Note_on_c, 0, 69, 0
1, 536160, Note_on_c, 0, 57, 108
1, 536160, Note_on_c, 0, 64, 108
1, 536160, Note_on_c, 0, 69, 108
1, 536615, Note_on_c, 0, 57, 0
1, 536615, Note_on_c, 0, 64, 0
1, 536615, Note_on_c, 0, 69, 0
1, 536640, Note_on_c, 0, 76, 109
1, 537095, Note_on_c, 0, 76, 0
1, 537120, Note_on_c, 0, 69, 110
1, 537575, Note_on_c, 0, 69, 0
1, 537600, Note_on_c, 0, 59, 111
1, 537600, Note_on_c, 0, 64, 111
1, 537600, Note_on_c, 0, 71, 111
1, 538055, Note_on_c, 0, 59, 0
1, 538055, Note_on_c, 0, 64, 0
1, 538055, Note_on_c, 0, 71, 0
1, 538080, Note_on_c, 0, 76, 112
1, 538535, Note_on_c, 0, 76, 0
1, 538560, Note_on_c, 0, 71, 113
1, 539015, Note_on_c, 0, 71, 0
1, 539040, Note_on_c, 0, 59, 113
1, 539040, Note_on_c, 0, 64, 113
1, 539040, Note_on_c, 0, 71, 113
1, 539495, Note_on_c, 0, 59, 0
1, 539495, Note_on_c, 0, 64, 0
1, 539495, Note_on_c, 0, 71, 0
1, 539520, Note_on_c, 0, 76, 114
1, 539975, Note_on_c, 0, 76, 0
1, 540000, Note_on_c, 0, 71, 115
1, 540455, Note_on_c, 0, 71, 0
1, 540480, Note_on_c, 0, 60, 116
1, 540480, Note_on_c, 0, 64, 116
1, 540480, Note_on_c, 0, 72, 116
1, 540935, Note_on_c, 0, 60, 0
1, 540935, Note_on_c, 0, 64, 0
1, 540935, Note_on_c, 0, 72, 0
1, 540960, Note_on_c, 0, 76, 117
1, 541415, Note_on_c, 0, 76, 0
1, 541440, Note_on_c, 0, 72, 117
1, 541895, Note_on_c, 0, 72, 0
1, 541920, Note_on_c, 0, 60, 118
1, 541920, Note_on_c, 0, 64, 118
1, 541920, Note_on_c, 0, 72, 118
1, 542375, Note_on_c, 0, 60, 0
1, 542375, Note_on_c, 0, 64, 0
1, 542375, Note_on_c, 0, 72, 0
1, 542400, Note_on_c, 0, 76, 119
1, 542855, Note_on_c, 0, 76, 0
1, 542880, Note_on_c, 0, 72, 120
1, 543335, Note_on_c, 0, 72, 0
1, 543360, Note_on_c, 0, 62, 121
1, 543360, Note_on_c, 0, 64, 121
1, 543360, Note_on_c, 0, 74, 121
1, 543815, Note_on_c, 0, 62, 0
1, 543815, Note_on_c, 0, 64, 0
1, 543815, Note_on_c, 0, 74, 0
1, 543840, Note_on_c, 0, 76, 121
1, 544295, Note_on_c, 0, 76, 0
1, 544320, Note_on_c, 0, 74, 122
1, 544775, Note_on_c, 0, 74, 0
1, 544800, Note_on_c, 0, 62, 123
1, 544800, Note_on_c, 0, 64, 123
1, 544800, Note_on_c, 0, 74, 123
1, 545255, Note_on_c, 0, 62, 0
1, 545255, Note_on_c, 0, 64, 0
1, 545255, Note_on_c, 0, 74, 0
1, 545280, Note_on_c, 0, 76, 124
1, 545735, Note_on_c, 0, 76, 0
1, 545760, Note_on_c, 0, 71, 125
1, 546215, Note_on_c, 0, 71, 0
1, 546240, Note_on_c, 0, 57, 126
1, 546240, Note_on_c, 0, 64, 126
1, 546240, Note_on_c, 0, 69, 126
1, 546695, Note_on_c, 0, 57, 0
1, 546695, Note_on_c, 0, 64, 0
1, 546695, Note_on_c, 0, 69, 0
1, 546720, Note_on_c, 0, 64, 126
1, 546720, Note_on_c, 0, 69, 126
1, 546720, Note_on_c, 0, 76, 126
1, 547175, Note_on_c, 0, 64, 0
1, 547175, Note_on_c, 0, 69, 0
1, 547175, Note_on_c, 0, 76, 0
1, 547200, Note_on_c, 0, 69, 126
1, 547200, Note_on_c, 0, 76, 126
1, 547200, Note_on_c, 0, 81, 126
1, 547655, Note_on_c, 0, 69, 0
1, 547655, Note_on_c, 0, 76, 0
1, 547655, Note_on_c, 0, 81, 0
1, 547680, Note_on_c, 0, 57, 126
1, 547680, Note_on_c, 0, 64, 126
1, 547680, Note_on_c, 0, 69, 126
1, 548135, Note_on_c, 0, 57, 0
1, 548135, Note_on_c, 0, 64, 0
1, 548135, Note_on_c, 0, 69, 0
1, 548160, Note_on_c, 0, 64, 126
1, 548160, Note_on_c, 0, 69, 126
1, 548160, Note_on_c, 0, 76, 126
1, 548615, Note_on_c, 0, 64, 0
1, 548615, Note_on_c, 0, 69, 0
1, 548615, Note_on_c, 0, 76, 0
1, 548640, Note_on_c, 0, 69, 126
1, 548640, Note_on_c, 0, 76, 126
1, 548640, Note_on_c, 0, 81, 126
1, 549095, Note_on_c, 0, 69, 0
1, 549095, Note_on_c, 0, 76, 0
1, 549095, Note_on_c, 0, 81, 0
1, 549120, Note_on_c, 0, 59, 126
1, 549120, Note_on_c, 0, 64, 126
1, 549120, Note_on_c, 0, 71, 126
1, 549575, Note_on_c, 0, 59, 0
1, 549575, Note_on_c, 0, 64, 0
1, 549575, Note_on_c, 0, 71, 0
1, 549600, Note_on_c, 0, 64, 126
1, 549600, Note_on_c, 0, 71, 126
1, 549600, Note_on_c, 0, 76, 126
1, 550055, Note_on_c, 0, 64, 0
1, 550055, Note_on_c, 0, 71, 0
1, 550055, Note_on_c, 0, 76, 0
1, 550080, Note_on_c, 0, 71, 126
1, 550080, Note_on_c, 0, 76, 126
1, 550080, Note_on_c, 0, 83, 126
1, 550535, Note_on_c, 0, 71, 0
1, 550535, Note_on_c, 0, 76, 0
1, 550535, Note_on_c, 0, 83, 0
1, 550560, Note_on_c, 0, 59, 126
1, 550560, Note_on_c, 0, 64, 126
1, 550560, Note_on_c, 0, 71, 126
1, 551015, Note_on_c, 0, 59, 0
1, 551015, Note_on_c, 0, 64, 0
1, 551015, Note_on_c, 0, 71, 0
1, 551040, Note_on_c, 0, 64, 126
1, 551040, Note_on_c, 0, 71, 126
1, 551040, Note_on_c, 0, 76, 126
1, 551495, Note_on_c, 0, 64, 0
1, 551495, Note_on_c, 0, 71, 0
1, 551495, Note_on_c, 0, 76, 0
1, 551520, Note_on_c, 0, 71, 126
1, 551520, Note_on_c, 0, 76, 126
1, 551520, Note_on_c, 0, 83, 126
1, 551975, Note_on_c, 0, 71, 0
1, 551975, Note_on_c, 0, 76, 0
1, 551975, Note_on_c, 0, 83, 0
1, 552000, Note_on_c, 0, 60, 126
1, 552000, Note_on_c, 0, 64, 126
1, 552000, Note_on_c, 0, 72, 126
1, 552455, Note_on_c, 0, 60, 0
1, 552455, Note_on_c, 0, 64, 0
1, 552455, Note_on_c, 0, 72, 0
1, 552480, Note_on_c, 0, 64, 126
1, 552480, Note_on_c, 0, 72, 126
1, 552480, Note_on_c, 0, 76, 126
1, 552935, Note_on_c, 0, 64, 0
1, 552935, Note_on_c, 0, 72, 0
1, 552935, Note_on_c, 0, 76, 0
1, 552960, Note_on_c, 0, 72, 126
1, 552960, Note_on_c, 0, 76, 126
1, 552960, Note_on_c, 0, 84, 126
1, 553415, Note_on_c, 0, 72, 0
1, 553415, Note_on_c, 0, 76, 0
1, 553415, Note_on_c, 0, 84, 0
1, 553440, Note_on_c, 0, 60, 126
1, 553440, Note_on_c, 0, 64, 126
1, 553440, Note_on_c, 0, 72, 126
1, 553895, Note_on_c, 0, 60, 0
1, 553895, Note_on_c, 0, 64, 0
1, 553895, Note_on_c, 0, 72, 0
1, 553920, Note_on_c, 0, 64, 126
1, 553920, Note_on_c, 0, 72, 126
1, 553920, Note_on_c, 0, 76, 126
1, 554375, Note_on_c, 0, 64, 0
1, 554375, Note_on_c, 0, 72, 0
1, 554375, Note_on_c, 0, 76, 0
1, 554400, Note_on_c, 0, 72, 126
1, 554400, Note_on_c, 0, 76, 126
1, 554400, Note_on_c, 0, 84, 126
1, 554855, Note_on_c, 0, 72, 0
1, 554855, Note_on_c, 0, 76, 0
1, 554855, Note_on_c, 0, 84, 0
1, 554880, Note_on_c, 0, 62, 126
1, 554880, Note_on_c, 0, 64, 126
1, 554880, Note_on_c, 0, 74, 126
1, 555335, Note_on_c, 0, 62, 0
1, 555335, Note_on_c, 0, 64, 0
1, 555335, Note_on_c, 0, 74, 0
1, 555360, Note_on_c, 0, 64, 126
1, 555360, Note_on_c, 0, 74, 126
1, 555360, Note_on_c, 0, 76, 126
1, 555815, Note_on_c, 0, 64, 0
1, 555815, Note_on_c, 0, 74, 0
1, 555815, Note_on_c, 0, 76, 0
1, 555840, Note_on_c, 0, 74, 126
1, 555840, Note_on_c, 0, 76, 126
1, 555840, Note_on_c, 0, 86, 126
1, 556295, Note_on_c, 0, 74, 0
1, 556295, Note_on_c, 0, 76, 0
1, 556295, Note_on_c, 0, 86, 0
1, 556320, Note_on_c, 0, 62, 126
1, 556320, Note_on_c, 0, 64, 126
1, 556320, Note_on_c, 0, 74, 126
1, 556775, Note_on_c, 0, 62, 0
1, 556775, Note_on_c, 0, 64, 0
1, 556775, Note_on_c, 0, 74, 0
1, 556800, Note_on_c, 0, 64, 126
1, 556800, Note_on_c, 0, 74, 126
1, 556800, Note_on_c, 0, 76, 126
1, 557255, Note_on_c, 0, 64, 0
1, 557255, Note_on_c, 0, 74, 0
1, 557255, Note_on_c, 0, 76, 0
1, 557280, Note_on_c, 0, 71, 126
1, 557280, Note_on_c, 0, 76, 126
1, 557280, Note_on_c, 0, 83, 126
1, 557735, Note_on_c, 0, 71, 0
1, 557735, Note_on_c, 0, 76, 0
1, 557735, Note_on_c, 0, 83, 0
1, 557760, Note_on_c, 0, 57, 126
1, 557760, Note_on_c, 0, 64, 126
1, 557760, Note_on_c, 0, 69, 126
1, 558215, Note_on_c, 0, 57, 0
1, 558215, Note_on_c, 0, 64, 0
1, 558215, Note_on_c, 0, 69, 0
1, 558240, Note_on_c, 0, 64, 126
1, 558240, Note_on_c, 0, 69, 126
1, 558240, Note_on_c, 0, 76, 126
1, 558695, Note_on_c, 0, 64, 0
1, 558695, Note_on_c, 0, 69, 0
1, 558695, Note_on_c, 0, 76, 0
1, 558720, Note_on_c, 0, 69, 126
1, 558720, Note_on_c, 0, 76, 126
1, 558720, Note_on_c, 0, 81, 126
1, 559175, Note_on_c, 0, 69, 0
1, 559175, Note_on_c, 0, 76, 0
1, 559175, Note_on_c, 0, 81, 0
1, 559200, Note_on_c, 0, 57, 126
1, 559200, Note_on_c, 0, 64, 126
1, 559200, Note_on_c, 0, 69, 126
1, 559655, Note_on_c, 0, 57, 0
1, 559655, Note_on_c, 0, 64, 0
1, 559655, Note_on_c, 0, 69, 0
1, 559680, Note_on_c, 0, 64, 126
1, 559680, Note_on_c, 0, 69, 126
1, 559680, Note_on_c, 0, 76, 126
1, 560135, Note_on_c, 0, 64, 0
1, 560135, Note_on_c, 0, 69, 0
1, 560135, Note_on_c, 0, 76, 0
1, 560160, Note_on_c, 0, 69, 126
1, 560160, Note_on_c, 0, 76, 126
1, 560160, Note_on_c, 0, 81, 126
1, 560615, Note_on_c, 0, 69, 0
1, 560615, Note_on_c, 0, 76, 0
1, 560615, Note_on_c, 0, 81, 0
1, 560640, Note_on_c, 0, 59, 126
1, 560640, Note_on_c, 0, 64, 126
1, 560640, Note_on_c, 0, 71, 126
1, 561095, Note_on_c, 0, 59, 0
1, 561095, Note_on_c, 0, 64, 0
1, 561095, Note_on_c, 0, 71, 0
1, 561120, Note_on_c, 0, 64, 126
1, 561120, Note_on_c, 0, 71, 126
1, 561120, Note_on_c, 0, 76, 126
1, 561575, Note_on_c, 0, 64, 0
1, 561575, Note_on_c, 0, 71, 0
1, 561575, Note_on_c, 0, 76, 0
1, 561600, Note_on_c, 0, 71, 126
1, 561600, Note_on_c, 0, 76, 126
1, 561600, Note_on_c, 0, 83, 126
1, 562055, Note_on_c, 0, 71, 0
1, 562055, Note_on_c, 0, 76, 0
1, 562055, Note_on_c, 0, 83, 0
1, 562080, Note_on_c, 0, 59, 126
1, 562080, Note_on_c, 0, 64, 126
1, 562080, Note_on_c, 0, 71, 126
1, 562535, Note_on_c, 0, 59, 0
1, 562535, Note_on_c, 0, 64, 0
1, 562535, Note_on_c, 0, 71, 0
1, 562560, Note_on_c, 0, 64, 126
1, 562560, Note_on_c, 0, 71, 126
1, 562560, Note_on_c, 0, 76, 126
1, 563015, Note_on_c, 0, 64, 0
1, 563015, Note_on_c, 0, 71, 0
1, 563015, Note_on_c, 0, 76, 0
1, 563040, Note_on_c, 0, 71, 126
1, 563040, Note_on_c, 0, 76, 126
1, 563040, Note_on_c, 0, 83, 126
1, 563495, Note_on_c, 0, 71, 0
1, 563495, Note_on_c, 0, 76, 0
1, 563495, Note_on_c, 0, 83, 0
1, 563520, Note_on_c, 0, 60, 126
1, 563520, Note_on_c, 0, 64, 126
1, 563520, Note_on_c, 0, 72, 126
1, 563975, Note_on_c, 0, 60, 0
1, 563975, Note_on_c, 0, 64, 0
1, 563975, Note_on_c, 0, 72, 0
1, 564000, Note_on_c, 0, 64, 117
1, 564000, Note_on_c, 0, 72, 117
1, 564000, Note_on_c, 0, 76, 117
1, 564455, Note_on_c, 0, 64, 0
1, 564455, Note_on_c, 0, 72, 0
1, 564455, Note_on_c, 0, 76, 0
1, 564480, Note_on_c, 0, 72, 108
1, 564480, Note_on_c, 0, 76, 108
1, 564480, Note_on_c, 0, 84, 108
1, 564935, Note_on_c, 0, 72, 0
1, 564935, Note_on_c, 0, 76, 0
1, 564935, Note_on_c, 0, 84, 0
1, 564960, Note_on_c, 0, 60, 99
1, 564960, Note_on_c, 0, 64, 99
1, 564960, Note_on_c, 0, 72, 99
1, 565415, Note_on_c, 0, 60, 0
1, 565415, Note_on_c, 0, 64, 0
1, 565415, Note_on_c, 0, 72, 0
1, 565440, Note_on_c, 0, 64, 90
1, 565440, Note_on_c, 0, 72, 90
1, 565440, Note_on_c, 0, 76, 90
1, 565895, Note_on_c, 0, 64, 0
1, 565895, Note_on_c, 0, 72, 0
1, 565895, Note_on_c, 0, 76, 0
1, 565920, Note_on_c, 0, 72, 81
1, 565920, Note_on_c, 0, 76, 81
1, 565920, Note_on_c, 0, 84, 81
1, 566375, Note_on_c, 0, 72, 0
1, 566375, Note_on_c, 0, 76, 0
1, 566375, Note_on_c, 0, 84, 0
1, 566400, Note_on_c, 0, 62, 71
1, 566400, Note_on_c, 0, 64, 71
1, 566400, Note_on_c, 0, 74, 71
1, 566855, Note_on_c, 0, 62, 0
1, 566855, Note_on_c, 0, 64, 0
1, 566855, Note_on_c, 0, 74, 0
1, 566880, Note_on_c, 0, 64, 62
1, 566880, Note_on_c, 0, 74, 62
1, 566880, Note_on_c, 0, 76, 62
1, 567335, Note_on_c, 0, 64, 0
1, 567335, Note_on_c, 0, 74, 0
1, 567335, Note_on_c, 0, 76, 0
1, 567360, Note_on_c, 0, 74, 53
1, 567360, Note_on_c, 0, 76, 53
1, 567360, Note_on_c, 0, 86, 53
1, 567815, Note_on_c, 0, 74, 0
1, 567815, Note_on_c, 0, 76, 0
1, 567815, Note_on_c, 0, 86, 0
1, 567840, Note_on_c, 0, 62, 44
1, 567840, Note_on_c, 0, 64, 44
1, 567840, Note_on_c, 0, 74, 44
1, 568295, Note_on_c, 0, 62, 0
1, 568295, Note_on_c, 0, 64, 0
1, 568295, Note_on_c, 0, 74, 0
1, 568320, Note_on_c, 0, 64, 35
1, 568320, Note_on_c, 0, 74, 35
1, 568320, Note_on_c, 0, 76, 35
1, 568775, Note_on_c, 0, 64, 0
1, 568775, Note_on_c, 0, 74, 0
1, 568775, Note_on_c, 0, 76, 0
1, 568800, Note_on_c, 0, 71, 26
1, 568800, Note_on_c, 0, 76, 26
1, 568800, Note_on_c, 0, 83, 26
1, 569255, Note_on_c, 0, 71, 0
1, 569255, Note_on_c, 0, 76, 0
1, 569255, Note_on_c, 0, 83, 0
1, 569280, Note_on_c, 0, 69, 16
1, 569280, Note_on_c, 0, 76, 16
1, 569280, Note_on_c, 0, 81, 16
1, 569735, Note_on_c, 0, 69, 0
1, 569735, Note_on_c, 0, 76, 0
1, 569735, Note_on_c, 0, 81, 0
1, 569760, Note_on_c, 0, 88, 16
1, 570671, Note_on_c, 0, 88, 0
1, 570720, Note_on_c, 0, 69, 16
1, 570720, Note_on_c, 0, 76, 16
1, 570720, Note_on_c, 0, 81, 16
1, 571175, Note_on_c, 0, 69, 0
1, 571175, Note_on_c, 0, 76, 0
1, 571175, Note_on_c, 0, 81, 0
1, 571200, Note_on_c, 0, 88, 16
1, 572111, Note_on_c, 0, 88, 0
1, 572160, Note_on_c, 0, 71, 16
1, 572160, Note_on_c, 0, 76, 16
1, 572160, Note_on_c, 0, 83, 16
1, 572615, Note_on_c, 0, 71, 0
1, 572615, Note_on_c, 0, 76, 0
1, 572615, Note_on_c, 0, 83, 0
1, 572640, Note_on_c, 0, 88, 16
1, 573551, Note_on_c, 0, 88, 0
1, 573600, Note_on_c, 0, 71, 16
1, 573600, Note_on_c, 0, 76, 16
1, 573600, Note_on_c, 0, 83, 16
1, 574055, Note_on_c, 0, 71, 0
1, 574055, Note_on_c, 0, 76, 0
1, 574055, Note_on_c, 0, 83, 0
1, 574080, Note_on_c, 0, 88, 16
1, 574991, Note_on_c, 0, 88, 0
1, 575040, Note_on_c, 0, 69, 16
1, 575040, Note_on_c, 0, 76, 16
1, 575040, Note_on_c, 0, 81, 16
1, 575495, Note_on_c, 0, 69, 0
1, 575495, Note_on_c, 0, 76, 0
1, 575495, Note_on_c, 0, 81, 0
1, 575520, Note_on_c, 0, 88, 16
1, 576431, Note_on_c, 0, 88, 0
1, 576480, Note_on_c, 0, 69, 16
1, 576480, Note_on_c, 0, 76, 16
1, 576480, Note_on_c, 0, 81, 16
1, 576935, Note_on_c, 0, 69, 0
1, 576935, Note_on_c, 0, 76, 0
1, 576935, Note_on_c, 0, 81, 0
1, 576960, Note_on_c, 0, 88, 16
1, 577871, Note_on_c, 0, 88, 0
1, 577920, Note_on_c, 0, 71, 16
1, 577920, Note_on_c, 0, 76, 16
1, 577920, Note_on_c, 0, 83, 16
1, 578375, Note_on_c, 0, 71, 0
1, 578375, Note_on_c, 0, 76, 0
1, 578375, Note_on_c, 0, 83, 0
1, 578400, Note_on_c, 0, 88, 16
1, 579311, Note_on_c, 0, 88, 0
1, 579360, Note_on_c, 0, 71, 16
1, 579360, Note_on_c, 0, 76, 16
1, 579360, Note_on_c, 0, 83, 16
1, 579815, Note_on_c, 0, 71, 0
1, 579815, Note_on_c, 0, 76, 0
1, 579815, Note_on_c, 0, 83, 0
1, 579840, Note_on_c, 0, 88, 16
1, 580751, Note_on_c, 0, 88, 0
1, 580800, Note_on_c, 0, 72, 16
1, 580800, Note_on_c, 0, 76, 16
1, 580800, Note_on_c, 0, 84, 16
1, 581255, Note_on_c, 0, 72, 0
1, 581255, Note_on_c, 0, 76, 0
1, 581255, Note_on_c, 0, 84, 0
1, 581280, Note_on_c, 0, 88, 16
1, 582191, Note_on_c, 0, 88, 0
1, 582240, Note_on_c, 0, 72, 16
1, 582240, Note_on_c, 0, 76, 16
1, 582240, Note_on_c, 0, 84, 16
1, 582695, Note_on_c, 0, 72, 0
1, 582695, Note_on_c, 0, 76, 0
1, 582695, Note_on_c, 0, 84, 0
1, 582720, Note_on_c, 0, 88, 16
1, 583631, Note_on_c, 0, 88, 0
1, 583680, Note_on_c, 0, 71, 16
1, 583680, Note_on_c, 0, 76, 16
1, 583680, Note_on_c, 0, 83, 16
1, 584135, Note_on_c, 0, 71, 0
1, 584135, Note_on_c, 0, 76, 0
1, 584135, Note_on_c, 0, 83, 0
1, 584160, Note_on_c, 0, 88, 16
1, 585071, Note_on_c, 0, 88, 0
1, 585120, Note_on_c, 0, 71, 16
1, 585120, Note_on_c, 0, 76, 16
1, 585120, Note_on_c, 0, 83, 16
1, 585575, Note_on_c, 0, 71, 0
1, 585575, Note_on_c, 0, 76, 0
1, 585575, Note_on_c, 0, 83, 0
1, 585600, Note_on_c, 0, 88, 16
1, 586511, Note_on_c, 0, 88, 0
1, 586560, Note_on_c, 0, 72, 16
1, 586560, Note_on_c, 0, 76, 16
1, 586560, Note_on_c, 0, 84, 16
1, 587015, Note_on_c, 0, 72, 0
1, 587015, Note_on_c, 0, 76, 0
1, 587015, Note_on_c, 0, 84, 0
1, 587040, Note_on_c, 0, 88, 16
1, 587951, Note_on_c, 0, 88, 0
1, 588000, Note_on_c, 0, 72, 16
1, 588000, Note_on_c, 0, 76, 16
1, 588000, Note_on_c, 0, 84, 16
1, 588455, Note_on_c, 0, 72, 0
1, 588455, Note_on_c, 0, 76, 0
1, 588455, Note_on_c, 0, 84, 0
1, 588480, Note_on_c, 0, 88, 16
1, 589391, Note_on_c, 0, 88, 0
1, 589440, Note_on_c, 0, 74, 16
1, 589440, Note_on_c, 0, 76, 16
1, 589440, Note_on_c, 0, 86, 16
1, 589895, Note_on_c, 0, 74, 0
1, 589895, Note_on_c, 0, 76, 0
1, 589895, Note_on_c, 0, 86, 0
1, 589920, Note_on_c, 0, 88, 16
1, 590831, Note_on_c, 0, 88, 0
1, 590880, Note_on_c, 0, 74, 16
1, 590880, Note_on_c, 0, 76, 16
1, 590880, Note_on_c, 0, 86, 16
1, 591335, Note_on_c, 0, 74, 0
1, 591335, Note_on_c, 0, 76, 0
1, 591335, Note_on_c, 0, 86, 0
1, 591360, Note_on_c, 0, 88, 16
1, 591815, Note_on_c, 0, 88, 0
1, 591840, Note_on_c, 0, 83, 16
1, 592295, Note_on_c, 0, 83, 0
1, 592860, Note_on_c, 0, 69, 64
1, 592916, Note_on_c, 0, 69, 0
1, 592920, Note_on_c, 0, 72, 64
1, 592976, Note_on_c, 0, 72, 0
1, 592980, Note_on_c, 0, 76, 64
1, 593036, Note_on_c, 0, 76, 0
1, 593040, Note_on_c, 0, 81, 64
1, 593096, Note_on_c, 0, 81, 0
1, 593100, Note_on_c, 0, 84, 64
1, 593156, Note_on_c, 0, 84, 0
1, 593160, Note_on_c, 0, 88, 64
1, 593216, Note_on_c, 0, 88, 0
1, 593220, Note_on_c, 0, 93, 64
1, 593276, Note_on_c, 0, 93, 0
1, 593280, Note_on_c, 0, 96, 64
1, 593336, Note_on_c, 0, 96, 0
1, 593340, Note_on_c, 0, 100, 64
1, 593396, Note_on_c, 0, 100, 0
1, 593400, Note_on_c, 0, 105, 64
1, 593456, Note_on_c, 0, 105, 0
1, 593460, Note_on_c, 0, 108, 64
1, 593516, Note_on_c, 0, 108, 0
1, 593517, End_track
2, 0, Start_track
2, 0, Key_signature, 0, "major"
2, 0, Key_signature, 0, "major"
2, 0, Key_signature, 0, "major"
2, 0, MIDI_port, 0
2, 2, Control_c, 0, 64, 127
2, 2881, Control_c, 0, 64, 0
2, 2882, Control_c, 0, 64, 127
2, 5761, Control_c, 0, 64, 0
2, 5762, Control_c, 0, 64, 127
2, 7201, Control_c, 0, 64, 0
2, 7202, Control_c, 0, 64, 127
2, 8640, Note_on_c, 0, 45, 64
2, 8640, Note_on_c, 0, 57, 64
2, 8641, Control_c, 0, 64, 0
2, 8642, Control_c, 0, 64, 127
2, 9095, Note_on_c, 0, 45, 0
2, 9095, Note_on_c, 0, 57, 0
2, 9120, Note_on_c, 0, 47, 64
2, 9120, Note_on_c, 0, 59, 64
2, 9121, Control_c, 0, 64, 0
2, 9122, Control_c, 0, 64, 127
2, 9575, Note_on_c, 0, 47, 0
2, 9575, Note_on_c, 0, 59, 0
2, 9600, Note_on_c, 0, 48, 64
2, 9600, Note_on_c, 0, 60, 64
2, 9601, Control_c, 0, 64, 0
2, 9602, Control_c, 0, 64, 127
2, 10055, Note_on_c, 0, 48, 0
2, 10055, Note_on_c, 0, 60, 0
2, 10080, Note_on_c, 0, 47, 64
2, 10080, Note_on_c, 0, 59, 64
2, 10081, Control_c, 0, 64, 0
2, 10082, Control_c, 0, 64, 127
2, 10535, Note_on_c, 0, 47, 0
2, 10535, Note_on_c, 0, 59, 0
2, 10560, Note_on_c, 0, 45, 64
2, 10560, Note_on_c, 0, 57, 64
2, 10561, Control_c, 0, 64, 0
2, 10562, Control_c, 0, 64, 127
2, 11015, Note_on_c, 0, 45, 0
2, 11015, Note_on_c, 0, 57, 0
2, 11040, Note_on_c, 0, 47, 64
2, 11040, Note_on_c, 0, 59, 64
2, 11041, Control_c, 0, 64, 0
2, 11042, Control_c, 0, 64, 127
2, 11495, Note_on_c, 0, 47, 0
2, 11495, Note_on_c, 0, 59, 0
2, 11520, Note_on_c, 0, 48, 64
2, 11520, Note_on_c, 0, 60, 64
2, 11521, Control_c, 0, 64, 0
2, 11522, Control_c, 0, 64, 127
2, 12887, Note_on_c, 0, 48, 0
2, 12887, Note_on_c, 0, 60, 0
2, 12960, Note_on_c, 0, 47, 64
2, 12960, Note_on_c, 0, 59, 64
2, 12961, Control_c, 0, 64, 0
2, 12962, Control_c, 0, 64, 127
2, 14327, Note_on_c, 0, 47, 0
2, 14327, Note_on_c, 0, 59, 0
2, 14400, Note_on_c, 0, 41, 49
2, 14400, Note_on_c, 0, 48, 49
2, 14400, Note_on_c, 0, 53, 49
2, 14401, Control_c, 0, 64, 0
2, 14402, Control_c, 0, 64, 127
2, 17135, Note_on_c, 0, 41, 0
2, 17135, Note_on_c, 0, 48, 0
2, 17135, Note_on_c, 0, 53, 0
2, 17280, Note_on_c, 0, 43, 49
2, 17280, Note_on_c, 0, 50, 49
2, 17280, Note_on_c, 0, 55, 49
2, 17281, Control_c, 0, 64, 0
2, 17282, Control_c, 0, 64, 127
2, 20015, Note_on_c, 0, 43, 0
2, 20015, Note_on_c, 0, 50, 0
2, 20015, Note_on_c, 0, 55, 0
2, 20160, Note_on_c, 0, 45, 49
2, 20160, Note_on_c, 0, 52, 49
2, 20160, Note_on_c, 0, 57, 49
2, 20161, Control_c, 0, 64, 0
2, 20162, Control_c, 0, 64, 127
2, 22895, Note_on_c, 0, 45, 0
2, 22895, Note_on_c, 0, 52, 0
2, 22895, Note_on_c, 0, 57, 0
2, 23040, Note_on_c, 0, 43, 49
2, 23040, Note_on_c, 0, 50, 49
2, 23040, Note_on_c, 0, 55, 49
2, 23041, Control_c, 0, 64, 0
2, 23042, Control_c, 0, 64, 127
2, 25775, Note_on_c, 0, 43, 0
2, 25775, Note_on_c, 0, 50, 0
2, 25775, Note_on_c, 0, 55, 0
2, 25920, Note_on_c, 0, 41, 64
2, 25920, Note_on_c, 0, 48, 64
2, 25920, Note_on_c, 0, 53, 64
2, 25921, Control_c, 0, 64, 0
2, 25922, Control_c, 0, 64, 127
2, 26880, Note_on_c, 0, 53, 64
2, 27287, Note_on_c, 0, 53, 0
2, 27335, Note_on_c, 0, 53, 0
2, 27360, Note_on_c, 0, 53, 64
2, 28320, Note_on_c, 0, 53, 64
2, 28655, Note_on_c, 0, 41, 0
2, 28655, Note_on_c, 0, 48, 0
2, 28727, Note_on_c, 0, 53, 0
2, 28775, Note_on_c, 0, 53, 0
2, 28800, Note_on_c, 0, 43, 64
2, 28800, Note_on_c, 0, 50, 64
2, 28800, Note_on_c, 0, 55, 64
2, 28801, Control_c, 0, 64, 0
2, 28802, Control_c, 0, 64, 127
2, 29760, Note_on_c, 0, 55, 64
2, 30167, Note_on_c, 0, 55, 0
2, 30215, Note_on_c, 0, 55, 0
2, 30240, Note_on_c, 0, 55, 64
2, 31200, Note_on_c, 0, 55, 64
2, 31535, Note_on_c, 0, 43, 0
2, 31535, Note_on_c, 0, 50, 0
2, 31607, Note_on_c, 0, 55, 0
2, 31655, Note_on_c, 0, 55, 0
2, 31680, Note_on_c, 0, 45, 64
2, 31680, Note_on_c, 0, 52, 64
2, 31680, Note_on_c, 0, 57, 64
2, 31681, Control_c, 0, 64, 0
2, 31682, Control_c, 0, 64, 127
2, 32640, Note_on_c, 0, 57, 64
2, 33047, Note_on_c, 0, 57, 0
2, 33095, Note_on_c, 0, 57, 0
2, 33120, Note_on_c, 0, 57, 64
2, 34080, Note_on_c, 0, 57, 64
2, 34415, Note_on_c, 0, 45, 0
2, 34415, Note_on_c, 0, 52, 0
2, 34487, Note_on_c, 0, 57, 0
2, 34535, Note_on_c, 0, 57, 0
2, 34560, Note_on_c, 0, 43, 64
2, 34560, Note_on_c, 0, 50, 64
2, 34560, Note_on_c, 0, 55, 64
2, 34561, Control_c, 0, 64, 0
2, 34562, Control_c, 0, 64, 127
2, 35520, Note_on_c, 0, 55, 64
2, 35927, Note_on_c, 0, 55, 0
2, 35975, Note_on_c, 0, 55, 0
2, 36000, Note_on_c, 0, 55, 64
2, 36960, Note_on_c, 0, 55, 74
2, 37295, Note_on_c, 0, 43, 0
2, 37295, Note_on_c, 0, 50, 0
2, 37367, Note_on_c, 0, 55, 0
2, 37415, Note_on_c, 0, 55, 0
2, 37440, Note_on_c, 0, 41, 80
2, 37440, Note_on_c, 0, 48, 80
2, 37440, Note_on_c, 0, 53, 80
2, 37441, Control_c, 0, 64, 0
2, 37442, Control_c, 0, 64, 127
2, 38400, Note_on_c, 0, 53, 80
2, 38807, Note_on_c, 0, 53, 0
2, 38855, Note_on_c, 0, 53, 0
2, 38880, Note_on_c, 0, 53, 80
2, 39840, Note_on_c, 0, 53, 80
2, 40175, Note_on_c, 0, 41, 0
2, 40175, Note_on_c, 0, 48, 0
2, 40247, Note_on_c, 0, 53, 0
2, 40295, Note_on_c, 0, 53, 0
2, 40320, Note_on_c, 0, 43, 80
2, 40320, Note_on_c, 0, 50, 80
2, 40320, Note_on_c, 0, 55, 80
2, 40321, Control_c, 0, 64, 0
2, 40322, Control_c, 0, 64, 127
2, 41280, Note_on_c, 0, 55, 80
2, 41687, Note_on_c, 0, 55, 0
2, 41735, Note_on_c, 0, 55, 0
2, 41760, Note_on_c, 0, 55, 80
2, 42720, Note_on_c, 0, 55, 80
2, 43055, Note_on_c, 0, 43, 0
2, 43055, Note_on_c, 0, 50, 0
2, 43127, Note_on_c, 0, 55, 0
2, 43175, Note_on_c, 0, 55, 0
2, 43200, Note_on_c, 0, 45, 80
2, 43200, Note_on_c, 0, 52, 80
2, 43200, Note_on_c, 0, 57, 80
2, 43201, Control_c, 0, 64, 0
2, 43202, Control_c, 0, 64, 127
2, 44160, Note_on_c, 0, 57, 80
2, 44567, Note_on_c, 0, 57, 0
2, 44615, Note_on_c, 0, 57, 0
2, 44640, Note_on_c, 0, 57, 80
2, 45600, Note_on_c, 0, 57, 80
2, 45935, Note_on_c, 0, 45, 0
2, 45935, Note_on_c, 0, 52, 0
2, 46007, Note_on_c, 0, 57, 0
2, 46055, Note_on_c, 0, 57, 0
2, 46080, Note_on_c, 0, 43, 80
2, 46080, Note_on_c, 0, 50, 80
2, 46080, Note_on_c, 0, 55, 80
2, 46081, Control_c, 0, 64, 0
2, 46082, Control_c, 0, 64, 127
2, 47040, Note_on_c, 0, 55, 80
2, 47447, Note_on_c, 0, 55, 0
2, 47495, Note_on_c, 0, 55, 0
2, 47520, Note_on_c, 0, 55, 80
2, 48480, Note_on_c, 0, 55, 90
2, 48815, Note_on_c, 0, 43, 0
2, 48815, Note_on_c, 0, 50, 0
2, 48887, Note_on_c, 0, 55, 0
2, 48935, Note_on_c, 0, 55, 0
2, 48960, Note_on_c, 0, 41, 96
2, 48960, Note_on_c, 0, 48, 96
2, 48960, Note_on_c, 0, 53, 96
2, 48961, Control_c, 0, 64, 0
2, 48962, Control_c, 0, 64, 127
2, 49440, Note_on_c, 0, 53, 96
2, 49440, Note_on_c, 0, 60, 96
2, 49440, Note_on_c, 0, 65, 96
2, 50327, Note_on_c, 0, 41, 0
2, 50327, Note_on_c, 0, 48, 0
2, 50327, Note_on_c, 0, 53, 0
2, 50351, Note_on_c, 0, 53, 0
2, 50351, Note_on_c, 0, 60, 0
2, 50351, Note_on_c, 0, 65, 0
2, 50400, Note_on_c, 0, 41, 96
2, 50400, Note_on_c, 0, 48, 96
2, 50400, Note_on_c, 0, 53, 96
2, 50401, Control_c, 0, 64, 0
2, 50402, Control_c, 0, 64, 127
2, 50880, Note_on_c, 0, 53, 96
2, 50880, Note_on_c, 0, 60, 96
2, 50880, Note_on_c, 0, 65, 96
2, 51767, Note_on_c, 0, 41, 0
2, 51767, Note_on_c, 0, 48, 0
2, 51767, Note_on_c, 0, 53, 0
2, 51791, Note_on_c, 0, 53, 0
2, 51791, Note_on_c, 0, 60, 0
2, 51791, Note_on_c, 0, 65, 0
2, 51840, Note_on_c, 0, 43, 96
2, 51840, Note_on_c, 0, 50, 96
2, 51840, Note_on_c, 0, 55, 96
2, 51841, Control_c, 0, 64, 0
2, 51842, Control_c, 0, 64, 127
2, 52320, Note_on_c, 0, 55, 96
2, 52320, Note_on_c, 0, 62, 96
2, 52320, Note_on_c, 0, 67, 96
2, 53207, Note_on_c, 0, 43, 0
2, 53207, Note_on_c, 0, 50, 0
2, 53207, Note_on_c, 0, 55, 0
2, 53231, Note_on_c, 0, 55, 0
2, 53231, Note_on_c, 0, 62, 0
2, 53231, Note_on_c, 0, 67, 0
2, 53280, Note_on_c, 0, 43, 96
2, 53280, Note_on_c, 0, 50, 96
2, 53280, Note_on_c, 0, 55, 96
2, 53281, Control_c, 0, 64, 0
2, 53282, Control_c, 0, 64, 127
2, 53760, Note_on_c, 0, 55, 96
2, 53760, Note_on_c, 0, 62, 96
2, 53760, Note_on_c, 0, 67, 96
2, 54647, Note_on_c, 0, 43, 0
2, 54647, Note_on_c, 0, 50, 0
2, 54647, Note_on_c, 0, 55, 0
2, 54671, Note_on_c, 0, 55, 0
2, 54671, Note_on_c, 0, 62, 0
2, 54671, Note_on_c, 0, 67, 0
2, 54720, Note_on_c, 0, 45, 96
2, 54720, Note_on_c, 0, 52, 96
2, 54720, Note_on_c, 0, 57, 96
2, 54721, Control_c, 0, 64, 0
2, 54722, Control_c, 0, 64, 127
2, 55200, Note_on_c, 0, 57, 96
2, 55200, Note_on_c, 0, 64, 96
2, 55200, Note_on_c, 0, 69, 96
2, 56087, Note_on_c, 0, 45, 0
2, 56087, Note_on_c, 0, 52, 0
2, 56087, Note_on_c, 0, 57, 0
2, 56111, Note_on_c, 0, 57, 0
2, 56111, Note_on_c, 0, 64, 0
2, 56111, Note_on_c, 0, 69, 0
2, 56160, Note_on_c, 0, 45, 96
2, 56160, Note_on_c, 0, 52, 96
2, 56160, Note_on_c, 0, 57, 96
2, 56161, Control_c, 0, 64, 0
2, 56162, Control_c, 0, 64, 127
2, 56640, Note_on_c, 0, 57, 96
2, 56640, Note_on_c, 0, 64, 96
2, 56640, Note_on_c, 0, 69, 96
2, 57527, Note_on_c, 0, 45, 0
2, 57527, Note_on_c, 0, 52, 0
2, 57527, Note_on_c, 0, 57, 0
2, 57551, Note_on_c, 0, 57, 0
2, 57551, Note_on_c, 0, 64, 0
2, 57551, Note_on_c, 0, 69, 0
2, 57600, Note_on_c, 0, 43, 96
2, 57600, Note_on_c, 0, 50, 96
2, 57600, Note_on_c, 0, 55, 96
2, 57601, Control_c, 0, 64, 0
2, 57602, Control_c, 0, 64, 127
2, 58080, Note_on_c, 0, 55, 96
2, 58080, Note_on_c, 0, 62, 96
2, 58080, Note_on_c, 0, 67, 96
2, 58967, Note_on_c, 0, 43, 0
2, 58967, Note_on_c, 0, 50, 0
2, 58967, Note_on_c, 0, 55, 0
2, 58991, Note_on_c, 0, 55, 0
2, 58991, Note_on_c, 0, 62, 0
2, 58991, Note_on_c, 0, 67, 0
2, 59040, Note_on_c, 0, 43, 96
2, 59040, Note_on_c, 0, 50, 96
2, 59040, Note_on_c, 0, 55, 96
2, 59041, Control_c, 0, 64, 0
2, 59042, Control_c, 0, 64, 127
2, 59520, Note_on_c, 0, 55, 96
2, 59520, Note_on_c, 0, 62, 96
2, 59520, Note_on_c, 0, 67, 96
2, 60407, Note_on_c, 0, 43, 0
2, 60407, Note_on_c, 0, 50, 0
2, 60407, Note_on_c, 0, 55, 0
2, 60431, Note_on_c, 0, 55, 0
2, 60431, Note_on_c, 0, 62, 0
2, 60431, Note_on_c, 0, 67, 0
2, 60480, Note_on_c, 0, 40, 80
2, 60480, Note_on_c, 0, 52, 80
2, 60481, Control_c, 0, 64, 0
2, 60482, Control_c, 0, 64, 127
2, 63215, Note_on_c, 0, 40, 0
2, 63215, Note_on_c, 0, 52, 0
2, 63360, Note_on_c, 0, 45, 64
2, 63360, Note_on_c, 0, 52, 64
2, 63360, Note_on_c, 0, 57, 64
2, 63361, Control_c, 0, 64, 0
2, 63362, Control_c, 0, 64, 127
2, 64727, Note_on_c, 0, 45, 0
2, 64727, Note_on_c, 0, 52, 0
2, 64727, Note_on_c, 0, 57, 0
2, 64800, Note_on_c, 0, 43, 64
2, 64800, Note_on_c, 0, 50, 64
2, 64800, Note_on_c, 0, 55, 64
2, 64801, Control_c, 0, 64, 0
2, 64802, Control_c, 0, 64, 127
2, 66167, Note_on_c, 0, 43, 0
2, 66167, Note_on_c, 0, 50, 0
2, 66167, Note_on_c, 0, 55, 0
2, 66240, Note_on_c, 0, 53, 64
2, 66240, Note_on_c, 0, 60, 64
2, 66240, Note_on_c, 0, 65, 64
2, 66241, Control_c, 0, 64, 0
2, 66242, Control_c, 0, 64, 127
2, 67607, Note_on_c, 0, 53, 0
2, 67607, Note_on_c, 0, 60, 0
2, 67607, Note_on_c, 0, 65, 0
2, 67680, Note_on_c, 0, 55, 64
2, 67680, Note_on_c, 0, 62, 64
2, 67680, Note_on_c, 0, 67, 64
2, 67681, Control_c, 0, 64, 0
2, 67682, Control_c, 0, 64, 127
2, 69047, Note_on_c, 0, 55, 0
2, 69047, Note_on_c, 0, 62, 0
2, 69047, Note_on_c, 0, 67, 0
2, 69120, Note_on_c, 0, 57, 64
2, 69120, Note_on_c, 0, 64, 64
2, 69120, Note_on_c, 0, 69, 64
2, 69121, Control_c, 0, 64, 0
2, 69122, Control_c, 0, 64, 127
2, 70487, Note_on_c, 0, 57, 0
2, 70487, Note_on_c, 0, 64, 0
2, 70487, Note_on_c, 0, 69, 0
2, 70560, Note_on_c, 0, 55, 64
2, 70560, Note_on_c, 0, 62, 64
2, 70560, Note_on_c, 0, 67, 64
2, 70561, Control_c, 0, 64, 0
2, 70562, Control_c, 0, 64, 127
2, 71927, Note_on_c, 0, 55, 0
2, 71927, Note_on_c, 0, 62, 0
2, 71927, Note_on_c, 0, 67, 0
2, 72000, Note_on_c, 0, 40, 64
2, 72000, Note_on_c, 0, 52, 64
2, 72001, Control_c, 0, 64, 0
2, 72002, Control_c, 0, 64, 127
2, 74735, Note_on_c, 0, 40, 0
2, 74735, Note_on_c, 0, 52, 0
2, 74880, Note_on_c, 0, 57, 64
2, 74880, Note_on_c, 0, 64, 64
2, 74881, Control_c, 0, 64, 0
2, 74882, Control_c, 0, 64, 127
2, 75335, Note_on_c, 0, 64, 0
2, 75360, Note_on_c, 0, 64, 64
2, 75815, Note_on_c, 0, 64, 0
2, 75840, Note_on_c, 0, 64, 64
2, 76247, Note_on_c, 0, 57, 0
2, 76295, Note_on_c, 0, 64, 0
2, 76320, Note_on_c, 0, 59, 64
2, 76320, Note_on_c, 0, 64, 64
2, 76321, Control_c, 0, 64, 0
2, 76322, Control_c, 0, 64, 127
2, 76775, Note_on_c, 0, 64, 0
2, 76800, Note_on_c, 0, 64, 64
2, 77255, Note_on_c, 0, 64, 0
2, 77280, Note_on_c, 0, 64, 64
2, 77735, Note_on_c, 0, 64, 0
2, 77760, Note_on_c, 0, 64, 64
2, 78215, Note_on_c, 0, 64, 0
2, 78240, Note_on_c, 0, 64, 64
2, 78695, Note_on_c, 0, 64, 0
2, 78720, Note_on_c, 0, 64, 64
2, 79055, Note_on_c, 0, 59, 0
2, 79175, Note_on_c, 0, 64, 0
2, 79200, Note_on_c, 0, 57, 64
2, 79200, Note_on_c, 0, 64, 64
2, 79201, Control_c, 0, 64, 0
2, 79202, Control_c, 0, 64, 127
2, 79655, Note_on_c, 0, 57, 0
2, 79655, Note_on_c, 0, 64, 0
2, 79680, Note_on_c, 0, 59, 64
2, 79680, Note_on_c, 0, 64, 64
2, 80135, Note_on_c, 0, 59, 0
2, 80135, Note_on_c, 0, 64, 0
2, 80160, Note_on_c, 0, 60, 64
2, 80160, Note_on_c, 0, 64, 64
2, 80161, Control_c, 0, 64, 0
2, 80162, Control_c, 0, 64, 127
2, 80615, Note_on_c, 0, 60, 0
2, 80615, Note_on_c, 0, 64, 0
2, 80640, Note_on_c, 0, 59, 64
2, 80640, Note_on_c, 0, 64, 64
2, 81095, Note_on_c, 0, 59, 0
2, 81095, Note_on_c, 0, 64, 0
2, 81120, Note_on_c, 0, 57, 64
2, 81120, Note_on_c, 0, 64, 64
2, 81121, Control_c, 0, 64, 0
2, 81122, Control_c, 0, 64, 127
2, 81575, Note_on_c, 0, 57, 0
2, 81575, Note_on_c, 0, 64, 0
2, 81600, Note_on_c, 0, 59, 64
2, 81600, Note_on_c, 0, 64, 64
2, 82055, Note_on_c, 0, 59, 0
2, 82055, Note_on_c, 0, 64, 0
2, 82080, Note_on_c, 0, 60, 64
2, 82080, Note_on_c, 0, 64, 64
2, 82081, Control_c, 0, 64, 0
2, 82082, Control_c, 0, 64, 127
2, 82535, Note_on_c, 0, 64, 0
2, 82560, Note_on_c, 0, 64, 64
2, 83015, Note_on_c, 0, 64, 0
2, 83040, Note_on_c, 0, 64, 64
2, 83447, Note_on_c, 0, 60, 0
2, 83495, Note_on_c, 0, 64, 0
2, 83520, Note_on_c, 0, 59, 64
2, 83520, Note_on_c, 0, 64, 64
2, 83521, Control_c, 0, 64, 0
2, 83522, Control_c, 0, 64, 127
2, 83975, Note_on_c, 0, 64, 0
2, 84000, Note_on_c, 0, 64, 64
2, 84455, Note_on_c, 0, 64, 0
2, 84480, Note_on_c, 0, 64, 64
2, 84935, Note_on_c, 0, 64, 0
2, 84960, Note_on_c, 0, 64, 64
2, 85415, Note_on_c, 0, 64, 0
2, 85440, Note_on_c, 0, 64, 64
2, 85895, Note_on_c, 0, 64, 0
2, 85920, Note_on_c, 0, 64, 64
2, 86255, Note_on_c, 0, 59, 0
2, 86375, Note_on_c, 0, 64, 0
2, 86400, Note_on_c, 0, 57, 64
2, 86400, Note_on_c, 0, 64, 64
2, 86401, Control_c, 0, 64, 0
2, 86402, Control_c, 0, 64, 127
2, 86855, Note_on_c, 0, 64, 0
2, 86880, Note_on_c, 0, 64, 64
2, 87311, Note_on_c, 0, 57, 0
2, 87335, Note_on_c, 0, 64, 0
2, 87360, Note_on_c, 0, 64, 64
2, 87360, Note_on_c, 0, 64, 64
2, 87815, Note_on_c, 0, 64, 0
2, 87815, Note_on_c, 0, 64, 0
2, 87840, Note_on_c, 0, 60, 64
2, 87840, Note_on_c, 0, 64, 64
2, 87841, Control_c, 0, 64, 0
2, 87842, Control_c, 0, 64, 127
2, 88295, Note_on_c, 0, 64, 0
2, 88320, Note_on_c, 0, 64, 64
2, 88775, Note_on_c, 0, 64, 0
2, 88800, Note_on_c, 0, 64, 64
2, 89207, Note_on_c, 0, 60, 0
2, 89255, Note_on_c, 0, 64, 0
2, 89280, Note_on_c, 0, 59, 64
2, 89280, Note_on_c, 0, 64, 64
2, 89281, Control_c, 0, 64, 0
2, 89282, Control_c, 0, 64, 127
2, 89735, Note_on_c, 0, 64, 0
2, 89760, Note_on_c, 0, 64, 64
2, 90215, Note_on_c, 0, 64, 0
2, 90240, Note_on_c, 0, 64, 64
2, 90695, Note_on_c, 0, 64, 0
2, 90720, Note_on_c, 0, 64, 64
2, 91175, Note_on_c, 0, 64, 0
2, 91200, Note_on_c, 0, 64, 64
2, 91655, Note_on_c, 0, 64, 0
2, 91680, Note_on_c, 0, 64, 64
2, 92015, Note_on_c, 0, 59, 0
2, 92135, Note_on_c, 0, 64, 0
2, 92160, Note_on_c, 0, 57, 64
2, 92160, Note_on_c, 0, 64, 64
2, 92161, Control_c, 0, 64, 0
2, 92162, Control_c, 0, 64, 127
2, 92615, Note_on_c, 0, 57, 0
2, 92615, Note_on_c, 0, 64, 0
2, 92640, Note_on_c, 0, 64, 64
2, 92640, Note_on_c, 0, 64, 64
2, 93095, Note_on_c, 0, 64, 0
2, 93095, Note_on_c, 0, 64, 0
2, 93120, Note_on_c, 0, 60, 64
2, 93120, Note_on_c, 0, 64, 64
2, 93121, Control_c, 0, 64, 0
2, 93122, Control_c, 0, 64, 127
2, 93575, Note_on_c, 0, 60, 0
2, 93575, Note_on_c, 0, 64, 0
2, 93600, Note_on_c, 0, 59, 64
2, 93600, Note_on_c, 0, 64, 64
2, 94055, Note_on_c, 0, 59, 0
2, 94055, Note_on_c, 0, 64, 0
2, 94080, Note_on_c, 0, 57, 64
2, 94080, Note_on_c, 0, 64, 64
2, 94081, Control_c, 0, 64, 0
2, 94082, Control_c, 0, 64, 127
2, 94535, Note_on_c, 0, 57, 0
2, 94535, Note_on_c, 0, 64, 0
2, 94560, Note_on_c, 0, 59, 64
2, 94560, Note_on_c, 0, 64, 64
2, 95015, Note_on_c, 0, 59, 0
2, 95015, Note_on_c, 0, 64, 0
2, 95040, Note_on_c, 0, 60, 64
2, 95040, Note_on_c, 0, 64, 64
2, 95041, Control_c, 0, 64, 0
2, 95042, Control_c, 0, 64, 127
2, 95495, Note_on_c, 0, 64, 0
2, 95520, Note_on_c, 0, 64, 64
2, 95975, Note_on_c, 0, 64, 0
2, 96000, Note_on_c, 0, 64, 64
2, 96407, Note_on_c, 0, 60, 0
2, 96455, Note_on_c, 0, 64, 0
2, 96480, Note_on_c, 0, 59, 64
2, 96480, Note_on_c, 0, 64, 64
2, 96481, Control_c, 0, 64, 0
2, 96482, Control_c, 0, 64, 127
2, 96935, Note_on_c, 0, 64, 0
2, 96960, Note_on_c, 0, 64, 64
2, 97415, Note_on_c, 0, 64, 0
2, 97440, Note_on_c, 0, 64, 64
2, 97895, Note_on_c, 0, 64, 0
2, 97920, Note_on_c, 0, 64, 64
2, 98375, Note_on_c, 0, 64, 0
2, 98400, Note_on_c, 0, 64, 64
2, 98855, Note_on_c, 0, 64, 0
2, 98880, Note_on_c, 0, 64, 64
2, 99215, Note_on_c, 0, 59, 0
2, 99335, Note_on_c, 0, 64, 0
2, 99360, Note_on_c, 0, 57, 64
2, 99360, Note_on_c, 0, 64, 64
2, 99361, Control_c, 0, 64, 0
2, 99362, Control_c, 0, 64, 127
2, 99815, Note_on_c, 0, 64, 0
2, 99840, Note_on_c, 0, 64, 64
2, 100271, Note_on_c, 0, 57, 0
2, 100295, Note_on_c, 0, 64, 0
2, 100320, Note_on_c, 0, 64, 64
2, 100320, Note_on_c, 0, 64, 64
2, 100775, Note_on_c, 0, 64, 0
2, 100775, Note_on_c, 0, 64, 0
2, 100800, Note_on_c, 0, 60, 64
2, 100800, Note_on_c, 0, 64, 64
2, 100801, Control_c, 0, 64, 0
2, 100802, Control_c, 0, 64, 127
2, 101255, Note_on_c, 0, 64, 0
2, 101280, Note_on_c, 0, 64, 64
2, 101735, Note_on_c, 0, 64, 0
2, 101760, Note_on_c, 0, 64, 64
2, 102167, Note_on_c, 0, 60, 0
2, 102215, Note_on_c, 0, 64, 0
2, 102240, Note_on_c, 0, 59, 64
2, 102240, Note_on_c, 0, 64, 64
2, 102241, Control_c, 0, 64, 0
2, 102242, Control_c, 0, 64, 127
2, 102695, Note_on_c, 0, 64, 0
2, 102720, Note_on_c, 0, 64, 64
2, 103175, Note_on_c, 0, 64, 0
2, 103200, Note_on_c, 0, 64, 64
2, 103655, Note_on_c, 0, 64, 0
2, 103680, Note_on_c, 0, 64, 64
2, 104135, Note_on_c, 0, 64, 0
2, 104160, Note_on_c, 0, 64, 64
2, 104615, Note_on_c, 0, 64, 0
2, 104640, Note_on_c, 0, 64, 64
2, 104975, Note_on_c, 0, 59, 0
2, 105095, Note_on_c, 0, 64, 0
2, 105120, Note_on_c, 0, 57, 64
2, 105120, Note_on_c, 0, 64, 64
2, 105121, Control_c, 0, 64, 0
2, 105122, Control_c, 0, 64, 127
2, 105575, Note_on_c, 0, 57, 0
2, 105575, Note_on_c, 0, 64, 0
2, 105600, Note_on_c, 0, 64, 64
2, 105600, Note_on_c, 0, 64, 64
2, 106055, Note_on_c, 0, 64, 0
2, 106055, Note_on_c, 0, 64, 0
2, 106080, Note_on_c, 0, 60, 64
2, 106080, Note_on_c, 0, 64, 64
2, 106081, Control_c, 0, 64, 0
2, 106082, Control_c, 0, 64, 127
2, 106535, Note_on_c, 0, 60, 0
2, 106535, Note_on_c, 0, 64, 0
2, 106560, Note_on_c, 0, 59, 64
2, 106560, Note_on_c, 0, 64, 64
2, 107015, Note_on_c, 0, 59, 0
2, 107015, Note_on_c, 0, 64, 0
2, 107040, Note_on_c, 0, 57, 64
2, 107040, Note_on_c, 0, 64, 64
2, 107041, Control_c, 0, 64, 0
2, 107042, Control_c, 0, 64, 127
2, 107495, Note_on_c, 0, 57, 0
2, 107495, Note_on_c, 0, 64, 0
2, 107520, Note_on_c, 0, 59, 64
2, 107520, Note_on_c, 0, 64, 64
2, 107975, Note_on_c, 0, 59, 0
2, 107975, Note_on_c, 0, 64, 0
2, 108000, Note_on_c, 0, 60, 64
2, 108000, Note_on_c, 0, 64, 64
2, 108001, Control_c, 0, 64, 0
2, 108002, Control_c, 0, 64, 127
2, 108455, Note_on_c, 0, 64, 0
2, 108480, Note_on_c, 0, 64, 64
2, 108935, Note_on_c, 0, 64, 0
2, 108960, Note_on_c, 0, 64, 64
2, 109367, Note_on_c, 0, 60, 0
2, 109415, Note_on_c, 0, 64, 0
2, 109440, Note_on_c, 0, 62, 64
2, 109440, Note_on_c, 0, 64, 64
2, 109441, Control_c, 0, 64, 0
2, 109442, Control_c, 0, 64, 127
2, 109895, Note_on_c, 0, 64, 0
2, 109920, Note_on_c, 0, 64, 64
2, 110375, Note_on_c, 0, 64, 0
2, 110400, Note_on_c, 0, 64, 64
2, 110807, Note_on_c, 0, 62, 0
2, 110855, Note_on_c, 0, 64, 0
2, 110880, Note_on_c, 0, 64, 64
2, 110881, Control_c, 0, 64, 0
2, 110882, Control_c, 0, 64, 127
2, 111335, Note_on_c, 0, 64, 0
2, 111360, Note_on_c, 0, 64, 64
2, 111815, Note_on_c, 0, 64, 0
2, 111840, Note_on_c, 0, 64, 64
2, 112295, Note_on_c, 0, 64, 0
2, 112320, Note_on_c, 0, 52, 80
2, 112320, Note_on_c, 0, 57, 80
2, 112320, Note_on_c, 0, 64, 80
2, 112321, Control_c, 0, 64, 0
2, 112322, Control_c, 0, 64, 127
2, 112775, Note_on_c, 0, 64, 0
2, 112800, Note_on_c, 0, 64, 80
2, 113255, Note_on_c, 0, 64, 0
2, 113280, Note_on_c, 0, 64, 80
2, 113687, Note_on_c, 0, 52, 0
2, 113687, Note_on_c, 0, 57, 0
2, 113735, Note_on_c, 0, 64, 0
2, 113760, Note_on_c, 0, 52, 80
2, 113760, Note_on_c, 0, 59, 80
2, 113760, Note_on_c, 0, 64, 80
2, 113761, Control_c, 0, 64, 0
2, 113762, Control_c, 0, 64, 127
2, 114215, Note_on_c, 0, 64, 0
2, 114240, Note_on_c, 0, 64, 80
2, 114695, Note_on_c, 0, 64, 0
2, 114720, Note_on_c, 0, 64, 80
2, 115175, Note_on_c, 0, 64, 0
2, 115200, Note_on_c, 0, 64, 80
2, 115655, Note_on_c, 0, 64, 0
2, 115680, Note_on_c, 0, 64, 80
2, 116135, Note_on_c, 0, 64, 0
2, 116160, Note_on_c, 0, 64, 80
2, 116495, Note_on_c, 0, 52, 0
2, 116495, Note_on_c, 0, 59, 0
2, 116615, Note_on_c, 0, 64, 0
2, 116640, Note_on_c, 0, 57, 80
2, 116640, Note_on_c, 0, 64, 80
2, 116640, Note_on_c, 0, 52, 80
2, 116641, Control_c, 0, 64, 0
2, 116642, Control_c, 0, 64, 127
2, 117095, Note_on_c, 0, 57, 0
2, 117095, Note_on_c, 0, 64, 0
2, 117120, Note_on_c, 0, 59, 80
2, 117120, Note_on_c, 0, 64, 80
2, 117121, Control_c, 0, 64, 0
2, 117122, Control_c, 0, 64, 127
2, 117575, Note_on_c, 0, 59, 0
2, 117575, Note_on_c, 0, 64, 0
2, 117600, Note_on_c, 0, 60, 80
2, 117600, Note_on_c, 0, 64, 80
2, 117601, Control_c, 0, 64, 0
2, 117602, Control_c, 0, 64, 127
2, 118007, Note_on_c, 0, 52, 0
2, 118055, Note_on_c, 0, 60, 0
2, 118055, Note_on_c, 0, 64, 0
2, 118080, Note_on_c, 0, 59, 80
2, 118080, Note_on_c, 0, 64, 80
2, 118080, Note_on_c, 0, 52, 80
2, 118081, Control_c, 0, 64, 0
2, 118082, Control_c, 0, 64, 127
2, 118535, Note_on_c, 0, 59, 0
2, 118535, Note_on_c, 0, 64, 0
2, 118560, Note_on_c, 0, 57, 80
2, 118560, Note_on_c, 0, 64, 80
2, 119015, Note_on_c, 0, 57, 0
2, 119015, Note_on_c, 0, 64, 0
2, 119040, Note_on_c, 0, 59, 80
2, 119040, Note_on_c, 0, 64, 80
2, 119447, Note_on_c, 0, 52, 0
2, 119495, Note_on_c, 0, 59, 0
2, 119495, Note_on_c, 0, 64, 0
2, 119520, Note_on_c, 0, 60, 80
2, 119520, Note_on_c, 0, 64, 80
2, 119520, Note_on_c, 0, 52, 80
2, 119521, Control_c, 0, 64, 0
2, 119522, Control_c, 0, 64, 127
2, 119975, Note_on_c, 0, 64, 0
2, 120000, Note_on_c, 0, 64, 80
2, 120455, Note_on_c, 0, 64, 0
2, 120480, Note_on_c, 0, 64, 80
2, 120887, Note_on_c, 0, 60, 0
2, 120887, Note_on_c, 0, 52, 0
2, 120935, Note_on_c, 0, 64, 0
2, 120960, Note_on_c, 0, 59, 80
2, 120960, Note_on_c, 0, 64, 80
2, 120960, Note_on_c, 0, 52, 80
2, 120961, Control_c, 0, 64, 0
2, 120962, Control_c, 0, 64, 127
2, 121415, Note_on_c, 0, 64, 0
2, 121440, Note_on_c, 0, 64, 80
2, 121895, Note_on_c, 0, 64, 0
2, 121920, Note_on_c, 0, 64, 80
2, 122375, Note_on_c, 0, 64, 0
2, 122400, Note_on_c, 0, 64, 80
2, 122855, Note_on_c, 0, 64, 0
2, 122880, Note_on_c, 0, 64, 80
2, 123335, Note_on_c, 0, 64, 0
2, 123360, Note_on_c, 0, 64, 80
2, 123695, Note_on_c, 0, 59, 0
2, 123695, Note_on_c, 0, 52, 0
2, 123815, Note_on_c, 0, 64, 0
2, 123840, Note_on_c, 0, 57, 80
2, 123840, Note_on_c, 0, 64, 80
2, 123840, Note_on_c, 0, 52, 80
2, 123841, Control_c, 0, 64, 0
2, 123842, Control_c, 0, 64, 127
2, 124295, Note_on_c, 0, 64, 0
2, 124320, Note_on_c, 0, 64, 80
2, 124775, Note_on_c, 0, 64, 0
2, 124800, Note_on_c, 0, 64, 80
2, 125207, Note_on_c, 0, 57, 0
2, 125207, Note_on_c, 0, 52, 0
2, 125255, Note_on_c, 0, 64, 0
2, 125280, Note_on_c, 0, 59, 80
2, 125280, Note_on_c, 0, 64, 80
2, 125280, Note_on_c, 0, 52, 80
2, 125281, Control_c, 0, 64, 0
2, 125282, Control_c, 0, 64, 127
2, 125735, Note_on_c, 0, 64, 0
2, 125760, Note_on_c, 0, 64, 80
2, 126215, Note_on_c, 0, 64, 0
2, 126240, Note_on_c, 0, 64, 80
2, 126695, Note_on_c, 0, 64, 0
2, 126720, Note_on_c, 0, 64, 80
2, 127175, Note_on_c, 0, 64, 0
2, 127200, Note_on_c, 0, 64, 80
2, 127655, Note_on_c, 0, 64, 0
2, 127680, Note_on_c, 0, 64, 80
2, 128015, Note_on_c, 0, 59, 0
2, 128015, Note_on_c, 0, 52, 0
2, 128135, Note_on_c, 0, 64, 0
2, 128160, Note_on_c, 0, 57, 80
2, 128160, Note_on_c, 0, 64, 80
2, 128160, Note_on_c, 0, 52, 80
2, 128161, Control_c, 0, 64, 0
2, 128162, Control_c, 0, 64, 127
2, 128615, Note_on_c, 0, 57, 0
2, 128615, Note_on_c, 0, 64, 0
2, 128640, Note_on_c, 0, 59, 80
2, 128640, Note_on_c, 0, 64, 80
2, 128641, Control_c, 0, 64, 0
2, 128642, Control_c, 0, 64, 127
2, 129095, Note_on_c, 0, 59, 0
2, 129095, Note_on_c, 0, 64, 0
2, 129120, Note_on_c, 0, 60, 80
2, 129120, Note_on_c, 0, 64, 80
2, 129121, Control_c, 0, 64, 0
2, 129122, Control_c, 0, 64, 127
2, 129527, Note_on_c, 0, 52, 0
2, 129575, Note_on_c, 0, 60, 0
2, 129575, Note_on_c, 0, 64, 0
2, 129600, Note_on_c, 0, 59, 80
2, 129600, Note_on_c, 0, 64, 80
2, 129600, Note_on_c, 0, 52, 80
2, 129601, Control_c, 0, 64, 0
2, 129602, Control_c, 0, 64, 127
2, 130055, Note_on_c, 0, 59, 0
2, 130055, Note_on_c, 0, 64, 0
2, 130080, Note_on_c, 0, 57, 80
2, 130080, Note_on_c, 0, 64, 80
2, 130535, Note_on_c, 0, 57, 0
2, 130535, Note_on_c, 0, 64, 0
2, 130560, Note_on_c, 0, 59, 80
2, 130560, Note_on_c, 0, 64, 80
2, 130967, Note_on_c, 0, 52, 0
2, 131015, Note_on_c, 0, 59, 0
2, 131015, Note_on_c, 0, 64, 0
2, 131040, Note_on_c, 0, 60, 80
2, 131040, Note_on_c, 0, 64, 80
2, 131040, Note_on_c, 0, 52, 80
2, 131041, Control_c, 0, 64, 0
2, 131042, Control_c, 0, 64, 127
2, 131495, Note_on_c, 0, 64, 0
2, 131520, Note_on_c, 0, 64, 80
2, 131975, Note_on_c, 0, 64, 0
2, 132000, Note_on_c, 0, 64, 80
2, 132407, Note_on_c, 0, 60, 0
2, 132407, Note_on_c, 0, 52, 0
2, 132455, Note_on_c, 0, 64, 0
2, 132480, Note_on_c, 0, 59, 80
2, 132480, Note_on_c, 0, 64, 80
2, 132480, Note_on_c, 0, 52, 80
2, 132481, Control_c, 0, 64, 0
2, 132482, Control_c, 0, 64, 127
2, 132935, Note_on_c, 0, 64, 0
2, 132960, Note_on_c, 0, 64, 80
2, 133415, Note_on_c, 0, 64, 0
2, 133440, Note_on_c, 0, 64, 80
2, 133895, Note_on_c, 0, 64, 0
2, 133920, Note_on_c, 0, 64, 80
2, 134375, Note_on_c, 0, 64, 0
2, 134400, Note_on_c, 0, 64, 80
2, 134855, Note_on_c, 0, 64, 0
2, 134880, Note_on_c, 0, 64, 80
2, 135215, Note_on_c, 0, 59, 0
2, 135215, Note_on_c, 0, 52, 0
2, 135335, Note_on_c, 0, 64, 0
2, 135360, Note_on_c, 0, 45, 80
2, 135360, Note_on_c, 0, 52, 80
2, 135360, Note_on_c, 0, 57, 80
2, 135361, Control_c, 0, 64, 0
2, 135362, Control_c, 0, 64, 127
2, 136727, Note_on_c, 0, 45, 0
2, 136727, Note_on_c, 0, 52, 0
2, 136727, Note_on_c, 0, 57, 0
2, 136800, Note_on_c, 0, 47, 80
2, 136800, Note_on_c, 0, 52, 80
2, 136800, Note_on_c, 0, 59, 80
2, 136801, Control_c, 0, 64, 0
2, 136802, Control_c, 0, 64, 127
2, 138167, Note_on_c, 0, 47, 0
2, 138167, Note_on_c, 0, 52, 0
2, 138167, Note_on_c, 0, 59, 0
2, 138240, Note_on_c, 0, 47, 80
2, 138240, Note_on_c, 0, 52, 80
2, 138240, Note_on_c, 0, 59, 80
2, 138241, Control_c, 0, 64, 0
2, 138242, Control_c, 0, 64, 127
2, 139607, Note_on_c, 0, 47, 0
2, 139607, Note_on_c, 0, 52, 0
2, 139607, Note_on_c, 0, 59, 0
2, 139680, Note_on_c, 0, 45, 80
2, 139680, Note_on_c, 0, 52, 80
2, 139680, Note_on_c, 0, 57, 80
2, 139681, Control_c, 0, 64, 0
2, 139682, Control_c, 0, 64, 127
2, 140135, Note_on_c, 0, 45, 0
2, 140135, Note_on_c, 0, 52, 0
2, 140135, Note_on_c, 0, 57, 0
2, 140160, Note_on_c, 0, 47, 80
2, 140160, Note_on_c, 0, 52, 80
2, 140160, Note_on_c, 0, 59, 80
2, 140161, Control_c, 0, 64, 0
2, 140162, Control_c, 0, 64, 127
2, 140615, Note_on_c, 0, 47, 0
2, 140615, Note_on_c, 0, 52, 0
2, 140615, Note_on_c, 0, 59, 0
2, 140640, Note_on_c, 0, 48, 80
2, 140640, Note_on_c, 0, 52, 80
2, 140640, Note_on_c, 0, 60, 80
2, 140641, Control_c, 0, 64, 0
2, 140642, Control_c, 0, 64, 127
2, 141095, Note_on_c, 0, 48, 0
2, 141095, Note_on_c, 0, 52, 0
2, 141095, Note_on_c, 0, 60, 0
2, 141120, Note_on_c, 0, 47, 80
2, 141120, Note_on_c, 0, 52, 80
2, 141120, Note_on_c, 0, 59, 80
2, 141121, Control_c, 0, 64, 0
2, 141122, Control_c, 0, 64, 127
2, 141575, Note_on_c, 0, 47, 0
2, 141575, Note_on_c, 0, 52, 0
2, 141575, Note_on_c, 0, 59, 0
2, 141600, Note_on_c, 0, 45, 80
2, 141600, Note_on_c, 0, 52, 80
2, 141600, Note_on_c, 0, 57, 80
2, 141601, Control_c, 0, 64, 0
2, 141602, Control_c, 0, 64, 127
2, 142055, Note_on_c, 0, 45, 0
2, 142055, Note_on_c, 0, 52, 0
2, 142055, Note_on_c, 0, 57, 0
2, 142080, Note_on_c, 0, 47, 80
2, 142080, Note_on_c, 0, 52, 80
2, 142080, Note_on_c, 0, 59, 80
2, 142081, Control_c, 0, 64, 0
2, 142082, Control_c, 0, 64, 127
2, 142535, Note_on_c, 0, 47, 0
2, 142535, Note_on_c, 0, 52, 0
2, 142535, Note_on_c, 0, 59, 0
2, 142560, Note_on_c, 0, 48, 80
2, 142560, Note_on_c, 0, 52, 80
2, 142560, Note_on_c, 0, 60, 80
2, 142561, Control_c, 0, 64, 0
2, 142562, Control_c, 0, 64, 127
2, 143927, Note_on_c, 0, 48, 0
2, 143927, Note_on_c, 0, 52, 0
2, 143927, Note_on_c, 0, 60, 0
2, 144000, Note_on_c, 0, 47, 80
2, 144000, Note_on_c, 0, 52, 80
2, 144000, Note_on_c, 0, 59, 80
2, 144001, Control_c, 0, 64, 0
2, 144002, Control_c, 0, 64, 127
2, 146735, Note_on_c, 0, 47, 0
2, 146735, Note_on_c, 0, 52, 0
2, 146735, Note_on_c, 0, 59, 0
2, 146880, Note_on_c, 0, 45, 80
2, 146880, Note_on_c, 0, 52, 80
2, 146880, Note_on_c, 0, 57, 80
2, 146881, Control_c, 0, 64, 0
2, 146882, Control_c, 0, 64, 127
2, 148247, Note_on_c, 0, 45, 0
2, 148247, Note_on_c, 0, 52, 0
2, 148247, Note_on_c, 0, 57, 0
2, 148320, Note_on_c, 0, 47, 80
2, 148320, Note_on_c, 0, 52, 80
2, 148320, Note_on_c, 0, 59, 80
2, 148321, Control_c, 0, 64, 0
2, 148322, Control_c, 0, 64, 127
2, 149687, Note_on_c, 0, 47, 0
2, 149687, Note_on_c, 0, 52, 0
2, 149687, Note_on_c, 0, 59, 0
2, 149760, Note_on_c, 0, 47, 80
2, 149760, Note_on_c, 0, 52, 80
2, 149760, Note_on_c, 0, 59, 80
2, 149761, Control_c, 0, 64, 0
2, 149762, Control_c, 0, 64, 127
2, 151127, Note_on_c, 0, 47, 0
2, 151127, Note_on_c, 0, 52, 0
2, 151127, Note_on_c, 0, 59, 0
2, 151200, Note_on_c, 0, 45, 80
2, 151200, Note_on_c, 0, 52, 80
2, 151200, Note_on_c, 0, 57, 80
2, 151201, Control_c, 0, 64, 0
2, 151202, Control_c, 0, 64, 127
2, 151655, Note_on_c, 0, 45, 0
2, 151655, Note_on_c, 0, 52, 0
2, 151655, Note_on_c, 0, 57, 0
2, 151680, Note_on_c, 0, 47, 80
2, 151680, Note_on_c, 0, 52, 80
2, 151680, Note_on_c, 0, 59, 80
2, 151681, Control_c, 0, 64, 0
2, 151682, Control_c, 0, 64, 127
2, 152135, Note_on_c, 0, 47, 0
2, 152135, Note_on_c, 0, 52, 0
2, 152135, Note_on_c, 0, 59, 0
2, 152160, Note_on_c, 0, 48, 80
2, 152160, Note_on_c, 0, 52, 80
2, 152160, Note_on_c, 0, 60, 80
2, 152161, Control_c, 0, 64, 0
2, 152162, Control_c, 0, 64, 127
2, 152615, Note_on_c, 0, 48, 0
2, 152615, Note_on_c, 0, 52, 0
2, 152615, Note_on_c, 0, 60, 0
2, 152640, Note_on_c, 0, 47, 80
2, 152640, Note_on_c, 0, 52, 80
2, 152640, Note_on_c, 0, 59, 80
2, 152641, Control_c, 0, 64, 0
2, 152642, Control_c, 0, 64, 127
2, 153095, Note_on_c, 0, 47, 0
2, 153095, Note_on_c, 0, 52, 0
2, 153095, Note_on_c, 0, 59, 0
2, 153120, Note_on_c, 0, 45, 80
2, 153120, Note_on_c, 0, 52, 80
2, 153120, Note_on_c, 0, 57, 80
2, 153121, Control_c, 0, 64, 0
2, 153122, Control_c, 0, 64, 127
2, 153575, Note_on_c, 0, 45, 0
2, 153575, Note_on_c, 0, 52, 0
2, 153575, Note_on_c, 0, 57, 0
2, 153600, Note_on_c, 0, 47, 80
2, 153600, Note_on_c, 0, 52, 80
2, 153600, Note_on_c, 0, 59, 80
2, 153601, Control_c, 0, 64, 0
2, 153602, Control_c, 0, 64, 127
2, 154055, Note_on_c, 0, 47, 0
2, 154055, Note_on_c, 0, 52, 0
2, 154055, Note_on_c, 0, 59, 0
2, 154080, Note_on_c, 0, 48, 80
2, 154080, Note_on_c, 0, 52, 80
2, 154080, Note_on_c, 0, 60, 80
2, 154081, Control_c, 0, 64, 0
2, 154082, Control_c, 0, 64, 127
2, 155447, Note_on_c, 0, 48, 0
2, 155447, Note_on_c, 0, 52, 0
2, 155447, Note_on_c, 0, 60, 0
2, 155520, Note_on_c, 0, 50, 80
2, 155520, Note_on_c, 0, 52, 80
2, 155520, Note_on_c, 0, 62, 80
2, 155521, Control_c, 0, 64, 0
2, 155522, Control_c, 0, 64, 127
2, 156887, Note_on_c, 0, 50, 0
2, 156887, Note_on_c, 0, 52, 0
2, 156887, Note_on_c, 0, 62, 0
2, 156960, Note_on_c, 0, 40, 80
2, 156960, Note_on_c, 0, 52, 80
2, 156961, Control_c, 0, 64, 0
2, 156962, Control_c, 0, 64, 127
2, 158327, Note_on_c, 0, 40, 0
2, 158327, Note_on_c, 0, 52, 0
2, 158400, Note_on_c, 0, 52, 96
2, 158401, Control_c, 0, 64, 0
2, 158513, Note_on_c, 0, 52, 0
2, 158520, Note_on_c, 0, 45, 96
2, 158633, Note_on_c, 0, 45, 0
2, 158640, Note_on_c, 0, 40, 96
2, 158753, Note_on_c, 0, 40, 0
2, 158760, Note_on_c, 0, 45, 96
2, 158873, Note_on_c, 0, 45, 0
2, 158880, Note_on_c, 0, 52, 96
2, 158993, Note_on_c, 0, 52, 0
2, 159000, Note_on_c, 0, 45, 96
2, 159113, Note_on_c, 0, 45, 0
2, 159120, Note_on_c, 0, 40, 96
2, 159233, Note_on_c, 0, 40, 0
2, 159240, Note_on_c, 0, 45, 96
2, 159353, Note_on_c, 0, 45, 0
2, 159360, Note_on_c, 0, 52, 96
2, 159473, Note_on_c, 0, 52, 0
2, 159480, Note_on_c, 0, 45, 96
2, 159593, Note_on_c, 0, 45, 0
2, 159600, Note_on_c, 0, 40, 96
2, 159713, Note_on_c, 0, 40, 0
2, 159720, Note_on_c, 0, 45, 96
2, 159833, Note_on_c, 0, 45, 0
2, 159840, Note_on_c, 0, 52, 96
2, 159953, Note_on_c, 0, 52, 0
2, 159960, Note_on_c, 0, 47, 96
2, 160073, Note_on_c, 0, 47, 0
2, 160080, Note_on_c, 0, 40, 96
2, 160193, Note_on_c, 0, 40, 0
2, 160200, Note_on_c, 0, 47, 96
2, 160313, Note_on_c, 0, 47, 0
2, 160320, Note_on_c, 0, 52, 96
2, 160433, Note_on_c, 0, 52, 0
2, 160440, Note_on_c, 0, 47, 96
2, 160553, Note_on_c, 0, 47, 0
2, 160560, Note_on_c, 0, 40, 96
2, 160673, Note_on_c, 0, 40, 0
2, 160680, Note_on_c, 0, 47, 96
2, 160793, Note_on_c, 0, 47, 0
2, 160800, Note_on_c, 0, 52, 96
2, 160913, Note_on_c, 0, 52, 0
2, 160920, Note_on_c, 0, 47, 96
2, 161033, Note_on_c, 0, 47, 0
2, 161040, Note_on_c, 0, 40, 96
2, 161153, Note_on_c, 0, 40, 0
2, 161160, Note_on_c, 0, 47, 96
2, 161273, Note_on_c, 0, 47, 0
2, 161280, Note_on_c, 0, 52, 96
2, 161393, Note_on_c, 0, 52, 0
2, 161400, Note_on_c, 0, 47, 96
2, 161513, Note_on_c, 0, 47, 0
2, 161520, Note_on_c, 0, 40, 96
2, 161633, Note_on_c, 0, 40, 0
2, 161640, Note_on_c, 0, 47, 96
2, 161753, Note_on_c, 0, 47, 0
2, 161760, Note_on_c, 0, 52, 96
2, 161873, Note_on_c, 0, 52, 0
2, 161880, Note_on_c, 0, 47, 96
2, 161993, Note_on_c, 0, 47, 0
2, 162000, Note_on_c, 0, 40, 96
2, 162113, Note_on_c, 0, 40, 0
2, 162120, Note_on_c, 0, 47, 96
2, 162233, Note_on_c, 0, 47, 0
2, 162240, Note_on_c, 0, 52, 96
2, 162353, Note_on_c, 0, 52, 0
2, 162360, Note_on_c, 0, 47, 96
2, 162473, Note_on_c, 0, 47, 0
2, 162480, Note_on_c, 0, 40, 96
2, 162593, Note_on_c, 0, 40, 0
2, 162600, Note_on_c, 0, 47, 96
2, 162713, Note_on_c, 0, 47, 0
2, 162720, Note_on_c, 0, 52, 96
2, 162833, Note_on_c, 0, 52, 0
2, 162840, Note_on_c, 0, 45, 96
2, 162953, Note_on_c, 0, 45, 0
2, 162960, Note_on_c, 0, 40, 96
2, 163073, Note_on_c, 0, 40, 0
2, 163080, Note_on_c, 0, 45, 96
2, 163193, Note_on_c, 0, 45, 0
2, 163200, Note_on_c, 0, 52, 96
2, 163313, Note_on_c, 0, 52, 0
2, 163320, Note_on_c, 0, 45, 96
2, 163433, Note_on_c, 0, 45, 0
2, 163440, Note_on_c, 0, 40, 96
2, 163553, Note_on_c, 0, 40, 0
2, 163560, Note_on_c, 0, 45, 96
2, 163673, Note_on_c, 0, 45, 0
2, 163680, Note_on_c, 0, 52, 96
2, 163793, Note_on_c, 0, 52, 0
2, 163800, Note_on_c, 0, 45, 96
2, 163913, Note_on_c, 0, 45, 0
2, 163920, Note_on_c, 0, 40, 96
2, 164033, Note_on_c, 0, 40, 0
2, 164040, Note_on_c, 0, 45, 96
2, 164153, Note_on_c, 0, 45, 0
2, 164160, Note_on_c, 0, 52, 96
2, 164273, Note_on_c, 0, 52, 0
2, 164280, Note_on_c, 0, 45, 96
2, 164393, Note_on_c, 0, 45, 0
2, 164400, Note_on_c, 0, 40, 96
2, 164513, Note_on_c, 0, 40, 0
2, 164520, Note_on_c, 0, 45, 96
2, 164633, Note_on_c, 0, 45, 0
2, 164640, Note_on_c, 0, 52, 96
2, 164753, Note_on_c, 0, 52, 0
2, 164760, Note_on_c, 0, 45, 96
2, 164873, Note_on_c, 0, 45, 0
2, 164880, Note_on_c, 0, 40, 96
2, 164993, Note_on_c, 0, 40, 0
2, 165000, Note_on_c, 0, 45, 96
2, 165113, Note_on_c, 0, 45, 0
2, 165120, Note_on_c, 0, 52, 96
2, 165233, Note_on_c, 0, 52, 0
2, 165240, Note_on_c, 0, 45, 96
2, 165353, Note_on_c, 0, 45, 0
2, 165360, Note_on_c, 0, 40, 96
2, 165473, Note_on_c, 0, 40, 0
2, 165480, Note_on_c, 0, 45, 96
2, 165593, Note_on_c, 0, 45, 0
2, 165600, Note_on_c, 0, 52, 96
2, 165713, Note_on_c, 0, 52, 0
2, 165720, Note_on_c, 0, 45, 96
2, 165833, Note_on_c, 0, 45, 0
2, 165840, Note_on_c, 0, 40, 96
2, 165953, Note_on_c, 0, 40, 0
2, 165960, Note_on_c, 0, 45, 96
2, 166073, Note_on_c, 0, 45, 0
2, 166080, Note_on_c, 0, 52, 96
2, 166193, Note_on_c, 0, 52, 0
2, 166200, Note_on_c, 0, 45, 96
2, 166313, Note_on_c, 0, 45, 0
2, 166320, Note_on_c, 0, 40, 96
2, 166433, Note_on_c, 0, 40, 0
2, 166440, Note_on_c, 0, 45, 96
2, 166553, Note_on_c, 0, 45, 0
2, 166560, Note_on_c, 0, 52, 96
2, 166673, Note_on_c, 0, 52, 0
2, 166680, Note_on_c, 0, 45, 96
2, 166793, Note_on_c, 0, 45, 0
2, 166800, Note_on_c, 0, 40, 96
2, 166913, Note_on_c, 0, 40, 0
2, 166920, Note_on_c, 0, 45, 96
2, 167033, Note_on_c, 0, 45, 0
2, 167040, Note_on_c, 0, 52, 96
2, 167153, Note_on_c, 0, 52, 0
2, 167160, Note_on_c, 0, 47, 96
2, 167273, Note_on_c, 0, 47, 0
2, 167280, Note_on_c, 0, 40, 96
2, 167393, Note_on_c, 0, 40, 0
2, 167400, Note_on_c, 0, 47, 96
2, 167513, Note_on_c, 0, 47, 0
2, 167520, Note_on_c, 0, 52, 96
2, 167633, Note_on_c, 0, 52, 0
2, 167640, Note_on_c, 0, 47, 96
2, 167753, Note_on_c, 0, 47, 0
2, 167760, Note_on_c, 0, 40, 96
2, 167873, Note_on_c, 0, 40, 0
2, 167880, Note_on_c, 0, 47, 96
2, 167993, Note_on_c, 0, 47, 0
2, 168000, Note_on_c, 0, 52, 96
2, 168113, Note_on_c, 0, 52, 0
2, 168120, Note_on_c, 0, 47, 96
2, 168233, Note_on_c, 0, 47, 0
2, 168240, Note_on_c, 0, 40, 96
2, 168353, Note_on_c, 0, 40, 0
2, 168360, Note_on_c, 0, 47, 96
2, 168473, Note_on_c, 0, 47, 0
2, 168480, Note_on_c, 0, 52, 96
2, 168593, Note_on_c, 0, 52, 0
2, 168600, Note_on_c, 0, 47, 96
2, 168713, Note_on_c, 0, 47, 0
2, 168720, Note_on_c, 0, 40, 96
2, 168833, Note_on_c, 0, 40, 0
2, 168840, Note_on_c, 0, 47, 96
2, 168953, Note_on_c, 0, 47, 0
2, 168960, Note_on_c, 0, 52, 96
2, 169073, Note_on_c, 0, 52, 0
2, 169080, Note_on_c, 0, 47, 96
2, 169193, Note_on_c, 0, 47, 0
2, 169200, Note_on_c, 0, 40, 96
2, 169313, Note_on_c, 0, 40, 0
2, 169320, Note_on_c, 0, 47, 96
2, 169433, Note_on_c, 0, 47, 0
2, 169440, Note_on_c, 0, 52, 96
2, 169553, Note_on_c, 0, 52, 0
2, 169560, Note_on_c, 0, 47, 96
2, 169673, Note_on_c, 0, 47, 0
2, 169680, Note_on_c, 0, 40, 96
2, 169793, Note_on_c, 0, 40, 0
2, 169800, Note_on_c, 0, 47, 96
2, 169913, Note_on_c, 0, 47, 0
2, 169920, Note_on_c, 0, 52, 96
2, 170033, Note_on_c, 0, 52, 0
2, 170040, Note_on_c, 0, 45, 96
2, 170153, Note_on_c, 0, 45, 0
2, 170160, Note_on_c, 0, 40, 96
2, 170273, Note_on_c, 0, 40, 0
2, 170280, Note_on_c, 0, 45, 96
2, 170393, Note_on_c, 0, 45, 0
2, 170400, Note_on_c, 0, 52, 96
2, 170513, Note_on_c, 0, 52, 0
2, 170520, Note_on_c, 0, 45, 96
2, 170633, Note_on_c, 0, 45, 0
2, 170640, Note_on_c, 0, 40, 96
2, 170753, Note_on_c, 0, 40, 0
2, 170760, Note_on_c, 0, 45, 96
2, 170873, Note_on_c, 0, 45, 0
2, 170880, Note_on_c, 0, 52, 96
2, 170993, Note_on_c, 0, 52, 0
2, 171000, Note_on_c, 0, 45, 96
2, 171113, Note_on_c, 0, 45, 0
2, 171120, Note_on_c, 0, 40, 96
2, 171233, Note_on_c, 0, 40, 0
2, 171240, Note_on_c, 0, 45, 96
2, 171353, Note_on_c, 0, 45, 0
2, 171360, Note_on_c, 0, 52, 96
2, 171473, Note_on_c, 0, 52, 0
2, 171480, Note_on_c, 0, 45, 96
2, 171593, Note_on_c, 0, 45, 0
2, 171600, Note_on_c, 0, 40, 96
2, 171713, Note_on_c, 0, 40, 0
2, 171720, Note_on_c, 0, 45, 96
2, 171833, Note_on_c, 0, 45, 0
2, 171840, Note_on_c, 0, 52, 96
2, 171953, Note_on_c, 0, 52, 0
2, 171960, Note_on_c, 0, 45, 96
2, 172073, Note_on_c, 0, 45, 0
2, 172080, Note_on_c, 0, 40, 96
2, 172193, Note_on_c, 0, 40, 0
2, 172200, Note_on_c, 0, 45, 96
2, 172313, Note_on_c, 0, 45, 0
2, 172320, Note_on_c, 0, 52, 96
2, 172433, Note_on_c, 0, 52, 0
2, 172440, Note_on_c, 0, 45, 96
2, 172553, Note_on_c, 0, 45, 0
2, 172560, Note_on_c, 0, 40, 96
2, 172673, Note_on_c, 0, 40, 0
2, 172680, Note_on_c, 0, 45, 96
2, 172793, Note_on_c, 0, 45, 0
2, 172800, Note_on_c, 0, 52, 96
2, 172913, Note_on_c, 0, 52, 0
2, 172920, Note_on_c, 0, 47, 96
2, 173033, Note_on_c, 0, 47, 0
2, 173040, Note_on_c, 0, 40, 96
2, 173153, Note_on_c, 0, 40, 0
2, 173160, Note_on_c, 0, 47, 96
2, 173273, Note_on_c, 0, 47, 0
2, 173280, Note_on_c, 0, 52, 96
2, 173393, Note_on_c, 0, 52, 0
2, 173400, Note_on_c, 0, 47, 96
2, 173513, Note_on_c, 0, 47, 0
2, 173520, Note_on_c, 0, 40, 96
2, 173633, Note_on_c, 0, 40, 0
2, 173640, Note_on_c, 0, 47, 96
2, 173753, Note_on_c, 0, 47, 0
2, 173760, Note_on_c, 0, 52, 96
2, 173873, Note_on_c, 0, 52, 0
2, 173880, Note_on_c, 0, 47, 96
2, 173993, Note_on_c, 0, 47, 0
2, 174000, Note_on_c, 0, 40, 96
2, 174113, Note_on_c, 0, 40, 0
2, 174120, Note_on_c, 0, 47, 96
2, 174233, Note_on_c, 0, 47, 0
2, 174240, Note_on_c, 0, 52, 96
2, 174353, Note_on_c, 0, 52, 0
2, 174360, Note_on_c, 0, 47, 96
2, 174473, Note_on_c, 0, 47, 0
2, 174480, Note_on_c, 0, 40, 96
2, 174593, Note_on_c, 0, 40, 0
2, 174600, Note_on_c, 0, 47, 96
2, 174713, Note_on_c, 0, 47, 0
2, 174720, Note_on_c, 0, 52, 96
2, 174833, Note_on_c, 0, 52, 0
2, 174840, Note_on_c, 0, 47, 96
2, 174953, Note_on_c, 0, 47, 0
2, 174960, Note_on_c, 0, 40, 96
2, 175073, Note_on_c, 0, 40, 0
2, 175080, Note_on_c, 0, 47, 96
2, 175193, Note_on_c, 0, 47, 0
2, 175200, Note_on_c, 0, 52, 96
2, 175313, Note_on_c, 0, 52, 0
2, 175320, Note_on_c, 0, 47, 96
2, 175433, Note_on_c, 0, 47, 0
2, 175440, Note_on_c, 0, 40, 96
2, 175553, Note_on_c, 0, 40, 0
2, 175560, Note_on_c, 0, 47, 96
2, 175673, Note_on_c, 0, 47, 0
2, 175680, Note_on_c, 0, 52, 96
2, 175793, Note_on_c, 0, 52, 0
2, 175800, Note_on_c, 0, 45, 96
2, 175913, Note_on_c, 0, 45, 0
2, 175920, Note_on_c, 0, 40, 96
2, 176033, Note_on_c, 0, 40, 0
2, 176040, Note_on_c, 0, 45, 96
2, 176153, Note_on_c, 0, 45, 0
2, 176160, Note_on_c, 0, 52, 96
2, 176273, Note_on_c, 0, 52, 0
2, 176280, Note_on_c, 0, 45, 96
2, 176393, Note_on_c, 0, 45, 0
2, 176400, Note_on_c, 0, 40, 96
2, 176513, Note_on_c, 0, 40, 0
2, 176520, Note_on_c, 0, 45, 96
2, 176633, Note_on_c, 0, 45, 0
2, 176640, Note_on_c, 0, 52, 96
2, 176753, Note_on_c, 0, 52, 0
2, 176760, Note_on_c, 0, 45, 96
2, 176873, Note_on_c, 0, 45, 0
2, 176880, Note_on_c, 0, 40, 96
2, 176993, Note_on_c, 0, 40, 0
2, 177000, Note_on_c, 0, 45, 96
2, 177113, Note_on_c, 0, 45, 0
2, 177120, Note_on_c, 0, 52, 80
2, 177233, Note_on_c, 0, 52, 0
2, 177240, Note_on_c, 0, 45, 82
2, 177353, Note_on_c, 0, 45, 0
2, 177360, Note_on_c, 0, 40, 85
2, 177473, Note_on_c, 0, 40, 0
2, 177480, Note_on_c, 0, 45, 88
2, 177593, Note_on_c, 0, 45, 0
2, 177600, Note_on_c, 0, 52, 90
2, 177713, Note_on_c, 0, 52, 0
2, 177720, Note_on_c, 0, 45, 93
2, 177833, Note_on_c, 0, 45, 0
2, 177840, Note_on_c, 0, 40, 96
2, 177953, Note_on_c, 0, 40, 0
2, 177960, Note_on_c, 0, 45, 98
2, 178073, Note_on_c, 0, 45, 0
2, 178080, Note_on_c, 0, 52, 101
2, 178193, Note_on_c, 0, 52, 0
2, 178200, Note_on_c, 0, 45, 104
2, 178313, Note_on_c, 0, 45, 0
2, 178320, Note_on_c, 0, 40, 106
2, 178433, Note_on_c, 0, 40, 0
2, 178440, Note_on_c, 0, 45, 109
2, 178553, Note_on_c, 0, 45, 0
2, 178560, Note_on_c, 0, 52, 112
2, 178673, Note_on_c, 0, 52, 0
2, 178680, Note_on_c, 0, 45, 112
2, 178793, Note_on_c, 0, 45, 0
2, 178800, Note_on_c, 0, 40, 112
2, 178913, Note_on_c, 0, 40, 0
2, 178920, Note_on_c, 0, 45, 112
2, 179033, Note_on_c, 0, 45, 0
2, 179040, Note_on_c, 0, 52, 112
2, 179153, Note_on_c, 0, 52, 0
2, 179160, Note_on_c, 0, 45, 112
2, 179273, Note_on_c, 0, 45, 0
2, 179280, Note_on_c, 0, 40, 112
2, 179393, Note_on_c, 0, 40, 0
2, 179400, Note_on_c, 0, 45, 112
2, 179513, Note_on_c, 0, 45, 0
2, 179520, Note_on_c, 0, 52, 112
2, 179633, Note_on_c, 0, 52, 0
2, 179640, Note_on_c, 0, 45, 112
2, 179753, Note_on_c, 0, 45, 0
2, 179760, Note_on_c, 0, 40, 112
2, 179873, Note_on_c, 0, 40, 0
2, 179880, Note_on_c, 0, 45, 112
2, 179993, Note_on_c, 0, 45, 0
2, 180000, Note_on_c, 0, 52, 112
2, 180113, Note_on_c, 0, 52, 0
2, 180120, Note_on_c, 0, 47, 112
2, 180233, Note_on_c, 0, 47, 0
2, 180240, Note_on_c, 0, 40, 112
2, 180353, Note_on_c, 0, 40, 0
2, 180360, Note_on_c, 0, 47, 112
2, 180473, Note_on_c, 0, 47, 0
2, 180480, Note_on_c, 0, 52, 112
2, 180593, Note_on_c, 0, 52, 0
2, 180600, Note_on_c, 0, 47, 112
2, 180713, Note_on_c, 0, 47, 0
2, 180720, Note_on_c, 0, 40, 112
2, 180833, Note_on_c, 0, 40, 0
2, 180840, Note_on_c, 0, 47, 112
2, 180953, Note_on_c, 0, 47, 0
2, 180960, Note_on_c, 0, 52, 112
2, 181073, Note_on_c, 0, 52, 0
2, 181080, Note_on_c, 0, 47, 112
2, 181193, Note_on_c, 0, 47, 0
2, 181200, Note_on_c, 0, 40, 112
2, 181313, Note_on_c, 0, 40, 0
2, 181320, Note_on_c, 0, 47, 112
2, 181433, Note_on_c, 0, 47, 0
2, 181440, Note_on_c, 0, 52, 112
2, 181553, Note_on_c, 0, 52, 0
2, 181560, Note_on_c, 0, 47, 112
2, 181673, Note_on_c, 0, 47, 0
2, 181680, Note_on_c, 0, 40, 112
2, 181793, Note_on_c, 0, 40, 0
2, 181800, Note_on_c, 0, 47, 112
2, 181913, Note_on_c, 0, 47, 0
2, 181920, Note_on_c, 0, 52, 112
2, 182033, Note_on_c, 0, 52, 0
2, 182040, Note_on_c, 0, 47, 112
2, 182153, Note_on_c, 0, 47, 0
2, 182160, Note_on_c, 0, 40, 112
2, 182273, Note_on_c, 0, 40, 0
2, 182280, Note_on_c, 0, 47, 112
2, 182393, Note_on_c, 0, 47, 0
2, 182400, Note_on_c, 0, 52, 112
2, 182513, Note_on_c, 0, 52, 0
2, 182520, Note_on_c, 0, 47, 112
2, 182633, Note_on_c, 0, 47, 0
2, 182640, Note_on_c, 0, 40, 112
2, 182753, Note_on_c, 0, 40, 0
2, 182760, Note_on_c, 0, 47, 112
2, 182873, Note_on_c, 0, 47, 0
2, 182880, Note_on_c, 0, 52, 112
2, 182993, Note_on_c, 0, 52, 0
2, 183000, Note_on_c, 0, 45, 112
2, 183113, Note_on_c, 0, 45, 0
2, 183120, Note_on_c, 0, 40, 112
2, 183233, Note_on_c, 0, 40, 0
2, 183240, Note_on_c, 0, 45, 112
2, 183353, Note_on_c, 0, 45, 0
2, 183360, Note_on_c, 0, 52, 112
2, 183473, Note_on_c, 0, 52, 0
2, 183480, Note_on_c, 0, 45, 112
2, 183593, Note_on_c, 0, 45, 0
2, 183600, Note_on_c, 0, 40, 112
2, 183713, Note_on_c, 0, 40, 0
2, 183720, Note_on_c, 0, 45, 112
2, 183833, Note_on_c, 0, 45, 0
2, 183840, Note_on_c, 0, 52, 112
2, 183953, Note_on_c, 0, 52, 0
2, 183960, Note_on_c, 0, 45, 112
2, 184073, Note_on_c, 0, 45, 0
2, 184080, Note_on_c, 0, 40, 112
2, 184193, Note_on_c, 0, 40, 0
2, 184200, Note_on_c, 0, 45, 112
2, 184313, Note_on_c, 0, 45, 0
2, 184320, Note_on_c, 0, 52, 112
2, 184433, Note_on_c, 0, 52, 0
2, 184440, Note_on_c, 0, 45, 112
2, 184553, Note_on_c, 0, 45, 0
2, 184560, Note_on_c, 0, 40, 112
2, 184673, Note_on_c, 0, 40, 0
2, 184680, Note_on_c, 0, 45, 112
2, 184793, Note_on_c, 0, 45, 0
2, 184800, Note_on_c, 0, 52, 112
2, 184913, Note_on_c, 0, 52, 0
2, 184920, Note_on_c, 0, 45, 112
2, 185033, Note_on_c, 0, 45, 0
2, 185040, Note_on_c, 0, 40, 112
2, 185153, Note_on_c, 0, 40, 0
2, 185160, Note_on_c, 0, 45, 112
2, 185273, Note_on_c, 0, 45, 0
2, 185280, Note_on_c, 0, 52, 112
2, 185393, Note_on_c, 0, 52, 0
2, 185400, Note_on_c, 0, 45, 112
2, 185513, Note_on_c, 0, 45, 0
2, 185520, Note_on_c, 0, 40, 112
2, 185633, Note_on_c, 0, 40, 0
2, 185640, Note_on_c, 0, 45, 112
2, 185753, Note_on_c, 0, 45, 0
2, 185760, Note_on_c, 0, 52, 112
2, 185873, Note_on_c, 0, 52, 0
2, 185880, Note_on_c, 0, 47, 112
2, 185993, Note_on_c, 0, 47, 0
2, 186000, Note_on_c, 0, 40, 112
2, 186113, Note_on_c, 0, 40, 0
2, 186120, Note_on_c, 0, 47, 112
2, 186233, Note_on_c, 0, 47, 0
2, 186240, Note_on_c, 0, 52, 112
2, 186353, Note_on_c, 0, 52, 0
2, 186360, Note_on_c, 0, 47, 112
2, 186473, Note_on_c, 0, 47, 0
2, 186480, Note_on_c, 0, 40, 112
2, 186593, Note_on_c, 0, 40, 0
2, 186600, Note_on_c, 0, 47, 112
2, 186713, Note_on_c, 0, 47, 0
2, 186720, Note_on_c, 0, 52, 112
2, 186833, Note_on_c, 0, 52, 0
2, 186840, Note_on_c, 0, 47, 112
2, 186953, Note_on_c, 0, 47, 0
2, 186960, Note_on_c, 0, 40, 112
2, 187073, Note_on_c, 0, 40, 0
2, 187080, Note_on_c, 0, 47, 112
2, 187193, Note_on_c, 0, 47, 0
2, 187200, Note_on_c, 0, 52, 112
2, 187313, Note_on_c, 0, 52, 0
2, 187320, Note_on_c, 0, 47, 112
2, 187433, Note_on_c, 0, 47, 0
2, 187440, Note_on_c, 0, 40, 112
2, 187553, Note_on_c, 0, 40, 0
2, 187560, Note_on_c, 0, 47, 112
2, 187673, Note_on_c, 0, 47, 0
2, 187680, Note_on_c, 0, 52, 112
2, 187793, Note_on_c, 0, 52, 0
2, 187800, Note_on_c, 0, 47, 112
2, 187913, Note_on_c, 0, 47, 0
2, 187920, Note_on_c, 0, 40, 112
2, 188033, Note_on_c, 0, 40, 0
2, 188040, Note_on_c, 0, 47, 112
2, 188153, Note_on_c, 0, 47, 0
2, 188160, Note_on_c, 0, 52, 112
2, 188273, Note_on_c, 0, 52, 0
2, 188280, Note_on_c, 0, 47, 112
2, 188393, Note_on_c, 0, 47, 0
2, 188400, Note_on_c, 0, 40, 112
2, 188513, Note_on_c, 0, 40, 0
2, 188520, Note_on_c, 0, 47, 112
2, 188633, Note_on_c, 0, 47, 0
2, 188640, Note_on_c, 0, 52, 112
2, 188753, Note_on_c, 0, 52, 0
2, 188760, Note_on_c, 0, 45, 112
2, 188873, Note_on_c, 0, 45, 0
2, 188880, Note_on_c, 0, 40, 112
2, 188993, Note_on_c, 0, 40, 0
2, 189000, Note_on_c, 0, 45, 112
2, 189113, Note_on_c, 0, 45, 0
2, 189120, Note_on_c, 0, 52, 112
2, 189233, Note_on_c, 0, 52, 0
2, 189240, Note_on_c, 0, 45, 112
2, 189353, Note_on_c, 0, 45, 0
2, 189360, Note_on_c, 0, 40, 112
2, 189473, Note_on_c, 0, 40, 0
2, 189480, Note_on_c, 0, 45, 112
2, 189593, Note_on_c, 0, 45, 0
2, 189600, Note_on_c, 0, 52, 112
2, 189713, Note_on_c, 0, 52, 0
2, 189720, Note_on_c, 0, 45, 112
2, 189833, Note_on_c, 0, 45, 0
2, 189840, Note_on_c, 0, 40, 112
2, 189953, Note_on_c, 0, 40, 0
2, 189960, Note_on_c, 0, 45, 112
2, 190073, Note_on_c, 0, 45, 0
2, 190080, Note_on_c, 0, 52, 112
2, 190193, Note_on_c, 0, 52, 0
2, 190200, Note_on_c, 0, 45, 112
2, 190313, Note_on_c, 0, 45, 0
2, 190320, Note_on_c, 0, 40, 112
2, 190433, Note_on_c, 0, 40, 0
2, 190440, Note_on_c, 0, 45, 112
2, 190553, Note_on_c, 0, 45, 0
2, 190560, Note_on_c, 0, 52, 112
2, 190673, Note_on_c, 0, 52, 0
2, 190680, Note_on_c, 0, 45, 112
2, 190793, Note_on_c, 0, 45, 0
2, 190800, Note_on_c, 0, 40, 112
2, 190913, Note_on_c, 0, 40, 0
2, 190920, Note_on_c, 0, 45, 112
2, 191033, Note_on_c, 0, 45, 0
2, 191040, Note_on_c, 0, 52, 112
2, 191153, Note_on_c, 0, 52, 0
2, 191160, Note_on_c, 0, 45, 112
2, 191273, Note_on_c, 0, 45, 0
2, 191280, Note_on_c, 0, 40, 112
2, 191393, Note_on_c, 0, 40, 0
2, 191400, Note_on_c, 0, 45, 112
2, 191513, Note_on_c, 0, 45, 0
2, 191520, Note_on_c, 0, 52, 112
2, 191633, Note_on_c, 0, 52, 0
2, 191640, Note_on_c, 0, 45, 112
2, 191753, Note_on_c, 0, 45, 0
2, 191760, Note_on_c, 0, 40, 113
2, 191873, Note_on_c, 0, 40, 0
2, 191880, Note_on_c, 0, 45, 113
2, 191993, Note_on_c, 0, 45, 0
2, 192000, Note_on_c, 0, 52, 114
2, 192113, Note_on_c, 0, 52, 0
2, 192120, Note_on_c, 0, 45, 114
2, 192233, Note_on_c, 0, 45, 0
2, 192240, Note_on_c, 0, 40, 115
2, 192353, Note_on_c, 0, 40, 0
2, 192360, Note_on_c, 0, 45, 116
2, 192473, Note_on_c, 0, 45, 0
2, 192480, Note_on_c, 0, 52, 116
2, 192593, Note_on_c, 0, 52, 0
2, 192600, Note_on_c, 0, 45, 117
2, 192713, Note_on_c, 0, 45, 0
2, 192720, Note_on_c, 0, 40, 117
2, 192833, Note_on_c, 0, 40, 0
2, 192840, Note_on_c, 0, 45, 118
2, 192953, Note_on_c, 0, 45, 0
2, 192960, Note_on_c, 0, 52, 119
2, 193073, Note_on_c, 0, 52, 0
2, 193080, Note_on_c, 0, 47, 119
2, 193193, Note_on_c, 0, 47, 0
2, 193200, Note_on_c, 0, 40, 120
2, 193313, Note_on_c, 0, 40, 0
2, 193320, Note_on_c, 0, 47, 120
2, 193433, Note_on_c, 0, 47, 0
2, 193440, Note_on_c, 0, 52, 121
2, 193553, Note_on_c, 0, 52, 0
2, 193560, Note_on_c, 0, 47, 121
2, 193673, Note_on_c, 0, 47, 0
2, 193680, Note_on_c, 0, 40, 122
2, 193793, Note_on_c, 0, 40, 0
2, 193800, Note_on_c, 0, 47, 123
2, 193913, Note_on_c, 0, 47, 0
2, 193920, Note_on_c, 0, 52, 123
2, 194033, Note_on_c, 0, 52, 0
2, 194040, Note_on_c, 0, 47, 124
2, 194153, Note_on_c, 0, 47, 0
2, 194160, Note_on_c, 0, 40, 124
2, 194273, Note_on_c, 0, 40, 0
2, 194280, Note_on_c, 0, 47, 125
2, 194393, Note_on_c, 0, 47, 0
2, 194400, Key_signature, 1, "major"
2, 194400, Note_on_c, 0, 40, 126
2, 194400, Note_on_c, 0, 52, 126
2, 194513, Note_on_c, 0, 40, 0
2, 194513, Note_on_c, 0, 52, 0
2, 194520, Note_on_c, 0, 47, 126
2, 194633, Note_on_c, 0, 47, 0
2, 194640, Note_on_c, 0, 40, 126
2, 194640, Note_on_c, 0, 52, 126
2, 194753, Note_on_c, 0, 40, 0
2, 194753, Note_on_c, 0, 52, 0
2, 194760, Note_on_c, 0, 47, 126
2, 194873, Note_on_c, 0, 47, 0
2, 194880, Note_on_c, 0, 40, 126
2, 194880, Note_on_c, 0, 52, 126
2, 194993, Note_on_c, 0, 40, 0
2, 194993, Note_on_c, 0, 52, 0
2, 195000, Note_on_c, 0, 47, 126
2, 195113, Note_on_c, 0, 47, 0
2, 195120, Note_on_c, 0, 40, 126
2, 195120, Note_on_c, 0, 52, 126
2, 195233, Note_on_c, 0, 40, 0
2, 195233, Note_on_c, 0, 52, 0
2, 195240, Note_on_c, 0, 47, 126
2, 195353, Note_on_c, 0, 47, 0
2, 195360, Note_on_c, 0, 40, 126
2, 195360, Note_on_c, 0, 52, 126
2, 195473, Note_on_c, 0, 40, 0
2, 195473, Note_on_c, 0, 52, 0
2, 195480, Note_on_c, 0, 47, 126
2, 195593, Note_on_c, 0, 47, 0
2, 195600, Note_on_c, 0, 40, 126
2, 195600, Note_on_c, 0, 52, 126
2, 195713, Note_on_c, 0, 40, 0
2, 195713, Note_on_c, 0, 52, 0
2, 195720, Note_on_c, 0, 47, 126
2, 195833, Note_on_c, 0, 47, 0
2, 195840, Note_on_c, 0, 40, 126
2, 195840, Note_on_c, 0, 52, 126
2, 195953, Note_on_c, 0, 40, 0
2, 195953, Note_on_c, 0, 52, 0
2, 195960, Note_on_c, 0, 47, 126
2, 196073, Note_on_c, 0, 47, 0
2, 196080, Note_on_c, 0, 40, 126
2, 196080, Note_on_c, 0, 52, 126
2, 196193, Note_on_c, 0, 40, 0
2, 196193, Note_on_c, 0, 52, 0
2, 196200, Note_on_c, 0, 47, 126
2, 196313, Note_on_c, 0, 47, 0
2, 196320, Note_on_c, 0, 40, 126
2, 196320, Note_on_c, 0, 52, 126
2, 196433, Note_on_c, 0, 40, 0
2, 196433, Note_on_c, 0, 52, 0
2, 196440, Note_on_c, 0, 47, 126
2, 196553, Note_on_c, 0, 47, 0
2, 196560, Note_on_c, 0, 40, 126
2, 196560, Note_on_c, 0, 52, 126
2, 196673, Note_on_c, 0, 40, 0
2, 196673, Note_on_c, 0, 52, 0
2, 196680, Note_on_c, 0, 47, 126
2, 196793, Note_on_c, 0, 47, 0
2, 196800, Note_on_c, 0, 40, 126
2, 196800, Note_on_c, 0, 52, 126
2, 196913, Note_on_c, 0, 40, 0
2, 196913, Note_on_c, 0, 52, 0
2, 196920, Note_on_c, 0, 47, 126
2, 197033, Note_on_c, 0, 47, 0
2, 197040, Note_on_c, 0, 40, 126
2, 197040, Note_on_c, 0, 52, 126
2, 197153, Note_on_c, 0, 40, 0
2, 197153, Note_on_c, 0, 52, 0
2, 197160, Note_on_c, 0, 47, 126
2, 197273, Note_on_c, 0, 47, 0
2, 197280, Note_on_c, 0, 36, 126
2, 197280, Note_on_c, 0, 48, 126
2, 197393, Note_on_c, 0, 36, 0
2, 197393, Note_on_c, 0, 48, 0
2, 197400, Note_on_c, 0, 43, 126
2, 197513, Note_on_c, 0, 43, 0
2, 197520, Note_on_c, 0, 36, 126
2, 197520, Note_on_c, 0, 48, 126
2, 197633, Note_on_c, 0, 36, 0
2, 197633, Note_on_c, 0, 48, 0
2, 197640, Note_on_c, 0, 43, 126
2, 197753, Note_on_c, 0, 43, 0
2, 197760, Note_on_c, 0, 36, 126
2, 197760, Note_on_c, 0, 48, 126
2, 197873, Note_on_c, 0, 36, 0
2, 197873, Note_on_c, 0, 48, 0
2, 197880, Note_on_c, 0, 43, 126
2, 197993, Note_on_c, 0, 43, 0
2, 198000, Note_on_c, 0, 36, 126
2, 198000, Note_on_c, 0, 48, 126
2, 198113, Note_on_c, 0, 36, 0
2, 198113, Note_on_c, 0, 48, 0
2, 198120, Note_on_c, 0, 43, 126
2, 198233, Note_on_c, 0, 43, 0
2, 198240, Note_on_c, 0, 36, 126
2, 198240, Note_on_c, 0, 48, 126
2, 198353, Note_on_c, 0, 36, 0
2, 198353, Note_on_c, 0, 48, 0
2, 198360, Note_on_c, 0, 43, 126
2, 198473, Note_on_c, 0, 43, 0
2, 198480, Note_on_c, 0, 36, 126
2, 198480, Note_on_c, 0, 48, 126
2, 198593, Note_on_c, 0, 36, 0
2, 198593, Note_on_c, 0, 48, 0
2, 198600, Note_on_c, 0, 43, 126
2, 198713, Note_on_c, 0, 43, 0
2, 198720, Note_on_c, 0, 38, 126
2, 198720, Note_on_c, 0, 50, 126
2, 198833, Note_on_c, 0, 38, 0
2, 198833, Note_on_c, 0, 50, 0
2, 198840, Note_on_c, 0, 45, 126
2, 198953, Note_on_c, 0, 45, 0
2, 198960, Note_on_c, 0, 38, 126
2, 198960, Note_on_c, 0, 50, 126
2, 199073, Note_on_c, 0, 38, 0
2, 199073, Note_on_c, 0, 50, 0
2, 199080, Note_on_c, 0, 45, 126
2, 199193, Note_on_c, 0, 45, 0
2, 199200, Note_on_c, 0, 38, 126
2, 199200, Note_on_c, 0, 50, 126
2, 199313, Note_on_c, 0, 38, 0
2, 199313, Note_on_c, 0, 50, 0
2, 199320, Note_on_c, 0, 45, 126
2, 199433, Note_on_c, 0, 45, 0
2, 199440, Note_on_c, 0, 38, 126
2, 199440, Note_on_c, 0, 50, 126
2, 199553, Note_on_c, 0, 38, 0
2, 199553, Note_on_c, 0, 50, 0
2, 199560, Note_on_c, 0, 45, 126
2, 199673, Note_on_c, 0, 45, 0
2, 199680, Note_on_c, 0, 38, 126
2, 199680, Note_on_c, 0, 50, 126
2, 199793, Note_on_c, 0, 38, 0
2, 199793, Note_on_c, 0, 50, 0
2, 199800, Note_on_c, 0, 45, 126
2, 199913, Note_on_c, 0, 45, 0
2, 199920, Note_on_c, 0, 38, 126
2, 199920, Note_on_c, 0, 50, 126
2, 200033, Note_on_c, 0, 38, 0
2, 200033, Note_on_c, 0, 50, 0
2, 200040, Note_on_c, 0, 45, 126
2, 200153, Note_on_c, 0, 45, 0
2, 200160, Note_on_c, 0, 40, 126
2, 200160, Note_on_c, 0, 52, 126
2, 200273, Note_on_c, 0, 40, 0
2, 200273, Note_on_c, 0, 52, 0
2, 200280, Note_on_c, 0, 47, 126
2, 200393, Note_on_c, 0, 47, 0
2, 200400, Note_on_c, 0, 40, 126
2, 200400, Note_on_c, 0, 52, 126
2, 200513, Note_on_c, 0, 40, 0
2, 200513, Note_on_c, 0, 52, 0
2, 200520, Note_on_c, 0, 47, 126
2, 200633, Note_on_c, 0, 47, 0
2, 200640, Note_on_c, 0, 40, 126
2, 200640, Note_on_c, 0, 52, 126
2, 200753, Note_on_c, 0, 40, 0
2, 200753, Note_on_c, 0, 52, 0
2, 200760, Note_on_c, 0, 47, 126
2, 200873, Note_on_c, 0, 47, 0
2, 200880, Note_on_c, 0, 40, 126
2, 200880, Note_on_c, 0, 52, 126
2, 200993, Note_on_c, 0, 40, 0
2, 200993, Note_on_c, 0, 52, 0
2, 201000, Note_on_c, 0, 47, 126
2, 201113, Note_on_c, 0, 47, 0
2, 201120, Note_on_c, 0, 40, 126
2, 201120, Note_on_c, 0, 52, 126
2, 201233, Note_on_c, 0, 40, 0
2, 201233, Note_on_c, 0, 52, 0
2, 201240, Note_on_c, 0, 47, 126
2, 201353, Note_on_c, 0, 47, 0
2, 201360, Note_on_c, 0, 40, 126
2, 201360, Note_on_c, 0, 52, 126
2, 201473, Note_on_c, 0, 40, 0
2, 201473, Note_on_c, 0, 52, 0
2, 201480, Note_on_c, 0, 47, 126
2, 201593, Note_on_c, 0, 47, 0
2, 201600, Note_on_c, 0, 40, 126
2, 201600, Note_on_c, 0, 52, 126
2, 201713, Note_on_c, 0, 40, 0
2, 201713, Note_on_c, 0, 52, 0
2, 201720, Note_on_c, 0, 47, 126
2, 201833, Note_on_c, 0, 47, 0
2, 201840, Note_on_c, 0, 40, 126
2, 201840, Note_on_c, 0, 52, 126
2, 201953, Note_on_c, 0, 40, 0
2, 201953, Note_on_c, 0, 52, 0
2, 201960, Note_on_c, 0, 47, 126
2, 202073, Note_on_c, 0, 47, 0
2, 202080, Note_on_c, 0, 40, 126
2, 202080, Note_on_c, 0, 52, 126
2, 202193, Note_on_c, 0, 40, 0
2, 202193, Note_on_c, 0, 52, 0
2, 202200, Note_on_c, 0, 47, 126
2, 202313, Note_on_c, 0, 47, 0
2, 202320, Note_on_c, 0, 40, 126
2, 202320, Note_on_c, 0, 52, 126
2, 202433, Note_on_c, 0, 40, 0
2, 202433, Note_on_c, 0, 52, 0
2, 202440, Note_on_c, 0, 47, 126
2, 202553, Note_on_c, 0, 47, 0
2, 202560, Note_on_c, 0, 40, 126
2, 202560, Note_on_c, 0, 52, 126
2, 202673, Note_on_c, 0, 40, 0
2, 202673, Note_on_c, 0, 52, 0
2, 202680, Note_on_c, 0, 47, 126
2, 202793, Note_on_c, 0, 47, 0
2, 202800, Note_on_c, 0, 40, 126
2, 202800, Note_on_c, 0, 52, 126
2, 202913, Note_on_c, 0, 40, 0
2, 202913, Note_on_c, 0, 52, 0
2, 202920, Note_on_c, 0, 47, 126
2, 203033, Note_on_c, 0, 47, 0
2, 203040, Note_on_c, 0, 36, 126
2, 203040, Note_on_c, 0, 48, 126
2, 203153, Note_on_c, 0, 36, 0
2, 203153, Note_on_c, 0, 48, 0
2, 203160, Note_on_c, 0, 43, 126
2, 203273, Note_on_c, 0, 43, 0
2, 203280, Note_on_c, 0, 36, 126
2, 203280, Note_on_c, 0, 48, 126
2, 203393, Note_on_c, 0, 36, 0
2, 203393, Note_on_c, 0, 48, 0
2, 203400, Note_on_c, 0, 43, 126
2, 203513, Note_on_c, 0, 43, 0
2, 203520, Note_on_c, 0, 36, 126
2, 203520, Note_on_c, 0, 48, 126
2, 203633, Note_on_c, 0, 36, 0
2, 203633, Note_on_c, 0, 48, 0
2, 203640, Note_on_c, 0, 43, 126
2, 203753, Note_on_c, 0, 43, 0
2, 203760, Note_on_c, 0, 36, 126
2, 203760, Note_on_c, 0, 48, 126
2, 203873, Note_on_c, 0, 36, 0
2, 203873, Note_on_c, 0, 48, 0
2, 203880, Note_on_c, 0, 43, 126
2, 203993, Note_on_c, 0, 43, 0
2, 204000, Note_on_c, 0, 36, 126
2, 204000, Note_on_c, 0, 48, 126
2, 204113, Note_on_c, 0, 36, 0
2, 204113, Note_on_c, 0, 48, 0
2, 204120, Note_on_c, 0, 43, 126
2, 204233, Note_on_c, 0, 43, 0
2, 204240, Note_on_c, 0, 36, 126
2, 204240, Note_on_c, 0, 48, 126
2, 204353, Note_on_c, 0, 36, 0
2, 204353, Note_on_c, 0, 48, 0
2, 204360, Note_on_c, 0, 43, 126
2, 204473, Note_on_c, 0, 43, 0
2, 204480, Note_on_c, 0, 38, 126
2, 204480, Note_on_c, 0, 50, 126
2, 204593, Note_on_c, 0, 38, 0
2, 204593, Note_on_c, 0, 50, 0
2, 204600, Note_on_c, 0, 45, 126
2, 204713, Note_on_c, 0, 45, 0
2, 204720, Note_on_c, 0, 38, 126
2, 204720, Note_on_c, 0, 50, 126
2, 204833, Note_on_c, 0, 38, 0
2, 204833, Note_on_c, 0, 50, 0
2, 204840, Note_on_c, 0, 45, 126
2, 204953, Note_on_c, 0, 45, 0
2, 204960, Note_on_c, 0, 38, 126
2, 204960, Note_on_c, 0, 50, 126
2, 205073, Note_on_c, 0, 38, 0
2, 205073, Note_on_c, 0, 50, 0
2, 205080, Note_on_c, 0, 45, 126
2, 205193, Note_on_c, 0, 45, 0
2, 205200, Note_on_c, 0, 38, 126
2, 205200, Note_on_c, 0, 50, 126
2, 205313, Note_on_c, 0, 38, 0
2, 205313, Note_on_c, 0, 50, 0
2, 205320, Note_on_c, 0, 45, 126
2, 205433, Note_on_c, 0, 45, 0
2, 205440, Note_on_c, 0, 38, 126
2, 205440, Note_on_c, 0, 50, 126
2, 205553, Note_on_c, 0, 38, 0
2, 205553, Note_on_c, 0, 50, 0
2, 205560, Note_on_c, 0, 45, 126
2, 205673, Note_on_c, 0, 45, 0
2, 205680, Note_on_c, 0, 38, 126
2, 205680, Note_on_c, 0, 50, 126
2, 205793, Note_on_c, 0, 38, 0
2, 205793, Note_on_c, 0, 50, 0
2, 205800, Note_on_c, 0, 45, 126
2, 205913, Note_on_c, 0, 45, 0
2, 205920, Note_on_c, 0, 36, 126
2, 205920, Note_on_c, 0, 48, 126
2, 206033, Note_on_c, 0, 36, 0
2, 206033, Note_on_c, 0, 48, 0
2, 206040, Note_on_c, 0, 43, 126
2, 206153, Note_on_c, 0, 43, 0
2, 206160, Note_on_c, 0, 36, 126
2, 206160, Note_on_c, 0, 48, 126
2, 206273, Note_on_c, 0, 36, 0
2, 206273, Note_on_c, 0, 48, 0
2, 206280, Note_on_c, 0, 43, 126
2, 206393, Note_on_c, 0, 43, 0
2, 206400, Note_on_c, 0, 36, 126
2, 206400, Note_on_c, 0, 48, 126
2, 206513, Note_on_c, 0, 36, 0
2, 206513, Note_on_c, 0, 48, 0
2, 206520, Note_on_c, 0, 43, 126
2, 206633, Note_on_c, 0, 43, 0
2, 206640, Note_on_c, 0, 36, 126
2, 206640, Note_on_c, 0, 48, 126
2, 206753, Note_on_c, 0, 36, 0
2, 206753, Note_on_c, 0, 48, 0
2, 206760, Note_on_c, 0, 43, 126
2, 206873, Note_on_c, 0, 43, 0
2, 206880, Note_on_c, 0, 36, 126
2, 206880, Note_on_c, 0, 48, 126
2, 206993, Note_on_c, 0, 36, 0
2, 206993, Note_on_c, 0, 48, 0
2, 207000, Note_on_c, 0, 43, 126
2, 207113, Note_on_c, 0, 43, 0
2, 207120, Note_on_c, 0, 36, 126
2, 207120, Note_on_c, 0, 48, 126
2, 207233, Note_on_c, 0, 36, 0
2, 207233, Note_on_c, 0, 48, 0
2, 207240, Note_on_c, 0, 43, 126
2, 207353, Note_on_c, 0, 43, 0
2, 207360, Note_on_c, 0, 38, 126
2, 207360, Note_on_c, 0, 50, 126
2, 207473, Note_on_c, 0, 38, 0
2, 207473, Note_on_c, 0, 50, 0
2, 207480, Note_on_c, 0, 45, 126
2, 207593, Note_on_c, 0, 45, 0
2, 207600, Note_on_c, 0, 38, 126
2, 207600, Note_on_c, 0, 50, 126
2, 207713, Note_on_c, 0, 38, 0
2, 207713, Note_on_c, 0, 50, 0
2, 207720, Note_on_c, 0, 45, 126
2, 207833, Note_on_c, 0, 45, 0
2, 207840, Note_on_c, 0, 38, 126
2, 207840, Note_on_c, 0, 50, 126
2, 207953, Note_on_c, 0, 38, 0
2, 207953, Note_on_c, 0, 50, 0
2, 207960, Note_on_c, 0, 45, 126
2, 208073, Note_on_c, 0, 45, 0
2, 208080, Note_on_c, 0, 38, 126
2, 208080, Note_on_c, 0, 50, 126
2, 208193, Note_on_c, 0, 38, 0
2, 208193, Note_on_c, 0, 50, 0
2, 208200, Note_on_c, 0, 45, 126
2, 208313, Note_on_c, 0, 45, 0
2, 208320, Note_on_c, 0, 38, 126
2, 208320, Note_on_c, 0, 50, 126
2, 208433, Note_on_c, 0, 38, 0
2, 208433, Note_on_c, 0, 50, 0
2, 208440, Note_on_c, 0, 45, 126
2, 208553, Note_on_c, 0, 45, 0
2, 208560, Note_on_c, 0, 38, 126
2, 208560, Note_on_c, 0, 50, 126
2, 208673, Note_on_c, 0, 38, 0
2, 208673, Note_on_c, 0, 50, 0
2, 208680, Note_on_c, 0, 45, 126
2, 208793, Note_on_c, 0, 45, 0
2, 208800, Note_on_c, 0, 40, 126
2, 208800, Note_on_c, 0, 52, 126
2, 208913, Note_on_c, 0, 40, 0
2, 208913, Note_on_c, 0, 52, 0
2, 208920, Note_on_c, 0, 47, 126
2, 209033, Note_on_c, 0, 47, 0
2, 209040, Note_on_c, 0, 40, 126
2, 209040, Note_on_c, 0, 52, 126
2, 209153, Note_on_c, 0, 40, 0
2, 209153, Note_on_c, 0, 52, 0
2, 209160, Note_on_c, 0, 47, 126
2, 209273, Note_on_c, 0, 47, 0
2, 209280, Note_on_c, 0, 40, 126
2, 209280, Note_on_c, 0, 52, 126
2, 209393, Note_on_c, 0, 40, 0
2, 209393, Note_on_c, 0, 52, 0
2, 209400, Note_on_c, 0, 47, 126
2, 209513, Note_on_c, 0, 47, 0
2, 209520, Note_on_c, 0, 40, 126
2, 209520, Note_on_c, 0, 52, 126
2, 209633, Note_on_c, 0, 40, 0
2, 209633, Note_on_c, 0, 52, 0
2, 209640, Note_on_c, 0, 47, 126
2, 209753, Note_on_c, 0, 47, 0
2, 209760, Note_on_c, 0, 40, 126
2, 209760, Note_on_c, 0, 52, 126
2, 209873, Note_on_c, 0, 40, 0
2, 209873, Note_on_c, 0, 52, 0
2, 209880, Note_on_c, 0, 47, 126
2, 209993, Note_on_c, 0, 47, 0
2, 210000, Note_on_c, 0, 40, 126
2, 210000, Note_on_c, 0, 52, 126
2, 210113, Note_on_c, 0, 40, 0
2, 210113, Note_on_c, 0, 52, 0
2, 210120, Note_on_c, 0, 47, 126
2, 210233, Note_on_c, 0, 47, 0
2, 210240, Note_on_c, 0, 40, 126
2, 210240, Note_on_c, 0, 52, 126
2, 210353, Note_on_c, 0, 40, 0
2, 210353, Note_on_c, 0, 52, 0
2, 210360, Note_on_c, 0, 47, 126
2, 210473, Note_on_c, 0, 47, 0
2, 210480, Note_on_c, 0, 40, 126
2, 210480, Note_on_c, 0, 52, 126
2, 210593, Note_on_c, 0, 40, 0
2, 210593, Note_on_c, 0, 52, 0
2, 210600, Note_on_c, 0, 47, 126
2, 210713, Note_on_c, 0, 47, 0
2, 210720, Note_on_c, 0, 40, 126
2, 210720, Note_on_c, 0, 52, 126
2, 210833, Note_on_c, 0, 40, 0
2, 210833, Note_on_c, 0, 52, 0
2, 210840, Note_on_c, 0, 47, 126
2, 210953, Note_on_c, 0, 47, 0
2, 210960, Note_on_c, 0, 40, 126
2, 210960, Note_on_c, 0, 52, 126
2, 211073, Note_on_c, 0, 40, 0
2, 211073, Note_on_c, 0, 52, 0
2, 211080, Note_on_c, 0, 47, 126
2, 211193, Note_on_c, 0, 47, 0
2, 211200, Note_on_c, 0, 40, 126
2, 211200, Note_on_c, 0, 52, 126
2, 211313, Note_on_c, 0, 40, 0
2, 211313, Note_on_c, 0, 52, 0
2, 211320, Note_on_c, 0, 47, 126
2, 211433, Note_on_c, 0, 47, 0
2, 211440, Note_on_c, 0, 40, 126
2, 211440, Note_on_c, 0, 52, 126
2, 211553, Note_on_c, 0, 40, 0
2, 211553, Note_on_c, 0, 52, 0
2, 211560, Note_on_c, 0, 47, 126
2, 211673, Note_on_c, 0, 47, 0
2, 211680, Key_signature, 0, "major"
2, 211680, Note_on_c, 0, 53, 126
2, 211736, Note_on_c, 0, 53, 0
2, 211740, Note_on_c, 0, 48, 126
2, 211796, Note_on_c, 0, 48, 0
2, 211800, Note_on_c, 0, 41, 126
2, 211856, Note_on_c, 0, 41, 0
2, 211860, Note_on_c, 0, 48, 126
2, 211916, Note_on_c, 0, 48, 0
2, 211920, Note_on_c, 0, 53, 126
2, 211976, Note_on_c, 0, 53, 0
2, 211980, Note_on_c, 0, 48, 126
2, 212036, Note_on_c, 0, 48, 0
2, 212040, Note_on_c, 0, 41, 126
2, 212096, Note_on_c, 0, 41, 0
2, 212100, Note_on_c, 0, 48, 126
2, 212156, Note_on_c, 0, 48, 0
2, 212160, Note_on_c, 0, 53, 126
2, 212216, Note_on_c, 0, 53, 0
2, 212220, Note_on_c, 0, 48, 126
2, 212276, Note_on_c, 0, 48, 0
2, 212280, Note_on_c, 0, 41, 126
2, 212336, Note_on_c, 0, 41, 0
2, 212340, Note_on_c, 0, 48, 126
2, 212396, Note_on_c, 0, 48, 0
2, 212400, Note_on_c, 0, 53, 126
2, 212456, Note_on_c, 0, 53, 0
2, 212460, Note_on_c, 0, 48, 126
2, 212516, Note_on_c, 0, 48, 0
2, 212520, Note_on_c, 0, 41, 126
2, 212576, Note_on_c, 0, 41, 0
2, 212580, Note_on_c, 0, 48, 126
2, 212636, Note_on_c, 0, 48, 0
2, 212640, Note_on_c, 0, 53, 126
2, 212696, Note_on_c, 0, 53, 0
2, 212700, Note_on_c, 0, 48, 126
2, 212756, Note_on_c, 0, 48, 0
2, 212760, Note_on_c, 0, 41, 126
2, 212816, Note_on_c, 0, 41, 0
2, 212820, Note_on_c, 0, 48, 126
2, 212876, Note_on_c, 0, 48, 0
2, 212880, Note_on_c, 0, 53, 126
2, 212936, Note_on_c, 0, 53, 0
2, 212940, Note_on_c, 0, 48, 126
2, 212996, Note_on_c, 0, 48, 0
2, 213000, Note_on_c, 0, 41, 126
2, 213056, Note_on_c, 0, 41, 0
2, 213060, Note_on_c, 0, 48, 126
2, 213116, Note_on_c, 0, 48, 0
2, 213120, Note_on_c, 0, 55, 126
2, 213176, Note_on_c, 0, 55, 0
2, 213180, Note_on_c, 0, 50, 126
2, 213236, Note_on_c, 0, 50, 0
2, 213240, Note_on_c, 0, 43, 126
2, 213296, Note_on_c, 0, 43, 0
2, 213300, Note_on_c, 0, 50, 126
2, 213356, Note_on_c, 0, 50, 0
2, 213360, Note_on_c, 0, 55, 126
2, 213416, Note_on_c, 0, 55, 0
2, 213420, Note_on_c, 0, 50, 126
2, 213476, Note_on_c, 0, 50, 0
2, 213480, Note_on_c, 0, 43, 126
2, 213536, Note_on_c, 0, 43, 0
2, 213540, Note_on_c, 0, 50, 126
2, 213596, Note_on_c, 0, 50, 0
2, 213600, Note_on_c, 0, 55, 126
2, 213656, Note_on_c, 0, 55, 0
2, 213660, Note_on_c, 0, 50, 126
2, 213716, Note_on_c, 0, 50, 0
2, 213720, Note_on_c, 0, 43, 126
2, 213776, Note_on_c, 0, 43, 0
2, 213780, Note_on_c, 0, 50, 126
2, 213836, Note_on_c, 0, 50, 0
2, 213840, Note_on_c, 0, 55, 126
2, 213896, Note_on_c, 0, 55, 0
2, 213900, Note_on_c, 0, 50, 126
2, 213956, Note_on_c, 0, 50, 0
2, 213960, Note_on_c, 0, 43, 126
2, 214016, Note_on_c, 0, 43, 0
2, 214020, Note_on_c, 0, 50, 126
2, 214076, Note_on_c, 0, 50, 0
2, 214080, Note_on_c, 0, 55, 126
2, 214136, Note_on_c, 0, 55, 0
2, 214140, Note_on_c, 0, 50, 126
2, 214196, Note_on_c, 0, 50, 0
2, 214200, Note_on_c, 0, 43, 126
2, 214256, Note_on_c, 0, 43, 0
2, 214260, Note_on_c, 0, 50, 126
2, 214316, Note_on_c, 0, 50, 0
2, 214320, Note_on_c, 0, 55, 126
2, 214376, Note_on_c, 0, 55, 0
2, 214380, Note_on_c, 0, 50, 126
2, 214436, Note_on_c, 0, 50, 0
2, 214440, Note_on_c, 0, 43, 126
2, 214496, Note_on_c, 0, 43, 0
2, 214500, Note_on_c, 0, 50, 126
2, 214556, Note_on_c, 0, 50, 0
2, 214560, Note_on_c, 0, 57, 126
2, 214616, Note_on_c, 0, 57, 0
2, 214620, Note_on_c, 0, 52, 126
2, 214676, Note_on_c, 0, 52, 0
2, 214680, Note_on_c, 0, 45, 126
2, 214736, Note_on_c, 0, 45, 0
2, 214740, Note_on_c, 0, 52, 126
2, 214796, Note_on_c, 0, 52, 0
2, 214800, Note_on_c, 0, 57, 126
2, 214856, Note_on_c, 0, 57, 0
2, 214860, Note_on_c, 0, 52, 126
2, 214916, Note_on_c, 0, 52, 0
2, 214920, Note_on_c, 0, 45, 126
2, 214976, Note_on_c, 0, 45, 0
2, 214980, Note_on_c, 0, 52, 126
2, 215036, Note_on_c, 0, 52, 0
2, 215040, Note_on_c, 0, 57, 126
2, 215096, Note_on_c, 0, 57, 0
2, 215100, Note_on_c, 0, 52, 126
2, 215156, Note_on_c, 0, 52, 0
2, 215160, Note_on_c, 0, 45, 126
2, 215216, Note_on_c, 0, 45, 0
2, 215220, Note_on_c, 0, 52, 126
2, 215276, Note_on_c, 0, 52, 0
2, 215280, Note_on_c, 0, 57, 126
2, 215336, Note_on_c, 0, 57, 0
2, 215340, Note_on_c, 0, 52, 126
2, 215396, Note_on_c, 0, 52, 0
2, 215400, Note_on_c, 0, 45, 126
2, 215456, Note_on_c, 0, 45, 0
2, 215460, Note_on_c, 0, 52, 126
2, 215516, Note_on_c, 0, 52, 0
2, 215520, Note_on_c, 0, 57, 126
2, 215576, Note_on_c, 0, 57, 0
2, 215580, Note_on_c, 0, 52, 126
2, 215636, Note_on_c, 0, 52, 0
2, 215640, Note_on_c, 0, 45, 126
2, 215696, Note_on_c, 0, 45, 0
2, 215700, Note_on_c, 0, 52, 126
2, 215756, Note_on_c, 0, 52, 0
2, 215760, Note_on_c, 0, 57, 126
2, 215816, Note_on_c, 0, 57, 0
2, 215820, Note_on_c, 0, 52, 126
2, 215876, Note_on_c, 0, 52, 0
2, 215880, Note_on_c, 0, 45, 126
2, 215936, Note_on_c, 0, 45, 0
2, 215940, Note_on_c, 0, 52, 126
2, 215996, Note_on_c, 0, 52, 0
2, 216000, Note_on_c, 0, 55, 126
2, 216056, Note_on_c, 0, 55, 0
2, 216060, Note_on_c, 0, 50, 126
2, 216116, Note_on_c, 0, 50, 0
2, 216120, Note_on_c, 0, 43, 126
2, 216176, Note_on_c, 0, 43, 0
2, 216180, Note_on_c, 0, 50, 126
2, 216236, Note_on_c, 0, 50, 0
2, 216240, Note_on_c, 0, 55, 126
2, 216296, Note_on_c, 0, 55, 0
2, 216300, Note_on_c, 0, 50, 126
2, 216356, Note_on_c, 0, 50, 0
2, 216360, Note_on_c, 0, 43, 126
2, 216416, Note_on_c, 0, 43, 0
2, 216420, Note_on_c, 0, 50, 126
2, 216476, Note_on_c, 0, 50, 0
2, 216480, Note_on_c, 0, 55, 126
2, 216536, Note_on_c, 0, 55, 0
2, 216540, Note_on_c, 0, 50, 126
2, 216596, Note_on_c, 0, 50, 0
2, 216600, Note_on_c, 0, 43, 126
2, 216656, Note_on_c, 0, 43, 0
2, 216660, Note_on_c, 0, 50, 126
2, 216716, Note_on_c, 0, 50, 0
2, 216720, Note_on_c, 0, 55, 126
2, 216776, Note_on_c, 0, 55, 0
2, 216780, Note_on_c, 0, 50, 126
2, 216836, Note_on_c, 0, 50, 0
2, 216840, Note_on_c, 0, 43, 126
2, 216896, Note_on_c, 0, 43, 0
2, 216900, Note_on_c, 0, 50, 126
2, 216956, Note_on_c, 0, 50, 0
2, 216960, Note_on_c, 0, 55, 126
2, 217016, Note_on_c, 0, 55, 0
2, 217020, Note_on_c, 0, 50, 126
2, 217076, Note_on_c, 0, 50, 0
2, 217080, Note_on_c, 0, 43, 126
2, 217136, Note_on_c, 0, 43, 0
2, 217140, Note_on_c, 0, 50, 126
2, 217196, Note_on_c, 0, 50, 0
2, 217200, Note_on_c, 0, 55, 126
2, 217256, Note_on_c, 0, 55, 0
2, 217260, Note_on_c, 0, 50, 126
2, 217316, Note_on_c, 0, 50, 0
2, 217320, Note_on_c, 0, 43, 126
2, 217376, Note_on_c, 0, 43, 0
2, 217380, Note_on_c, 0, 50, 126
2, 217436, Note_on_c, 0, 50, 0
2, 217440, Note_on_c, 0, 53, 126
2, 217496, Note_on_c, 0, 53, 0
2, 217500, Note_on_c, 0, 48, 126
2, 217556, Note_on_c, 0, 48, 0
2, 217560, Note_on_c, 0, 41, 126
2, 217616, Note_on_c, 0, 41, 0
2, 217620, Note_on_c, 0, 48, 126
2, 217676, Note_on_c, 0, 48, 0
2, 217680, Note_on_c, 0, 53, 126
2, 217736, Note_on_c, 0, 53, 0
2, 217740, Note_on_c, 0, 48, 126
2, 217796, Note_on_c, 0, 48, 0
2, 217800, Note_on_c, 0, 41, 126
2, 217856, Note_on_c, 0, 41, 0
2, 217860, Note_on_c, 0, 48, 126
2, 217916, Note_on_c, 0, 48, 0
2, 217920, Note_on_c, 0, 53, 126
2, 217976, Note_on_c, 0, 53, 0
2, 217980, Note_on_c, 0, 48, 126
2, 218036, Note_on_c, 0, 48, 0
2, 218040, Note_on_c, 0, 41, 126
2, 218096, Note_on_c, 0, 41, 0
2, 218100, Note_on_c, 0, 48, 126
2, 218156, Note_on_c, 0, 48, 0
2, 218160, Note_on_c, 0, 53, 126
2, 218216, Note_on_c, 0, 53, 0
2, 218220, Note_on_c, 0, 48, 126
2, 218276, Note_on_c, 0, 48, 0
2, 218280, Note_on_c, 0, 41, 126
2, 218336, Note_on_c, 0, 41, 0
2, 218340, Note_on_c, 0, 48, 126
2, 218396, Note_on_c, 0, 48, 0
2, 218400, Note_on_c, 0, 53, 126
2, 218456, Note_on_c, 0, 53, 0
2, 218460, Note_on_c, 0, 48, 126
2, 218516, Note_on_c, 0, 48, 0
2, 218520, Note_on_c, 0, 41, 126
2, 218576, Note_on_c, 0, 41, 0
2, 218580, Note_on_c, 0, 48, 126
2, 218636, Note_on_c, 0, 48, 0
2, 218640, Note_on_c, 0, 53, 126
2, 218696, Note_on_c, 0, 53, 0
2, 218700, Note_on_c, 0, 48, 126
2, 218756, Note_on_c, 0, 48, 0
2, 218760, Note_on_c, 0, 41, 126
2, 218816, Note_on_c, 0, 41, 0
2, 218820, Note_on_c, 0, 48, 126
2, 218876, Note_on_c, 0, 48, 0
2, 218880, Note_on_c, 0, 55, 126
2, 218936, Note_on_c, 0, 55, 0
2, 218940, Note_on_c, 0, 50, 126
2, 218996, Note_on_c, 0, 50, 0
2, 219000, Note_on_c, 0, 43, 126
2, 219056, Note_on_c, 0, 43, 0
2, 219060, Note_on_c, 0, 50, 126
2, 219116, Note_on_c, 0, 50, 0
2, 219120, Note_on_c, 0, 55, 126
2, 219176, Note_on_c, 0, 55, 0
2, 219180, Note_on_c, 0, 50, 126
2, 219236, Note_on_c, 0, 50, 0
2, 219240, Note_on_c, 0, 43, 126
2, 219296, Note_on_c, 0, 43, 0
2, 219300, Note_on_c, 0, 50, 126
2, 219356, Note_on_c, 0, 50, 0
2, 219360, Note_on_c, 0, 55, 126
2, 219416, Note_on_c, 0, 55, 0
2, 219420, Note_on_c, 0, 50, 126
2, 219476, Note_on_c, 0, 50, 0
2, 219480, Note_on_c, 0, 43, 126
2, 219536, Note_on_c, 0, 43, 0
2, 219540, Note_on_c, 0, 50, 126
2, 219596, Note_on_c, 0, 50, 0
2, 219600, Note_on_c, 0, 55, 126
2, 219656, Note_on_c, 0, 55, 0
2, 219660, Note_on_c, 0, 50, 126
2, 219716, Note_on_c, 0, 50, 0
2, 219720, Note_on_c, 0, 43, 126
2, 219776, Note_on_c, 0, 43, 0
2, 219780, Note_on_c, 0, 50, 126
2, 219836, Note_on_c, 0, 50, 0
2, 219840, Note_on_c, 0, 55, 126
2, 219896, Note_on_c, 0, 55, 0
2, 219900, Note_on_c, 0, 50, 126
2, 219956, Note_on_c, 0, 50, 0
2, 219960, Note_on_c, 0, 43, 126
2, 220016, Note_on_c, 0, 43, 0
2, 220020, Note_on_c, 0, 50, 126
2, 220076, Note_on_c, 0, 50, 0
2, 220080, Note_on_c, 0, 55, 126
2, 220136, Note_on_c, 0, 55, 0
2, 220140, Note_on_c, 0, 50, 126
2, 220196, Note_on_c, 0, 50, 0
2, 220200, Note_on_c, 0, 43, 126
2, 220256, Note_on_c, 0, 43, 0
2, 220260, Note_on_c, 0, 50, 126
2, 220316, Note_on_c, 0, 50, 0
2, 220320, Note_on_c, 0, 57, 126
2, 220376, Note_on_c, 0, 57, 0
2, 220380, Note_on_c, 0, 52, 126
2, 220436, Note_on_c, 0, 52, 0
2, 220440, Note_on_c, 0, 45, 126
2, 220496, Note_on_c, 0, 45, 0
2, 220500, Note_on_c, 0, 52, 126
2, 220556, Note_on_c, 0, 52, 0
2, 220560, Note_on_c, 0, 57, 126
2, 220616, Note_on_c, 0, 57, 0
2, 220620, Note_on_c, 0, 52, 126
2, 220676, Note_on_c, 0, 52, 0
2, 220680, Note_on_c, 0, 45, 126
2, 220736, Note_on_c, 0, 45, 0
2, 220740, Note_on_c, 0, 52, 126
2, 220796, Note_on_c, 0, 52, 0
2, 220800, Note_on_c, 0, 57, 126
2, 220856, Note_on_c, 0, 57, 0
2, 220860, Note_on_c, 0, 52, 126
2, 220916, Note_on_c, 0, 52, 0
2, 220920, Note_on_c, 0, 45, 126
2, 220976, Note_on_c, 0, 45, 0
2, 220980, Note_on_c, 0, 52, 126
2, 221036, Note_on_c, 0, 52, 0
2, 221040, Note_on_c, 0, 57, 126
2, 221096, Note_on_c, 0, 57, 0
2, 221100, Note_on_c, 0, 52, 126
2, 221156, Note_on_c, 0, 52, 0
2, 221160, Note_on_c, 0, 45, 126
2, 221216, Note_on_c, 0, 45, 0
2, 221220, Note_on_c, 0, 52, 126
2, 221276, Note_on_c, 0, 52, 0
2, 221280, Note_on_c, 0, 57, 126
2, 221336, Note_on_c, 0, 57, 0
2, 221340, Note_on_c, 0, 52, 126
2, 221396, Note_on_c, 0, 52, 0
2, 221400, Note_on_c, 0, 45, 126
2, 221456, Note_on_c, 0, 45, 0
2, 221460, Note_on_c, 0, 52, 126
2, 221516, Note_on_c, 0, 52, 0
2, 221520, Note_on_c, 0, 57, 126
2, 221576, Note_on_c, 0, 57, 0
2, 221580, Note_on_c, 0, 52, 126
2, 221636, Note_on_c, 0, 52, 0
2, 221640, Note_on_c, 0, 45, 126
2, 221696, Note_on_c, 0, 45, 0
2, 221700, Note_on_c, 0, 52, 126
2, 221756, Note_on_c, 0, 52, 0
2, 221760, Note_on_c, 0, 53, 126
2, 221816, Note_on_c, 0, 53, 0
2, 221820, Note_on_c, 0, 48, 126
2, 221876, Note_on_c, 0, 48, 0
2, 221880, Note_on_c, 0, 41, 126
2, 221936, Note_on_c, 0, 41, 0
2, 221940, Note_on_c, 0, 48, 126
2, 221996, Note_on_c, 0, 48, 0
2, 222000, Note_on_c, 0, 53, 126
2, 222056, Note_on_c, 0, 53, 0
2, 222060, Note_on_c, 0, 48, 126
2, 222116, Note_on_c, 0, 48, 0
2, 222120, Note_on_c, 0, 41, 126
2, 222176, Note_on_c, 0, 41, 0
2, 222180, Note_on_c, 0, 48, 126
2, 222236, Note_on_c, 0, 48, 0
2, 222240, Note_on_c, 0, 53, 126
2, 222296, Note_on_c, 0, 53, 0
2, 222300, Note_on_c, 0, 48, 126
2, 222356, Note_on_c, 0, 48, 0
2, 222360, Note_on_c, 0, 41, 126
2, 222416, Note_on_c, 0, 41, 0
2, 222420, Note_on_c, 0, 48, 126
2, 222476, Note_on_c, 0, 48, 0
2, 222480, Note_on_c, 0, 53, 126
2, 222536, Note_on_c, 0, 53, 0
2, 222540, Note_on_c, 0, 48, 126
2, 222596, Note_on_c, 0, 48, 0
2, 222600, Note_on_c, 0, 41, 126
2, 222656, Note_on_c, 0, 41, 0
2, 222660, Note_on_c, 0, 48, 126
2, 222716, Note_on_c, 0, 48, 0
2, 222720, Note_on_c, 0, 53, 126
2, 222776, Note_on_c, 0, 53, 0
2, 222780, Note_on_c, 0, 48, 126
2, 222836, Note_on_c, 0, 48, 0
2, 222840, Note_on_c, 0, 41, 126
2, 222896, Note_on_c, 0, 41, 0
2, 222900, Note_on_c, 0, 48, 126
2, 222956, Note_on_c, 0, 48, 0
2, 222960, Note_on_c, 0, 53, 126
2, 223016, Note_on_c, 0, 53, 0
2, 223020, Note_on_c, 0, 48, 126
2, 223076, Note_on_c, 0, 48, 0
2, 223080, Note_on_c, 0, 41, 126
2, 223136, Note_on_c, 0, 41, 0
2, 223140, Note_on_c, 0, 48, 126
2, 223196, Note_on_c, 0, 48, 0
2, 223200, Note_on_c, 0, 55, 126
2, 223256, Note_on_c, 0, 55, 0
2, 223260, Note_on_c, 0, 50, 126
2, 223316, Note_on_c, 0, 50, 0
2, 223320, Note_on_c, 0, 43, 126
2, 223376, Note_on_c, 0, 43, 0
2, 223380, Note_on_c, 0, 50, 126
2, 223436, Note_on_c, 0, 50, 0
2, 223440, Note_on_c, 0, 55, 126
2, 223496, Note_on_c, 0, 55, 0
2, 223500, Note_on_c, 0, 50, 126
2, 223556, Note_on_c, 0, 50, 0
2, 223560, Note_on_c, 0, 43, 126
2, 223616, Note_on_c, 0, 43, 0
2, 223620, Note_on_c, 0, 50, 126
2, 223676, Note_on_c, 0, 50, 0
2, 223680, Note_on_c, 0, 55, 126
2, 223736, Note_on_c, 0, 55, 0
2, 223740, Note_on_c, 0, 50, 126
2, 223796, Note_on_c, 0, 50, 0
2, 223800, Note_on_c, 0, 43, 126
2, 223856, Note_on_c, 0, 43, 0
2, 223860, Note_on_c, 0, 50, 126
2, 223916, Note_on_c, 0, 50, 0
2, 223920, Note_on_c, 0, 55, 126
2, 223976, Note_on_c, 0, 55, 0
2, 223980, Note_on_c, 0, 50, 126
2, 224036, Note_on_c, 0, 50, 0
2, 224040, Note_on_c, 0, 43, 126
2, 224096, Note_on_c, 0, 43, 0
2, 224100, Note_on_c, 0, 50, 126
2, 224156, Note_on_c, 0, 50, 0
2, 224160, Note_on_c, 0, 55, 126
2, 224216, Note_on_c, 0, 55, 0
2, 224220, Note_on_c, 0, 50, 126
2, 224276, Note_on_c, 0, 50, 0
2, 224280, Note_on_c, 0, 43, 126
2, 224336, Note_on_c, 0, 43, 0
2, 224340, Note_on_c, 0, 50, 126
2, 224396, Note_on_c, 0, 50, 0
2, 224400, Note_on_c, 0, 55, 126
2, 224456, Note_on_c, 0, 55, 0
2, 224460, Note_on_c, 0, 50, 126
2, 224516, Note_on_c, 0, 50, 0
2, 224520, Note_on_c, 0, 43, 126
2, 224576, Note_on_c, 0, 43, 0
2, 224580, Note_on_c, 0, 50, 126
2, 224636, Note_on_c, 0, 50, 0
2, 224640, Note_on_c, 0, 57, 126
2, 224696, Note_on_c, 0, 57, 0
2, 224700, Note_on_c, 0, 52, 126
2, 224756, Note_on_c, 0, 52, 0
2, 224760, Note_on_c, 0, 45, 126
2, 224816, Note_on_c, 0, 45, 0
2, 224820, Note_on_c, 0, 52, 126
2, 224876, Note_on_c, 0, 52, 0
2, 224880, Note_on_c, 0, 57, 126
2, 224936, Note_on_c, 0, 57, 0
2, 224940, Note_on_c, 0, 52, 126
2, 224996, Note_on_c, 0, 52, 0
2, 225000, Note_on_c, 0, 45, 126
2, 225056, Note_on_c, 0, 45, 0
2, 225060, Note_on_c, 0, 52, 126
2, 225116, Note_on_c, 0, 52, 0
2, 225120, Note_on_c, 0, 57, 126
2, 225176, Note_on_c, 0, 57, 0
2, 225180, Note_on_c, 0, 52, 126
2, 225236, Note_on_c, 0, 52, 0
2, 225240, Note_on_c, 0, 45, 126
2, 225296, Note_on_c, 0, 45, 0
2, 225300, Note_on_c, 0, 52, 126
2, 225356, Note_on_c, 0, 52, 0
2, 225360, Note_on_c, 0, 57, 126
2, 225416, Note_on_c, 0, 57, 0
2, 225420, Note_on_c, 0, 52, 126
2, 225476, Note_on_c, 0, 52, 0
2, 225480, Note_on_c, 0, 45, 126
2, 225536, Note_on_c, 0, 45, 0
2, 225540, Note_on_c, 0, 52, 126
2, 225596, Note_on_c, 0, 52, 0
2, 225600, Note_on_c, 0, 57, 126
2, 225656, Note_on_c, 0, 57, 0
2, 225660, Note_on_c, 0, 52, 126
2, 225716, Note_on_c, 0, 52, 0
2, 225720, Note_on_c, 0, 45, 126
2, 225776, Note_on_c, 0, 45, 0
2, 225780, Note_on_c, 0, 52, 126
2, 225836, Note_on_c, 0, 52, 0
2, 225840, Note_on_c, 0, 57, 126
2, 225896, Note_on_c, 0, 57, 0
2, 225900, Note_on_c, 0, 52, 126
2, 225956, Note_on_c, 0, 52, 0
2, 225960, Note_on_c, 0, 45, 126
2, 226016, Note_on_c, 0, 45, 0
2, 226020, Note_on_c, 0, 52, 126
2, 226076, Note_on_c, 0, 52, 0
2, 226080, Note_on_c, 0, 55, 126
2, 226136, Note_on_c, 0, 55, 0
2, 226140, Note_on_c, 0, 50, 126
2, 226196, Note_on_c, 0, 50, 0
2, 226200, Note_on_c, 0, 43, 126
2, 226256, Note_on_c, 0, 43, 0
2, 226260, Note_on_c, 0, 50, 126
2, 226316, Note_on_c, 0, 50, 0
2, 226320, Note_on_c, 0, 55, 126
2, 226376, Note_on_c, 0, 55, 0
2, 226380, Note_on_c, 0, 50, 126
2, 226436, Note_on_c, 0, 50, 0
2, 226440, Note_on_c, 0, 43, 126
2, 226496, Note_on_c, 0, 43, 0
2, 226500, Note_on_c, 0, 50, 126
2, 226556, Note_on_c, 0, 50, 0
2, 226560, Note_on_c, 0, 55, 126
2, 226616, Note_on_c, 0, 55, 0
2, 226620, Note_on_c, 0, 50, 126
2, 226676, Note_on_c, 0, 50, 0
2, 226680, Note_on_c, 0, 43, 126
2, 226736, Note_on_c, 0, 43, 0
2, 226740, Note_on_c, 0, 50, 126
2, 226796, Note_on_c, 0, 50, 0
2, 226800, Note_on_c, 0, 55, 126
2, 226856, Note_on_c, 0, 55, 0
2, 226860, Note_on_c, 0, 50, 126
2, 226916, Note_on_c, 0, 50, 0
2, 226920, Note_on_c, 0, 43, 126
2, 226976, Note_on_c, 0, 43, 0
2, 226980, Note_on_c, 0, 50, 126
2, 227036, Note_on_c, 0, 50, 0
2, 227040, Note_on_c, 0, 55, 126
2, 227096, Note_on_c, 0, 55, 0
2, 227100, Note_on_c, 0, 50, 126
2, 227156, Note_on_c, 0, 50, 0
2, 227160, Note_on_c, 0, 43, 126
2, 227216, Note_on_c, 0, 43, 0
2, 227220, Note_on_c, 0, 50, 126
2, 227276, Note_on_c, 0, 50, 0
2, 227280, Note_on_c, 0, 55, 126
2, 227336, Note_on_c, 0, 55, 0
2, 227340, Note_on_c, 0, 50, 126
2, 227396, Note_on_c, 0, 50, 0
2, 227400, Note_on_c, 0, 43, 126
2, 227456, Note_on_c, 0, 43, 0
2, 227460, Note_on_c, 0, 50, 126
2, 227516, Note_on_c, 0, 50, 0
2, 227520, Note_on_c, 0, 53, 126
2, 227576, Note_on_c, 0, 53, 0
2, 227580, Note_on_c, 0, 48, 126
2, 227636, Note_on_c, 0, 48, 0
2, 227640, Note_on_c, 0, 41, 126
2, 227696, Note_on_c, 0, 41, 0
2, 227700, Note_on_c, 0, 48, 126
2, 227756, Note_on_c, 0, 48, 0
2, 227760, Note_on_c, 0, 53, 126
2, 227816, Note_on_c, 0, 53, 0
2, 227820, Note_on_c, 0, 48, 126
2, 227876, Note_on_c, 0, 48, 0
2, 227880, Note_on_c, 0, 41, 126
2, 227936, Note_on_c, 0, 41, 0
2, 227940, Note_on_c, 0, 48, 126
2, 227996, Note_on_c, 0, 48, 0
2, 228000, Note_on_c, 0, 53, 126
2, 228056, Note_on_c, 0, 53, 0
2, 228060, Note_on_c, 0, 48, 126
2, 228116, Note_on_c, 0, 48, 0
2, 228120, Note_on_c, 0, 41, 126
2, 228176, Note_on_c, 0, 41, 0
2, 228180, Note_on_c, 0, 48, 126
2, 228236, Note_on_c, 0, 48, 0
2, 228240, Note_on_c, 0, 53, 126
2, 228296, Note_on_c, 0, 53, 0
2, 228300, Note_on_c, 0, 48, 126
2, 228356, Note_on_c, 0, 48, 0
2, 228360, Note_on_c, 0, 41, 126
2, 228416, Note_on_c, 0, 41, 0
2, 228420, Note_on_c, 0, 48, 126
2, 228476, Note_on_c, 0, 48, 0
2, 228480, Note_on_c, 0, 53, 126
2, 228536, Note_on_c, 0, 53, 0
2, 228540, Note_on_c, 0, 48, 126
2, 228596, Note_on_c, 0, 48, 0
2, 228600, Note_on_c, 0, 41, 126
2, 228656, Note_on_c, 0, 41, 0
2, 228660, Note_on_c, 0, 48, 126
2, 228716, Note_on_c, 0, 48, 0
2, 228720, Note_on_c, 0, 53, 126
2, 228776, Note_on_c, 0, 53, 0
2, 228780, Note_on_c, 0, 48, 126
2, 228836, Note_on_c, 0, 48, 0
2, 228840, Note_on_c, 0, 41, 126
2, 228896, Note_on_c, 0, 41, 0
2, 228900, Note_on_c, 0, 48, 126
2, 228956, Note_on_c, 0, 48, 0
2, 228960, Note_on_c, 0, 55, 126
2, 229016, Note_on_c, 0, 55, 0
2, 229020, Note_on_c, 0, 50, 126
2, 229076, Note_on_c, 0, 50, 0
2, 229080, Note_on_c, 0, 43, 126
2, 229136, Note_on_c, 0, 43, 0
2, 229140, Note_on_c, 0, 50, 126
2, 229196, Note_on_c, 0, 50, 0
2, 229200, Note_on_c, 0, 55, 126
2, 229256, Note_on_c, 0, 55, 0
2, 229260, Note_on_c, 0, 50, 126
2, 229316, Note_on_c, 0, 50, 0
2, 229320, Note_on_c, 0, 43, 126
2, 229376, Note_on_c, 0, 43, 0
2, 229380, Note_on_c, 0, 50, 126
2, 229436, Note_on_c, 0, 50, 0
2, 229440, Note_on_c, 0, 55, 126
2, 229496, Note_on_c, 0, 55, 0
2, 229500, Note_on_c, 0, 50, 126
2, 229556, Note_on_c, 0, 50, 0
2, 229560, Note_on_c, 0, 43, 126
2, 229616, Note_on_c, 0, 43, 0
2, 229620, Note_on_c, 0, 50, 126
2, 229676, Note_on_c, 0, 50, 0
2, 229680, Note_on_c, 0, 55, 126
2, 229736, Note_on_c, 0, 55, 0
2, 229740, Note_on_c, 0, 50, 126
2, 229796, Note_on_c, 0, 50, 0
2, 229800, Note_on_c, 0, 43, 126
2, 229856, Note_on_c, 0, 43, 0
2, 229860, Note_on_c, 0, 50, 126
2, 229916, Note_on_c, 0, 50, 0
2, 229920, Note_on_c, 0, 55, 126
2, 229976, Note_on_c, 0, 55, 0
2, 229980, Note_on_c, 0, 50, 126
2, 230036, Note_on_c, 0, 50, 0
2, 230040, Note_on_c, 0, 43, 126
2, 230096, Note_on_c, 0, 43, 0
2, 230100, Note_on_c, 0, 50, 126
2, 230156, Note_on_c, 0, 50, 0
2, 230160, Note_on_c, 0, 55, 126
2, 230216, Note_on_c, 0, 55, 0
2, 230220, Note_on_c, 0, 50, 126
2, 230276, Note_on_c, 0, 50, 0
2, 230280, Note_on_c, 0, 43, 126
2, 230336, Note_on_c, 0, 43, 0
2, 230340, Note_on_c, 0, 50, 126
2, 230396, Note_on_c, 0, 50, 0
2, 230400, Note_on_c, 0, 57, 126
2, 230456, Note_on_c, 0, 57, 0
2, 230460, Note_on_c, 0, 52, 126
2, 230516, Note_on_c, 0, 52, 0
2, 230520, Note_on_c, 0, 45, 126
2, 230576, Note_on_c, 0, 45, 0
2, 230580, Note_on_c, 0, 52, 126
2, 230636, Note_on_c, 0, 52, 0
2, 230640, Note_on_c, 0, 57, 126
2, 230696, Note_on_c, 0, 57, 0
2, 230700, Note_on_c, 0, 52, 126
2, 230756, Note_on_c, 0, 52, 0
2, 230760, Note_on_c, 0, 45, 126
2, 230816, Note_on_c, 0, 45, 0
2, 230820, Note_on_c, 0, 52, 126
2, 230876, Note_on_c, 0, 52, 0
2, 230880, Note_on_c, 0, 57, 126
2, 230936, Note_on_c, 0, 57, 0
2, 230940, Note_on_c, 0, 52, 126
2, 230996, Note_on_c, 0, 52, 0
2, 231000, Note_on_c, 0, 45, 126
2, 231056, Note_on_c, 0, 45, 0
2, 231060, Note_on_c, 0, 52, 126
2, 231116, Note_on_c, 0, 52, 0
2, 231120, Note_on_c, 0, 57, 126
2, 231176, Note_on_c, 0, 57, 0
2, 231180, Note_on_c, 0, 52, 126
2, 231236, Note_on_c, 0, 52, 0
2, 231240, Note_on_c, 0, 45, 126
2, 231296, Note_on_c, 0, 45, 0
2, 231300, Note_on_c, 0, 52, 126
2, 231356, Note_on_c, 0, 52, 0
2, 231360, Note_on_c, 0, 57, 126
2, 231416, Note_on_c, 0, 57, 0
2, 231420, Note_on_c, 0, 52, 126
2, 231476, Note_on_c, 0, 52, 0
2, 231480, Note_on_c, 0, 45, 126
2, 231536, Note_on_c, 0, 45, 0
2, 231540, Note_on_c, 0, 52, 126
2, 231596, Note_on_c, 0, 52, 0
2, 231600, Note_on_c, 0, 57, 126
2, 231656, Note_on_c, 0, 57, 0
2, 231660, Note_on_c, 0, 52, 126
2, 231716, Note_on_c, 0, 52, 0
2, 231720, Note_on_c, 0, 45, 126
2, 231776, Note_on_c, 0, 45, 0
2, 231780, Note_on_c, 0, 52, 126
2, 231836, Note_on_c, 0, 52, 0
2, 231840, Note_on_c, 0, 55, 126
2, 231896, Note_on_c, 0, 55, 0
2, 231900, Note_on_c, 0, 50, 126
2, 231956, Note_on_c, 0, 50, 0
2, 231960, Note_on_c, 0, 43, 126
2, 232016, Note_on_c, 0, 43, 0
2, 232020, Note_on_c, 0, 50, 126
2, 232076, Note_on_c, 0, 50, 0
2, 232080, Note_on_c, 0, 55, 126
2, 232136, Note_on_c, 0, 55, 0
2, 232140, Note_on_c, 0, 50, 126
2, 232196, Note_on_c, 0, 50, 0
2, 232200, Note_on_c, 0, 43, 126
2, 232256, Note_on_c, 0, 43, 0
2, 232260, Note_on_c, 0, 50, 126
2, 232316, Note_on_c, 0, 50, 0
2, 232320, Note_on_c, 0, 55, 126
2, 232376, Note_on_c, 0, 55, 0
2, 232380, Note_on_c, 0, 50, 126
2, 232436, Note_on_c, 0, 50, 0
2, 232440, Note_on_c, 0, 43, 126
2, 232496, Note_on_c, 0, 43, 0
2, 232500, Note_on_c, 0, 50, 126
2, 232556, Note_on_c, 0, 50, 0
2, 232560, Note_on_c, 0, 55, 126
2, 232616, Note_on_c, 0, 55, 0
2, 232620, Note_on_c, 0, 50, 126
2, 232676, Note_on_c, 0, 50, 0
2, 232680, Note_on_c, 0, 43, 126
2, 232736, Note_on_c, 0, 43, 0
2, 232740, Note_on_c, 0, 50, 126
2, 232796, Note_on_c, 0, 50, 0
2, 232800, Note_on_c, 0, 55, 126
2, 232856, Note_on_c, 0, 55, 0
2, 232860, Note_on_c, 0, 50, 126
2, 232916, Note_on_c, 0, 50, 0
2, 232920, Note_on_c, 0, 43, 126
2, 232976, Note_on_c, 0, 43, 0
2, 232980, Note_on_c, 0, 50, 126
2, 233036, Note_on_c, 0, 50, 0
2, 233040, Note_on_c, 0, 55, 126
2, 233096, Note_on_c, 0, 55, 0
2, 233100, Note_on_c, 0, 50, 126
2, 233156, Note_on_c, 0, 50, 0
2, 233160, Note_on_c, 0, 43, 126
2, 233216, Note_on_c, 0, 43, 0
2, 233220, Note_on_c, 0, 50, 126
2, 233276, Note_on_c, 0, 50, 0
2, 233280, Note_on_c, 0, 53, 126
2, 233336, Note_on_c, 0, 53, 0
2, 233340, Note_on_c, 0, 48, 126
2, 233396, Note_on_c, 0, 48, 0
2, 233400, Note_on_c, 0, 41, 126
2, 233456, Note_on_c, 0, 41, 0
2, 233460, Note_on_c, 0, 48, 126
2, 233516, Note_on_c, 0, 48, 0
2, 233520, Note_on_c, 0, 53, 126
2, 233576, Note_on_c, 0, 53, 0
2, 233580, Note_on_c, 0, 48, 126
2, 233636, Note_on_c, 0, 48, 0
2, 233640, Note_on_c, 0, 41, 126
2, 233696, Note_on_c, 0, 41, 0
2, 233700, Note_on_c, 0, 48, 126
2, 233756, Note_on_c, 0, 48, 0
2, 233760, Note_on_c, 0, 53, 126
2, 233816, Note_on_c, 0, 53, 0
2, 233820, Note_on_c, 0, 48, 126
2, 233876, Note_on_c, 0, 48, 0
2, 233880, Note_on_c, 0, 41, 126
2, 233936, Note_on_c, 0, 41, 0
2, 233940, Note_on_c, 0, 48, 126
2, 233996, Note_on_c, 0, 48, 0
2, 234000, Note_on_c, 0, 53, 126
2, 234056, Note_on_c, 0, 53, 0
2, 234060, Note_on_c, 0, 48, 126
2, 234116, Note_on_c, 0, 48, 0
2, 234120, Note_on_c, 0, 41, 126
2, 234176, Note_on_c, 0, 41, 0
2, 234180, Note_on_c, 0, 48, 126
2, 234236, Note_on_c, 0, 48, 0
2, 234240, Note_on_c, 0, 53, 126
2, 234296, Note_on_c, 0, 53, 0
2, 234300, Note_on_c, 0, 48, 126
2, 234356, Note_on_c, 0, 48, 0
2, 234360, Note_on_c, 0, 41, 126
2, 234416, Note_on_c, 0, 41, 0
2, 234420, Note_on_c, 0, 48, 126
2, 234476, Note_on_c, 0, 48, 0
2, 234480, Note_on_c, 0, 53, 126
2, 234536, Note_on_c, 0, 53, 0
2, 234540, Note_on_c, 0, 48, 126
2, 234596, Note_on_c, 0, 48, 0
2, 234600, Note_on_c, 0, 41, 126
2, 234656, Note_on_c, 0, 41, 0
2, 234660, Note_on_c, 0, 48, 126
2, 234716, Note_on_c, 0, 48, 0
2, 234720, Note_on_c, 0, 55, 126
2, 234776, Note_on_c, 0, 55, 0
2, 234780, Note_on_c, 0, 50, 126
2, 234836, Note_on_c, 0, 50, 0
2, 234840, Note_on_c, 0, 43, 126
2, 234896, Note_on_c, 0, 43, 0
2, 234900, Note_on_c, 0, 50, 126
2, 234956, Note_on_c, 0, 50, 0
2, 234960, Note_on_c, 0, 55, 126
2, 235016, Note_on_c, 0, 55, 0
2, 235020, Note_on_c, 0, 50, 126
2, 235076, Note_on_c, 0, 50, 0
2, 235080, Note_on_c, 0, 43, 126
2, 235136, Note_on_c, 0, 43, 0
2, 235140, Note_on_c, 0, 50, 126
2, 235196, Note_on_c, 0, 50, 0
2, 235200, Note_on_c, 0, 55, 126
2, 235256, Note_on_c, 0, 55, 0
2, 235260, Note_on_c, 0, 50, 126
2, 235316, Note_on_c, 0, 50, 0
2, 235320, Note_on_c, 0, 43, 126
2, 235376, Note_on_c, 0, 43, 0
2, 235380, Note_on_c, 0, 50, 126
2, 235436, Note_on_c, 0, 50, 0
2, 235440, Note_on_c, 0, 55, 126
2, 235496, Note_on_c, 0, 55, 0
2, 235500, Note_on_c, 0, 50, 126
2, 235556, Note_on_c, 0, 50, 0
2, 235560, Note_on_c, 0, 43, 126
2, 235616, Note_on_c, 0, 43, 0
2, 235620, Note_on_c, 0, 50, 126
2, 235676, Note_on_c, 0, 50, 0
2, 235680, Note_on_c, 0, 55, 126
2, 235736, Note_on_c, 0, 55, 0
2, 235740, Note_on_c, 0, 50, 126
2, 235796, Note_on_c, 0, 50, 0
2, 235800, Note_on_c, 0, 43, 126
2, 235856, Note_on_c, 0, 43, 0
2, 235860, Note_on_c, 0, 50, 126
2, 235916, Note_on_c, 0, 50, 0
2, 235920, Note_on_c, 0, 55, 126
2, 235976, Note_on_c, 0, 55, 0
2, 235980, Note_on_c, 0, 50, 126
2, 236036, Note_on_c, 0, 50, 0
2, 236040, Note_on_c, 0, 43, 126
2, 236096, Note_on_c, 0, 43, 0
2, 236100, Note_on_c, 0, 50, 126
2, 236156, Note_on_c, 0, 50, 0
2, 236160, Note_on_c, 0, 57, 126
2, 236216, Note_on_c, 0, 57, 0
2, 236220, Note_on_c, 0, 52, 126
2, 236276, Note_on_c, 0, 52, 0
2, 236280, Note_on_c, 0, 45, 126
2, 236336, Note_on_c, 0, 45, 0
2, 236340, Note_on_c, 0, 52, 126
2, 236396, Note_on_c, 0, 52, 0
2, 236400, Note_on_c, 0, 57, 126
2, 236456, Note_on_c, 0, 57, 0
2, 236460, Note_on_c, 0, 52, 126
2, 236516, Note_on_c, 0, 52, 0
2, 236520, Note_on_c, 0, 45, 126
2, 236576, Note_on_c, 0, 45, 0
2, 236580, Note_on_c, 0, 52, 126
2, 236636, Note_on_c, 0, 52, 0
2, 236640, Note_on_c, 0, 57, 126
2, 236696, Note_on_c, 0, 57, 0
2, 236700, Note_on_c, 0, 52, 126
2, 236756, Note_on_c, 0, 52, 0
2, 236760, Note_on_c, 0, 45, 126
2, 236816, Note_on_c, 0, 45, 0
2, 236820, Note_on_c, 0, 52, 126
2, 236876, Note_on_c, 0, 52, 0
2, 236880, Note_on_c, 0, 57, 126
2, 236936, Note_on_c, 0, 57, 0
2, 236940, Note_on_c, 0, 52, 126
2, 236996, Note_on_c, 0, 52, 0
2, 237000, Note_on_c, 0, 45, 126
2, 237056, Note_on_c, 0, 45, 0
2, 237060, Note_on_c, 0, 52, 126
2, 237116, Note_on_c, 0, 52, 0
2, 237120, Note_on_c, 0, 57, 126
2, 237176, Note_on_c, 0, 57, 0
2, 237180, Note_on_c, 0, 52, 126
2, 237236, Note_on_c, 0, 52, 0
2, 237240, Note_on_c, 0, 45, 126
2, 237296, Note_on_c, 0, 45, 0
2, 237300, Note_on_c, 0, 52, 126
2, 237356, Note_on_c, 0, 52, 0
2, 237360, Note_on_c, 0, 57, 126
2, 237416, Note_on_c, 0, 57, 0
2, 237420, Note_on_c, 0, 52, 126
2, 237476, Note_on_c, 0, 52, 0
2, 237480, Note_on_c, 0, 45, 126
2, 237536, Note_on_c, 0, 45, 0
2, 237540, Note_on_c, 0, 52, 126
2, 237596, Note_on_c, 0, 52, 0
2, 237600, Note_on_c, 0, 55, 126
2, 237656, Note_on_c, 0, 55, 0
2, 237660, Note_on_c, 0, 50, 126
2, 237716, Note_on_c, 0, 50, 0
2, 237720, Note_on_c, 0, 43, 126
2, 237776, Note_on_c, 0, 43, 0
2, 237780, Note_on_c, 0, 50, 126
2, 237836, Note_on_c, 0, 50, 0
2, 237840, Note_on_c, 0, 55, 126
2, 237896, Note_on_c, 0, 55, 0
2, 237900, Note_on_c, 0, 50, 126
2, 237956, Note_on_c, 0, 50, 0
2, 237960, Note_on_c, 0, 43, 126
2, 238016, Note_on_c, 0, 43, 0
2, 238020, Note_on_c, 0, 50, 126
2, 238076, Note_on_c, 0, 50, 0
2, 238080, Note_on_c, 0, 55, 126
2, 238136, Note_on_c, 0, 55, 0
2, 238140, Note_on_c, 0, 50, 126
2, 238196, Note_on_c, 0, 50, 0
2, 238200, Note_on_c, 0, 43, 126
2, 238256, Note_on_c, 0, 43, 0
2, 238260, Note_on_c, 0, 50, 126
2, 238316, Note_on_c, 0, 50, 0
2, 238320, Note_on_c, 0, 55, 126
2, 238376, Note_on_c, 0, 55, 0
2, 238380, Note_on_c, 0, 50, 126
2, 238436, Note_on_c, 0, 50, 0
2, 238440, Note_on_c, 0, 43, 126
2, 238496, Note_on_c, 0, 43, 0
2, 238500, Note_on_c, 0, 50, 126
2, 238556, Note_on_c, 0, 50, 0
2, 238560, Note_on_c, 0, 55, 126
2, 238616, Note_on_c, 0, 55, 0
2, 238620, Note_on_c, 0, 50, 126
2, 238676, Note_on_c, 0, 50, 0
2, 238680, Note_on_c, 0, 43, 126
2, 238736, Note_on_c, 0, 43, 0
2, 238740, Note_on_c, 0, 50, 126
2, 238796, Note_on_c, 0, 50, 0
2, 238800, Note_on_c, 0, 55, 126
2, 238860, Note_on_c, 0, 50, 126
2, 238916, Note_on_c, 0, 50, 0
2, 238920, Note_on_c, 0, 43, 126
2, 238980, Note_on_c, 0, 50, 126
2, 239768, Note_on_c, 0, 55, 0
2, 239888, Note_on_c, 0, 43, 0
2, 239948, Note_on_c, 0, 50, 0
2, 240480, Note_on_c, 0, 53, 49
2, 240593, Note_on_c, 0, 53, 0
2, 240600, Note_on_c, 0, 48, 49
2, 240713, Note_on_c, 0, 48, 0
2, 240720, Note_on_c, 0, 41, 49
2, 240833, Note_on_c, 0, 41, 0
2, 240840, Note_on_c, 0, 48, 49
2, 240953, Note_on_c, 0, 48, 0
2, 240960, Note_on_c, 0, 53, 49
2, 241073, Note_on_c, 0, 53, 0
2, 241080, Note_on_c, 0, 48, 49
2, 241193, Note_on_c, 0, 48, 0
2, 241200, Note_on_c, 0, 41, 49
2, 241313, Note_on_c, 0, 41, 0
2, 241320, Note_on_c, 0, 48, 49
2, 241433, Note_on_c, 0, 48, 0
2, 241440, Note_on_c, 0, 53, 49
2, 241553, Note_on_c, 0, 53, 0
2, 241560, Note_on_c, 0, 48, 49
2, 241673, Note_on_c, 0, 48, 0
2, 241680, Note_on_c, 0, 41, 49
2, 241793, Note_on_c, 0, 41, 0
2, 241800, Note_on_c, 0, 48, 49
2, 241913, Note_on_c, 0, 48, 0
2, 241920, Note_on_c, 0, 55, 49
2, 242033, Note_on_c, 0, 55, 0
2, 242040, Note_on_c, 0, 50, 49
2, 242153, Note_on_c, 0, 50, 0
2, 242160, Note_on_c, 0, 43, 49
2, 242273, Note_on_c, 0, 43, 0
2, 242280, Note_on_c, 0, 50, 49
2, 242393, Note_on_c, 0, 50, 0
2, 242400, Note_on_c, 0, 55, 49
2, 242513, Note_on_c, 0, 55, 0
2, 242520, Note_on_c, 0, 50, 49
2, 242633, Note_on_c, 0, 50, 0
2, 242640, Note_on_c, 0, 43, 49
2, 242753, Note_on_c, 0, 43, 0
2, 242760, Note_on_c, 0, 50, 49
2, 242873, Note_on_c, 0, 50, 0
2, 242880, Note_on_c, 0, 55, 49
2, 242993, Note_on_c, 0, 55, 0
2, 243000, Note_on_c, 0, 50, 49
2, 243113, Note_on_c, 0, 50, 0
2, 243120, Note_on_c, 0, 43, 49
2, 243233, Note_on_c, 0, 43, 0
2, 243240, Note_on_c, 0, 50, 49
2, 243353, Note_on_c, 0, 50, 0
2, 243360, Note_on_c, 0, 57, 49
2, 243473, Note_on_c, 0, 57, 0
2, 243480, Note_on_c, 0, 52, 49
2, 243593, Note_on_c, 0, 52, 0
2, 243600, Note_on_c, 0, 45, 49
2, 243713, Note_on_c, 0, 45, 0
2, 243720, Note_on_c, 0, 52, 49
2, 243833, Note_on_c, 0, 52, 0
2, 243840, Note_on_c, 0, 57, 49
2, 243953, Note_on_c, 0, 57, 0
2, 243960, Note_on_c, 0, 52, 49
2, 244073, Note_on_c, 0, 52, 0
2, 244080, Note_on_c, 0, 45, 49
2, 244193, Note_on_c, 0, 45, 0
2, 244200, Note_on_c, 0, 52, 49
2, 244313, Note_on_c, 0, 52, 0
2, 244320, Note_on_c, 0, 57, 49
2, 244433, Note_on_c, 0, 57, 0
2, 244440, Note_on_c, 0, 52, 49
2, 244553, Note_on_c, 0, 52, 0
2, 244560, Note_on_c, 0, 45, 49
2, 244673, Note_on_c, 0, 45, 0
2, 244680, Note_on_c, 0, 52, 49
2, 244793, Note_on_c, 0, 52, 0
2, 244800, Note_on_c, 0, 55, 49
2, 244913, Note_on_c, 0, 55, 0
2, 244920, Note_on_c, 0, 50, 49
2, 245033, Note_on_c, 0, 50, 0
2, 245040, Note_on_c, 0, 43, 49
2, 245153, Note_on_c, 0, 43, 0
2, 245160, Note_on_c, 0, 50, 49
2, 245273, Note_on_c, 0, 50, 0
2, 245280, Note_on_c, 0, 55, 49
2, 245393, Note_on_c, 0, 55, 0
2, 245400, Note_on_c, 0, 50, 49
2, 245513, Note_on_c, 0, 50, 0
2, 245520, Note_on_c, 0, 43, 49
2, 245633, Note_on_c, 0, 43, 0
2, 245640, Note_on_c, 0, 50, 49
2, 245753, Note_on_c, 0, 50, 0
2, 245760, Note_on_c, 0, 55, 49
2, 245880, Note_on_c, 0, 50, 49
2, 245993, Note_on_c, 0, 50, 0
2, 246000, Note_on_c, 0, 43, 49
2, 246120, Note_on_c, 0, 50, 49
2, 247241, Note_on_c, 0, 55, 0
2, 247481, Note_on_c, 0, 43, 0
2, 247601, Note_on_c, 0, 50, 0
2, 247680, Note_on_c, 0, 59, 49
2, 248591, Note_on_c, 0, 59, 0
2, 248640, Note_on_c, 0, 65, 49
2, 248640, Note_on_c, 0, 68, 49
2, 249551, Note_on_c, 0, 65, 0
2, 249551, Note_on_c, 0, 68, 0
2, 251520, Note_on_c, 0, 60, 49
2, 252431, Note_on_c, 0, 60, 0
2, 252480, Note_on_c, 0, 63, 49
2, 252480, Note_on_c, 0, 67, 49
2, 253391, Note_on_c, 0, 63, 0
2, 253391, Note_on_c, 0, 67, 0
2, 255360, Note_on_c, 0, 56, 49
2, 256271, Note_on_c, 0, 56, 0
2, 256320, Note_on_c, 0, 65, 49
2, 257231, Note_on_c, 0, 65, 0
2, 259200, Note_on_c, 0, 55, 49
2, 261023, Note_on_c, 0, 55, 0
2, 263040, Note_on_c, 0, 55, 49
2, 264863, Note_on_c, 0, 55, 0
2, 266880, Note_on_c, 0, 60, 49
2, 267791, Note_on_c, 0, 60, 0
2, 267840, Note_on_c, 0, 36, 49
2, 270575, Note_on_c, 0, 36, 0
2, 270720, Note_on_c, 0, 60, 49
2, 270720, Note_on_c, 0, 67, 49
2, 271631, Note_on_c, 0, 60, 0
2, 271631, Note_on_c, 0, 67, 0
2, 271680, Note_on_c, 0, 62, 49
2, 272591, Note_on_c, 0, 62, 0
2, 272640, Note_on_c, 0, 64, 49
2, 274463, Note_on_c, 0, 64, 0
2, 274560, Note_on_c, 0, 60, 49
2, 274560, Note_on_c, 0, 65, 49
2, 276383, Note_on_c, 0, 60, 0
2, 276383, Note_on_c, 0, 65, 0
2, 277440, Note_on_c, 0, 57, 49
2, 278351, Note_on_c, 0, 57, 0
2, 278400, Note_on_c, 0, 60, 49
2, 278400, Note_on_c, 0, 67, 49
2, 279311, Note_on_c, 0, 60, 0
2, 279311, Note_on_c, 0, 67, 0
2, 279360, Note_on_c, 0, 40, 64
2, 279362, Control_c, 0, 64, 127
2, 283007, Note_on_c, 0, 40, 0
2, 283200, Note_on_c, 0, 64, 64
2, 283655, Note_on_c, 0, 64, 0
2, 283680, Note_on_c, 0, 64, 64
2, 284135, Note_on_c, 0, 64, 0
2, 284160, Note_on_c, 0, 64, 64
2, 284615, Note_on_c, 0, 64, 0
2, 284640, Note_on_c, 0, 64, 64
2, 285095, Note_on_c, 0, 64, 0
2, 285120, Note_on_c, 0, 65, 64
2, 285575, Note_on_c, 0, 65, 0
2, 285600, Note_on_c, 0, 65, 64
2, 286055, Note_on_c, 0, 65, 0
2, 286080, Note_on_c, 0, 65, 64
2, 286535, Note_on_c, 0, 65, 0
2, 286560, Note_on_c, 0, 65, 64
2, 287015, Note_on_c, 0, 65, 0
2, 287040, Note_on_c, 0, 64, 64
2, 287495, Note_on_c, 0, 64, 0
2, 287520, Note_on_c, 0, 64, 64
2, 287975, Note_on_c, 0, 64, 0
2, 288000, Note_on_c, 0, 64, 64
2, 288455, Note_on_c, 0, 64, 0
2, 288480, Note_on_c, 0, 64, 64
2, 288935, Note_on_c, 0, 64, 0
2, 288960, Note_on_c, 0, 65, 64
2, 289415, Note_on_c, 0, 65, 0
2, 289440, Note_on_c, 0, 65, 64
2, 289895, Note_on_c, 0, 65, 0
2, 289920, Note_on_c, 0, 65, 64
2, 290375, Note_on_c, 0, 65, 0
2, 290400, Note_on_c, 0, 65, 64
2, 290627, Note_on_c, 0, 65, 0
2, 290640, Note_on_c, 0, 40, 64
2, 290867, Note_on_c, 0, 40, 0
2, 290880, Note_on_c, 0, 64, 64
2, 290880, Note_on_c, 0, 67, 64
2, 290881, Control_c, 0, 64, 0
2, 290882, Control_c, 0, 64, 127
2, 291335, Note_on_c, 0, 64, 0
2, 291335, Note_on_c, 0, 67, 0
2, 291360, Note_on_c, 0, 67, 64
2, 291815, Note_on_c, 0, 67, 0
2, 291840, Note_on_c, 0, 64, 64
2, 291840, Note_on_c, 0, 67, 64
2, 292295, Note_on_c, 0, 64, 0
2, 292295, Note_on_c, 0, 67, 0
2, 292320, Note_on_c, 0, 67, 64
2, 292775, Note_on_c, 0, 67, 0
2, 292800, Note_on_c, 0, 65, 64
2, 292800, Note_on_c, 0, 69, 64
2, 293255, Note_on_c, 0, 65, 0
2, 293255, Note_on_c, 0, 69, 0
2, 293280, Note_on_c, 0, 69, 64
2, 293735, Note_on_c, 0, 69, 0
2, 293760, Note_on_c, 0, 65, 64
2, 293760, Note_on_c, 0, 69, 64
2, 294215, Note_on_c, 0, 65, 0
2, 294215, Note_on_c, 0, 69, 0
2, 294240, Note_on_c, 0, 69, 64
2, 294695, Note_on_c, 0, 69, 0
2, 294720, Note_on_c, 0, 64, 64
2, 294720, Note_on_c, 0, 67, 64
2, 295175, Note_on_c, 0, 64, 0
2, 295175, Note_on_c, 0, 67, 0
2, 295200, Note_on_c, 0, 67, 64
2, 295655, Note_on_c, 0, 67, 0
2, 295680, Note_on_c, 0, 64, 64
2, 295680, Note_on_c, 0, 67, 64
2, 296135, Note_on_c, 0, 64, 0
2, 296135, Note_on_c, 0, 67, 0
2, 296160, Note_on_c, 0, 67, 64
2, 296615, Note_on_c, 0, 67, 0
2, 296640, Note_on_c, 0, 65, 64
2, 296640, Note_on_c, 0, 69, 64
2, 297095, Note_on_c, 0, 65, 0
2, 297095, Note_on_c, 0, 69, 0
2, 297120, Note_on_c, 0, 69, 64
2, 297575, Note_on_c, 0, 69, 0
2, 297600, Note_on_c, 0, 65, 64
2, 297600, Note_on_c, 0, 69, 64
2, 298055, Note_on_c, 0, 65, 0
2, 298055, Note_on_c, 0, 69, 0
2, 298080, Note_on_c, 0, 69, 64
2, 298307, Note_on_c, 0, 69, 0
2, 298320, Note_on_c, 0, 40, 64
2, 298547, Note_on_c, 0, 40, 0
2, 298560, Note_on_c, 0, 67, 64
2, 298560, Note_on_c, 0, 71, 64
2, 298561, Control_c, 0, 64, 0
2, 298562, Control_c, 0, 64, 127
2, 299015, Note_on_c, 0, 67, 0
2, 299015, Note_on_c, 0, 71, 0
2, 299040, Note_on_c, 0, 71, 64
2, 299495, Note_on_c, 0, 71, 0
2, 299520, Note_on_c, 0, 67, 64
2, 299520, Note_on_c, 0, 71, 64
2, 299975, Note_on_c, 0, 67, 0
2, 299975, Note_on_c, 0, 71, 0
2, 300000, Note_on_c, 0, 71, 64
2, 300455, Note_on_c, 0, 71, 0
2, 300480, Note_on_c, 0, 69, 64
2, 300480, Note_on_c, 0, 72, 64
2, 300935, Note_on_c, 0, 69, 0
2, 300935, Note_on_c, 0, 72, 0
2, 300960, Note_on_c, 0, 72, 64
2, 301415, Note_on_c, 0, 72, 0
2, 301440, Note_on_c, 0, 69, 64
2, 301440, Note_on_c, 0, 72, 64
2, 301895, Note_on_c, 0, 69, 0
2, 301895, Note_on_c, 0, 72, 0
2, 301920, Note_on_c, 0, 72, 64
2, 302375, Note_on_c, 0, 72, 0
2, 302400, Note_on_c, 0, 67, 64
2, 302400, Note_on_c, 0, 71, 64
2, 302855, Note_on_c, 0, 67, 0
2, 302855, Note_on_c, 0, 71, 0
2, 302880, Note_on_c, 0, 71, 64
2, 303335, Note_on_c, 0, 71, 0
2, 303360, Note_on_c, 0, 67, 64
2, 303360, Note_on_c, 0, 71, 64
2, 303815, Note_on_c, 0, 67, 0
2, 303815, Note_on_c, 0, 71, 0
2, 303840, Note_on_c, 0, 71, 64
2, 304295, Note_on_c, 0, 71, 0
2, 304320, Note_on_c, 0, 69, 64
2, 304320, Note_on_c, 0, 72, 64
2, 304775, Note_on_c, 0, 69, 0
2, 304775, Note_on_c, 0, 72, 0
2, 304800, Note_on_c, 0, 72, 64
2, 305255, Note_on_c, 0, 72, 0
2, 305280, Note_on_c, 0, 69, 64
2, 305280, Note_on_c, 0, 72, 64
2, 305735, Note_on_c, 0, 69, 0
2, 305735, Note_on_c, 0, 72, 0
2, 305760, Note_on_c, 0, 72, 64
2, 305987, Note_on_c, 0, 72, 0
2, 306000, Note_on_c, 0, 40, 64
2, 306227, Note_on_c, 0, 40, 0
2, 306240, Note_on_c, 0, 71, 64
2, 306240, Note_on_c, 0, 74, 64
2, 306241, Control_c, 0, 64, 0
2, 306242, Control_c, 0, 64, 127
2, 306695, Note_on_c, 0, 71, 0
2, 306695, Note_on_c, 0, 74, 0
2, 306720, Note_on_c, 0, 74, 64
2, 307175, Note_on_c, 0, 74, 0
2, 307200, Note_on_c, 0, 71, 64
2, 307200, Note_on_c, 0, 74, 64
2, 307655, Note_on_c, 0, 71, 0
2, 307655, Note_on_c, 0, 74, 0
2, 307680, Note_on_c, 0, 74, 64
2, 308135, Note_on_c, 0, 74, 0
2, 308160, Note_on_c, 0, 64, 64
2, 308161, Control_c, 0, 64, 0
2, 308162, Control_c, 0, 64, 127
2, 308615, Note_on_c, 0, 64, 0
2, 308640, Note_on_c, 0, 64, 64
2, 309095, Note_on_c, 0, 64, 0
2, 309120, Note_on_c, 0, 64, 64
2, 309575, Note_on_c, 0, 64, 0
2, 309600, Note_on_c, 0, 64, 64
2, 310055, Note_on_c, 0, 64, 0
2, 310080, Note_on_c, 0, 65, 64
2, 310081, Control_c, 0, 64, 0
2, 310082, Control_c, 0, 64, 127
2, 310535, Note_on_c, 0, 65, 0
2, 310560, Note_on_c, 0, 65, 64
2, 311015, Note_on_c, 0, 65, 0
2, 311040, Note_on_c, 0, 65, 64
2, 311495, Note_on_c, 0, 65, 0
2, 311520, Note_on_c, 0, 65, 64
2, 311975, Note_on_c, 0, 65, 0
2, 312000, Note_on_c, 0, 64, 64
2, 312000, Note_on_c, 0, 67, 64
2, 312001, Control_c, 0, 64, 0
2, 312002, Control_c, 0, 64, 127
2, 312455, Note_on_c, 0, 64, 0
2, 312455, Note_on_c, 0, 67, 0
2, 312480, Note_on_c, 0, 64, 64
2, 312480, Note_on_c, 0, 67, 64
2, 312935, Note_on_c, 0, 64, 0
2, 312935, Note_on_c, 0, 67, 0
2, 312960, Note_on_c, 0, 64, 64
2, 312960, Note_on_c, 0, 67, 64
2, 313415, Note_on_c, 0, 64, 0
2, 313415, Note_on_c, 0, 67, 0
2, 313440, Note_on_c, 0, 64, 64
2, 313440, Note_on_c, 0, 67, 64
2, 313895, Note_on_c, 0, 64, 0
2, 313895, Note_on_c, 0, 67, 0
2, 313920, Note_on_c, 0, 65, 64
2, 313920, Note_on_c, 0, 69, 64
2, 313921, Control_c, 0, 64, 0
2, 313922, Control_c, 0, 64, 127
2, 314375, Note_on_c, 0, 65, 0
2, 314375, Note_on_c, 0, 69, 0
2, 314400, Note_on_c, 0, 65, 64
2, 314400, Note_on_c, 0, 69, 64
2, 314855, Note_on_c, 0, 65, 0
2, 314855, Note_on_c, 0, 69, 0
2, 314880, Note_on_c, 0, 65, 64
2, 314880, Note_on_c, 0, 69, 64
2, 315335, Note_on_c, 0, 65, 0
2, 315335, Note_on_c, 0, 69, 0
2, 315360, Note_on_c, 0, 65, 64
2, 315360, Note_on_c, 0, 69, 64
2, 315815, Note_on_c, 0, 65, 0
2, 315815, Note_on_c, 0, 69, 0
2, 315840, Note_on_c, 0, 64, 64
2, 315840, Note_on_c, 0, 67, 64
2, 315841, Control_c, 0, 64, 0
2, 315842, Control_c, 0, 64, 127
2, 316295, Note_on_c, 0, 64, 0
2, 316295, Note_on_c, 0, 67, 0
2, 316320, Note_on_c, 0, 64, 64
2, 316320, Note_on_c, 0, 67, 64
2, 316775, Note_on_c, 0, 64, 0
2, 316775, Note_on_c, 0, 67, 0
2, 316800, Note_on_c, 0, 64, 64
2, 316800, Note_on_c, 0, 67, 64
2, 317255, Note_on_c, 0, 64, 0
2, 317255, Note_on_c, 0, 67, 0
2, 317280, Note_on_c, 0, 64, 64
2, 317280, Note_on_c, 0, 67, 64
2, 317735, Note_on_c, 0, 64, 0
2, 317735, Note_on_c, 0, 67, 0
2, 317760, Note_on_c, 0, 65, 64
2, 317760, Note_on_c, 0, 69, 64
2, 317761, Control_c, 0, 64, 0
2, 317762, Control_c, 0, 64, 127
2, 318215, Note_on_c, 0, 65, 0
2, 318215, Note_on_c, 0, 69, 0
2, 318240, Note_on_c, 0, 65, 64
2, 318240, Note_on_c, 0, 69, 64
2, 318695, Note_on_c, 0, 65, 0
2, 318695, Note_on_c, 0, 69, 0
2, 318720, Note_on_c, 0, 65, 64
2, 318720, Note_on_c, 0, 69, 64
2, 319175, Note_on_c, 0, 65, 0
2, 319175, Note_on_c, 0, 69, 0
2, 319200, Note_on_c, 0, 65, 64
2, 319200, Note_on_c, 0, 69, 64
2, 319655, Note_on_c, 0, 65, 0
2, 319655, Note_on_c, 0, 69, 0
2, 319680, Note_on_c, 0, 67, 64
2, 319680, Note_on_c, 0, 71, 64
2, 319681, Control_c, 0, 64, 0
2, 319682, Control_c, 0, 64, 127
2, 320135, Note_on_c, 0, 67, 0
2, 320135, Note_on_c, 0, 71, 0
2, 320160, Note_on_c, 0, 67, 64
2, 320160, Note_on_c, 0, 71, 64
2, 320615, Note_on_c, 0, 67, 0
2, 320615, Note_on_c, 0, 71, 0
2, 320640, Note_on_c, 0, 67, 64
2, 320640, Note_on_c, 0, 71, 64
2, 321095, Note_on_c, 0, 67, 0
2, 321095, Note_on_c, 0, 71, 0
2, 321120, Note_on_c, 0, 67, 64
2, 321120, Note_on_c, 0, 71, 64
2, 321575, Note_on_c, 0, 67, 0
2, 321575, Note_on_c, 0, 71, 0
2, 321600, Note_on_c, 0, 69, 64
2, 321600, Note_on_c, 0, 72, 64
2, 321601, Control_c, 0, 64, 0
2, 321602, Control_c, 0, 64, 127
2, 322055, Note_on_c, 0, 69, 0
2, 322055, Note_on_c, 0, 72, 0
2, 322080, Note_on_c, 0, 69, 64
2, 322080, Note_on_c, 0, 72, 64
2, 322535, Note_on_c, 0, 69, 0
2, 322535, Note_on_c, 0, 72, 0
2, 322560, Note_on_c, 0, 69, 64
2, 322560, Note_on_c, 0, 72, 64
2, 323015, Note_on_c, 0, 69, 0
2, 323015, Note_on_c, 0, 72, 0
2, 323040, Note_on_c, 0, 69, 64
2, 323040, Note_on_c, 0, 72, 64
2, 323495, Note_on_c, 0, 69, 0
2, 323495, Note_on_c, 0, 72, 0
2, 323520, Note_on_c, 0, 67, 64
2, 323520, Note_on_c, 0, 71, 64
2, 323521, Control_c, 0, 64, 0
2, 323522, Control_c, 0, 64, 127
2, 323975, Note_on_c, 0, 67, 0
2, 323975, Note_on_c, 0, 71, 0
2, 324000, Note_on_c, 0, 67, 64
2, 324000, Note_on_c, 0, 71, 64
2, 324455, Note_on_c, 0, 67, 0
2, 324455, Note_on_c, 0, 71, 0
2, 324480, Note_on_c, 0, 67, 64
2, 324480, Note_on_c, 0, 71, 64
2, 324935, Note_on_c, 0, 67, 0
2, 324935, Note_on_c, 0, 71, 0
2, 324960, Note_on_c, 0, 67, 64
2, 324960, Note_on_c, 0, 71, 64
2, 325415, Note_on_c, 0, 67, 0
2, 325415, Note_on_c, 0, 71, 0
2, 325440, Note_on_c, 0, 69, 64
2, 325440, Note_on_c, 0, 72, 64
2, 325441, Control_c, 0, 64, 0
2, 325442, Control_c, 0, 64, 127
2, 325895, Note_on_c, 0, 69, 0
2, 325895, Note_on_c, 0, 72, 0
2, 325920, Note_on_c, 0, 69, 64
2, 325920, Note_on_c, 0, 72, 64
2, 326375, Note_on_c, 0, 69, 0
2, 326375, Note_on_c, 0, 72, 0
2, 326400, Note_on_c, 0, 69, 64
2, 326400, Note_on_c, 0, 72, 64
2, 326855, Note_on_c, 0, 69, 0
2, 326855, Note_on_c, 0, 72, 0
2, 326880, Note_on_c, 0, 69, 64
2, 326880, Note_on_c, 0, 72, 64
2, 327335, Note_on_c, 0, 69, 0
2, 327335, Note_on_c, 0, 72, 0
2, 327360, Note_on_c, 0, 71, 64
2, 327360, Note_on_c, 0, 74, 64
2, 327361, Control_c, 0, 64, 0
2, 327362, Control_c, 0, 64, 127
2, 327815, Note_on_c, 0, 71, 0
2, 327815, Note_on_c, 0, 74, 0
2, 327840, Note_on_c, 0, 71, 64
2, 327840, Note_on_c, 0, 74, 64
2, 328295, Note_on_c, 0, 71, 0
2, 328295, Note_on_c, 0, 74, 0
2, 328320, Note_on_c, 0, 71, 64
2, 328320, Note_on_c, 0, 74, 64
2, 328775, Note_on_c, 0, 71, 0
2, 328775, Note_on_c, 0, 74, 0
2, 328800, Note_on_c, 0, 71, 64
2, 328800, Note_on_c, 0, 74, 64
2, 329255, Note_on_c, 0, 71, 0
2, 329255, Note_on_c, 0, 74, 0
2, 329280, Note_on_c, 0, 69, 64
2, 329280, Note_on_c, 0, 72, 64
2, 329281, Control_c, 0, 64, 0
2, 329282, Control_c, 0, 64, 127
2, 329735, Note_on_c, 0, 69, 0
2, 329735, Note_on_c, 0, 72, 0
2, 329760, Note_on_c, 0, 69, 64
2, 329760, Note_on_c, 0, 72, 64
2, 330215, Note_on_c, 0, 69, 0
2, 330215, Note_on_c, 0, 72, 0
2, 330240, Note_on_c, 0, 69, 64
2, 330240, Note_on_c, 0, 72, 64
2, 330695, Note_on_c, 0, 69, 0
2, 330695, Note_on_c, 0, 72, 0
2, 330720, Note_on_c, 0, 69, 64
2, 330720, Note_on_c, 0, 72, 64
2, 331175, Note_on_c, 0, 69, 0
2, 331175, Note_on_c, 0, 72, 0
2, 331200, Note_on_c, 0, 71, 64
2, 331200, Note_on_c, 0, 74, 64
2, 331201, Control_c, 0, 64, 0
2, 331202, Control_c, 0, 64, 127
2, 331655, Note_on_c, 0, 71, 0
2, 331655, Note_on_c, 0, 74, 0
2, 331680, Note_on_c, 0, 71, 64
2, 331680, Note_on_c, 0, 74, 64
2, 332135, Note_on_c, 0, 71, 0
2, 332135, Note_on_c, 0, 74, 0
2, 332160, Note_on_c, 0, 71, 64
2, 332160, Note_on_c, 0, 74, 64
2, 332615, Note_on_c, 0, 71, 0
2, 332615, Note_on_c, 0, 74, 0
2, 332640, Note_on_c, 0, 71, 64
2, 332640, Note_on_c, 0, 74, 64
2, 333095, Note_on_c, 0, 71, 0
2, 333095, Note_on_c, 0, 74, 0
2, 333120, Note_on_c, 0, 29, 64
2, 333120, Note_on_c, 0, 41, 64
2, 333121, Control_c, 0, 64, 0
2, 333122, Control_c, 0, 64, 127
2, 333575, Note_on_c, 0, 29, 0
2, 333575, Note_on_c, 0, 41, 0
2, 333600, Note_on_c, 0, 48, 64
2, 334055, Note_on_c, 0, 48, 0
2, 334080, Note_on_c, 0, 53, 64
2, 334080, Note_on_c, 0, 57, 64
2, 334535, Note_on_c, 0, 53, 0
2, 334535, Note_on_c, 0, 57, 0
2, 334560, Note_on_c, 0, 45, 64
2, 335015, Note_on_c, 0, 45, 0
2, 335040, Note_on_c, 0, 31, 64
2, 335040, Note_on_c, 0, 43, 64
2, 335041, Control_c, 0, 64, 0
2, 335042, Control_c, 0, 64, 127
2, 335495, Note_on_c, 0, 31, 0
2, 335495, Note_on_c, 0, 43, 0
2, 335520, Note_on_c, 0, 50, 64
2, 335975, Note_on_c, 0, 50, 0
2, 336000, Note_on_c, 0, 55, 64
2, 336000, Note_on_c, 0, 59, 64
2, 336455, Note_on_c, 0, 55, 0
2, 336455, Note_on_c, 0, 59, 0
2, 336480, Note_on_c, 0, 47, 64
2, 336935, Note_on_c, 0, 47, 0
2, 336960, Note_on_c, 0, 33, 64
2, 336960, Note_on_c, 0, 45, 64
2, 336961, Control_c, 0, 64, 0
2, 336962, Control_c, 0, 64, 127
2, 337415, Note_on_c, 0, 33, 0
2, 337415, Note_on_c, 0, 45, 0
2, 337440, Note_on_c, 0, 52, 64
2, 337895, Note_on_c, 0, 52, 0
2, 337920, Note_on_c, 0, 57, 64
2, 337920, Note_on_c, 0, 60, 64
2, 338375, Note_on_c, 0, 57, 0
2, 338375, Note_on_c, 0, 60, 0
2, 338400, Note_on_c, 0, 48, 64
2, 338855, Note_on_c, 0, 48, 0
2, 338880, Note_on_c, 0, 31, 64
2, 338880, Note_on_c, 0, 43, 64
2, 338881, Control_c, 0, 64, 0
2, 338882, Control_c, 0, 64, 127
2, 339335, Note_on_c, 0, 31, 0
2, 339335, Note_on_c, 0, 43, 0
2, 339360, Note_on_c, 0, 50, 64
2, 339815, Note_on_c, 0, 50, 0
2, 339840, Note_on_c, 0, 55, 64
2, 339840, Note_on_c, 0, 59, 64
2, 340295, Note_on_c, 0, 55, 0
2, 340295, Note_on_c, 0, 59, 0
2, 340320, Note_on_c, 0, 47, 64
2, 340775, Note_on_c, 0, 47, 0
2, 340800, Note_on_c, 0, 29, 64
2, 340800, Note_on_c, 0, 41, 64
2, 340801, Control_c, 0, 64, 0
2, 340802, Control_c, 0, 64, 127
2, 341255, Note_on_c, 0, 29, 0
2, 341255, Note_on_c, 0, 41, 0
2, 341280, Note_on_c, 0, 48, 64
2, 341735, Note_on_c, 0, 48, 0
2, 341760, Note_on_c, 0, 53, 64
2, 341760, Note_on_c, 0, 57, 64
2, 342215, Note_on_c, 0, 53, 0
2, 342215, Note_on_c, 0, 57, 0
2, 342240, Note_on_c, 0, 45, 64
2, 342695, Note_on_c, 0, 45, 0
2, 342720, Note_on_c, 0, 31, 64
2, 342720, Note_on_c, 0, 43, 64
2, 342721, Control_c, 0, 64, 0
2, 342722, Control_c, 0, 64, 127
2, 343175, Note_on_c, 0, 31, 0
2, 343175, Note_on_c, 0, 43, 0
2, 343200, Note_on_c, 0, 50, 64
2, 343655, Note_on_c, 0, 50, 0
2, 343680, Note_on_c, 0, 55, 64
2, 343680, Note_on_c, 0, 59, 64
2, 344135, Note_on_c, 0, 55, 0
2, 344135, Note_on_c, 0, 59, 0
2, 344160, Note_on_c, 0, 47, 64
2, 344615, Note_on_c, 0, 47, 0
2, 344640, Note_on_c, 0, 33, 64
2, 344640, Note_on_c, 0, 45, 64
2, 344641, Control_c, 0, 64, 0
2, 344642, Control_c, 0, 64, 127
2, 345095, Note_on_c, 0, 33, 0
2, 345095, Note_on_c, 0, 45, 0
2, 345120, Note_on_c, 0, 52, 64
2, 345575, Note_on_c, 0, 52, 0
2, 345600, Note_on_c, 0, 57, 64
2, 345600, Note_on_c, 0, 60, 64
2, 346055, Note_on_c, 0, 57, 0
2, 346055, Note_on_c, 0, 60, 0
2, 346080, Note_on_c, 0, 48, 64
2, 346535, Note_on_c, 0, 48, 0
2, 346560, Note_on_c, 0, 31, 64
2, 346560, Note_on_c, 0, 43, 64
2, 346561, Control_c, 0, 64, 0
2, 346562, Control_c, 0, 64, 127
2, 347015, Note_on_c, 0, 31, 0
2, 347015, Note_on_c, 0, 43, 0
2, 347040, Note_on_c, 0, 50, 64
2, 347495, Note_on_c, 0, 50, 0
2, 347520, Note_on_c, 0, 55, 64
2, 347520, Note_on_c, 0, 59, 64
2, 347975, Note_on_c, 0, 55, 0
2, 347975, Note_on_c, 0, 59, 0
2, 348000, Note_on_c, 0, 47, 64
2, 348455, Note_on_c, 0, 47, 0
2, 348480, Note_on_c, 0, 29, 64
2, 348480, Note_on_c, 0, 41, 64
2, 348481, Control_c, 0, 64, 0
2, 348482, Control_c, 0, 64, 127
2, 348935, Note_on_c, 0, 29, 0
2, 348935, Note_on_c, 0, 41, 0
2, 348960, Note_on_c, 0, 48, 67
2, 349415, Note_on_c, 0, 48, 0
2, 349440, Note_on_c, 0, 53, 70
2, 349440, Note_on_c, 0, 57, 70
2, 349895, Note_on_c, 0, 53, 0
2, 349895, Note_on_c, 0, 57, 0
2, 349920, Note_on_c, 0, 45, 73
2, 350375, Note_on_c, 0, 45, 0
2, 350400, Note_on_c, 0, 31, 76
2, 350400, Note_on_c, 0, 43, 76
2, 350401, Control_c, 0, 64, 0
2, 350402, Control_c, 0, 64, 127
2, 350855, Note_on_c, 0, 31, 0
2, 350855, Note_on_c, 0, 43, 0
2, 350880, Note_on_c, 0, 50, 79
2, 351335, Note_on_c, 0, 50, 0
2, 351360, Note_on_c, 0, 55, 82
2, 351360, Note_on_c, 0, 59, 82
2, 351815, Note_on_c, 0, 55, 0
2, 351815, Note_on_c, 0, 59, 0
2, 351840, Note_on_c, 0, 47, 85
2, 352295, Note_on_c, 0, 47, 0
2, 352320, Note_on_c, 0, 33, 88
2, 352320, Note_on_c, 0, 45, 88
2, 352321, Control_c, 0, 64, 0
2, 352322, Control_c, 0, 64, 127
2, 352775, Note_on_c, 0, 33, 0
2, 352775, Note_on_c, 0, 45, 0
2, 352800, Note_on_c, 0, 52, 91
2, 353255, Note_on_c, 0, 52, 0
2, 353280, Note_on_c, 0, 57, 94
2, 353280, Note_on_c, 0, 60, 94
2, 353735, Note_on_c, 0, 57, 0
2, 353735, Note_on_c, 0, 60, 0
2, 353760, Note_on_c, 0, 48, 97
2, 354215, Note_on_c, 0, 48, 0
2, 354240, Note_on_c, 0, 35, 100
2, 354240, Note_on_c, 0, 47, 100
2, 354241, Control_c, 0, 64, 0
2, 354242, Control_c, 0, 64, 127
2, 354695, Note_on_c, 0, 35, 0
2, 354695, Note_on_c, 0, 47, 0
2, 354720, Note_on_c, 0, 50, 103
2, 355175, Note_on_c, 0, 50, 0
2, 355200, Note_on_c, 0, 59, 106
2, 355200, Note_on_c, 0, 62, 106
2, 355655, Note_on_c, 0, 59, 0
2, 355655, Note_on_c, 0, 62, 0
2, 355680, Note_on_c, 0, 43, 109
2, 356135, Note_on_c, 0, 43, 0
2, 356160, Note_on_c, 0, 29, 112
2, 356160, Note_on_c, 0, 41, 112
2, 356161, Control_c, 0, 64, 0
2, 356162, Control_c, 0, 64, 127
2, 356615, Note_on_c, 0, 29, 0
2, 356615, Note_on_c, 0, 41, 0
2, 356640, Note_on_c, 0, 41, 112
2, 356791, Note_on_c, 0, 41, 0
2, 356800, Note_on_c, 0, 48, 112
2, 356951, Note_on_c, 0, 48, 0
2, 356960, Note_on_c, 0, 53, 112
2, 357111, Note_on_c, 0, 53, 0
2, 357120, Note_on_c, 0, 48, 112
2, 357271, Note_on_c, 0, 48, 0
2, 357280, Note_on_c, 0, 41, 112
2, 357431, Note_on_c, 0, 41, 0
2, 357440, Note_on_c, 0, 48, 112
2, 357591, Note_on_c, 0, 48, 0
2, 357600, Note_on_c, 0, 53, 112
2, 357751, Note_on_c, 0, 53, 0
2, 357760, Note_on_c, 0, 48, 112
2, 357911, Note_on_c, 0, 48, 0
2, 357920, Note_on_c, 0, 41, 112
2, 358071, Note_on_c, 0, 41, 0
2, 358080, Note_on_c, 0, 29, 112
2, 358080, Note_on_c, 0, 41, 112
2, 358535, Note_on_c, 0, 29, 0
2, 358535, Note_on_c, 0, 41, 0
2, 358560, Note_on_c, 0, 41, 112
2, 358711, Note_on_c, 0, 41, 0
2, 358720, Note_on_c, 0, 48, 112
2, 358871, Note_on_c, 0, 48, 0
2, 358880, Note_on_c, 0, 53, 112
2, 359031, Note_on_c, 0, 53, 0
2, 359040, Note_on_c, 0, 48, 112
2, 359191, Note_on_c, 0, 48, 0
2, 359200, Note_on_c, 0, 41, 112
2, 359351, Note_on_c, 0, 41, 0
2, 359360, Note_on_c, 0, 48, 112
2, 359511, Note_on_c, 0, 48, 0
2, 359520, Note_on_c, 0, 53, 112
2, 359671, Note_on_c, 0, 53, 0
2, 359680, Note_on_c, 0, 48, 112
2, 359831, Note_on_c, 0, 48, 0
2, 359840, Note_on_c, 0, 41, 112
2, 359991, Note_on_c, 0, 41, 0
2, 360000, Note_on_c, 0, 29, 112
2, 360000, Note_on_c, 0, 41, 112
2, 360455, Note_on_c, 0, 29, 0
2, 360455, Note_on_c, 0, 41, 0
2, 360480, Note_on_c, 0, 41, 112
2, 360631, Note_on_c, 0, 41, 0
2, 360640, Note_on_c, 0, 48, 112
2, 360791, Note_on_c, 0, 48, 0
2, 360800, Note_on_c, 0, 53, 112
2, 360951, Note_on_c, 0, 53, 0
2, 360960, Note_on_c, 0, 48, 112
2, 361111, Note_on_c, 0, 48, 0
2, 361120, Note_on_c, 0, 41, 112
2, 361271, Note_on_c, 0, 41, 0
2, 361280, Note_on_c, 0, 48, 112
2, 361431, Note_on_c, 0, 48, 0
2, 361440, Note_on_c, 0, 53, 112
2, 361591, Note_on_c, 0, 53, 0
2, 361600, Note_on_c, 0, 48, 112
2, 361751, Note_on_c, 0, 48, 0
2, 361760, Note_on_c, 0, 41, 112
2, 361911, Note_on_c, 0, 41, 0
2, 361920, Note_on_c, 0, 29, 112
2, 361920, Note_on_c, 0, 41, 112
2, 362375, Note_on_c, 0, 29, 0
2, 362375, Note_on_c, 0, 41, 0
2, 362400, Note_on_c, 0, 41, 112
2, 362551, Note_on_c, 0, 41, 0
2, 362560, Note_on_c, 0, 48, 112
2, 362711, Note_on_c, 0, 48, 0
2, 362720, Note_on_c, 0, 53, 112
2, 362871, Note_on_c, 0, 53, 0
2, 362880, Note_on_c, 0, 48, 112
2, 363031, Note_on_c, 0, 48, 0
2, 363040, Note_on_c, 0, 41, 112
2, 363191, Note_on_c, 0, 41, 0
2, 363200, Note_on_c, 0, 48, 112
2, 363351, Note_on_c, 0, 48, 0
2, 363360, Note_on_c, 0, 53, 112
2, 363511, Note_on_c, 0, 53, 0
2, 363520, Note_on_c, 0, 48, 112
2, 363671, Note_on_c, 0, 48, 0
2, 363680, Note_on_c, 0, 41, 112
2, 363831, Note_on_c, 0, 41, 0
2, 363840, Note_on_c, 0, 31, 112
2, 363840, Note_on_c, 0, 43, 112
2, 363841, Control_c, 0, 64, 0
2, 363842, Control_c, 0, 64, 127
2, 364295, Note_on_c, 0, 31, 0
2, 364295, Note_on_c, 0, 43, 0
2, 364320, Note_on_c, 0, 43, 112
2, 364471, Note_on_c, 0, 43, 0
2, 364480, Note_on_c, 0, 52, 112
2, 364631, Note_on_c, 0, 52, 0
2, 364640, Note_on_c, 0, 55, 112
2, 364791, Note_on_c, 0, 55, 0
2, 364800, Note_on_c, 0, 52, 112
2, 364951, Note_on_c, 0, 52, 0
2, 364960, Note_on_c, 0, 43, 112
2, 365111, Note_on_c, 0, 43, 0
2, 365120, Note_on_c, 0, 52, 112
2, 365271, Note_on_c, 0, 52, 0
2, 365280, Note_on_c, 0, 55, 112
2, 365431, Note_on_c, 0, 55, 0
2, 365440, Note_on_c, 0, 52, 112
2, 365591, Note_on_c, 0, 52, 0
2, 365600, Note_on_c, 0, 43, 112
2, 365751, Note_on_c, 0, 43, 0
2, 365760, Note_on_c, 0, 31, 112
2, 365760, Note_on_c, 0, 43, 112
2, 366215, Note_on_c, 0, 31, 0
2, 366215, Note_on_c, 0, 43, 0
2, 366240, Note_on_c, 0, 43, 112
2, 366391, Note_on_c, 0, 43, 0
2, 366400, Note_on_c, 0, 52, 112
2, 366551, Note_on_c, 0, 52, 0
2, 366560, Note_on_c, 0, 55, 112
2, 366711, Note_on_c, 0, 55, 0
2, 366720, Note_on_c, 0, 52, 112
2, 366871, Note_on_c, 0, 52, 0
2, 366880, Note_on_c, 0, 43, 112
2, 367031, Note_on_c, 0, 43, 0
2, 367040, Note_on_c, 0, 52, 112
2, 367191, Note_on_c, 0, 52, 0
2, 367200, Note_on_c, 0, 55, 112
2, 367351, Note_on_c, 0, 55, 0
2, 367360, Note_on_c, 0, 52, 112
2, 367511, Note_on_c, 0, 52, 0
2, 367520, Note_on_c, 0, 43, 112
2, 367671, Note_on_c, 0, 43, 0
2, 367680, Note_on_c, 0, 31, 112
2, 367680, Note_on_c, 0, 43, 112
2, 368135, Note_on_c, 0, 31, 0
2, 368135, Note_on_c, 0, 43, 0
2, 368160, Note_on_c, 0, 43, 112
2, 368311, Note_on_c, 0, 43, 0
2, 368320, Note_on_c, 0, 52, 112
2, 368471, Note_on_c, 0, 52, 0
2, 368480, Note_on_c, 0, 55, 112
2, 368631, Note_on_c, 0, 55, 0
2, 368640, Note_on_c, 0, 52, 112
2, 368791, Note_on_c, 0, 52, 0
2, 368800, Note_on_c, 0, 43, 112
2, 368951, Note_on_c, 0, 43, 0
2, 368960, Note_on_c, 0, 52, 112
2, 369111, Note_on_c, 0, 52, 0
2, 369120, Note_on_c, 0, 55, 112
2, 369271, Note_on_c, 0, 55, 0
2, 369280, Note_on_c, 0, 52, 112
2, 369431, Note_on_c, 0, 52, 0
2, 369440, Note_on_c, 0, 43, 112
2, 369591, Note_on_c, 0, 43, 0
2, 369600, Note_on_c, 0, 31, 112
2, 369600, Note_on_c, 0, 43, 112
2, 370055, Note_on_c, 0, 31, 0
2, 370055, Note_on_c, 0, 43, 0
2, 370080, Note_on_c, 0, 43, 112
2, 370231, Note_on_c, 0, 43, 0
2, 370240, Note_on_c, 0, 52, 112
2, 370391, Note_on_c, 0, 52, 0
2, 370400, Note_on_c, 0, 55, 112
2, 370551, Note_on_c, 0, 55, 0
2, 370560, Note_on_c, 0, 52, 112
2, 370711, Note_on_c, 0, 52, 0
2, 370720, Note_on_c, 0, 43, 112
2, 370871, Note_on_c, 0, 43, 0
2, 370880, Note_on_c, 0, 52, 112
2, 371031, Note_on_c, 0, 52, 0
2, 371040, Note_on_c, 0, 55, 112
2, 371191, Note_on_c, 0, 55, 0
2, 371200, Note_on_c, 0, 52, 112
2, 371351, Note_on_c, 0, 52, 0
2, 371360, Note_on_c, 0, 43, 112
2, 371511, Note_on_c, 0, 43, 0
2, 371520, Note_on_c, 0, 33, 112
2, 371520, Note_on_c, 0, 45, 112
2, 371521, Control_c, 0, 64, 0
2, 371522, Control_c, 0, 64, 127
2, 371975, Note_on_c, 0, 33, 0
2, 371975, Note_on_c, 0, 45, 0
2, 372000, Note_on_c, 0, 45, 112
2, 372151, Note_on_c, 0, 45, 0
2, 372160, Note_on_c, 0, 52, 112
2, 372311, Note_on_c, 0, 52, 0
2, 372320, Note_on_c, 0, 57, 112
2, 372471, Note_on_c, 0, 57, 0
2, 372480, Note_on_c, 0, 52, 112
2, 372631, Note_on_c, 0, 52, 0
2, 372640, Note_on_c, 0, 45, 112
2, 372791, Note_on_c, 0, 45, 0
2, 372800, Note_on_c, 0, 52, 112
2, 372951, Note_on_c, 0, 52, 0
2, 372960, Note_on_c, 0, 57, 112
2, 373111, Note_on_c, 0, 57, 0
2, 373120, Note_on_c, 0, 52, 112
2, 373271, Note_on_c, 0, 52, 0
2, 373280, Note_on_c, 0, 45, 112
2, 373431, Note_on_c, 0, 45, 0
2, 373440, Note_on_c, 0, 33, 112
2, 373440, Note_on_c, 0, 45, 112
2, 373895, Note_on_c, 0, 33, 0
2, 373895, Note_on_c, 0, 45, 0
2, 373920, Note_on_c, 0, 45, 112
2, 374071, Note_on_c, 0, 45, 0
2, 374080, Note_on_c, 0, 52, 112
2, 374231, Note_on_c, 0, 52, 0
2, 374240, Note_on_c, 0, 57, 112
2, 374391, Note_on_c, 0, 57, 0
2, 374400, Note_on_c, 0, 52, 112
2, 374551, Note_on_c, 0, 52, 0
2, 374560, Note_on_c, 0, 45, 112
2, 374711, Note_on_c, 0, 45, 0
2, 374720, Note_on_c, 0, 52, 112
2, 374871, Note_on_c, 0, 52, 0
2, 374880, Note_on_c, 0, 57, 112
2, 375031, Note_on_c, 0, 57, 0
2, 375040, Note_on_c, 0, 52, 112
2, 375191, Note_on_c, 0, 52, 0
2, 375200, Note_on_c, 0, 45, 112
2, 375351, Note_on_c, 0, 45, 0
2, 375360, Note_on_c, 0, 29, 112
2, 375360, Note_on_c, 0, 41, 112
2, 375361, Control_c, 0, 64, 0
2, 375362, Control_c, 0, 64, 127
2, 375815, Note_on_c, 0, 29, 0
2, 375815, Note_on_c, 0, 41, 0
2, 375840, Note_on_c, 0, 41, 112
2, 375991, Note_on_c, 0, 41, 0
2, 376000, Note_on_c, 0, 48, 112
2, 376151, Note_on_c, 0, 48, 0
2, 376160, Note_on_c, 0, 53, 112
2, 376311, Note_on_c, 0, 53, 0
2, 376320, Note_on_c, 0, 48, 112
2, 376471, Note_on_c, 0, 48, 0
2, 376480, Note_on_c, 0, 41, 112
2, 376631, Note_on_c, 0, 41, 0
2, 376640, Note_on_c, 0, 48, 112
2, 376791, Note_on_c, 0, 48, 0
2, 376800, Note_on_c, 0, 53, 112
2, 376951, Note_on_c, 0, 53, 0
2, 376960, Note_on_c, 0, 48, 112
2, 377111, Note_on_c, 0, 48, 0
2, 377120, Note_on_c, 0, 41, 112
2, 377271, Note_on_c, 0, 41, 0
2, 377280, Note_on_c, 0, 29, 112
2, 377280, Note_on_c, 0, 41, 112
2, 377735, Note_on_c, 0, 29, 0
2, 377735, Note_on_c, 0, 41, 0
2, 377760, Note_on_c, 0, 41, 112
2, 377911, Note_on_c, 0, 41, 0
2, 377920, Note_on_c, 0, 48, 112
2, 378071, Note_on_c, 0, 48, 0
2, 378080, Note_on_c, 0, 53, 112
2, 378231, Note_on_c, 0, 53, 0
2, 378240, Note_on_c, 0, 48, 112
2, 378391, Note_on_c, 0, 48, 0
2, 378400, Note_on_c, 0, 41, 112
2, 378551, Note_on_c, 0, 41, 0
2, 378560, Note_on_c, 0, 48, 112
2, 378711, Note_on_c, 0, 48, 0
2, 378720, Note_on_c, 0, 53, 112
2, 378871, Note_on_c, 0, 53, 0
2, 378880, Note_on_c, 0, 48, 112
2, 379031, Note_on_c, 0, 48, 0
2, 379040, Note_on_c, 0, 41, 112
2, 379191, Note_on_c, 0, 41, 0
2, 379200, Note_on_c, 0, 31, 112
2, 379200, Note_on_c, 0, 43, 112
2, 379201, Control_c, 0, 64, 0
2, 379202, Control_c, 0, 64, 127
2, 379655, Note_on_c, 0, 31, 0
2, 379655, Note_on_c, 0, 43, 0
2, 379680, Note_on_c, 0, 43, 112
2, 379831, Note_on_c, 0, 43, 0
2, 379840, Note_on_c, 0, 52, 112
2, 379991, Note_on_c, 0, 52, 0
2, 380000, Note_on_c, 0, 55, 112
2, 380151, Note_on_c, 0, 55, 0
2, 380160, Note_on_c, 0, 52, 112
2, 380311, Note_on_c, 0, 52, 0
2, 380320, Note_on_c, 0, 43, 112
2, 380471, Note_on_c, 0, 43, 0
2, 380480, Note_on_c, 0, 52, 112
2, 380631, Note_on_c, 0, 52, 0
2, 380640, Note_on_c, 0, 55, 112
2, 380791, Note_on_c, 0, 55, 0
2, 380800, Note_on_c, 0, 52, 112
2, 380951, Note_on_c, 0, 52, 0
2, 380960, Note_on_c, 0, 43, 112
2, 381111, Note_on_c, 0, 43, 0
2, 381120, Note_on_c, 0, 31, 112
2, 381120, Note_on_c, 0, 43, 112
2, 381575, Note_on_c, 0, 31, 0
2, 381575, Note_on_c, 0, 43, 0
2, 381600, Note_on_c, 0, 43, 112
2, 381751, Note_on_c, 0, 43, 0
2, 381760, Note_on_c, 0, 52, 112
2, 381911, Note_on_c, 0, 52, 0
2, 381920, Note_on_c, 0, 55, 112
2, 382071, Note_on_c, 0, 55, 0
2, 382080, Note_on_c, 0, 52, 112
2, 382231, Note_on_c, 0, 52, 0
2, 382240, Note_on_c, 0, 43, 112
2, 382391, Note_on_c, 0, 43, 0
2, 382400, Note_on_c, 0, 52, 112
2, 382551, Note_on_c, 0, 52, 0
2, 382560, Note_on_c, 0, 55, 112
2, 382711, Note_on_c, 0, 55, 0
2, 382720, Note_on_c, 0, 52, 112
2, 382871, Note_on_c, 0, 52, 0
2, 382880, Note_on_c, 0, 43, 112
2, 383031, Note_on_c, 0, 43, 0
2, 383040, Note_on_c, 0, 33, 112
2, 383040, Note_on_c, 0, 45, 112
2, 383041, Control_c, 0, 64, 0
2, 383042, Control_c, 0, 64, 127
2, 383495, Note_on_c, 0, 33, 0
2, 383495, Note_on_c, 0, 45, 0
2, 383520, Note_on_c, 0, 45, 112
2, 383671, Note_on_c, 0, 45, 0
2, 383680, Note_on_c, 0, 52, 112
2, 383831, Note_on_c, 0, 52, 0
2, 383840, Note_on_c, 0, 57, 112
2, 383991, Note_on_c, 0, 57, 0
2, 384000, Note_on_c, 0, 52, 112
2, 384151, Note_on_c, 0, 52, 0
2, 384160, Note_on_c, 0, 45, 112
2, 384311, Note_on_c, 0, 45, 0
2, 384320, Note_on_c, 0, 52, 112
2, 384471, Note_on_c, 0, 52, 0
2, 384480, Note_on_c, 0, 57, 112
2, 384631, Note_on_c, 0, 57, 0
2, 384640, Note_on_c, 0, 52, 112
2, 384791, Note_on_c, 0, 52, 0
2, 384800, Note_on_c, 0, 45, 112
2, 384951, Note_on_c, 0, 45, 0
2, 384960, Note_on_c, 0, 33, 112
2, 384960, Note_on_c, 0, 45, 112
2, 385415, Note_on_c, 0, 33, 0
2, 385415, Note_on_c, 0, 45, 0
2, 385440, Note_on_c, 0, 45, 112
2, 385591, Note_on_c, 0, 45, 0
2, 385600, Note_on_c, 0, 52, 112
2, 385751, Note_on_c, 0, 52, 0
2, 385760, Note_on_c, 0, 57, 112
2, 385911, Note_on_c, 0, 57, 0
2, 385920, Note_on_c, 0, 52, 112
2, 386071, Note_on_c, 0, 52, 0
2, 386080, Note_on_c, 0, 45, 112
2, 386231, Note_on_c, 0, 45, 0
2, 386240, Note_on_c, 0, 52, 112
2, 386391, Note_on_c, 0, 52, 0
2, 386400, Note_on_c, 0, 57, 112
2, 386551, Note_on_c, 0, 57, 0
2, 386560, Note_on_c, 0, 52, 112
2, 386711, Note_on_c, 0, 52, 0
2, 386720, Note_on_c, 0, 45, 112
2, 386871, Note_on_c, 0, 45, 0
2, 386880, Note_on_c, 0, 31, 112
2, 386880, Note_on_c, 0, 43, 112
2, 386881, Control_c, 0, 64, 0
2, 386882, Control_c, 0, 64, 127
2, 387335, Note_on_c, 0, 31, 0
2, 387335, Note_on_c, 0, 43, 0
2, 387360, Note_on_c, 0, 43, 112
2, 387511, Note_on_c, 0, 43, 0
2, 387520, Note_on_c, 0, 52, 112
2, 387671, Note_on_c, 0, 52, 0
2, 387680, Note_on_c, 0, 55, 112
2, 387831, Note_on_c, 0, 55, 0
2, 387840, Note_on_c, 0, 52, 112
2, 387991, Note_on_c, 0, 52, 0
2, 388000, Note_on_c, 0, 43, 112
2, 388151, Note_on_c, 0, 43, 0
2, 388160, Note_on_c, 0, 52, 112
2, 388311, Note_on_c, 0, 52, 0
2, 388320, Note_on_c, 0, 55, 112
2, 388471, Note_on_c, 0, 55, 0
2, 388480, Note_on_c, 0, 52, 112
2, 388631, Note_on_c, 0, 52, 0
2, 388640, Note_on_c, 0, 43, 112
2, 388791, Note_on_c, 0, 43, 0
2, 388800, Note_on_c, 0, 31, 112
2, 388800, Note_on_c, 0, 43, 112
2, 389255, Note_on_c, 0, 31, 0
2, 389255, Note_on_c, 0, 43, 0
2, 389280, Note_on_c, 0, 43, 112
2, 389431, Note_on_c, 0, 43, 0
2, 389440, Note_on_c, 0, 52, 112
2, 389591, Note_on_c, 0, 52, 0
2, 389600, Note_on_c, 0, 55, 112
2, 389751, Note_on_c, 0, 55, 0
2, 389760, Note_on_c, 0, 52, 112
2, 389911, Note_on_c, 0, 52, 0
2, 389920, Note_on_c, 0, 43, 112
2, 390071, Note_on_c, 0, 43, 0
2, 390080, Note_on_c, 0, 52, 112
2, 390231, Note_on_c, 0, 52, 0
2, 390240, Note_on_c, 0, 55, 112
2, 390391, Note_on_c, 0, 55, 0
2, 390400, Note_on_c, 0, 52, 112
2, 390551, Note_on_c, 0, 52, 0
2, 390560, Note_on_c, 0, 43, 112
2, 390711, Note_on_c, 0, 43, 0
2, 390720, Note_on_c, 0, 29, 112
2, 390720, Note_on_c, 0, 41, 112
2, 390721, Control_c, 0, 64, 0
2, 390722, Control_c, 0, 64, 127
2, 391175, Note_on_c, 0, 29, 0
2, 391175, Note_on_c, 0, 41, 0
2, 391200, Note_on_c, 0, 41, 112
2, 391351, Note_on_c, 0, 41, 0
2, 391360, Note_on_c, 0, 48, 112
2, 391511, Note_on_c, 0, 48, 0
2, 391520, Note_on_c, 0, 53, 112
2, 391671, Note_on_c, 0, 53, 0
2, 391680, Note_on_c, 0, 48, 112
2, 391831, Note_on_c, 0, 48, 0
2, 391840, Note_on_c, 0, 41, 112
2, 391991, Note_on_c, 0, 41, 0
2, 392000, Note_on_c, 0, 48, 112
2, 392151, Note_on_c, 0, 48, 0
2, 392160, Note_on_c, 0, 53, 112
2, 392311, Note_on_c, 0, 53, 0
2, 392320, Note_on_c, 0, 48, 112
2, 392471, Note_on_c, 0, 48, 0
2, 392480, Note_on_c, 0, 41, 112
2, 392631, Note_on_c, 0, 41, 0
2, 392640, Note_on_c, 0, 29, 112
2, 392640, Note_on_c, 0, 41, 112
2, 393095, Note_on_c, 0, 29, 0
2, 393095, Note_on_c, 0, 41, 0
2, 393120, Note_on_c, 0, 41, 112
2, 393271, Note_on_c, 0, 41, 0
2, 393280, Note_on_c, 0, 48, 112
2, 393431, Note_on_c, 0, 48, 0
2, 393440, Note_on_c, 0, 53, 112
2, 393591, Note_on_c, 0, 53, 0
2, 393600, Note_on_c, 0, 48, 112
2, 393751, Note_on_c, 0, 48, 0
2, 393760, Note_on_c, 0, 41, 112
2, 393911, Note_on_c, 0, 41, 0
2, 393920, Note_on_c, 0, 48, 112
2, 394071, Note_on_c, 0, 48, 0
2, 394080, Note_on_c, 0, 53, 112
2, 394231, Note_on_c, 0, 53, 0
2, 394240, Note_on_c, 0, 48, 112
2, 394391, Note_on_c, 0, 48, 0
2, 394400, Note_on_c, 0, 41, 112
2, 394551, Note_on_c, 0, 41, 0
2, 394560, Note_on_c, 0, 31, 112
2, 394560, Note_on_c, 0, 43, 112
2, 394561, Control_c, 0, 64, 0
2, 394562, Control_c, 0, 64, 127
2, 395015, Note_on_c, 0, 31, 0
2, 395015, Note_on_c, 0, 43, 0
2, 395040, Note_on_c, 0, 43, 112
2, 395191, Note_on_c, 0, 43, 0
2, 395200, Note_on_c, 0, 50, 112
2, 395351, Note_on_c, 0, 50, 0
2, 395360, Note_on_c, 0, 55, 112
2, 395511, Note_on_c, 0, 55, 0
2, 395520, Note_on_c, 0, 50, 112
2, 395671, Note_on_c, 0, 50, 0
2, 395680, Note_on_c, 0, 43, 112
2, 395831, Note_on_c, 0, 43, 0
2, 395840, Note_on_c, 0, 50, 112
2, 395991, Note_on_c, 0, 50, 0
2, 396000, Note_on_c, 0, 55, 112
2, 396151, Note_on_c, 0, 55, 0
2, 396160, Note_on_c, 0, 50, 112
2, 396311, Note_on_c, 0, 50, 0
2, 396320, Note_on_c, 0, 43, 112
2, 396471, Note_on_c, 0, 43, 0
2, 396480, Note_on_c, 0, 31, 112
2, 396480, Note_on_c, 0, 43, 112
2, 396935, Note_on_c, 0, 31, 0
2, 396935, Note_on_c, 0, 43, 0
2, 396960, Note_on_c, 0, 43, 112
2, 397111, Note_on_c, 0, 43, 0
2, 397120, Note_on_c, 0, 50, 112
2, 397271, Note_on_c, 0, 50, 0
2, 397280, Note_on_c, 0, 55, 112
2, 397431, Note_on_c, 0, 55, 0
2, 397440, Note_on_c, 0, 50, 112
2, 397591, Note_on_c, 0, 50, 0
2, 397600, Note_on_c, 0, 43, 112
2, 397751, Note_on_c, 0, 43, 0
2, 397760, Note_on_c, 0, 50, 112
2, 397911, Note_on_c, 0, 50, 0
2, 397920, Note_on_c, 0, 55, 112
2, 398071, Note_on_c, 0, 55, 0
2, 398080, Note_on_c, 0, 50, 112
2, 398231, Note_on_c, 0, 50, 0
2, 398240, Note_on_c, 0, 43, 112
2, 398391, Note_on_c, 0, 43, 0
2, 398400, Note_on_c, 0, 33, 112
2, 398400, Note_on_c, 0, 45, 112
2, 398401, Control_c, 0, 64, 0
2, 398402, Control_c, 0, 64, 127
2, 398855, Note_on_c, 0, 33, 0
2, 398855, Note_on_c, 0, 45, 0
2, 398880, Note_on_c, 0, 41, 112
2, 399031, Note_on_c, 0, 41, 0
2, 399040, Note_on_c, 0, 48, 112
2, 399191, Note_on_c, 0, 48, 0
2, 399200, Note_on_c, 0, 53, 112
2, 399351, Note_on_c, 0, 53, 0
2, 399360, Note_on_c, 0, 48, 112
2, 399511, Note_on_c, 0, 48, 0
2, 399520, Note_on_c, 0, 41, 112
2, 399671, Note_on_c, 0, 41, 0
2, 399680, Note_on_c, 0, 48, 112
2, 399831, Note_on_c, 0, 48, 0
2, 399840, Note_on_c, 0, 53, 112
2, 399991, Note_on_c, 0, 53, 0
2, 400000, Note_on_c, 0, 48, 112
2, 400151, Note_on_c, 0, 48, 0
2, 400160, Note_on_c, 0, 41, 112
2, 400311, Note_on_c, 0, 41, 0
2, 400320, Note_on_c, 0, 33, 112
2, 400320, Note_on_c, 0, 45, 112
2, 400775, Note_on_c, 0, 33, 0
2, 400775, Note_on_c, 0, 45, 0
2, 400800, Note_on_c, 0, 41, 112
2, 400951, Note_on_c, 0, 41, 0
2, 400960, Note_on_c, 0, 48, 112
2, 401111, Note_on_c, 0, 48, 0
2, 401120, Note_on_c, 0, 53, 112
2, 401271, Note_on_c, 0, 53, 0
2, 401280, Note_on_c, 0, 48, 112
2, 401431, Note_on_c, 0, 48, 0
2, 401440, Note_on_c, 0, 41, 112
2, 401591, Note_on_c, 0, 41, 0
2, 401600, Note_on_c, 0, 48, 112
2, 401751, Note_on_c, 0, 48, 0
2, 401760, Note_on_c, 0, 53, 112
2, 401911, Note_on_c, 0, 53, 0
2, 401920, Note_on_c, 0, 48, 112
2, 402071, Note_on_c, 0, 48, 0
2, 402080, Note_on_c, 0, 41, 112
2, 402231, Note_on_c, 0, 41, 0
2, 402240, Note_on_c, 0, 31, 112
2, 402240, Note_on_c, 0, 43, 112
2, 402241, Control_c, 0, 64, 0
2, 402242, Control_c, 0, 64, 127
2, 402695, Note_on_c, 0, 31, 0
2, 402695, Note_on_c, 0, 43, 0
2, 402720, Note_on_c, 0, 43, 112
2, 402871, Note_on_c, 0, 43, 0
2, 402880, Note_on_c, 0, 50, 112
2, 403031, Note_on_c, 0, 50, 0
2, 403040, Note_on_c, 0, 55, 112
2, 403191, Note_on_c, 0, 55, 0
2, 403200, Note_on_c, 0, 50, 112
2, 403351, Note_on_c, 0, 50, 0
2, 403360, Note_on_c, 0, 43, 112
2, 403511, Note_on_c, 0, 43, 0
2, 403520, Note_on_c, 0, 50, 112
2, 403671, Note_on_c, 0, 50, 0
2, 403680, Note_on_c, 0, 55, 112
2, 403831, Note_on_c, 0, 55, 0
2, 403840, Note_on_c, 0, 50, 112
2, 403991, Note_on_c, 0, 50, 0
2, 404000, Note_on_c, 0, 43, 112
2, 404151, Note_on_c, 0, 43, 0
2, 404160, Note_on_c, 0, 31, 112
2, 404160, Note_on_c, 0, 43, 112
2, 404615, Note_on_c, 0, 31, 0
2, 404615, Note_on_c, 0, 43, 0
2, 404640, Note_on_c, 0, 43, 112
2, 404791, Note_on_c, 0, 43, 0
2, 404800, Note_on_c, 0, 50, 112
2, 404951, Note_on_c, 0, 50, 0
2, 404960, Note_on_c, 0, 55, 112
2, 405111, Note_on_c, 0, 55, 0
2, 405120, Note_on_c, 0, 50, 112
2, 405271, Note_on_c, 0, 50, 0
2, 405280, Note_on_c, 0, 43, 112
2, 405431, Note_on_c, 0, 43, 0
2, 405440, Note_on_c, 0, 50, 112
2, 405591, Note_on_c, 0, 50, 0
2, 405600, Note_on_c, 0, 55, 112
2, 405751, Note_on_c, 0, 55, 0
2, 405760, Note_on_c, 0, 50, 112
2, 405911, Note_on_c, 0, 50, 0
2, 405920, Note_on_c, 0, 43, 112
2, 406071, Note_on_c, 0, 43, 0
2, 406080, Note_on_c, 0, 29, 112
2, 406080, Note_on_c, 0, 41, 112
2, 406081, Control_c, 0, 64, 0
2, 406081, Control_c, 0, 64, 0
2, 406082, Control_c, 0, 64, 127
2, 406535, Note_on_c, 0, 29, 0
2, 406535, Note_on_c, 0, 41, 0
2, 406560, Note_on_c, 0, 41, 112
2, 406711, Note_on_c, 0, 41, 0
2, 406720, Note_on_c, 0, 48, 112
2, 406871, Note_on_c, 0, 48, 0
2, 406880, Note_on_c, 0, 53, 112
2, 407031, Note_on_c, 0, 53, 0
2, 407040, Note_on_c, 0, 48, 112
2, 407191, Note_on_c, 0, 48, 0
2, 407200, Note_on_c, 0, 41, 112
2, 407351, Note_on_c, 0, 41, 0
2, 407360, Note_on_c, 0, 48, 112
2, 407511, Note_on_c, 0, 48, 0
2, 407520, Note_on_c, 0, 53, 112
2, 407671, Note_on_c, 0, 53, 0
2, 407680, Note_on_c, 0, 48, 112
2, 407831, Note_on_c, 0, 48, 0
2, 407840, Note_on_c, 0, 41, 112
2, 407991, Note_on_c, 0, 41, 0
2, 408000, Note_on_c, 0, 29, 112
2, 408000, Note_on_c, 0, 41, 112
2, 408455, Note_on_c, 0, 29, 0
2, 408455, Note_on_c, 0, 41, 0
2, 408480, Note_on_c, 0, 41, 112
2, 408631, Note_on_c, 0, 41, 0
2, 408640, Note_on_c, 0, 48, 112
2, 408791, Note_on_c, 0, 48, 0
2, 408800, Note_on_c, 0, 53, 112
2, 408951, Note_on_c, 0, 53, 0
2, 408960, Note_on_c, 0, 48, 112
2, 409111, Note_on_c, 0, 48, 0
2, 409120, Note_on_c, 0, 41, 112
2, 409271, Note_on_c, 0, 41, 0
2, 409280, Note_on_c, 0, 48, 112
2, 409431, Note_on_c, 0, 48, 0
2, 409440, Note_on_c, 0, 53, 112
2, 409591, Note_on_c, 0, 53, 0
2, 409600, Note_on_c, 0, 48, 112
2, 409751, Note_on_c, 0, 48, 0
2, 409760, Note_on_c, 0, 41, 112
2, 409911, Note_on_c, 0, 41, 0
2, 409920, Note_on_c, 0, 31, 112
2, 409920, Note_on_c, 0, 43, 112
2, 409921, Control_c, 0, 64, 0
2, 409922, Control_c, 0, 64, 127
2, 410375, Note_on_c, 0, 31, 0
2, 410375, Note_on_c, 0, 43, 0
2, 410400, Note_on_c, 0, 43, 112
2, 410551, Note_on_c, 0, 43, 0
2, 410560, Note_on_c, 0, 50, 112
2, 410711, Note_on_c, 0, 50, 0
2, 410720, Note_on_c, 0, 55, 112
2, 410871, Note_on_c, 0, 55, 0
2, 410880, Note_on_c, 0, 50, 112
2, 411031, Note_on_c, 0, 50, 0
2, 411040, Note_on_c, 0, 43, 112
2, 411191, Note_on_c, 0, 43, 0
2, 411200, Note_on_c, 0, 50, 112
2, 411351, Note_on_c, 0, 50, 0
2, 411360, Note_on_c, 0, 55, 112
2, 411511, Note_on_c, 0, 55, 0
2, 411520, Note_on_c, 0, 50, 112
2, 411671, Note_on_c, 0, 50, 0
2, 411680, Note_on_c, 0, 43, 112
2, 411831, Note_on_c, 0, 43, 0
2, 411840, Note_on_c, 0, 31, 112
2, 411840, Note_on_c, 0, 43, 112
2, 412295, Note_on_c, 0, 31, 0
2, 412295, Note_on_c, 0, 43, 0
2, 412320, Note_on_c, 0, 43, 112
2, 412471, Note_on_c, 0, 43, 0
2, 412480, Note_on_c, 0, 50, 112
2, 412631, Note_on_c, 0, 50, 0
2, 412640, Note_on_c, 0, 55, 112
2, 412791, Note_on_c, 0, 55, 0
2, 412800, Note_on_c, 0, 50, 112
2, 412951, Note_on_c, 0, 50, 0
2, 412960, Note_on_c, 0, 43, 112
2, 413111, Note_on_c, 0, 43, 0
2, 413120, Note_on_c, 0, 50, 112
2, 413271, Note_on_c, 0, 50, 0
2, 413280, Note_on_c, 0, 55, 112
2, 413431, Note_on_c, 0, 55, 0
2, 413440, Note_on_c, 0, 50, 112
2, 413591, Note_on_c, 0, 50, 0
2, 413600, Note_on_c, 0, 43, 112
2, 413751, Note_on_c, 0, 43, 0
2, 413760, Note_on_c, 0, 33, 112
2, 413760, Note_on_c, 0, 45, 112
2, 413761, Control_c, 0, 64, 0
2, 413762, Control_c, 0, 64, 127
2, 414215, Note_on_c, 0, 33, 0
2, 414215, Note_on_c, 0, 45, 0
2, 414240, Note_on_c, 0, 41, 112
2, 414391, Note_on_c, 0, 41, 0
2, 414400, Note_on_c, 0, 48, 112
2, 414551, Note_on_c, 0, 48, 0
2, 414560, Note_on_c, 0, 53, 112
2, 414711, Note_on_c, 0, 53, 0
2, 414720, Note_on_c, 0, 48, 112
2, 414871, Note_on_c, 0, 48, 0
2, 414880, Note_on_c, 0, 41, 112
2, 415031, Note_on_c, 0, 41, 0
2, 415040, Note_on_c, 0, 48, 112
2, 415191, Note_on_c, 0, 48, 0
2, 415200, Note_on_c, 0, 53, 112
2, 415351, Note_on_c, 0, 53, 0
2, 415360, Note_on_c, 0, 48, 112
2, 415511, Note_on_c, 0, 48, 0
2, 415520, Note_on_c, 0, 41, 112
2, 415671, Note_on_c, 0, 41, 0
2, 415680, Note_on_c, 0, 33, 112
2, 415680, Note_on_c, 0, 45, 112
2, 416135, Note_on_c, 0, 33, 0
2, 416135, Note_on_c, 0, 45, 0
2, 416160, Note_on_c, 0, 41, 112
2, 416311, Note_on_c, 0, 41, 0
2, 416320, Note_on_c, 0, 48, 112
2, 416471, Note_on_c, 0, 48, 0
2, 416480, Note_on_c, 0, 53, 112
2, 416631, Note_on_c, 0, 53, 0
2, 416640, Note_on_c, 0, 48, 112
2, 416791, Note_on_c, 0, 48, 0
2, 416800, Note_on_c, 0, 41, 112
2, 416951, Note_on_c, 0, 41, 0
2, 416960, Note_on_c, 0, 48, 112
2, 417111, Note_on_c, 0, 48, 0
2, 417120, Note_on_c, 0, 53, 112
2, 417271, Note_on_c, 0, 53, 0
2, 417280, Note_on_c, 0, 48, 112
2, 417431, Note_on_c, 0, 48, 0
2, 417440, Note_on_c, 0, 41, 112
2, 417591, Note_on_c, 0, 41, 0
2, 417600, Note_on_c, 0, 31, 112
2, 417600, Note_on_c, 0, 43, 112
2, 417601, Control_c, 0, 64, 0
2, 417602, Control_c, 0, 64, 127
2, 418055, Note_on_c, 0, 31, 0
2, 418055, Note_on_c, 0, 43, 0
2, 418080, Note_on_c, 0, 43, 112
2, 418231, Note_on_c, 0, 43, 0
2, 418240, Note_on_c, 0, 50, 112
2, 418391, Note_on_c, 0, 50, 0
2, 418400, Note_on_c, 0, 55, 112
2, 418551, Note_on_c, 0, 55, 0
2, 418560, Note_on_c, 0, 50, 112
2, 418711, Note_on_c, 0, 50, 0
2, 418720, Note_on_c, 0, 43, 112
2, 418871, Note_on_c, 0, 43, 0
2, 418880, Note_on_c, 0, 50, 112
2, 419031, Note_on_c, 0, 50, 0
2, 419040, Note_on_c, 0, 55, 112
2, 419191, Note_on_c, 0, 55, 0
2, 419200, Note_on_c, 0, 50, 112
2, 419351, Note_on_c, 0, 50, 0
2, 419360, Note_on_c, 0, 43, 112
2, 419511, Note_on_c, 0, 43, 0
2, 419520, Note_on_c, 0, 31, 112
2, 419520, Note_on_c, 0, 43, 112
2, 419521, Control_c, 0, 64, 0
2, 419975, Note_on_c, 0, 31, 0
2, 419975, Note_on_c, 0, 43, 0
2, 420000, Note_on_c, 0, 43, 112
2, 420151, Note_on_c, 0, 43, 0
2, 420160, Note_on_c, 0, 50, 112
2, 420311, Note_on_c, 0, 50, 0
2, 420320, Note_on_c, 0, 55, 112
2, 420471, Note_on_c, 0, 55, 0
2, 420480, Note_on_c, 0, 50, 112
2, 420631, Note_on_c, 0, 50, 0
2, 420640, Note_on_c, 0, 43, 112
2, 420791, Note_on_c, 0, 43, 0
2, 420800, Note_on_c, 0, 50, 112
2, 420951, Note_on_c, 0, 50, 0
2, 420960, Note_on_c, 0, 55, 112
2, 421111, Note_on_c, 0, 55, 0
2, 421120, Note_on_c, 0, 50, 112
2, 421271, Note_on_c, 0, 50, 0
2, 421280, Note_on_c, 0, 43, 112
2, 421431, Note_on_c, 0, 43, 0
2, 421440, Note_on_c, 0, 29, 112
2, 421440, Note_on_c, 0, 41, 112
2, 425087, Note_on_c, 0, 29, 0
2, 425087, Note_on_c, 0, 41, 0
2, 425280, Note_on_c, 0, 48, 49
2, 425280, Note_on_c, 0, 60, 49
2, 428927, Note_on_c, 0, 48, 0
2, 428927, Note_on_c, 0, 60, 0
2, 429120, Note_on_c, 0, 48, 49
2, 429120, Note_on_c, 0, 60, 49
2, 434591, Note_on_c, 0, 48, 0
2, 434591, Note_on_c, 0, 60, 0
2, 434880, Note_on_c, 0, 48, 49
2, 434880, Note_on_c, 0, 60, 49
2, 440351, Note_on_c, 0, 48, 0
2, 440351, Note_on_c, 0, 60, 0
2, 440640, Note_on_c, 0, 48, 49
2, 440640, Note_on_c, 0, 60, 49
2, 446111, Note_on_c, 0, 48, 0
2, 446111, Note_on_c, 0, 60, 0
2, 446400, Note_on_c, 0, 48, 49
2, 446400, Note_on_c, 0, 60, 49
2, 449135, Note_on_c, 0, 48, 0
2, 449135, Note_on_c, 0, 60, 0
2, 449280, Note_on_c, 0, 24, 49
2, 449280, Note_on_c, 0, 36, 49
2, 452015, Note_on_c, 0, 24, 0
2, 452015, Note_on_c, 0, 36, 0
2, 454080, Note_on_c, 0, 70, 49
2, 454991, Note_on_c, 0, 70, 0
2, 455040, Note_on_c, 0, 67, 49
2, 457775, Note_on_c, 0, 67, 0
2, 457920, Note_on_c, 0, 68, 49
2, 458831, Note_on_c, 0, 68, 0
2, 458880, Note_on_c, 0, 65, 49
2, 461615, Note_on_c, 0, 65, 0
2, 463680, Note_on_c, 0, 36, 49
2, 463743, Note_on_c, 0, 48, 49
2, 465598, Note_on_c, 0, 48, 0
2, 465599, Note_on_c, 0, 36, 0
2, 465602, Control_c, 0, 64, 127
2, 467041, Control_c, 0, 64, 0
2, 467042, Control_c, 0, 64, 127
2, 468481, Control_c, 0, 64, 0
2, 468482, Control_c, 0, 64, 127
2, 469921, Control_c, 0, 64, 0
2, 469922, Control_c, 0, 64, 127
2, 471361, Control_c, 0, 64, 0
2, 471362, Control_c, 0, 64, 127
2, 472801, Control_c, 0, 64, 0
2, 472802, Control_c, 0, 64, 127
2, 474241, Control_c, 0, 64, 0
2, 474242, Control_c, 0, 64, 127
2, 475681, Control_c, 0, 64, 0
2, 475682, Control_c, 0, 64, 127
2, 477120, Note_on_c, 0, 41, 16
2, 477120, Note_on_c, 0, 48, 16
2, 477120, Note_on_c, 0, 53, 16
2, 477121, Control_c, 0, 64, 0
2, 477122, Control_c, 0, 64, 127
2, 479855, Note_on_c, 0, 41, 0
2, 479855, Note_on_c, 0, 48, 0
2, 479855, Note_on_c, 0, 53, 0
2, 480000, Note_on_c, 0, 43, 16
2, 480000, Note_on_c, 0, 50, 16
2, 480000, Note_on_c, 0, 55, 16
2, 480001, Control_c, 0, 64, 0
2, 480002, Control_c, 0, 64, 127
2, 482735, Note_on_c, 0, 43, 0
2, 482735, Note_on_c, 0, 50, 0
2, 482735, Note_on_c, 0, 55, 0
2, 482880, Note_on_c, 0, 45, 16
2, 482880, Note_on_c, 0, 52, 16
2, 482880, Note_on_c, 0, 57, 16
2, 482881, Control_c, 0, 64, 0
2, 482882, Control_c, 0, 64, 127
2, 485615, Note_on_c, 0, 45, 0
2, 485615, Note_on_c, 0, 52, 0
2, 485615, Note_on_c, 0, 57, 0
2, 485760, Note_on_c, 0, 43, 16
2, 485760, Note_on_c, 0, 50, 16
2, 485760, Note_on_c, 0, 55, 16
2, 485761, Control_c, 0, 64, 0
2, 485762, Control_c, 0, 64, 127
2, 488495, Note_on_c, 0, 43, 0
2, 488495, Note_on_c, 0, 50, 0
2, 488495, Note_on_c, 0, 55, 0
2, 488640, Note_on_c, 0, 41, 33
2, 488640, Note_on_c, 0, 48, 33
2, 488640, Note_on_c, 0, 53, 33
2, 488641, Control_c, 0, 64, 0
2, 488642, Control_c, 0, 64, 127
2, 491375, Note_on_c, 0, 41, 0
2, 491375, Note_on_c, 0, 48, 0
2, 491375, Note_on_c, 0, 53, 0
2, 491520, Note_on_c, 0, 43, 33
2, 491520, Note_on_c, 0, 50, 33
2, 491520, Note_on_c, 0, 55, 33
2, 491521, Control_c, 0, 64, 0
2, 491522, Control_c, 0, 64, 127
2, 494255, Note_on_c, 0, 43, 0
2, 494255, Note_on_c, 0, 50, 0
2, 494255, Note_on_c, 0, 55, 0
2, 494400, Note_on_c, 0, 45, 33
2, 494400, Note_on_c, 0, 52, 33
2, 494400, Note_on_c, 0, 57, 33
2, 494401, Control_c, 0, 64, 0
2, 494402, Control_c, 0, 64, 127
2, 497135, Note_on_c, 0, 45, 0
2, 497135, Note_on_c, 0, 52, 0
2, 497135, Note_on_c, 0, 57, 0
2, 497280, Note_on_c, 0, 43, 33
2, 497280, Note_on_c, 0, 50, 33
2, 497280, Note_on_c, 0, 55, 33
2, 497281, Control_c, 0, 64, 0
2, 497282, Control_c, 0, 64, 127
2, 500015, Note_on_c, 0, 43, 0
2, 500015, Note_on_c, 0, 50, 0
2, 500015, Note_on_c, 0, 55, 0
2, 500160, Note_on_c, 0, 45, 49
2, 500160, Note_on_c, 0, 48, 49
2, 500161, Control_c, 0, 64, 0
2, 500162, Control_c, 0, 64, 127
2, 500387, Note_on_c, 0, 45, 0
2, 500387, Note_on_c, 0, 48, 0
2, 500400, Note_on_c, 0, 41, 49
2, 500627, Note_on_c, 0, 41, 0
2, 500640, Note_on_c, 0, 45, 49
2, 500640, Note_on_c, 0, 48, 49
2, 500867, Note_on_c, 0, 45, 0
2, 500867, Note_on_c, 0, 48, 0
2, 500880, Note_on_c, 0, 41, 49
2, 501107, Note_on_c, 0, 41, 0
2, 501120, Note_on_c, 0, 45, 49
2, 501120, Note_on_c, 0, 48, 49
2, 501347, Note_on_c, 0, 45, 0
2, 501347, Note_on_c, 0, 48, 0
2, 501360, Note_on_c, 0, 41, 50
2, 501587, Note_on_c, 0, 41, 0
2, 501600, Note_on_c, 0, 45, 50
2, 501600, Note_on_c, 0, 48, 50
2, 501601, Control_c, 0, 64, 0
2, 501602, Control_c, 0, 64, 127
2, 501827, Note_on_c, 0, 45, 0
2, 501827, Note_on_c, 0, 48, 0
2, 501840, Note_on_c, 0, 41, 51
2, 502067, Note_on_c, 0, 41, 0
2, 502080, Note_on_c, 0, 45, 51
2, 502080, Note_on_c, 0, 48, 51
2, 502307, Note_on_c, 0, 45, 0
2, 502307, Note_on_c, 0, 48, 0
2, 502320, Note_on_c, 0, 41, 51
2, 502547, Note_on_c, 0, 41, 0
2, 502560, Note_on_c, 0, 45, 52
2, 502560, Note_on_c, 0, 48, 52
2, 502787, Note_on_c, 0, 45, 0
2, 502787, Note_on_c, 0, 48, 0
2, 502800, Note_on_c, 0, 41, 52
2, 503027, Note_on_c, 0, 41, 0
2, 503040, Note_on_c, 0, 45, 53
2, 503040, Note_on_c, 0, 50, 53
2, 503041, Control_c, 0, 64, 0
2, 503042, Control_c, 0, 64, 127
2, 503267, Note_on_c, 0, 45, 0
2, 503267, Note_on_c, 0, 50, 0
2, 503280, Note_on_c, 0, 43, 53
2, 503507, Note_on_c, 0, 43, 0
2, 503520, Note_on_c, 0, 47, 53
2, 503520, Note_on_c, 0, 50, 53
2, 503747, Note_on_c, 0, 47, 0
2, 503747, Note_on_c, 0, 50, 0
2, 503760, Note_on_c, 0, 43, 54
2, 503987, Note_on_c, 0, 43, 0
2, 504000, Note_on_c, 0, 47, 54
2, 504000, Note_on_c, 0, 50, 54
2, 504227, Note_on_c, 0, 47, 0
2, 504227, Note_on_c, 0, 50, 0
2, 504240, Note_on_c, 0, 43, 55
2, 504467, Note_on_c, 0, 43, 0
2, 504480, Note_on_c, 0, 47, 55
2, 504480, Note_on_c, 0, 50, 55
2, 504481, Control_c, 0, 64, 0
2, 504482, Control_c, 0, 64, 127
2, 504707, Note_on_c, 0, 47, 0
2, 504707, Note_on_c, 0, 50, 0
2, 504720, Note_on_c, 0, 43, 55
2, 504947, Note_on_c, 0, 43, 0
2, 504960, Note_on_c, 0, 47, 56
2, 504960, Note_on_c, 0, 50, 56
2, 505187, Note_on_c, 0, 47, 0
2, 505187, Note_on_c, 0, 50, 0
2, 505200, Note_on_c, 0, 43, 56
2, 505427, Note_on_c, 0, 43, 0
2, 505440, Note_on_c, 0, 47, 57
2, 505440, Note_on_c, 0, 50, 57
2, 505667, Note_on_c, 0, 47, 0
2, 505667, Note_on_c, 0, 50, 0
2, 505680, Note_on_c, 0, 43, 57
2, 505907, Note_on_c, 0, 43, 0
2, 505920, Note_on_c, 0, 48, 57
2, 505920, Note_on_c, 0, 52, 57
2, 505921, Control_c, 0, 64, 0
2, 505922, Control_c, 0, 64, 127
2, 506147, Note_on_c, 0, 48, 0
2, 506147, Note_on_c, 0, 52, 0
2, 506160, Note_on_c, 0, 45, 58
2, 506387, Note_on_c, 0, 45, 0
2, 506400, Note_on_c, 0, 48, 58
2, 506400, Note_on_c, 0, 52, 58
2, 506627, Note_on_c, 0, 48, 0
2, 506627, Note_on_c, 0, 52, 0
2, 506640, Note_on_c, 0, 45, 59
2, 506867, Note_on_c, 0, 45, 0
2, 506880, Note_on_c, 0, 48, 59
2, 506880, Note_on_c, 0, 52, 59
2, 507107, Note_on_c, 0, 48, 0
2, 507107, Note_on_c, 0, 52, 0
2, 507120, Note_on_c, 0, 45, 59
2, 507347, Note_on_c, 0, 45, 0
2, 507360, Note_on_c, 0, 48, 60
2, 507360, Note_on_c, 0, 52, 60
2, 507361, Control_c, 0, 64, 0
2, 507362, Control_c, 0, 64, 127
2, 507587, Note_on_c, 0, 48, 0
2, 507587, Note_on_c, 0, 52, 0
2, 507600, Note_on_c, 0, 45, 60
2, 507827, Note_on_c, 0, 45, 0
2, 507840, Note_on_c, 0, 48, 61
2, 507840, Note_on_c, 0, 52, 61
2, 508067, Note_on_c, 0, 48, 0
2, 508067, Note_on_c, 0, 52, 0
2, 508080, Note_on_c, 0, 45, 61
2, 508307, Note_on_c, 0, 45, 0
2, 508320, Note_on_c, 0, 48, 61
2, 508320, Note_on_c, 0, 52, 61
2, 508547, Note_on_c, 0, 48, 0
2, 508547, Note_on_c, 0, 52, 0
2, 508560, Note_on_c, 0, 45, 62
2, 508787, Note_on_c, 0, 45, 0
2, 508800, Note_on_c, 0, 47, 62
2, 508800, Note_on_c, 0, 50, 62
2, 508801, Control_c, 0, 64, 0
2, 508802, Control_c, 0, 64, 127
2, 509027, Note_on_c, 0, 47, 0
2, 509027, Note_on_c, 0, 50, 0
2, 509040, Note_on_c, 0, 43, 63
2, 509267, Note_on_c, 0, 43, 0
2, 509280, Note_on_c, 0, 47, 63
2, 509280, Note_on_c, 0, 50, 63
2, 509507, Note_on_c, 0, 47, 0
2, 509507, Note_on_c, 0, 50, 0
2, 509520, Note_on_c, 0, 43, 63
2, 509747, Note_on_c, 0, 43, 0
2, 509760, Note_on_c, 0, 47, 64
2, 509760, Note_on_c, 0, 50, 64
2, 509987, Note_on_c, 0, 47, 0
2, 509987, Note_on_c, 0, 50, 0
2, 510000, Note_on_c, 0, 43, 64
2, 510227, Note_on_c, 0, 43, 0
2, 510240, Note_on_c, 0, 47, 65
2, 510240, Note_on_c, 0, 50, 65
2, 510241, Control_c, 0, 64, 0
2, 510242, Control_c, 0, 64, 127
2, 510467, Note_on_c, 0, 47, 0
2, 510467, Note_on_c, 0, 50, 0
2, 510480, Note_on_c, 0, 43, 65
2, 510707, Note_on_c, 0, 43, 0
2, 510720, Note_on_c, 0, 47, 66
2, 510720, Note_on_c, 0, 50, 66
2, 510947, Note_on_c, 0, 47, 0
2, 510947, Note_on_c, 0, 50, 0
2, 510960, Note_on_c, 0, 43, 66
2, 511187, Note_on_c, 0, 43, 0
2, 511200, Note_on_c, 0, 47, 66
2, 511200, Note_on_c, 0, 50, 66
2, 511427, Note_on_c, 0, 47, 0
2, 511427, Note_on_c, 0, 50, 0
2, 511440, Note_on_c, 0, 43, 67
2, 511667, Note_on_c, 0, 43, 0
2, 511680, Note_on_c, 0, 45, 67
2, 511680, Note_on_c, 0, 48, 67
2, 511681, Control_c, 0, 64, 0
2, 511682, Control_c, 0, 64, 127
2, 511907, Note_on_c, 0, 45, 0
2, 511907, Note_on_c, 0, 48, 0
2, 511920, Note_on_c, 0, 41, 68
2, 512147, Note_on_c, 0, 41, 0
2, 512160, Note_on_c, 0, 45, 68
2, 512160, Note_on_c, 0, 48, 68
2, 512387, Note_on_c, 0, 45, 0
2, 512387, Note_on_c, 0, 48, 0
2, 512400, Note_on_c, 0, 41, 68
2, 512627, Note_on_c, 0, 41, 0
2, 512640, Note_on_c, 0, 45, 69
2, 512640, Note_on_c, 0, 48, 69
2, 512867, Note_on_c, 0, 45, 0
2, 512867, Note_on_c, 0, 48, 0
2, 512880, Note_on_c, 0, 41, 69
2, 513107, Note_on_c, 0, 41, 0
2, 513120, Note_on_c, 0, 45, 70
2, 513120, Note_on_c, 0, 48, 70
2, 513121, Control_c, 0, 64, 0
2, 513122, Control_c, 0, 64, 127
2, 513347, Note_on_c, 0, 45, 0
2, 513347, Note_on_c, 0, 48, 0
2, 513360, Note_on_c, 0, 41, 70
2, 513587, Note_on_c, 0, 41, 0
2, 513600, Note_on_c, 0, 45, 70
2, 513600, Note_on_c, 0, 48, 70
2, 513827, Note_on_c, 0, 45, 0
2, 513827, Note_on_c, 0, 48, 0
2, 513840, Note_on_c, 0, 41, 71
2, 514067, Note_on_c, 0, 41, 0
2, 514080, Note_on_c, 0, 45, 71
2, 514080, Note_on_c, 0, 48, 71
2, 514307, Note_on_c, 0, 45, 0
2, 514307, Note_on_c, 0, 48, 0
2, 514320, Note_on_c, 0, 41, 72
2, 514547, Note_on_c, 0, 41, 0
2, 514560, Note_on_c, 0, 47, 72
2, 514560, Note_on_c, 0, 50, 72
2, 514561, Control_c, 0, 64, 0
2, 514562, Control_c, 0, 64, 127
2, 514787, Note_on_c, 0, 47, 0
2, 514787, Note_on_c, 0, 50, 0
2, 514800, Note_on_c, 0, 43, 72
2, 515027, Note_on_c, 0, 43, 0
2, 515040, Note_on_c, 0, 47, 73
2, 515040, Note_on_c, 0, 50, 73
2, 515267, Note_on_c, 0, 47, 0
2, 515267, Note_on_c, 0, 50, 0
2, 515280, Note_on_c, 0, 43, 73
2, 515507, Note_on_c, 0, 43, 0
2, 515520, Note_on_c, 0, 47, 74
2, 515520, Note_on_c, 0, 50, 74
2, 515747, Note_on_c, 0, 47, 0
2, 515747, Note_on_c, 0, 50, 0
2, 515760, Note_on_c, 0, 43, 74
2, 515987, Note_on_c, 0, 43, 0
2, 516000, Note_on_c, 0, 47, 74
2, 516000, Note_on_c, 0, 50, 74
2, 516001, Control_c, 0, 64, 0
2, 516002, Control_c, 0, 64, 127
2, 516227, Note_on_c, 0, 47, 0
2, 516227, Note_on_c, 0, 50, 0
2, 516240, Note_on_c, 0, 43, 75
2, 516467, Note_on_c, 0, 43, 0
2, 516480, Note_on_c, 0, 47, 75
2, 516480, Note_on_c, 0, 50, 75
2, 516707, Note_on_c, 0, 47, 0
2, 516707, Note_on_c, 0, 50, 0
2, 516720, Note_on_c, 0, 43, 76
2, 516947, Note_on_c, 0, 43, 0
2, 516960, Note_on_c, 0, 47, 76
2, 516960, Note_on_c, 0, 50, 76
2, 517187, Note_on_c, 0, 47, 0
2, 517187, Note_on_c, 0, 50, 0
2, 517200, Note_on_c, 0, 43, 76
2, 517427, Note_on_c, 0, 43, 0
2, 517440, Note_on_c, 0, 48, 77
2, 517440, Note_on_c, 0, 52, 77
2, 517441, Control_c, 0, 64, 0
2, 517442, Control_c, 0, 64, 127
2, 517667, Note_on_c, 0, 48, 0
2, 517667, Note_on_c, 0, 52, 0
2, 517680, Note_on_c, 0, 45, 77
2, 517907, Note_on_c, 0, 45, 0
2, 517920, Note_on_c, 0, 48, 78
2, 517920, Note_on_c, 0, 52, 78
2, 518147, Note_on_c, 0, 48, 0
2, 518147, Note_on_c, 0, 52, 0
2, 518160, Note_on_c, 0, 45, 78
2, 518387, Note_on_c, 0, 45, 0
2, 518400, Note_on_c, 0, 48, 78
2, 518400, Note_on_c, 0, 52, 78
2, 518627, Note_on_c, 0, 48, 0
2, 518627, Note_on_c, 0, 52, 0
2, 518640, Note_on_c, 0, 45, 79
2, 518867, Note_on_c, 0, 45, 0
2, 518880, Note_on_c, 0, 48, 79
2, 518880, Note_on_c, 0, 52, 79
2, 518881, Control_c, 0, 64, 0
2, 518882, Control_c, 0, 64, 127
2, 519107, Note_on_c, 0, 48, 0
2, 519107, Note_on_c, 0, 52, 0
2, 519120, Note_on_c, 0, 45, 80
2, 519347, Note_on_c, 0, 45, 0
2, 519360, Note_on_c, 0, 48, 80
2, 519360, Note_on_c, 0, 52, 80
2, 519587, Note_on_c, 0, 48, 0
2, 519587, Note_on_c, 0, 52, 0
2, 519600, Note_on_c, 0, 45, 81
2, 519827, Note_on_c, 0, 45, 0
2, 519840, Note_on_c, 0, 48, 81
2, 519840, Note_on_c, 0, 52, 81
2, 520067, Note_on_c, 0, 48, 0
2, 520067, Note_on_c, 0, 52, 0
2, 520080, Note_on_c, 0, 45, 81
2, 520307, Note_on_c, 0, 45, 0
2, 520320, Note_on_c, 0, 47, 82
2, 520320, Note_on_c, 0, 50, 82
2, 520321, Control_c, 0, 64, 0
2, 520322, Control_c, 0, 64, 127
2, 520547, Note_on_c, 0, 47, 0
2, 520547, Note_on_c, 0, 50, 0
2, 520560, Note_on_c, 0, 43, 82
2, 520787, Note_on_c, 0, 43, 0
2, 520800, Note_on_c, 0, 47, 83
2, 520800, Note_on_c, 0, 50, 83
2, 521027, Note_on_c, 0, 47, 0
2, 521027, Note_on_c, 0, 50, 0
2, 521040, Note_on_c, 0, 43, 83
2, 521267, Note_on_c, 0, 43, 0
2, 521280, Note_on_c, 0, 47, 83
2, 521280, Note_on_c, 0, 50, 83
2, 521507, Note_on_c, 0, 47, 0
2, 521507, Note_on_c, 0, 50, 0
2, 521520, Note_on_c, 0, 43, 84
2, 521747, Note_on_c, 0, 43, 0
2, 521760, Note_on_c, 0, 47, 84
2, 521760, Note_on_c, 0, 50, 84
2, 521761, Control_c, 0, 64, 0
2, 521762, Control_c, 0, 64, 127
2, 521987, Note_on_c, 0, 47, 0
2, 521987, Note_on_c, 0, 50, 0
2, 522000, Note_on_c, 0, 43, 85
2, 522227, Note_on_c, 0, 43, 0
2, 522240, Note_on_c, 0, 47, 85
2, 522240, Note_on_c, 0, 50, 85
2, 522467, Note_on_c, 0, 47, 0
2, 522467, Note_on_c, 0, 50, 0
2, 522480, Note_on_c, 0, 43, 85
2, 522707, Note_on_c, 0, 43, 0
2, 522720, Note_on_c, 0, 47, 86
2, 522720, Note_on_c, 0, 50, 86
2, 522947, Note_on_c, 0, 47, 0
2, 522947, Note_on_c, 0, 50, 0
2, 522960, Note_on_c, 0, 43, 86
2, 523187, Note_on_c, 0, 43, 0
2, 523200, Note_on_c, 0, 45, 87
2, 523200, Note_on_c, 0, 48, 87
2, 523200, Note_on_c, 0, 53, 87
2, 523201, Control_c, 0, 64, 0
2, 523202, Control_c, 0, 64, 127
2, 523427, Note_on_c, 0, 45, 0
2, 523427, Note_on_c, 0, 48, 0
2, 523427, Note_on_c, 0, 53, 0
2, 523440, Note_on_c, 0, 41, 87
2, 523667, Note_on_c, 0, 41, 0
2, 523680, Note_on_c, 0, 45, 87
2, 523680, Note_on_c, 0, 48, 87
2, 523680, Note_on_c, 0, 53, 87
2, 523681, Control_c, 0, 64, 0
2, 523682, Control_c, 0, 64, 127
2, 523907, Note_on_c, 0, 45, 0
2, 523907, Note_on_c, 0, 48, 0
2, 523907, Note_on_c, 0, 53, 0
2, 523920, Note_on_c, 0, 41, 88
2, 524147, Note_on_c, 0, 41, 0
2, 524160, Note_on_c, 0, 45, 88
2, 524160, Note_on_c, 0, 48, 88
2, 524160, Note_on_c, 0, 53, 88
2, 524161, Control_c, 0, 64, 0
2, 524162, Control_c, 0, 64, 127
2, 524387, Note_on_c, 0, 45, 0
2, 524387, Note_on_c, 0, 48, 0
2, 524387, Note_on_c, 0, 53, 0
2, 524400, Note_on_c, 0, 41, 89
2, 524627, Note_on_c, 0, 41, 0
2, 524640, Note_on_c, 0, 45, 89
2, 524640, Note_on_c, 0, 48, 89
2, 524640, Note_on_c, 0, 53, 89
2, 524641, Control_c, 0, 64, 0
2, 524642, Control_c, 0, 64, 127
2, 524867, Note_on_c, 0, 45, 0
2, 524867, Note_on_c, 0, 48, 0
2, 524867, Note_on_c, 0, 53, 0
2, 524880, Note_on_c, 0, 41, 89
2, 525107, Note_on_c, 0, 41, 0
2, 525120, Note_on_c, 0, 45, 90
2, 525120, Note_on_c, 0, 48, 90
2, 525120, Note_on_c, 0, 53, 90
2, 525121, Control_c, 0, 64, 0
2, 525122, Control_c, 0, 64, 127
2, 525347, Note_on_c, 0, 45, 0
2, 525347, Note_on_c, 0, 48, 0
2, 525347, Note_on_c, 0, 53, 0
2, 525360, Note_on_c, 0, 41, 90
2, 525587, Note_on_c, 0, 41, 0
2, 525600, Note_on_c, 0, 45, 91
2, 525600, Note_on_c, 0, 48, 91
2, 525600, Note_on_c, 0, 53, 91
2, 525601, Control_c, 0, 64, 0
2, 525602, Control_c, 0, 64, 127
2, 525827, Note_on_c, 0, 45, 0
2, 525827, Note_on_c, 0, 48, 0
2, 525827, Note_on_c, 0, 53, 0
2, 525840, Note_on_c, 0, 41, 91
2, 526067, Note_on_c, 0, 41, 0
2, 526080, Note_on_c, 0, 47, 91
2, 526080, Note_on_c, 0, 50, 91
2, 526080, Note_on_c, 0, 55, 91
2, 526081, Control_c, 0, 64, 0
2, 526082, Control_c, 0, 64, 127
2, 526307, Note_on_c, 0, 47, 0
2, 526307, Note_on_c, 0, 50, 0
2, 526307, Note_on_c, 0, 55, 0
2, 526320, Note_on_c, 0, 43, 92
2, 526547, Note_on_c, 0, 43, 0
2, 526560, Note_on_c, 0, 47, 92
2, 526560, Note_on_c, 0, 50, 92
2, 526560, Note_on_c, 0, 55, 92
2, 526561, Control_c, 0, 64, 0
2, 526562, Control_c, 0, 64, 127
2, 526787, Note_on_c, 0, 47, 0
2, 526787, Note_on_c, 0, 50, 0
2, 526787, Note_on_c, 0, 55, 0
2, 526800, Note_on_c, 0, 43, 93
2, 527027, Note_on_c, 0, 43, 0
2, 527040, Note_on_c, 0, 47, 93
2, 527040, Note_on_c, 0, 50, 93
2, 527040, Note_on_c, 0, 55, 93
2, 527041, Control_c, 0, 64, 0
2, 527042, Control_c, 0, 64, 127
2, 527267, Note_on_c, 0, 47, 0
2, 527267, Note_on_c, 0, 50, 0
2, 527267, Note_on_c, 0, 55, 0
2, 527280, Note_on_c, 0, 43, 93
2, 527507, Note_on_c, 0, 43, 0
2, 527520, Note_on_c, 0, 47, 94
2, 527520, Note_on_c, 0, 50, 94
2, 527520, Note_on_c, 0, 55, 94
2, 527521, Control_c, 0, 64, 0
2, 527522, Control_c, 0, 64, 127
2, 527747, Note_on_c, 0, 47, 0
2, 527747, Note_on_c, 0, 50, 0
2, 527747, Note_on_c, 0, 55, 0
2, 527760, Note_on_c, 0, 43, 94
2, 527987, Note_on_c, 0, 43, 0
2, 528000, Note_on_c, 0, 47, 95
2, 528000, Note_on_c, 0, 50, 95
2, 528000, Note_on_c, 0, 55, 95
2, 528001, Control_c, 0, 64, 0
2, 528002, Control_c, 0, 64, 127
2, 528227, Note_on_c, 0, 47, 0
2, 528227, Note_on_c, 0, 50, 0
2, 528227, Note_on_c, 0, 55, 0
2, 528240, Note_on_c, 0, 43, 95
2, 528467, Note_on_c, 0, 43, 0
2, 528480, Note_on_c, 0, 47, 96
2, 528480, Note_on_c, 0, 50, 96
2, 528480, Note_on_c, 0, 55, 96
2, 528481, Control_c, 0, 64, 0
2, 528482, Control_c, 0, 64, 127
2, 528707, Note_on_c, 0, 47, 0
2, 528707, Note_on_c, 0, 50, 0
2, 528707, Note_on_c, 0, 55, 0
2, 528720, Note_on_c, 0, 43, 96
2, 528947, Note_on_c, 0, 43, 0
2, 528960, Note_on_c, 0, 48, 96
2, 528960, Note_on_c, 0, 52, 96
2, 528960, Note_on_c, 0, 57, 96
2, 528961, Control_c, 0, 64, 0
2, 528962, Control_c, 0, 64, 127
2, 529187, Note_on_c, 0, 48, 0
2, 529187, Note_on_c, 0, 52, 0
2, 529187, Note_on_c, 0, 57, 0
2, 529200, Note_on_c, 0, 45, 97
2, 529427, Note_on_c, 0, 45, 0
2, 529440, Note_on_c, 0, 48, 97
2, 529440, Note_on_c, 0, 52, 97
2, 529440, Note_on_c, 0, 57, 97
2, 529441, Control_c, 0, 64, 0
2, 529442, Control_c, 0, 64, 127
2, 529667, Note_on_c, 0, 48, 0
2, 529667, Note_on_c, 0, 52, 0
2, 529667, Note_on_c, 0, 57, 0
2, 529680, Note_on_c, 0, 45, 98
2, 529907, Note_on_c, 0, 45, 0
2, 529920, Note_on_c, 0, 48, 98
2, 529920, Note_on_c, 0, 52, 98
2, 529920, Note_on_c, 0, 57, 98
2, 529921, Control_c, 0, 64, 0
2, 529922, Control_c, 0, 64, 127
2, 530147, Note_on_c, 0, 48, 0
2, 530147, Note_on_c, 0, 52, 0
2, 530147, Note_on_c, 0, 57, 0
2, 530160, Note_on_c, 0, 45, 98
2, 530387, Note_on_c, 0, 45, 0
2, 530400, Note_on_c, 0, 48, 99
2, 530400, Note_on_c, 0, 52, 99
2, 530400, Note_on_c, 0, 57, 99
2, 530401, Control_c, 0, 64, 0
2, 530402, Control_c, 0, 64, 127
2, 530627, Note_on_c, 0, 48, 0
2, 530627, Note_on_c, 0, 52, 0
2, 530627, Note_on_c, 0, 57, 0
2, 530640, Note_on_c, 0, 45, 99
2, 530867, Note_on_c, 0, 45, 0
2, 530880, Note_on_c, 0, 48, 100
2, 530880, Note_on_c, 0, 52, 100
2, 530880, Note_on_c, 0, 57, 100
2, 530881, Control_c, 0, 64, 0
2, 530882, Control_c, 0, 64, 127
2, 531107, Note_on_c, 0, 48, 0
2, 531107, Note_on_c, 0, 52, 0
2, 531107, Note_on_c, 0, 57, 0
2, 531120, Note_on_c, 0, 45, 100
2, 531347, Note_on_c, 0, 45, 0
2, 531360, Note_on_c, 0, 48, 100
2, 531360, Note_on_c, 0, 52, 100
2, 531360, Note_on_c, 0, 57, 100
2, 531361, Control_c, 0, 64, 0
2, 531362, Control_c, 0, 64, 127
2, 531587, Note_on_c, 0, 48, 0
2, 531587, Note_on_c, 0, 52, 0
2, 531587, Note_on_c, 0, 57, 0
2, 531600, Note_on_c, 0, 45, 101
2, 531827, Note_on_c, 0, 45, 0
2, 531840, Note_on_c, 0, 47, 101
2, 531840, Note_on_c, 0, 50, 101
2, 531840, Note_on_c, 0, 55, 101
2, 531841, Control_c, 0, 64, 0
2, 531842, Control_c, 0, 64, 127
2, 532067, Note_on_c, 0, 47, 0
2, 532067, Note_on_c, 0, 50, 0
2, 532067, Note_on_c, 0, 55, 0
2, 532080, Note_on_c, 0, 43, 102
2, 532307, Note_on_c, 0, 43, 0
2, 532320, Note_on_c, 0, 47, 102
2, 532320, Note_on_c, 0, 50, 102
2, 532320, Note_on_c, 0, 55, 102
2, 532321, Control_c, 0, 64, 0
2, 532322, Control_c, 0, 64, 127
2, 532547, Note_on_c, 0, 47, 0
2, 532547, Note_on_c, 0, 50, 0
2, 532547, Note_on_c, 0, 55, 0
2, 532560, Note_on_c, 0, 43, 102
2, 532787, Note_on_c, 0, 43, 0
2, 532800, Note_on_c, 0, 47, 103
2, 532800, Note_on_c, 0, 50, 103
2, 532800, Note_on_c, 0, 55, 103
2, 532801, Control_c, 0, 64, 0
2, 532802, Control_c, 0, 64, 127
2, 533027, Note_on_c, 0, 47, 0
2, 533027, Note_on_c, 0, 50, 0
2, 533027, Note_on_c, 0, 55, 0
2, 533040, Note_on_c, 0, 43, 103
2, 533267, Note_on_c, 0, 43, 0
2, 533280, Note_on_c, 0, 47, 104
2, 533280, Note_on_c, 0, 50, 104
2, 533280, Note_on_c, 0, 55, 104
2, 533281, Control_c, 0, 64, 0
2, 533282, Control_c, 0, 64, 127
2, 533507, Note_on_c, 0, 47, 0
2, 533507, Note_on_c, 0, 50, 0
2, 533507, Note_on_c, 0, 55, 0
2, 533520, Note_on_c, 0, 43, 104
2, 533747, Note_on_c, 0, 43, 0
2, 533760, Note_on_c, 0, 47, 104
2, 533760, Note_on_c, 0, 50, 104
2, 533760, Note_on_c, 0, 55, 104
2, 533761, Control_c, 0, 64, 0
2, 533762, Control_c, 0, 64, 127
2, 533987, Note_on_c, 0, 47, 0
2, 533987, Note_on_c, 0, 50, 0
2, 533987, Note_on_c, 0, 55, 0
2, 534000, Note_on_c, 0, 43, 105
2, 534227, Note_on_c, 0, 43, 0
2, 534240, Note_on_c, 0, 47, 105
2, 534240, Note_on_c, 0, 50, 105
2, 534240, Note_on_c, 0, 55, 105
2, 534241, Control_c, 0, 64, 0
2, 534242, Control_c, 0, 64, 127
2, 534467, Note_on_c, 0, 47, 0
2, 534467, Note_on_c, 0, 50, 0
2, 534467, Note_on_c, 0, 55, 0
2, 534480, Note_on_c, 0, 43, 106
2, 534707, Note_on_c, 0, 43, 0
2, 534720, Note_on_c, 0, 45, 106
2, 534720, Note_on_c, 0, 48, 106
2, 534720, Note_on_c, 0, 53, 106
2, 534721, Control_c, 0, 64, 0
2, 534722, Control_c, 0, 64, 127
2, 534947, Note_on_c, 0, 45, 0
2, 534947, Note_on_c, 0, 48, 0
2, 534947, Note_on_c, 0, 53, 0
2, 534960, Note_on_c, 0, 41, 106
2, 535187, Note_on_c, 0, 41, 0
2, 535200, Note_on_c, 0, 45, 107
2, 535200, Note_on_c, 0, 48, 107
2, 535200, Note_on_c, 0, 53, 107
2, 535201, Control_c, 0, 64, 0
2, 535202, Control_c, 0, 64, 127
2, 535427, Note_on_c, 0, 45, 0
2, 535427, Note_on_c, 0, 48, 0
2, 535427, Note_on_c, 0, 53, 0
2, 535440, Note_on_c, 0, 41, 107
2, 535667, Note_on_c, 0, 41, 0
2, 535680, Note_on_c, 0, 45, 108
2, 535680, Note_on_c, 0, 48, 108
2, 535680, Note_on_c, 0, 53, 108
2, 535681, Control_c, 0, 64, 0
2, 535682, Control_c, 0, 64, 127
2, 535907, Note_on_c, 0, 45, 0
2, 535907, Note_on_c, 0, 48, 0
2, 535907, Note_on_c, 0, 53, 0
2, 535920, Note_on_c, 0, 41, 108
2, 536147, Note_on_c, 0, 41, 0
2, 536160, Note_on_c, 0, 45, 108
2, 536160, Note_on_c, 0, 48, 108
2, 536160, Note_on_c, 0, 53, 108
2, 536161, Control_c, 0, 64, 0
2, 536162, Control_c, 0, 64, 127
2, 536387, Note_on_c, 0, 45, 0
2, 536387, Note_on_c, 0, 48, 0
2, 536387, Note_on_c, 0, 53, 0
2, 536400, Note_on_c, 0, 41, 109
2, 536627, Note_on_c, 0, 41, 0
2, 536640, Note_on_c, 0, 45, 109
2, 536640, Note_on_c, 0, 48, 109
2, 536640, Note_on_c, 0, 53, 109
2, 536641, Control_c, 0, 64, 0
2, 536642, Control_c, 0, 64, 127
2, 536867, Note_on_c, 0, 45, 0
2, 536867, Note_on_c, 0, 48, 0
2, 536867, Note_on_c, 0, 53, 0
2, 536880, Note_on_c, 0, 41, 110
2, 537107, Note_on_c, 0, 41, 0
2, 537120, Note_on_c, 0, 45, 110
2, 537120, Note_on_c, 0, 48, 110
2, 537120, Note_on_c, 0, 53, 110
2, 537121, Control_c, 0, 64, 0
2, 537122, Control_c, 0, 64, 127
2, 537347, Note_on_c, 0, 45, 0
2, 537347, Note_on_c, 0, 48, 0
2, 537347, Note_on_c, 0, 53, 0
2, 537360, Note_on_c, 0, 41, 111
2, 537587, Note_on_c, 0, 41, 0
2, 537600, Note_on_c, 0, 47, 111
2, 537600, Note_on_c, 0, 50, 111
2, 537600, Note_on_c, 0, 55, 111
2, 537601, Control_c, 0, 64, 0
2, 537602, Control_c, 0, 64, 127
2, 537827, Note_on_c, 0, 47, 0
2, 537827, Note_on_c, 0, 50, 0
2, 537827, Note_on_c, 0, 55, 0
2, 537840, Note_on_c, 0, 43, 111
2, 538067, Note_on_c, 0, 43, 0
2, 538080, Note_on_c, 0, 47, 112
2, 538080, Note_on_c, 0, 50, 112
2, 538080, Note_on_c, 0, 55, 112
2, 538081, Control_c, 0, 64, 0
2, 538082, Control_c, 0, 64, 127
2, 538307, Note_on_c, 0, 47, 0
2, 538307, Note_on_c, 0, 50, 0
2, 538307, Note_on_c, 0, 55, 0
2, 538320, Note_on_c, 0, 43, 112
2, 538547, Note_on_c, 0, 43, 0
2, 538560, Note_on_c, 0, 47, 113
2, 538560, Note_on_c, 0, 50, 113
2, 538560, Note_on_c, 0, 55, 113
2, 538561, Control_c, 0, 64, 0
2, 538562, Control_c, 0, 64, 127
2, 538787, Note_on_c, 0, 47, 0
2, 538787, Note_on_c, 0, 50, 0
2, 538787, Note_on_c, 0, 55, 0
2, 538800, Note_on_c, 0, 43, 113
2, 539027, Note_on_c, 0, 43, 0
2, 539040, Note_on_c, 0, 47, 113
2, 539040, Note_on_c, 0, 50, 113
2, 539040, Note_on_c, 0, 55, 113
2, 539041, Control_c, 0, 64, 0
2, 539042, Control_c, 0, 64, 127
2, 539267, Note_on_c, 0, 47, 0
2, 539267, Note_on_c, 0, 50, 0
2, 539267, Note_on_c, 0, 55, 0
2, 539280, Note_on_c, 0, 43, 114
2, 539507, Note_on_c, 0, 43, 0
2, 539520, Note_on_c, 0, 47, 114
2, 539520, Note_on_c, 0, 50, 114
2, 539520, Note_on_c, 0, 55, 114
2, 539521, Control_c, 0, 64, 0
2, 539522, Control_c, 0, 64, 127
2, 539747, Note_on_c, 0, 47, 0
2, 539747, Note_on_c, 0, 50, 0
2, 539747, Note_on_c, 0, 55, 0
2, 539760, Note_on_c, 0, 43, 115
2, 539987, Note_on_c, 0, 43, 0
2, 540000, Note_on_c, 0, 47, 115
2, 540000, Note_on_c, 0, 50, 115
2, 540000, Note_on_c, 0, 55, 115
2, 540001, Control_c, 0, 64, 0
2, 540002, Control_c, 0, 64, 127
2, 540227, Note_on_c, 0, 47, 0
2, 540227, Note_on_c, 0, 50, 0
2, 540227, Note_on_c, 0, 55, 0
2, 540240, Note_on_c, 0, 43, 115
2, 540467, Note_on_c, 0, 43, 0
2, 540480, Note_on_c, 0, 48, 116
2, 540480, Note_on_c, 0, 52, 116
2, 540480, Note_on_c, 0, 57, 116
2, 540481, Control_c, 0, 64, 0
2, 540482, Control_c, 0, 64, 127
2, 540707, Note_on_c, 0, 48, 0
2, 540707, Note_on_c, 0, 52, 0
2, 540707, Note_on_c, 0, 57, 0
2, 540720, Note_on_c, 0, 45, 116
2, 540947, Note_on_c, 0, 45, 0
2, 540960, Note_on_c, 0, 48, 117
2, 540960, Note_on_c, 0, 52, 117
2, 540960, Note_on_c, 0, 57, 117
2, 540961, Control_c, 0, 64, 0
2, 540962, Control_c, 0, 64, 127
2, 541187, Note_on_c, 0, 48, 0
2, 541187, Note_on_c, 0, 52, 0
2, 541187, Note_on_c, 0, 57, 0
2, 541200, Note_on_c, 0, 45, 117
2, 541427, Note_on_c, 0, 45, 0
2, 541440, Note_on_c, 0, 48, 117
2, 541440, Note_on_c, 0, 52, 117
2, 541440, Note_on_c, 0, 57, 117
2, 541441, Control_c, 0, 64, 0
2, 541442, Control_c, 0, 64, 127
2, 541667, Note_on_c, 0, 48, 0
2, 541667, Note_on_c, 0, 52, 0
2, 541667, Note_on_c, 0, 57, 0
2, 541680, Note_on_c, 0, 45, 118
2, 541907, Note_on_c, 0, 45, 0
2, 541920, Note_on_c, 0, 48, 118
2, 541920, Note_on_c, 0, 52, 118
2, 541920, Note_on_c, 0, 57, 118
2, 541921, Control_c, 0, 64, 0
2, 541922, Control_c, 0, 64, 127
2, 542147, Note_on_c, 0, 48, 0
2, 542147, Note_on_c, 0, 52, 0
2, 542147, Note_on_c, 0, 57, 0
2, 542160, Note_on_c, 0, 45, 119
2, 542387, Note_on_c, 0, 45, 0
2, 542400, Note_on_c, 0, 48, 119
2, 542400, Note_on_c, 0, 52, 119
2, 542400, Note_on_c, 0, 57, 119
2, 542401, Control_c, 0, 64, 0
2, 542402, Control_c, 0, 64, 127
2, 542627, Note_on_c, 0, 48, 0
2, 542627, Note_on_c, 0, 52, 0
2, 542627, Note_on_c, 0, 57, 0
2, 542640, Note_on_c, 0, 45, 119
2, 542867, Note_on_c, 0, 45, 0
2, 542880, Note_on_c, 0, 48, 120
2, 542880, Note_on_c, 0, 52, 120
2, 542880, Note_on_c, 0, 57, 120
2, 542881, Control_c, 0, 64, 0
2, 542882, Control_c, 0, 64, 127
2, 543107, Note_on_c, 0, 48, 0
2, 543107, Note_on_c, 0, 52, 0
2, 543107, Note_on_c, 0, 57, 0
2, 543120, Note_on_c, 0, 45, 120
2, 543347, Note_on_c, 0, 45, 0
2, 543360, Note_on_c, 0, 47, 121
2, 543360, Note_on_c, 0, 50, 121
2, 543360, Note_on_c, 0, 55, 121
2, 543361, Control_c, 0, 64, 0
2, 543362, Control_c, 0, 64, 127
2, 543587, Note_on_c, 0, 47, 0
2, 543587, Note_on_c, 0, 50, 0
2, 543587, Note_on_c, 0, 55, 0
2, 543600, Note_on_c, 0, 43, 121
2, 543827, Note_on_c, 0, 43, 0
2, 543840, Note_on_c, 0, 47, 121
2, 543840, Note_on_c, 0, 50, 121
2, 543840, Note_on_c, 0, 55, 121
2, 543841, Control_c, 0, 64, 0
2, 543842, Control_c, 0, 64, 127
2, 544067, Note_on_c, 0, 47, 0
2, 544067, Note_on_c, 0, 50, 0
2, 544067, Note_on_c, 0, 55, 0
2, 544080, Note_on_c, 0, 43, 122
2, 544307, Note_on_c, 0, 43, 0
2, 544320, Note_on_c, 0, 47, 122
2, 544320, Note_on_c, 0, 50, 122
2, 544320, Note_on_c, 0, 55, 122
2, 544321, Control_c, 0, 64, 0
2, 544322, Control_c, 0, 64, 127
2, 544547, Note_on_c, 0, 47, 0
2, 544547, Note_on_c, 0, 50, 0
2, 544547, Note_on_c, 0, 55, 0
2, 544560, Note_on_c, 0, 43, 123
2, 544787, Note_on_c, 0, 43, 0
2, 544800, Note_on_c, 0, 47, 123
2, 544800, Note_on_c, 0, 50, 123
2, 544800, Note_on_c, 0, 55, 123
2, 544801, Control_c, 0, 64, 0
2, 544802, Control_c, 0, 64, 127
2, 545027, Note_on_c, 0, 47, 0
2, 545027, Note_on_c, 0, 50, 0
2, 545027, Note_on_c, 0, 55, 0
2, 545040, Note_on_c, 0, 43, 123
2, 545267, Note_on_c, 0, 43, 0
2, 545280, Note_on_c, 0, 47, 124
2, 545280, Note_on_c, 0, 50, 124
2, 545280, Note_on_c, 0, 55, 124
2, 545281, Control_c, 0, 64, 0
2, 545282, Control_c, 0, 64, 127
2, 545507, Note_on_c, 0, 47, 0
2, 545507, Note_on_c, 0, 50, 0
2, 545507, Note_on_c, 0, 55, 0
2, 545520, Note_on_c, 0, 43, 124
2, 545747, Note_on_c, 0, 43, 0
2, 545760, Note_on_c, 0, 47, 125
2, 545760, Note_on_c, 0, 50, 125
2, 545760, Note_on_c, 0, 55, 125
2, 545761, Control_c, 0, 64, 0
2, 545762, Control_c, 0, 64, 127
2, 545987, Note_on_c, 0, 47, 0
2, 545987, Note_on_c, 0, 50, 0
2, 545987, Note_on_c, 0, 55, 0
2, 546000, Note_on_c, 0, 43, 125
2, 546227, Note_on_c, 0, 43, 0
2, 546240, Note_on_c, 0, 45, 126
2, 546240, Note_on_c, 0, 48, 126
2, 546240, Note_on_c, 0, 53, 126
2, 546241, Control_c, 0, 64, 0
2, 546242, Control_c, 0, 64, 127
2, 546467, Note_on_c, 0, 45, 0
2, 546467, Note_on_c, 0, 48, 0
2, 546467, Note_on_c, 0, 53, 0
2, 546480, Note_on_c, 0, 41, 126
2, 546707, Note_on_c, 0, 41, 0
2, 546720, Note_on_c, 0, 45, 126
2, 546720, Note_on_c, 0, 48, 126
2, 546720, Note_on_c, 0, 53, 126
2, 546721, Control_c, 0, 64, 0
2, 546722, Control_c, 0, 64, 127
2, 546947, Note_on_c, 0, 45, 0
2, 546947, Note_on_c, 0, 48, 0
2, 546947, Note_on_c, 0, 53, 0
2, 546960, Note_on_c, 0, 41, 126
2, 547187, Note_on_c, 0, 41, 0
2, 547200, Note_on_c, 0, 45, 126
2, 547200, Note_on_c, 0, 48, 126
2, 547200, Note_on_c, 0, 53, 126
2, 547201, Control_c, 0, 64, 0
2, 547202, Control_c, 0, 64, 127
2, 547427, Note_on_c, 0, 45, 0
2, 547427, Note_on_c, 0, 48, 0
2, 547427, Note_on_c, 0, 53, 0
2, 547440, Note_on_c, 0, 41, 126
2, 547667, Note_on_c, 0, 41, 0
2, 547680, Note_on_c, 0, 45, 126
2, 547680, Note_on_c, 0, 48, 126
2, 547680, Note_on_c, 0, 53, 126
2, 547681, Control_c, 0, 64, 0
2, 547682, Control_c, 0, 64, 127
2, 547907, Note_on_c, 0, 45, 0
2, 547907, Note_on_c, 0, 48, 0
2, 547907, Note_on_c, 0, 53, 0
2, 547920, Note_on_c, 0, 41, 126
2, 548147, Note_on_c, 0, 41, 0
2, 548160, Note_on_c, 0, 45, 126
2, 548160, Note_on_c, 0, 48, 126
2, 548160, Note_on_c, 0, 53, 126
2, 548161, Control_c, 0, 64, 0
2, 548162, Control_c, 0, 64, 127
2, 548387, Note_on_c, 0, 45, 0
2, 548387, Note_on_c, 0, 48, 0
2, 548387, Note_on_c, 0, 53, 0
2, 548400, Note_on_c, 0, 41, 126
2, 548627, Note_on_c, 0, 41, 0
2, 548640, Note_on_c, 0, 45, 126
2, 548640, Note_on_c, 0, 48, 126
2, 548640, Note_on_c, 0, 53, 126
2, 548641, Control_c, 0, 64, 0
2, 548642, Control_c, 0, 64, 127
2, 548867, Note_on_c, 0, 45, 0
2, 548867, Note_on_c, 0, 48, 0
2, 548867, Note_on_c, 0, 53, 0
2, 548880, Note_on_c, 0, 41, 126
2, 549107, Note_on_c, 0, 41, 0
2, 549120, Note_on_c, 0, 47, 126
2, 549120, Note_on_c, 0, 50, 126
2, 549120, Note_on_c, 0, 55, 126
2, 549121, Control_c, 0, 64, 0
2, 549122, Control_c, 0, 64, 127
2, 549347, Note_on_c, 0, 47, 0
2, 549347, Note_on_c, 0, 50, 0
2, 549347, Note_on_c, 0, 55, 0
2, 549360, Note_on_c, 0, 43, 126
2, 549587, Note_on_c, 0, 43, 0
2, 549600, Note_on_c, 0, 47, 126
2, 549600, Note_on_c, 0, 50, 126
2, 549600, Note_on_c, 0, 55, 126
2, 549601, Control_c, 0, 64, 0
2, 549602, Control_c, 0, 64, 127
2, 549827, Note_on_c, 0, 47, 0
2, 549827, Note_on_c, 0, 50, 0
2, 549827, Note_on_c, 0, 55, 0
2, 549840, Note_on_c, 0, 43, 126
2, 550067, Note_on_c, 0, 43, 0
2, 550080, Note_on_c, 0, 47, 126
2, 550080, Note_on_c, 0, 50, 126
2, 550080, Note_on_c, 0, 55, 126
2, 550081, Control_c, 0, 64, 0
2, 550082, Control_c, 0, 64, 127
2, 550307, Note_on_c, 0, 47, 0
2, 550307, Note_on_c, 0, 50, 0
2, 550307, Note_on_c, 0, 55, 0
2, 550320, Note_on_c, 0, 43, 126
2, 550547, Note_on_c, 0, 43, 0
2, 550560, Note_on_c, 0, 47, 126
2, 550560, Note_on_c, 0, 50, 126
2, 550560, Note_on_c, 0, 55, 126
2, 550561, Control_c, 0, 64, 0
2, 550562, Control_c, 0, 64, 127
2, 550787, Note_on_c, 0, 47, 0
2, 550787, Note_on_c, 0, 50, 0
2, 550787, Note_on_c, 0, 55, 0
2, 550800, Note_on_c, 0, 43, 126
2, 551027, Note_on_c, 0, 43, 0
2, 551040, Note_on_c, 0, 47, 126
2, 551040, Note_on_c, 0, 50, 126
2, 551040, Note_on_c, 0, 55, 126
2, 551041, Control_c, 0, 64, 0
2, 551042, Control_c, 0, 64, 127
2, 551267, Note_on_c, 0, 47, 0
2, 551267, Note_on_c, 0, 50, 0
2, 551267, Note_on_c, 0, 55, 0
2, 551280, Note_on_c, 0, 43, 126
2, 551507, Note_on_c, 0, 43, 0
2, 551520, Note_on_c, 0, 47, 126
2, 551520, Note_on_c, 0, 50, 126
2, 551520, Note_on_c, 0, 55, 126
2, 551521, Control_c, 0, 64, 0
2, 551522, Control_c, 0, 64, 127
2, 551747, Note_on_c, 0, 47, 0
2, 551747, Note_on_c, 0, 50, 0
2, 551747, Note_on_c, 0, 55, 0
2, 551760, Note_on_c, 0, 43, 126
2, 551987, Note_on_c, 0, 43, 0
2, 552000, Note_on_c, 0, 48, 126
2, 552000, Note_on_c, 0, 52, 126
2, 552000, Note_on_c, 0, 57, 126
2, 552001, Control_c, 0, 64, 0
2, 552002, Control_c, 0, 64, 127
2, 552227, Note_on_c, 0, 48, 0
2, 552227, Note_on_c, 0, 52, 0
2, 552227, Note_on_c, 0, 57, 0
2, 552240, Note_on_c, 0, 45, 126
2, 552467, Note_on_c, 0, 45, 0
2, 552480, Note_on_c, 0, 48, 126
2, 552480, Note_on_c, 0, 52, 126
2, 552480, Note_on_c, 0, 57, 126
2, 552481, Control_c, 0, 64, 0
2, 552482, Control_c, 0, 64, 127
2, 552707, Note_on_c, 0, 48, 0
2, 552707, Note_on_c, 0, 52, 0
2, 552707, Note_on_c, 0, 57, 0
2, 552720, Note_on_c, 0, 45, 126
2, 552947, Note_on_c, 0, 45, 0
2, 552960, Note_on_c, 0, 48, 126
2, 552960, Note_on_c, 0, 52, 126
2, 552960, Note_on_c, 0, 57, 126
2, 552961, Control_c, 0, 64, 0
2, 552962, Control_c, 0, 64, 127
2, 553187, Note_on_c, 0, 48, 0
2, 553187, Note_on_c, 0, 52, 0
2, 553187, Note_on_c, 0, 57, 0
2, 553200, Note_on_c, 0, 45, 126
2, 553427, Note_on_c, 0, 45, 0
2, 553440, Note_on_c, 0, 48, 126
2, 553440, Note_on_c, 0, 52, 126
2, 553440, Note_on_c, 0, 57, 126
2, 553441, Control_c, 0, 64, 0
2, 553442, Control_c, 0, 64, 127
2, 553667, Note_on_c, 0, 48, 0
2, 553667, Note_on_c, 0, 52, 0
2, 553667, Note_on_c, 0, 57, 0
2, 553680, Note_on_c, 0, 45, 126
2, 553907, Note_on_c, 0, 45, 0
2, 553920, Note_on_c, 0, 48, 126
2, 553920, Note_on_c, 0, 52, 126
2, 553920, Note_on_c, 0, 57, 126
2, 553921, Control_c, 0, 64, 0
2, 553922, Control_c, 0, 64, 127
2, 554147, Note_on_c, 0, 48, 0
2, 554147, Note_on_c, 0, 52, 0
2, 554147, Note_on_c, 0, 57, 0
2, 554160, Note_on_c, 0, 45, 126
2, 554387, Note_on_c, 0, 45, 0
2, 554400, Note_on_c, 0, 48, 126
2, 554400, Note_on_c, 0, 52, 126
2, 554400, Note_on_c, 0, 57, 126
2, 554401, Control_c, 0, 64, 0
2, 554402, Control_c, 0, 64, 127
2, 554627, Note_on_c, 0, 48, 0
2, 554627, Note_on_c, 0, 52, 0
2, 554627, Note_on_c, 0, 57, 0
2, 554640, Note_on_c, 0, 45, 126
2, 554867, Note_on_c, 0, 45, 0
2, 554880, Note_on_c, 0, 47, 126
2, 554880, Note_on_c, 0, 50, 126
2, 554880, Note_on_c, 0, 55, 126
2, 554881, Control_c, 0, 64, 0
2, 554882, Control_c, 0, 64, 127
2, 555107, Note_on_c, 0, 47, 0
2, 555107, Note_on_c, 0, 50, 0
2, 555107, Note_on_c, 0, 55, 0
2, 555120, Note_on_c, 0, 43, 126
2, 555347, Note_on_c, 0, 43, 0
2, 555360, Note_on_c, 0, 47, 126
2, 555360, Note_on_c, 0, 50, 126
2, 555360, Note_on_c, 0, 55, 126
2, 555361, Control_c, 0, 64, 0
2, 555362, Control_c, 0, 64, 127
2, 555587, Note_on_c, 0, 47, 0
2, 555587, Note_on_c, 0, 50, 0
2, 555587, Note_on_c, 0, 55, 0
2, 555600, Note_on_c, 0, 43, 126
2, 555827, Note_on_c, 0, 43, 0
2, 555840, Note_on_c, 0, 47, 126
2, 555840, Note_on_c, 0, 50, 126
2, 555840, Note_on_c, 0, 55, 126
2, 555841, Control_c, 0, 64, 0
2, 555842, Control_c, 0, 64, 127
2, 556067, Note_on_c, 0, 47, 0
2, 556067, Note_on_c, 0, 50, 0
2, 556067, Note_on_c, 0, 55, 0
2, 556080, Note_on_c, 0, 43, 126
2, 556307, Note_on_c, 0, 43, 0
2, 556320, Note_on_c, 0, 47, 126
2, 556320, Note_on_c, 0, 50, 126
2, 556320, Note_on_c, 0, 55, 126
2, 556321, Control_c, 0, 64, 0
2, 556322, Control_c, 0, 64, 127
2, 556547, Note_on_c, 0, 47, 0
2, 556547, Note_on_c, 0, 50, 0
2, 556547, Note_on_c, 0, 55, 0
2, 556560, Note_on_c, 0, 43, 126
2, 556787, Note_on_c, 0, 43, 0
2, 556800, Note_on_c, 0, 47, 126
2, 556800, Note_on_c, 0, 50, 126
2, 556800, Note_on_c, 0, 55, 126
2, 556801, Control_c, 0, 64, 0
2, 556802, Control_c, 0, 64, 127
2, 557027, Note_on_c, 0, 47, 0
2, 557027, Note_on_c, 0, 50, 0
2, 557027, Note_on_c, 0, 55, 0
2, 557040, Note_on_c, 0, 43, 126
2, 557267, Note_on_c, 0, 43, 0
2, 557280, Note_on_c, 0, 47, 126
2, 557280, Note_on_c, 0, 50, 126
2, 557280, Note_on_c, 0, 55, 126
2, 557281, Control_c, 0, 64, 0
2, 557282, Control_c, 0, 64, 127
2, 557507, Note_on_c, 0, 47, 0
2, 557507, Note_on_c, 0, 50, 0
2, 557507, Note_on_c, 0, 55, 0
2, 557520, Note_on_c, 0, 43, 126
2, 557747, Note_on_c, 0, 43, 0
2, 557760, Note_on_c, 0, 45, 126
2, 557760, Note_on_c, 0, 48, 126
2, 557760, Note_on_c, 0, 53, 126
2, 557761, Control_c, 0, 64, 0
2, 557762, Control_c, 0, 64, 127
2, 557987, Note_on_c, 0, 45, 0
2, 557987, Note_on_c, 0, 48, 0
2, 557987, Note_on_c, 0, 53, 0
2, 558000, Note_on_c, 0, 41, 126
2, 558227, Note_on_c, 0, 41, 0
2, 558240, Note_on_c, 0, 45, 126
2, 558240, Note_on_c, 0, 48, 126
2, 558240, Note_on_c, 0, 53, 126
2, 558241, Control_c, 0, 64, 0
2, 558242, Control_c, 0, 64, 127
2, 558467, Note_on_c, 0, 45, 0
2, 558467, Note_on_c, 0, 48, 0
2, 558467, Note_on_c, 0, 53, 0
2, 558480, Note_on_c, 0, 41, 126
2, 558707, Note_on_c, 0, 41, 0
2, 558720, Note_on_c, 0, 45, 126
2, 558720, Note_on_c, 0, 48, 126
2, 558720, Note_on_c, 0, 53, 126
2, 558721, Control_c, 0, 64, 0
2, 558722, Control_c, 0, 64, 127
2, 558947, Note_on_c, 0, 45, 0
2, 558947, Note_on_c, 0, 48, 0
2, 558947, Note_on_c, 0, 53, 0
2, 558960, Note_on_c, 0, 41, 126
2, 559187, Note_on_c, 0, 41, 0
2, 559200, Note_on_c, 0, 45, 126
2, 559200, Note_on_c, 0, 48, 126
2, 559200, Note_on_c, 0, 53, 126
2, 559201, Control_c, 0, 64, 0
2, 559202, Control_c, 0, 64, 127
2, 559427, Note_on_c, 0, 45, 0
2, 559427, Note_on_c, 0, 48, 0
2, 559427, Note_on_c, 0, 53, 0
2, 559440, Note_on_c, 0, 41, 126
2, 559667, Note_on_c, 0, 41, 0
2, 559680, Note_on_c, 0, 45, 126
2, 559680, Note_on_c, 0, 48, 126
2, 559680, Note_on_c, 0, 53, 126
2, 559681, Control_c, 0, 64, 0
2, 559682, Control_c, 0, 64, 127
2, 559907, Note_on_c, 0, 45, 0
2, 559907, Note_on_c, 0, 48, 0
2, 559907, Note_on_c, 0, 53, 0
2, 559920, Note_on_c, 0, 41, 126
2, 560147, Note_on_c, 0, 41, 0
2, 560160, Note_on_c, 0, 45, 126
2, 560160, Note_on_c, 0, 48, 126
2, 560160, Note_on_c, 0, 53, 126
2, 560161, Control_c, 0, 64, 0
2, 560162, Control_c, 0, 64, 127
2, 560387, Note_on_c, 0, 45, 0
2, 560387, Note_on_c, 0, 48, 0
2, 560387, Note_on_c, 0, 53, 0
2, 560400, Note_on_c, 0, 41, 126
2, 560627, Note_on_c, 0, 41, 0
2, 560640, Note_on_c, 0, 47, 126
2, 560640, Note_on_c, 0, 50, 126
2, 560640, Note_on_c, 0, 55, 126
2, 560641, Control_c, 0, 64, 0
2, 560642, Control_c, 0, 64, 127
2, 560867, Note_on_c, 0, 47, 0
2, 560867, Note_on_c, 0, 50, 0
2, 560867, Note_on_c, 0, 55, 0
2, 560880, Note_on_c, 0, 43, 126
2, 561107, Note_on_c, 0, 43, 0
2, 561120, Note_on_c, 0, 47, 126
2, 561120, Note_on_c, 0, 50, 126
2, 561120, Note_on_c, 0, 55, 126
2, 561121, Control_c, 0, 64, 0
2, 561122, Control_c, 0, 64, 127
2, 561347, Note_on_c, 0, 47, 0
2, 561347, Note_on_c, 0, 50, 0
2, 561347, Note_on_c, 0, 55, 0
2, 561360, Note_on_c, 0, 43, 126
2, 561587, Note_on_c, 0, 43, 0
2, 561600, Note_on_c, 0, 47, 126
2, 561600, Note_on_c, 0, 50, 126
2, 561600, Note_on_c, 0, 55, 126
2, 561601, Control_c, 0, 64, 0
2, 561602, Control_c, 0, 64, 127
2, 561827, Note_on_c, 0, 47, 0
2, 561827, Note_on_c, 0, 50, 0
2, 561827, Note_on_c, 0, 55, 0
2, 561840, Note_on_c, 0, 43, 126
2, 562067, Note_on_c, 0, 43, 0
2, 562080, Note_on_c, 0, 47, 126
2, 562080, Note_on_c, 0, 50, 126
2, 562080, Note_on_c, 0, 55, 126
2, 562081, Control_c, 0, 64, 0
2, 562082, Control_c, 0, 64, 127
2, 562307, Note_on_c, 0, 47, 0
2, 562307, Note_on_c, 0, 50, 0
2, 562307, Note_on_c, 0, 55, 0
2, 562320, Note_on_c, 0, 43, 126
2, 562547, Note_on_c, 0, 43, 0
2, 562560, Note_on_c, 0, 47, 126
2, 562560, Note_on_c, 0, 50, 126
2, 562560, Note_on_c, 0, 55, 126
2, 562561, Control_c, 0, 64, 0
2, 562562, Control_c, 0, 64, 127
2, 562787, Note_on_c, 0, 47, 0
2, 562787, Note_on_c, 0, 50, 0
2, 562787, Note_on_c, 0, 55, 0
2, 562800, Note_on_c, 0, 43, 126
2, 563027, Note_on_c, 0, 43, 0
2, 563040, Note_on_c, 0, 47, 126
2, 563040, Note_on_c, 0, 50, 126
2, 563040, Note_on_c, 0, 55, 126
2, 563041, Control_c, 0, 64, 0
2, 563042, Control_c, 0, 64, 127
2, 563267, Note_on_c, 0, 47, 0
2, 563267, Note_on_c, 0, 50, 0
2, 563267, Note_on_c, 0, 55, 0
2, 563280, Note_on_c, 0, 43, 126
2, 563507, Note_on_c, 0, 43, 0
2, 563520, Note_on_c, 0, 48, 126
2, 563520, Note_on_c, 0, 52, 126
2, 563520, Note_on_c, 0, 57, 126
2, 563521, Control_c, 0, 64, 0
2, 563522, Control_c, 0, 64, 127
2, 563747, Note_on_c, 0, 48, 0
2, 563747, Note_on_c, 0, 52, 0
2, 563747, Note_on_c, 0, 57, 0
2, 563760, Note_on_c, 0, 45, 122
2, 563987, Note_on_c, 0, 45, 0
2, 564000, Note_on_c, 0, 48, 117
2, 564000, Note_on_c, 0, 52, 117
2, 564000, Note_on_c, 0, 57, 117
2, 564001, Control_c, 0, 64, 0
2, 564002, Control_c, 0, 64, 127
2, 564227, Note_on_c, 0, 48, 0
2, 564227, Note_on_c, 0, 52, 0
2, 564227, Note_on_c, 0, 57, 0
2, 564240, Note_on_c, 0, 45, 113
2, 564467, Note_on_c, 0, 45, 0
2, 564480, Note_on_c, 0, 48, 108
2, 564480, Note_on_c, 0, 52, 108
2, 564480, Note_on_c, 0, 57, 108
2, 564481, Control_c, 0, 64, 0
2, 564482, Control_c, 0, 64, 127
2, 564707, Note_on_c, 0, 48, 0
2, 564707, Note_on_c, 0, 52, 0
2, 564707, Note_on_c, 0, 57, 0
2, 564720, Note_on_c, 0, 45, 104
2, 564947, Note_on_c, 0, 45, 0
2, 564960, Note_on_c, 0, 48, 99
2, 564960, Note_on_c, 0, 52, 99
2, 564960, Note_on_c, 0, 57, 99
2, 564961, Control_c, 0, 64, 0
2, 564962, Control_c, 0, 64, 127
2, 565187, Note_on_c, 0, 48, 0
2, 565187, Note_on_c, 0, 52, 0
2, 565187, Note_on_c, 0, 57, 0
2, 565200, Note_on_c, 0, 45, 94
2, 565427, Note_on_c, 0, 45, 0
2, 565440, Note_on_c, 0, 48, 90
2, 565440, Note_on_c, 0, 52, 90
2, 565440, Note_on_c, 0, 57, 90
2, 565441, Control_c, 0, 64, 0
2, 565442, Control_c, 0, 64, 127
2, 565667, Note_on_c, 0, 48, 0
2, 565667, Note_on_c, 0, 52, 0
2, 565667, Note_on_c, 0, 57, 0
2, 565680, Note_on_c, 0, 45, 85
2, 565907, Note_on_c, 0, 45, 0
2, 565920, Note_on_c, 0, 48, 81
2, 565920, Note_on_c, 0, 52, 81
2, 565920, Note_on_c, 0, 57, 81
2, 565921, Control_c, 0, 64, 0
2, 565922, Control_c, 0, 64, 127
2, 566147, Note_on_c, 0, 48, 0
2, 566147, Note_on_c, 0, 52, 0
2, 566147, Note_on_c, 0, 57, 0
2, 566160, Note_on_c, 0, 45, 76
2, 566387, Note_on_c, 0, 45, 0
2, 566400, Note_on_c, 0, 47, 71
2, 566400, Note_on_c, 0, 50, 71
2, 566400, Note_on_c, 0, 55, 71
2, 566401, Control_c, 0, 64, 0
2, 566402, Control_c, 0, 64, 127
2, 566627, Note_on_c, 0, 47, 0
2, 566627, Note_on_c, 0, 50, 0
2, 566627, Note_on_c, 0, 55, 0
2, 566640, Note_on_c, 0, 43, 67
2, 566867, Note_on_c, 0, 43, 0
2, 566880, Note_on_c, 0, 47, 62
2, 566880, Note_on_c, 0, 50, 62
2, 566880, Note_on_c, 0, 55, 62
2, 566881, Control_c, 0, 64, 0
2, 566882, Control_c, 0, 64, 127
2, 567107, Note_on_c, 0, 47, 0
2, 567107, Note_on_c, 0, 50, 0
2, 567107, Note_on_c, 0, 55, 0
2, 567120, Note_on_c, 0, 43, 58
2, 567347, Note_on_c, 0, 43, 0
2, 567360, Note_on_c, 0, 47, 53
2, 567360, Note_on_c, 0, 50, 53
2, 567360, Note_on_c, 0, 55, 53
2, 567361, Control_c, 0, 64, 0
2, 567362, Control_c, 0, 64, 127
2, 567587, Note_on_c, 0, 47, 0
2, 567587, Note_on_c, 0, 50, 0
2, 567587, Note_on_c, 0, 55, 0
2, 567600, Note_on_c, 0, 43, 49
2, 567827, Note_on_c, 0, 43, 0
2, 567840, Note_on_c, 0, 47, 44
2, 567840, Note_on_c, 0, 50, 44
2, 567840, Note_on_c, 0, 55, 44
2, 567841, Control_c, 0, 64, 0
2, 567842, Control_c, 0, 64, 127
2, 568067, Note_on_c, 0, 47, 0
2, 568067, Note_on_c, 0, 50, 0
2, 568067, Note_on_c, 0, 55, 0
2, 568080, Note_on_c, 0, 43, 39
2, 568307, Note_on_c, 0, 43, 0
2, 568320, Note_on_c, 0, 47, 35
2, 568320, Note_on_c, 0, 50, 35
2, 568320, Note_on_c, 0, 55, 35
2, 568321, Control_c, 0, 64, 0
2, 568322, Control_c, 0, 64, 127
2, 568547, Note_on_c, 0, 47, 0
2, 568547, Note_on_c, 0, 50, 0
2, 568547, Note_on_c, 0, 55, 0
2, 568560, Note_on_c, 0, 43, 30
2, 568787, Note_on_c, 0, 43, 0
2, 568800, Note_on_c, 0, 47, 26
2, 568800, Note_on_c, 0, 50, 26
2, 568800, Note_on_c, 0, 55, 26
2, 568801, Control_c, 0, 64, 0
2, 568802, Control_c, 0, 64, 127
2, 569027, Note_on_c, 0, 47, 0
2, 569027, Note_on_c, 0, 50, 0
2, 569027, Note_on_c, 0, 55, 0
2, 569040, Note_on_c, 0, 43, 21
2, 569267, Note_on_c, 0, 43, 0
2, 569280, Note_on_c, 0, 53, 16
2, 569280, Note_on_c, 0, 60, 16
2, 569280, Note_on_c, 0, 65, 16
2, 569281, Control_c, 0, 64, 0
2, 569282, Control_c, 0, 64, 127
2, 572015, Note_on_c, 0, 53, 0
2, 572015, Note_on_c, 0, 60, 0
2, 572015, Note_on_c, 0, 65, 0
2, 572160, Note_on_c, 0, 55, 16
2, 572160, Note_on_c, 0, 62, 16
2, 572160, Note_on_c, 0, 67, 16
2, 572161, Control_c, 0, 64, 0
2, 572162, Control_c, 0, 64, 127
2, 574895, Note_on_c, 0, 55, 0
2, 574895, Note_on_c, 0, 62, 0
2, 574895, Note_on_c, 0, 67, 0
2, 575040, Note_on_c, 0, 53, 16
2, 575040, Note_on_c, 0, 60, 16
2, 575040, Note_on_c, 0, 65, 16
2, 575041, Control_c, 0, 64, 0
2, 575042, Control_c, 0, 64, 127
2, 577775, Note_on_c, 0, 53, 0
2, 577775, Note_on_c, 0, 60, 0
2, 577775, Note_on_c, 0, 65, 0
2, 577920, Note_on_c, 0, 55, 16
2, 577920, Note_on_c, 0, 62, 16
2, 577920, Note_on_c, 0, 67, 16
2, 577921, Control_c, 0, 64, 0
2, 577922, Control_c, 0, 64, 127
2, 580655, Note_on_c, 0, 55, 0
2, 580655, Note_on_c, 0, 62, 0
2, 580655, Note_on_c, 0, 67, 0
2, 580800, Note_on_c, 0, 57, 16
2, 580800, Note_on_c, 0, 64, 16
2, 580800, Note_on_c, 0, 69, 16
2, 580801, Control_c, 0, 64, 0
2, 580802, Control_c, 0, 64, 127
2, 583535, Note_on_c, 0, 57, 0
2, 583535, Note_on_c, 0, 64, 0
2, 583535, Note_on_c, 0, 69, 0
2, 583680, Note_on_c, 0, 55, 16
2, 583680, Note_on_c, 0, 62, 16
2, 583680, Note_on_c, 0, 67, 16
2, 583681, Control_c, 0, 64, 0
2, 583682, Control_c, 0, 64, 127
2, 586415, Note_on_c, 0, 55, 0
2, 586415, Note_on_c, 0, 62, 0
2, 586415, Note_on_c, 0, 67, 0
2, 586560, Note_on_c, 0, 57, 16
2, 586560, Note_on_c, 0, 64, 16
2, 586560, Note_on_c, 0, 69, 16
2, 586561, Control_c, 0, 64, 0
2, 586562, Control_c, 0, 64, 127
2, 589295, Note_on_c, 0, 57, 0
2, 589295, Note_on_c, 0, 64, 0
2, 589295, Note_on_c, 0, 69, 0
2, 589440, Note_on_c, 0, 55, 16
2, 589440, Note_on_c, 0, 62, 16
2, 589440, Note_on_c, 0, 67, 16
2, 589441, Control_c, 0, 64, 0
2, 589442, Control_c, 0, 64, 127
2, 592175, Note_on_c, 0, 55, 0
2, 592175, Note_on_c, 0, 62, 0
2, 592175, Note_on_c, 0, 67, 0
2, 592320, Note_on_c, 0, 33, 16
2, 592321, Control_c, 0, 64, 0
2, 592322, Control_c, 0, 64, 127
2, 592376, Note_on_c, 0, 33, 0
2, 592380, Note_on_c, 0, 36, 64
2, 592436, Note_on_c, 0, 36, 0
2, 592440, Note_on_c, 0, 40, 64
2, 592496, Note_on_c, 0, 40, 0
2, 592500, Note_on_c, 0, 45, 64
2, 592556, Note_on_c, 0, 45, 0
2, 592560, Note_on_c, 0, 48, 64
2, 592616, Note_on_c, 0, 48, 0
2, 592620, Note_on_c, 0, 52, 64
2, 592676, Note_on_c, 0, 52, 0
2, 592680, Note_on_c, 0, 57, 64
2, 592736, Note_on_c, 0, 57, 0
2, 592740, Note_on_c, 0, 60, 64
2, 592796, Note_on_c, 0, 60, 0
2, 592800, Note_on_c, 0, 64, 64
2, 592856, Note_on_c, 0, 64, 0
2, 593760, Note_on_c, 0, 33, 64
2, 595127, Note_on_c, 0, 33, 0
2, 595200, Control_c, 0, 64, 0
2, 595201, End_track
0, 0, End_of_file
